<svg width="400" height="383" viewBox="0 0 400 383" fill="none" xmlns="http://www.w3.org/2000/svg">
<path fill-rule="evenodd" clip-rule="evenodd" d="M186.396 1.81813C185.778 2.81838 185.272 3.86394 185.271 4.14253C185.27 4.42113 184.78 4.2119 184.183 3.67821C182.003 1.73086 179.603 4.80713 179.603 9.54769C179.603 12.356 180.077 13.4262 181.322 13.4262C183.085 13.4262 184.702 10.7706 184.702 7.87613C184.702 5.64738 184.865 5.27481 185.835 5.27481C186.796 5.27481 186.969 5.64739 186.969 7.71893C186.969 9.42462 187.183 10.0931 187.677 9.93145C188.585 9.6344 189.011 0 188.115 0C187.787 0 187.013 0.817878 186.396 1.81813ZM176.764 7.41237C175.404 9.61426 175.262 11.4503 176.487 10.986C177.154 10.7331 177.337 11.1409 177.337 12.8841C177.337 14.4846 177.574 15.1044 178.187 15.1044C178.876 15.1044 179.037 14.2032 179.037 10.3493C179.037 5.15789 178.547 4.52518 176.764 7.41237ZM182.893 7.92816C182.689 10.6643 181.303 11.636 181.303 9.04309C181.303 7.00287 181.804 5.59424 182.529 5.59424C182.825 5.59424 182.99 6.64484 182.893 7.92816ZM321.813 14.2345L306.798 22.815L306.639 29.3496L306.478 35.8843L301.398 42.1325C298.603 45.569 296.319 48.7605 296.322 49.2243C296.329 50.2777 303.319 54.2641 305.158 54.2641C306.499 54.2641 306.515 54.3318 306.515 59.8175V65.3704L309.559 67.09C311.232 68.0355 313.081 68.8047 313.666 68.7991C314.252 68.794 321.487 64.9447 329.745 60.246L344.759 51.7025L344.907 30.3711L345.056 9.04029L342.005 7.31727C340.328 6.3696 338.476 5.60767 337.891 5.62445C337.306 5.64067 330.07 9.51524 321.813 14.2345ZM172.053 9.09008C169.961 10.6005 169.519 17.9553 171.475 18.6965C171.931 18.8694 172.931 18.386 173.711 17.6163C174.979 16.3643 175.105 15.8407 174.955 12.4528C174.776 8.42828 174.083 7.62495 172.053 9.09008ZM168.149 11.608C167.673 12.1468 166.954 13.2158 166.55 13.9839C166.117 14.808 165.719 15.0949 165.58 14.6832C165.173 13.4776 162.693 13.8944 161.741 15.3288C161.109 16.282 160.899 17.7041 161.02 20.2237C161.168 23.3151 161.34 23.7968 162.354 23.94C164.097 24.1861 165.432 22.3193 165.818 19.0971C166.248 15.5179 167.705 15.0261 167.705 18.461C167.705 20.0772 167.941 20.6987 168.555 20.6987C169.247 20.6987 169.405 19.7661 169.405 15.6639C169.405 12.8947 169.317 10.6291 169.209 10.6291C169.102 10.6291 168.625 11.0699 168.149 11.608ZM173.929 12.6905C173.933 13.0553 173.668 14.0533 173.339 14.9092C172.857 16.159 172.634 16.3039 172.206 15.6449C171.715 14.8885 171.984 12.1132 172.659 10.9888C172.986 10.4433 173.916 11.6886 173.929 12.6905ZM157.998 18.1813C156.775 20.2277 156.062 20.6148 155.668 19.4467C155.289 18.3251 152.481 19.8769 151.83 21.5675C151.134 23.3744 151.121 27.9846 151.809 29.0582C152.229 29.7138 152.603 29.7412 153.795 29.2047C155.523 28.4271 156.374 26.5217 156.374 23.4264C156.374 21.9294 156.582 21.3191 157.004 21.5764C157.35 21.7879 157.856 21.6139 158.128 21.1899C158.446 20.6942 158.626 21.4847 158.632 23.4024C158.638 25.5371 158.842 26.3203 159.348 26.1548C160.266 25.8543 160.681 16.2233 159.776 16.2233C159.442 16.2233 158.642 17.1044 157.998 18.1813ZM164.306 18.3871C164.306 19.233 163.931 20.4139 163.474 21.0114C162.703 22.0178 162.641 21.9093 162.624 19.5334C162.614 18.1231 162.769 16.8085 162.968 16.6115C163.638 15.9503 164.306 16.8364 164.306 18.3871ZM184.954 17.3757C184.096 18.3127 183.852 19.398 183.852 22.2953C183.852 25.9159 183.892 26.0177 185.378 26.1872C187.551 26.435 188.778 23.9254 188.554 19.6951C188.409 16.9662 188.216 16.479 187.221 16.3385C186.579 16.2479 185.561 16.7139 184.954 17.3757ZM180.783 20.3451C179.378 22.5895 179.215 24.3221 180.453 23.8527C181.132 23.5959 181.303 24.0435 181.303 26.0776C181.303 27.8649 181.514 28.5547 182.011 28.3924C182.871 28.1111 183.35 18.461 182.504 18.461C182.206 18.461 181.431 19.3091 180.783 20.3451ZM186.741 23.2748C186.574 23.7039 186.175 24.0552 185.853 24.0552C185.024 24.0552 185.126 19.9457 185.977 19.0976C186.545 18.532 186.721 18.7983 186.865 20.4436C186.963 21.5714 186.907 22.8458 186.741 23.2748ZM258.64 20.6584C256.68 21.1227 84.2452 119.255 82.2407 121.047C79.4226 123.566 79.32 124.24 79.32 140.281C79.32 152.626 79.1716 155.5 78.4883 156.392C77.3665 157.856 77.3551 159.656 78.4702 159.233C79.1886 158.961 79.32 159.727 79.32 164.183C79.32 169.06 79.2141 169.559 77.9036 170.853C77.1246 171.622 76.4872 172.806 76.4872 173.483C76.4872 174.582 76.3806 174.629 75.4957 173.928C74.9506 173.495 73.009 172.387 71.1818 171.463C67.554 169.631 67.0214 168.973 67.924 167.442C68.4679 166.518 68.5223 166.541 68.5382 167.705C68.5631 169.552 70.0764 169.866 71.7002 168.36C72.911 167.237 73.0877 166.584 73.0877 163.237C73.0877 160.287 72.8849 159.324 72.209 159.068C71.0209 158.617 68.5552 160.985 68.5552 162.577C68.5552 163.275 68.3002 164.001 67.9886 164.191C67.677 164.381 67.422 164.018 67.422 163.385C67.422 162.606 67.0549 162.233 66.2889 162.233C64.8441 162.233 62.8894 164.144 62.8894 165.557C62.8894 166.562 62.775 166.583 61.3314 165.84C58.192 164.223 57.0764 164.681 38.5711 175.195C28.7308 180.786 20.234 185.734 19.6884 186.191C18.8617 186.883 18.6969 187.986 18.6969 192.817V198.613L20.6799 199.547C21.7705 200.061 22.6629 200.646 22.6629 200.849C22.6629 201.051 21.7705 201.691 20.6799 202.271L18.6969 203.325V209.334C18.6969 215.167 18.7382 215.364 20.1065 216.072L21.5161 216.801L18.958 219.866C7.06005 234.12 0 252.24 0 268.524C0 278.112 3.14901 291.006 7.66288 299.899C12.6334 309.692 19.0731 318.081 28.6861 327.287C53.4475 350.998 93.1121 368.885 139.66 377.33C176.952 384.097 220.553 384.298 257.796 377.877C334.904 364.582 391.126 325.89 399.122 280.615C400.247 274.251 400.247 262.796 399.122 256.432C397.064 244.775 391.307 232.565 382.594 221.375L380.076 218.14L388.313 209.893C393.172 205.028 396.909 200.798 397.426 199.579C399.348 195.036 397.85 190.454 393.756 188.353C391.192 187.037 387.481 187.408 383.556 189.372C381.942 190.179 380.745 190.634 380.895 190.382C381.045 190.13 382.257 188.162 383.589 186.008C387.256 180.079 388.668 176.567 388.668 173.379C388.668 169.847 387.039 168.153 382.809 167.286C377.202 166.137 371.698 168.881 366.794 175.27C362.631 180.695 359.181 188.8 358.162 195.552L357.79 198.012L354.107 195.468C348.056 191.287 339.013 186.084 330.736 182.02C326.452 179.917 322.946 178.031 322.946 177.829C322.946 177.628 327.92 174.642 334.001 171.194L345.056 164.926L344.907 143.616L344.759 122.307L342.209 120.776C340.807 119.934 338.997 119.226 338.188 119.202C337.004 119.166 314.74 131.256 307.79 135.708C306.592 136.477 306.515 136.905 306.515 142.876V149.227L301.393 155.548C298.576 159.024 296.346 162.248 296.436 162.711C296.646 163.787 302.261 167.112 304.674 167.588C306.307 167.911 306.515 168.162 306.515 169.806V171.66L299.858 169.496C296.197 168.306 291.416 166.822 289.235 166.199L285.269 165.066L285.415 101.297L285.562 37.5284L283.442 36.1063C282.277 35.3243 280.936 34.6876 280.463 34.6921C279.99 34.696 276.926 36.1992 273.654 38.0324L267.705 41.3644L267.422 32.0998C267.15 23.2004 267.086 22.7921 265.801 21.7666C265.065 21.1792 263.875 20.6987 263.156 20.6987C262.437 20.6987 261.509 20.5991 261.094 20.4772C260.679 20.3558 259.575 20.4369 258.64 20.6584ZM154.565 24.1515C154.361 26.8876 152.974 27.8593 152.974 25.2664C152.974 23.2262 153.475 21.8175 154.2 21.8175C154.497 21.8175 154.661 22.8681 154.565 24.1515ZM175.49 22.7965C173.426 25.0667 173.557 31.8872 175.663 31.8872C177.977 31.8872 179.037 29.9538 179.037 25.7335C179.037 21.9982 178.975 21.8175 177.708 21.8175C176.977 21.8175 175.979 22.2578 175.49 22.7965ZM147.01 23.7201C145.903 25.3883 145.32 28.9983 145.833 31.0145C146.1 32.0651 146.568 32.4466 147.59 32.4466C149.793 32.4466 150.794 30.3683 150.595 26.2085C150.443 23.0432 150.29 22.6377 149.186 22.4827C148.362 22.3669 147.633 22.782 147.01 23.7201ZM171.029 26.3058C170.018 28.0814 169.646 28.3768 169.265 27.7044C168.544 26.4333 167.366 26.67 166.023 28.3561C165.03 29.603 164.854 30.4847 164.991 33.5246C165.122 36.4398 165.352 37.2269 166.113 37.3701C167.716 37.6722 169.331 35.5016 169.734 32.5025C170.238 28.7561 171.671 28.1407 171.671 31.6718C171.671 33.4592 171.882 34.1489 172.379 33.9867C173.248 33.7025 173.718 24.0552 172.863 24.0552C172.559 24.0552 171.734 25.0678 171.029 26.3058ZM177.096 28.9049C176.921 29.3535 176.522 29.5639 176.208 29.372C175.417 28.8898 175.493 26.4675 176.345 24.9973C177.012 23.8466 177.064 23.9014 177.233 25.9321C177.332 27.1186 177.269 28.4562 177.096 28.9049ZM148.781 29.4285C148.614 29.8576 148.215 30.2089 147.893 30.2089C147.077 30.2089 147.162 27.0319 148.017 25.5567C148.684 24.406 148.735 24.4608 148.905 26.4915C149.003 27.6781 148.947 28.9994 148.781 29.4285ZM141.428 26.9922C139.455 30.0696 139.611 35.8031 141.668 35.8031C143.982 35.8031 145.042 33.8698 145.042 29.6495C145.042 25.8549 144.999 25.7335 143.639 25.7335C142.8 25.7335 141.911 26.2403 141.428 26.9922ZM137.059 30.3085C136.047 32.2665 135.765 32.493 135.319 31.707C134.556 30.3588 133.402 30.5485 132.053 32.2424C131.146 33.3797 130.878 34.5221 130.878 37.2442C130.878 39.1843 131.135 40.9291 131.45 41.121C133.36 42.2863 135.977 38.899 135.977 35.2616C135.977 32.6832 137.564 33.0362 137.785 35.6633C138.107 39.5116 139.091 37.5513 139.257 32.7297C139.442 27.3497 138.898 26.75 137.059 30.3085ZM143.101 32.8208C142.684 33.8938 141.643 33.2298 141.643 31.8905C141.643 31.3132 141.952 30.1323 142.33 29.2663L143.017 27.6915L143.217 29.8481C143.328 31.0346 143.275 32.3722 143.101 32.8208ZM161.572 31.6914C160.915 32.9557 160.358 33.4882 160.109 33.0899C159.417 31.984 157.639 32.3839 156.415 33.9207C155.533 35.0272 155.241 36.2037 155.241 38.6428C155.241 42.1425 155.699 42.8049 157.766 42.2925C159.276 41.9182 160.34 39.5104 160.34 36.4655C160.34 35.3836 160.507 34.6636 160.713 34.8661C160.918 35.0686 161.428 34.9534 161.846 34.611C162.463 34.1047 162.606 34.4818 162.606 36.6205C162.606 38.4772 162.815 39.1849 163.314 39.0215C163.785 38.8677 164.077 37.2571 164.187 34.22C164.323 30.4366 164.204 29.6495 163.492 29.6495C163.02 29.6495 162.156 30.568 161.572 31.6914ZM168.264 30.9082C168.252 32.7604 167.646 34.6843 167.072 34.6843C166.494 34.6843 166.386 30.5798 166.95 30.0226C167.697 29.2853 168.272 29.673 168.264 30.9082ZM186.396 32.5865C185.778 33.5861 185.272 34.6244 185.271 34.8924C185.27 35.1609 184.89 35.0703 184.426 34.6904C183.149 33.6432 180.968 34.46 180.209 36.2691C179.84 37.1491 179.616 39.2291 179.712 40.8917C179.859 43.4477 180.067 43.94 181.051 44.0793C182.883 44.3383 184.297 42.2958 184.575 38.9913C184.779 36.5567 185.009 36.0431 185.896 36.0431C186.785 36.0431 186.969 36.4616 186.969 38.4873C186.969 40.1929 187.183 40.8615 187.677 40.6998C188.585 40.4027 189.011 30.7683 188.115 30.7683C187.787 30.7683 187.013 31.5868 186.396 32.5865ZM127.67 35.477C126.868 37.1374 126.608 37.3035 125.694 36.7402C123.424 35.3399 121.268 38.3329 121.255 42.9028C121.246 46.0479 121.741 46.7119 123.731 46.2185C125.332 45.8219 126.345 43.714 126.345 40.7787C126.345 39.2744 126.553 38.6612 126.975 38.9186C127.322 39.13 127.828 38.9561 128.1 38.532C128.421 38.0308 128.598 38.7065 128.603 40.4648C128.609 42.3758 128.82 43.1008 129.32 42.9375C129.791 42.7836 130.083 41.173 130.192 38.1359C130.331 34.3028 130.215 33.5654 129.475 33.5654C128.99 33.5654 128.178 34.4258 127.67 35.477ZM134.277 35.4166C134.277 36.4347 133.903 37.7561 133.446 38.3536C132.675 39.36 132.612 39.2514 132.596 36.8756C132.586 35.4652 132.748 34.1433 132.956 33.9386C133.79 33.1145 134.277 33.66 134.277 35.4166ZM158.39 38.9477C157.864 41.0192 156.94 40.5135 156.94 38.1527C156.94 35.501 158.259 33.8245 158.543 36.1153C158.645 36.941 158.576 38.2154 158.39 38.9477ZM151.452 36.2311C149.93 37.2134 148.988 42.5923 149.919 44.9878C150.445 46.3427 152.19 46.0428 153.524 44.3685C154.501 43.1417 154.692 42.2382 154.557 39.4735C154.415 36.5679 154.229 36.0622 153.258 35.9396C152.634 35.8613 151.822 35.9922 151.452 36.2311ZM176.403 38.6254C175.465 40.0251 174.735 40.6472 174.489 40.255C173.828 39.1983 171.463 39.9093 170.689 41.3974C170.273 42.1979 170.025 44.2314 170.109 46.1525C170.235 49.0565 170.412 49.5314 171.419 49.6735C173.276 49.9359 174.665 47.8917 174.952 44.4748C175.105 42.655 175.437 41.5546 175.77 41.7582C176.078 41.9462 176.553 41.7532 176.825 41.3291C177.143 40.8335 177.323 41.6239 177.328 43.5417C177.335 45.6764 177.539 46.4596 178.045 46.294C178.939 46.0014 179.381 36.3626 178.5 36.3626C178.181 36.3626 177.237 37.3807 176.403 38.6254ZM183.003 38.532C183.003 39.7773 182.641 40.9974 182.153 41.3974C181.425 41.9943 181.303 41.8102 181.303 40.1129C181.303 39.0237 181.458 37.7343 181.647 37.2476C182.273 35.637 183.003 36.3284 183.003 38.532ZM146.736 39.859C145.376 42.0609 145.234 43.8969 146.459 43.4326C147.137 43.1758 147.309 43.6233 147.309 45.6574C147.309 47.4448 147.519 48.1345 148.017 47.9723C148.925 47.6752 149.351 38.0408 148.455 38.0408C148.127 38.0408 147.353 38.8593 146.736 39.859ZM152.865 40.3748C152.661 43.1109 151.275 44.0826 151.275 41.4897C151.275 39.4495 151.775 38.0408 152.501 38.0408C152.797 38.0408 152.961 39.0914 152.865 40.3748ZM118.46 40.4844C117.055 42.7288 116.892 44.4613 118.13 43.992C118.809 43.7352 118.98 44.1828 118.98 46.2168C118.98 48.0042 119.191 48.694 119.688 48.5317C120.548 48.2503 121.027 38.6003 120.181 38.6003C119.883 38.6003 119.108 39.4483 118.46 40.4844ZM124.396 42.8636C123.87 44.9352 122.946 44.4295 122.946 42.0687C122.946 39.417 124.265 37.7404 124.548 40.0313C124.651 40.857 124.582 42.1313 124.396 42.8636ZM142.822 42.1627C141.417 44.4071 141.255 46.1396 142.493 45.6703C143.171 45.4135 143.343 45.861 143.343 47.8951C143.343 49.6825 143.553 50.3722 144.051 50.21C144.91 49.9286 145.39 40.2785 144.544 40.2785C144.246 40.2785 143.471 41.1266 142.822 42.1627ZM114.504 42.8278C113.093 45.1886 112.943 46.6929 114.164 46.2297C114.843 45.9729 115.014 46.4205 115.014 48.4545C115.014 50.2419 115.225 50.9316 115.722 50.7694C116.573 50.4908 117.062 40.838 116.225 40.838C115.932 40.838 115.157 41.7336 114.504 42.8278ZM166.537 44.2611C165.657 45.9651 165.513 46.7287 165.983 47.1936C166.454 47.6579 166.758 47.6042 167.153 46.9871C167.527 46.4031 167.69 47.056 167.697 49.1577C167.704 51.7657 167.818 52.0712 168.555 51.467C169.775 50.4668 169.786 41.9568 168.566 41.9568C168.106 41.9568 167.192 42.994 166.537 44.2611ZM173.371 43.8079C173.371 44.8261 172.996 46.1474 172.539 46.7449C171.768 47.7513 171.706 47.6428 171.689 45.2669C171.679 43.8566 171.841 42.5347 172.049 42.3299C172.883 41.5059 173.371 42.0513 173.371 43.8079ZM111.836 43.5036C111.082 43.9959 109.348 47.2294 109.348 48.1424C109.348 48.4982 109.731 48.6447 110.198 48.4674C110.875 48.2112 111.048 48.6531 111.048 50.6452C111.048 52.4947 111.269 53.1453 111.898 53.1453C112.59 53.1453 112.748 52.2127 112.748 48.1105C112.748 45.3413 112.684 43.0796 112.606 43.084C112.528 43.0891 112.181 43.2776 111.836 43.5036ZM137.711 44.1604C137.07 44.7942 136.509 46.0054 136.467 46.8518C136.4 48.1709 136.355 48.2106 136.144 47.1315C135.781 45.2697 134.552 45.6003 133.157 47.9348C132.262 49.4329 131.799 49.7949 131.462 49.2578C130.71 48.0556 128.271 49.0178 127.518 50.8142C127.149 51.6941 126.925 53.7741 127.021 55.4367C127.168 57.9927 127.375 58.485 128.36 58.6243C130.13 58.8743 131.576 56.8615 131.881 53.7209C132.031 52.1848 132.361 51.0547 132.614 51.2097C132.867 51.3641 133.338 51.0446 133.659 50.4998C134.114 49.7289 134.247 50.1708 134.26 52.4924C134.281 56.0526 135.496 56.2775 136.038 52.8219C136.228 51.6153 136.419 51.2024 136.463 51.9039C136.581 53.7674 138.072 54.0583 139.711 52.5383C140.992 51.3495 141.106 50.8723 140.957 47.2987C140.774 42.9073 139.868 42.0312 137.711 44.1604ZM161.747 46.1111C160.424 47.4168 160.303 47.9035 160.455 51.3216C160.59 54.3335 160.815 55.1279 161.58 55.2717C164.001 55.7276 166.228 50.1686 165.038 46.642C164.33 44.5464 163.471 44.4082 161.747 46.1111ZM139.654 46.4227C140.1 47.1343 139.387 50.9076 138.808 50.9076C138.055 50.9076 137.691 49.2987 138.046 47.5449C138.389 45.856 139.022 45.4135 139.654 46.4227ZM105.379 47.2747C104.99 47.7384 104.475 48.9339 104.235 49.932C103.815 51.6768 103.796 51.6874 103.74 50.2083C103.66 48.0847 102.236 48.2341 101.076 50.488C99.8531 52.8611 100.007 52.7716 98.6027 51.9252C97.5058 51.2639 97.2356 51.3501 95.9982 52.757C94.8452 54.0678 94.6174 54.9153 94.6174 57.8987C94.6174 59.8634 94.8747 61.6278 95.1891 61.8197C97.1784 63.0331 99.7166 59.5731 99.7166 55.6476C99.7166 54.3162 99.9291 53.7685 100.347 54.023C100.693 54.2345 101.199 54.0605 101.471 53.6365C101.789 53.1414 101.969 53.9408 101.974 55.8708C101.982 58.4788 102.096 58.7843 102.833 58.1801C103.3 57.7969 103.699 56.6965 103.718 55.7343C103.752 54.1254 103.796 54.0862 104.267 55.2431C104.901 56.8006 106.16 56.8526 107.649 55.383C108.566 54.4773 108.782 53.5184 108.782 50.3482C108.782 46.5978 108.725 46.4322 107.434 46.4322C106.694 46.4322 105.769 46.8115 105.379 47.2747ZM186.158 48.3902C185.132 50.2715 184.136 50.9602 184.136 49.7887C184.136 48.8042 182.081 49.1902 180.991 50.3801C179.548 51.9537 179.102 58.1918 180.358 59.2212C181.024 59.7666 181.514 59.7862 182.427 59.304C183.912 58.5191 184.702 56.5499 184.702 53.6353C184.702 52.1383 184.91 51.528 185.332 51.7853C185.679 51.9968 186.184 51.8228 186.456 51.3988C186.775 50.902 186.954 51.6656 186.96 53.5475C186.967 55.9105 187.131 56.4056 187.818 56.1449C188.48 55.8937 188.668 54.785 188.668 51.1274C188.668 45.8493 187.964 45.0806 186.158 48.3902ZM156.996 49.5409C155.604 51.872 155.437 53.4054 156.626 52.9545C157.24 52.7218 157.488 53.199 157.617 54.8627C157.932 58.9012 158.919 57.1854 159.087 52.3095C159.181 49.5974 159.022 47.551 158.718 47.551C158.425 47.551 157.65 48.4467 156.996 49.5409ZM163.739 49.7149C163.739 50.5607 163.365 51.7417 162.907 52.3392C162.136 53.3456 162.074 53.237 162.058 50.8612C162.047 49.4509 162.203 48.1362 162.402 47.9393C163.072 47.278 163.739 48.1642 163.739 49.7149ZM107.415 51.6852C107.207 52.7744 106.8 53.8104 106.51 53.9878C105.657 54.508 105.266 51.8429 105.939 50.0953C106.806 47.8442 107.917 49.0413 107.415 51.6852ZM152.017 51.5878C149.844 53.9218 149.812 60.4575 151.972 60.8687C152.467 60.9627 153.415 60.4642 154.078 59.7605C155.113 58.664 155.262 57.9216 155.121 54.5606C154.937 50.158 154.098 49.3546 152.017 51.5878ZM124.004 52.8656C122.756 54.9545 122.379 55.1586 121.454 54.2457C119.784 52.5965 117.28 56.0862 117.28 60.0648C117.28 63.2602 117.713 64.3338 118.999 64.3338C120.807 64.3338 122.379 61.6804 122.379 58.631C122.379 56.7525 122.58 55.9983 123.009 56.2607C123.356 56.4722 123.862 56.2982 124.134 55.8742C124.452 55.3785 124.632 56.169 124.637 58.0867C124.643 60.2214 124.847 61.0046 125.354 60.839C126.272 60.5386 126.687 50.9076 125.782 50.9076C125.447 50.9076 124.647 51.7887 124.004 52.8656ZM130.311 53.3898C130.311 54.4107 129.929 55.5592 129.462 55.9424C128.734 56.5393 128.612 56.3553 128.612 54.658C128.612 53.5688 128.766 52.2804 128.955 51.796C129.497 50.3985 130.311 51.3551 130.311 53.3898ZM182.775 56.2809C182.608 56.7099 182.209 57.0613 181.887 57.0613C181.058 57.0613 181.16 52.9517 182.011 52.1036C182.579 51.5381 182.755 51.8043 182.899 53.4496C182.997 54.5774 182.941 55.8518 182.775 56.2809ZM176.478 53.9285C175.587 55.562 175.294 55.7405 174.404 55.1911C172.059 53.7455 169.889 56.9499 170.108 61.5366C170.246 64.4188 170.351 64.6247 171.781 64.7875C173.756 65.0123 175.067 62.6751 175.079 58.9074C175.085 56.9477 175.239 56.4487 175.646 57.0613C176.142 57.807 176.265 57.807 176.762 57.0613C177.169 56.4481 177.322 56.9382 177.328 58.8794C177.335 60.8648 177.552 61.5366 178.187 61.5366C178.876 61.5366 179.037 60.6354 179.037 56.7815C179.037 51.4452 178.288 50.61 176.478 53.9285ZM147.355 55.0294C145.95 57.2738 145.787 59.0064 147.025 58.537C147.704 58.2802 147.875 58.7278 147.875 60.7618C147.875 62.5492 148.086 63.239 148.583 63.0767C149.443 62.7954 149.922 53.1453 149.076 53.1453C148.778 53.1453 148.003 53.9934 147.355 55.0294ZM153.689 55.6705C153.535 58.1046 153.205 58.6316 152.359 57.7963C151.581 57.0282 152.32 53.0183 153.183 53.3215C153.542 53.4479 153.765 54.4818 153.689 55.6705ZM91.4095 56.1757C90.6078 57.8361 90.3478 58.0022 89.4339 57.4389C87.1631 56.0386 85.0073 59.0315 84.9942 63.6015C84.9852 66.7466 85.4809 67.4106 87.4701 66.9172C89.0826 66.5178 90.0849 64.4087 90.0849 61.4169C90.0849 60.1493 90.2526 59.2782 90.4577 59.4808C90.6628 59.6833 91.1727 59.568 91.5908 59.2257C92.2084 58.7194 92.3512 59.0964 92.3512 61.2351C92.3512 63.0918 92.5597 63.7995 93.0594 63.6362C93.5302 63.4823 93.8225 61.8717 93.9319 58.8346C94.0701 55.0015 93.9546 54.2641 93.2146 54.2641C92.7296 54.2641 91.9172 55.1245 91.4095 56.1757ZM98.0169 55.8965C98.0169 57.8629 97.5132 59.2989 96.8231 59.2989C96.2401 59.2989 96.1274 55.1973 96.6951 54.6373C97.5007 53.8412 98.0169 54.3329 98.0169 55.8965ZM143.336 57.2011C141.977 59.403 141.834 61.239 143.059 60.7747C143.738 60.5179 143.909 60.9655 143.909 62.9995C143.909 64.7869 144.12 65.4767 144.617 65.3144C145.526 65.0174 145.951 55.383 145.056 55.383C144.728 55.383 143.954 56.2014 143.336 57.2011ZM120.57 58.8357C120.366 61.5719 118.98 62.5436 118.98 59.9507C118.98 57.9105 119.481 56.5018 120.206 56.5018C120.502 56.5018 120.667 57.5524 120.57 58.8357ZM113.754 57.7443C111.701 59.2816 110.878 64.8037 112.396 66.8529C113.139 67.8565 113.249 67.8615 114.653 66.953C116.426 65.8062 116.838 64.4227 116.606 60.3932C116.419 57.1457 115.586 56.372 113.754 57.7443ZM173.143 61.8751C172.977 62.3042 172.577 62.6555 172.255 62.6555C171.426 62.6555 171.528 58.546 172.379 57.6979C172.947 57.1323 173.123 57.3986 173.267 59.0439C173.366 60.1717 173.31 61.446 173.143 61.8751ZM139.37 59.4388C138.011 61.6407 137.868 63.4767 139.093 63.0124C139.772 62.7556 139.943 63.2032 139.943 65.2372C139.943 67.0246 140.154 67.7144 140.651 67.5521C141.56 67.2551 141.985 57.6207 141.09 57.6207C140.762 57.6207 139.988 58.4391 139.37 59.4388ZM165.766 59.2514C164.632 60.4888 163.962 64.5855 164.53 66.8176C165.012 68.7135 166.714 68.6799 168.255 66.7454C169.232 65.5186 169.423 64.6152 169.288 61.8505C169.144 58.9197 168.964 58.4374 167.957 58.2953C167.317 58.2047 166.331 58.6355 165.766 59.2514ZM82.209 61.2888C80.7982 63.6496 80.6481 65.1539 81.8696 64.6907C82.5483 64.4339 82.7194 64.8814 82.7194 66.9155C82.7194 68.7029 82.9302 69.3926 83.4277 69.2304C84.2786 68.9518 84.767 59.2989 83.9308 59.2989C83.6379 59.2989 82.8628 60.1946 82.209 61.2888ZM88.1353 63.5623C87.609 65.6339 86.6854 65.1281 86.6854 62.7674C86.6854 60.1157 88.0044 58.4391 88.2877 60.73C88.3903 61.5557 88.3211 62.83 88.1353 63.5623ZM114.773 64.1486C114.598 64.5973 114.199 64.8076 113.885 64.6157C113.094 64.1335 113.17 61.7112 114.023 60.241C114.689 59.0903 114.741 59.1451 114.91 61.1758C115.009 62.3624 114.947 63.6999 114.773 64.1486ZM108.768 61.6765C107.579 63.5875 107.532 65.2697 108.674 65.033C109.106 64.9435 109.348 65.6948 109.348 67.1309C109.348 68.7471 109.585 69.3686 110.198 69.3686C110.887 69.3686 111.048 68.4673 111.048 64.6135C111.048 59.4198 110.561 58.7927 108.768 61.6765ZM135.404 61.6765C134.787 62.6762 134.281 63.7341 134.28 64.0261C134.279 64.3181 133.971 64.2554 133.598 63.8862C133.224 63.517 132.338 63.2149 131.629 63.2149C129.706 63.2149 128.519 65.9113 128.726 69.8128C128.871 72.5416 129.064 73.0289 130.059 73.1693C131.892 73.4283 133.306 71.3859 133.583 68.0813C133.788 65.6467 134.018 65.1332 134.904 65.1332C135.794 65.1332 135.977 65.5516 135.977 67.5773C135.977 69.283 136.191 69.9515 136.685 69.7898C137.594 69.4928 138.019 59.8584 137.124 59.8584C136.796 59.8584 136.022 60.6768 135.404 61.6765ZM161.467 62.2359C160.107 64.4378 159.965 66.2738 161.19 65.8095C161.868 65.5528 162.039 66.0003 162.039 68.0344C162.039 69.8217 162.25 70.5115 162.748 70.3493C163.656 70.0522 164.081 60.4178 163.186 60.4178C162.858 60.4178 162.084 61.2362 161.467 62.2359ZM167.705 62.3299C167.705 64.6666 167.193 66.1116 166.513 65.696C165.935 65.3435 165.834 62.6281 166.349 61.3028C166.946 59.7672 167.705 60.3423 167.705 62.3299ZM78.243 63.5265C76.8322 65.8873 76.6821 67.3916 77.9036 66.9284C78.5823 66.6716 78.7534 67.1191 78.7534 69.1532C78.7534 70.9406 78.9642 71.6303 79.4617 71.4681C80.3126 71.1895 80.801 61.5366 79.9648 61.5366C79.6719 61.5366 78.8968 62.4323 78.243 63.5265ZM105.181 63.3548C104.745 64.0473 104.109 65.117 103.769 65.7323C103.232 66.7052 103.148 66.7231 103.133 65.8722C103.106 64.3601 100.493 64.6163 99.418 66.2364C98.7857 67.1896 98.5761 68.6117 98.6968 71.1313C98.8446 74.2227 99.0174 74.7044 100.031 74.8476C101.759 75.0915 103.108 73.2348 103.484 70.0981C103.898 66.6453 105.382 66.148 105.382 69.462C105.382 70.9948 105.625 71.6063 106.232 71.6063C106.921 71.6063 107.082 70.705 107.082 66.8512C107.082 61.9685 106.607 61.0941 105.181 63.3548ZM322.946 70.2816C315 74.7821 308.052 78.848 307.507 79.3174C306.674 80.0346 306.515 81.1652 306.515 86.3829V92.5942L301.416 98.8648C298.612 102.314 296.317 105.503 296.317 105.952C296.317 106.92 301.959 110.229 304.472 110.735L306.232 111.089L306.394 116.534L306.557 121.978L309.227 123.634C310.696 124.545 312.601 125.295 313.461 125.3C314.819 125.31 338.34 112.514 343.484 108.967L345.042 107.893V87.0391C345.042 67.8794 344.962 66.1155 344.051 65.3245C342.97 64.3863 338.561 62.0955 337.841 62.0972C337.594 62.0977 330.892 65.781 322.946 70.2816ZM157.112 63.9153C155.651 64.576 154.674 67.0022 154.674 69.9655C154.674 72.7738 155.148 73.844 156.393 73.844C158.322 73.844 159.773 71.199 159.773 67.6836C159.773 64.0541 159.054 63.0359 157.112 63.9153ZM75.3013 64.463C74.8044 64.9547 74.0583 66.1681 73.6424 67.1594C72.9342 68.8472 72.8583 68.8858 72.439 67.7664C71.8549 66.2073 71.0872 66.2582 69.3535 67.97C68.0792 69.2282 67.9535 69.7473 68.1042 73.1391C68.2384 76.151 68.4639 76.9454 69.2288 77.0892C70.8322 77.3913 72.4475 75.2207 72.8503 72.2216C73.3495 68.5048 74.7874 67.8537 74.7874 71.3439C74.7874 72.719 75.0503 73.844 75.3716 73.844C76.3319 73.844 76.5466 72.578 76.371 67.9577C76.218 63.9399 76.1274 63.644 75.3013 64.463ZM125.718 67.2707C125.019 68.2704 124.37 69.1879 124.276 69.3087C124.183 69.429 123.719 69.2108 123.246 68.8226C122.546 68.2492 122.125 68.2855 120.992 69.0184C119.425 70.0326 118.81 72.3111 119.083 76.0945C119.229 78.1241 119.484 78.6304 120.428 78.7636C122.285 79.0259 123.674 76.9818 123.961 73.5648C124.114 71.745 124.445 70.6446 124.778 70.8483C125.087 71.0362 125.561 70.8432 125.833 70.4192C126.152 69.9235 126.331 70.714 126.337 72.6317C126.343 74.7665 126.547 75.5497 127.054 75.3841C127.92 75.1004 128.392 65.4526 127.539 65.4526C127.237 65.4526 126.417 66.2711 125.718 67.2707ZM132.011 67.6221C132.011 68.8673 131.649 70.0874 131.161 70.4874C130.433 71.0843 130.311 70.9003 130.311 69.203C130.311 68.1138 130.466 66.8243 130.655 66.3376C131.281 64.727 132.011 65.4185 132.011 67.6221ZM157.964 68.346C157.76 71.0821 156.374 72.0538 156.374 69.4609C156.374 67.4207 156.875 66.012 157.6 66.012C157.896 66.012 158.06 67.0626 157.964 68.346ZM151.148 67.2545C149.833 68.2391 149.008 70.6597 149.008 73.5324C149.008 76.6668 150.126 77.7062 152.113 76.4207C153.82 75.3164 154.229 73.9005 153.999 69.9034C153.812 66.6559 152.979 65.8822 151.148 67.2545ZM95.6752 69.0889C94.409 71.2085 94.0548 71.3864 93.0599 70.4041C92.5699 69.9202 92.0588 69.9884 90.9903 70.6799C89.3954 71.7114 88.7801 73.9659 89.0543 77.7728C89.201 79.8024 89.456 80.3087 90.3993 80.4418C92.2565 80.7042 93.6458 78.6601 93.9325 75.2431C94.0854 73.4233 94.4169 72.3229 94.75 72.5265C95.0582 72.7145 95.533 72.5215 95.805 72.0975C96.1234 71.6018 96.303 72.3923 96.3087 74.31C96.3149 76.4447 96.5189 77.2279 97.0254 77.0623C97.9432 76.7619 98.3585 67.1309 97.4531 67.1309C97.1189 67.1309 96.3189 68.012 95.6752 69.0889ZM101.983 69.2947C101.983 70.1406 101.608 71.3215 101.151 71.919C100.38 72.9254 100.318 72.8169 100.301 70.441C100.291 69.0307 100.446 67.716 100.645 67.5191C101.315 66.8579 101.983 67.744 101.983 69.2947ZM152.18 73.623C152.013 74.0521 151.614 74.4034 151.292 74.4034C150.477 74.4034 150.561 71.2264 151.416 69.7512C152.083 68.6005 152.135 68.6553 152.304 70.686C152.403 71.8726 152.347 73.1939 152.18 73.623ZM71.154 72.3839C70.5959 75.3192 69.6883 75.4355 69.6883 72.5718C69.6883 71.2203 69.8628 69.9425 70.0753 69.7322C70.8843 68.9333 71.5149 70.4841 71.154 72.3839ZM145.997 71.3456C145.472 72.4331 145.042 73.6918 145.042 74.1427C145.042 75.1435 145.973 75.2285 146.367 74.2635C146.524 73.8792 146.673 74.7598 146.697 76.2215C146.731 78.1907 146.962 78.8788 147.592 78.8788C148.281 78.8788 148.442 77.9776 148.442 74.1237C148.442 68.7941 147.659 67.9046 145.997 71.3456ZM63.4974 71.4021C62.592 72.5377 62.3229 73.6823 62.3229 76.3905C62.3229 80.1621 62.8135 80.7971 64.9858 79.836C66.954 78.9644 68.1846 73.6594 67.0781 70.813C66.5552 69.467 64.8096 69.7546 63.4974 71.4021ZM122.379 72.898C122.379 73.9161 122.005 75.2375 121.548 75.835C120.777 76.8414 120.714 76.7328 120.698 74.357C120.688 72.9467 120.85 71.6247 121.058 71.42C121.892 70.596 122.379 71.1414 122.379 72.898ZM114.489 73.0804C113.582 74.2177 113.314 75.36 113.314 78.0822C113.314 81.8253 113.74 82.5324 115.637 81.9377C117.149 81.4644 118.413 78.4732 118.413 75.3723C118.413 71.5391 116.573 70.4639 114.489 73.0804ZM140.73 73.5816C139.397 75.5899 139.034 80.5034 140.113 81.9243C140.901 82.962 141.007 82.9682 142.415 82.0574C144.188 80.9101 144.599 79.5277 144.368 75.4926C144.216 72.8488 144.028 72.4225 142.953 72.2714C142.118 72.154 141.394 72.5802 140.73 73.5816ZM59.1149 74.6367C58.3132 76.2971 58.0532 76.4632 57.1393 75.8999C54.8685 74.4996 52.7127 77.4925 52.6997 82.0625C52.6906 85.2076 53.1863 85.8716 55.1756 85.3782C56.7773 84.9815 57.7903 82.8736 57.7903 79.9383C57.7903 78.434 57.9982 77.8209 58.4203 78.0783C58.7665 78.2897 59.2724 78.1157 59.5444 77.6917C59.8662 77.1905 60.0424 77.8662 60.0481 79.6245C60.0543 81.5355 60.2645 82.2605 60.7648 82.0972C61.2356 81.9433 61.528 80.3327 61.6373 77.2956C61.7756 73.4624 61.66 72.7251 60.92 72.7251C60.4351 72.7251 59.6226 73.5855 59.1149 74.6367ZM65.7223 74.3575C65.7223 76.3239 65.2186 77.7599 64.5285 77.7599C63.9455 77.7599 63.8328 73.6582 64.4005 73.0983C65.2062 72.3022 65.7223 72.7939 65.7223 74.3575ZM85.9404 74.7021C85.4152 75.7896 84.9857 77.0484 84.9857 77.4992C84.9857 78.5001 85.916 78.5851 86.3104 77.6201C86.4673 77.2358 86.6163 78.1163 86.6407 79.5781C86.6741 81.5472 86.9053 82.2353 87.5353 82.2353C88.2243 82.2353 88.3852 81.3341 88.3852 77.4802C88.3852 72.1506 87.6022 71.2611 85.9404 74.7021ZM92.3512 74.8946C92.3512 76.1399 91.9891 77.36 91.5013 77.7599C90.7676 78.3613 90.6514 78.1157 90.6514 75.9636C90.6514 74.5925 90.8214 73.303 91.0294 73.0983C91.8979 72.2401 92.3512 72.8555 92.3512 74.8946ZM116.714 76.2545C116.714 77.2727 116.339 78.594 115.882 79.1915C115.111 80.1979 115.049 80.0894 115.032 77.7135C115.022 76.3032 115.184 74.9813 115.392 74.7765C116.226 73.9525 116.714 74.4979 116.714 76.2545ZM137.947 74.8314C136.013 76.2025 134.575 80.434 136.26 79.7951C136.938 79.5389 137.11 79.9809 137.11 81.973C137.11 83.8224 137.331 84.473 137.96 84.473C138.653 84.473 138.81 83.5405 138.81 79.4382C138.81 76.6691 138.746 74.4073 138.668 74.4118C138.591 74.4168 138.266 74.6053 137.947 74.8314ZM142.535 79.253C142.36 79.7017 141.961 79.912 141.647 79.7202C140.856 79.2379 140.932 76.8156 141.785 75.3455C142.451 74.1947 142.503 74.2496 142.672 76.2803C142.771 77.4668 142.709 78.8044 142.535 79.253ZM82.1466 76.7809C80.7869 78.9828 80.6447 80.8189 81.8696 80.3546C82.537 80.1017 82.7194 80.5095 82.7194 82.2527C82.7194 83.8532 82.9568 84.473 83.5693 84.473C84.2583 84.473 84.4192 83.5718 84.4192 79.7179C84.4192 74.5265 83.9296 73.8938 82.1466 76.7809ZM108.823 76.4369C107.918 77.5725 107.649 78.7171 107.649 81.4253C107.649 85.1969 108.139 85.8319 110.311 84.8708C112.28 83.9992 113.51 78.6942 112.404 75.8478C111.881 74.5019 110.135 74.7894 108.823 76.4369ZM78.1806 79.0186C76.8209 81.2205 76.6787 83.0566 77.9036 82.5922C78.5823 82.3355 78.7534 82.783 78.7534 84.8171C78.7534 86.6044 78.9642 87.2942 79.4617 87.132C80.3699 86.8349 80.7954 77.2005 79.9002 77.2005C79.5721 77.2005 78.7982 78.019 78.1806 79.0186ZM49.9048 79.6441C48.4997 81.8885 48.3371 83.621 49.575 83.1517C50.2538 82.8949 50.4249 83.3424 50.4249 85.3765C50.4249 87.1639 50.6356 87.8536 51.1331 87.6914C51.9926 87.41 52.4719 77.7599 51.626 77.7599C51.328 77.7599 50.5529 78.608 49.9048 79.6441ZM55.8407 82.0233C55.3144 84.0949 54.3909 83.5891 54.3909 81.2284C54.3909 78.5767 55.7098 76.9001 55.9931 79.1909C56.0957 80.0167 56.0266 81.291 55.8407 82.0233ZM104.046 80.1375C103.172 81.5685 102.585 82.1251 102.572 81.5361C102.542 80.1968 100.566 80.2774 99.15 81.6759C98.2361 82.5783 98.0169 83.5405 98.0169 86.6509C98.0169 91.0312 98.7359 91.8295 101.057 90.0259C102.129 89.1934 102.564 88.1893 102.858 85.8682C103.071 84.1849 103.455 82.9357 103.712 83.0924C103.969 83.2496 104.442 82.9318 104.764 82.3869C105.219 81.616 105.352 82.058 105.365 84.3796C105.377 86.5116 105.585 87.2976 106.091 87.132C106.561 86.9781 106.854 85.3675 106.963 82.3304C107.158 76.9275 106.368 76.334 104.046 80.1375ZM111.048 79.3923C111.048 81.3587 110.544 82.7948 109.854 82.7948C109.271 82.7948 109.159 78.6931 109.726 78.1331C110.532 77.337 111.048 77.8288 111.048 79.3923ZM131.275 78.7552C130.172 79.9585 129.432 84.2823 129.968 86.3913C130.236 87.448 130.702 87.8296 131.726 87.8296C133.929 87.8296 134.93 85.7513 134.731 81.5914C134.583 78.5001 134.41 78.0184 133.396 77.8752C132.756 77.7846 131.801 78.1806 131.275 78.7552ZM73.1223 81.0824C72.4804 81.7162 71.9251 82.9279 71.8889 83.7738C71.839 84.9362 71.7569 85.0392 71.5506 84.1933C71.0311 82.0614 70.3472 82.1212 68.796 84.4361C67.8345 85.871 67.0855 86.5188 66.8407 86.1278C66.179 85.0711 63.8141 85.7821 63.0407 87.2702C62.6243 88.0707 62.3761 90.1042 62.46 92.0253C62.5863 94.9292 62.7631 95.4042 63.7705 95.5463C65.5438 95.7969 66.9869 93.7835 67.2934 90.6323C67.4662 88.8567 67.8339 87.8296 68.2968 87.8296C68.6985 87.8296 69.1557 87.5152 69.3132 87.1303C69.4702 86.746 69.6192 87.7736 69.6435 89.4144C69.6968 92.9718 70.9076 93.1922 71.4492 89.7439C71.639 88.5372 71.8299 88.0892 71.8741 88.7487C71.9971 90.5825 73.5251 90.8052 75.128 89.2225C76.3959 87.9706 76.5217 87.4469 76.3716 84.0591C76.184 79.8365 75.2503 78.9812 73.1223 81.0824ZM126.968 81.9875C125.557 84.3483 125.407 85.8526 126.629 85.3894C127.307 85.1326 127.479 85.5801 127.479 87.6142C127.479 89.4016 127.689 90.0913 128.187 89.9291C129.038 89.6505 129.526 79.9976 128.69 79.9976C128.397 79.9976 127.622 80.8933 126.968 81.9875ZM132.903 84.8473C132.728 85.2959 132.329 85.5063 132.015 85.3144C131.225 84.8322 131.301 82.4099 132.153 80.9397C132.82 79.789 132.871 79.8438 133.041 81.8745C133.139 83.061 133.077 84.3986 132.903 84.8473ZM45.1541 81.3492C44.5926 81.7744 43.8407 83.0918 43.4844 84.2767C42.9558 86.0321 42.7965 86.1977 42.6249 85.1723C42.3586 83.5813 40.6322 83.5131 39.0934 85.0325C38.1796 85.9348 37.9603 86.897 37.9603 90.0074C37.9603 92.8426 38.1756 93.9452 38.7739 94.1718C40.0073 94.6389 42.4929 92.4292 42.4929 90.8656C42.4929 89.3607 43.3223 89.039 43.8311 90.347C44.3042 91.5648 45.5127 91.3774 46.954 89.8625C48.0475 88.7135 48.1914 88.0304 48.0447 84.6934C47.8634 80.5839 47.1926 79.8074 45.1541 81.3492ZM75.3455 84.2968C75.35 84.6616 75.0843 85.6596 74.7551 86.5155C74.2736 87.7652 74.0509 87.9101 73.6226 87.2511C73.1314 86.4948 73.4005 83.7195 74.0753 82.595C74.4022 82.0496 75.3325 83.2949 75.3455 84.2968ZM95.6276 83.7738C94.2061 85.3832 93.3761 87.3037 93.72 88.1887C93.8973 88.6452 94.2996 88.8628 94.6135 88.6709C94.9608 88.4595 95.184 89.2119 95.184 90.5937C95.184 92.239 95.418 92.8644 96.0339 92.8644C96.7262 92.8644 96.8837 91.9318 96.8837 87.8296C96.8837 85.0604 96.7959 82.7948 96.6883 82.7948C96.5806 82.7948 96.1036 83.235 95.6276 83.7738ZM101.416 84.9586C101.416 85.8045 101.042 86.9854 100.585 87.5829C99.8135 88.5893 99.7511 88.4807 99.7347 86.1049C99.7245 84.6946 99.8798 83.3799 100.079 83.183C100.749 82.5218 101.416 83.4079 101.416 84.9586ZM121.974 84.1553C120.578 85.3401 120.419 85.847 120.408 89.1218C120.402 91.1274 120.576 92.9461 120.795 93.1631C121.57 93.9312 123.894 92.8722 124.549 91.453C124.914 90.6619 125.212 88.5428 125.212 86.7443C125.212 82.8697 124.324 82.1593 121.974 84.1553ZM46.4589 85.8716C46.4589 87.7362 46.2385 88.389 45.609 88.389C44.7167 88.389 44.5138 86.8332 45.1161 84.6129C45.6917 82.4927 46.4589 83.2121 46.4589 85.8716ZM117.327 87.476C115.922 89.7204 115.759 91.453 116.997 90.9836C117.676 90.7268 117.847 91.1744 117.847 93.2084C117.847 94.9958 118.058 95.6856 118.555 95.5233C119.415 95.2419 119.894 85.5919 119.048 85.5919C118.75 85.5919 117.975 86.44 117.327 87.476ZM123.271 90.4415C123.097 90.8902 122.697 91.1005 122.383 90.9086C121.593 90.4264 121.669 88.0041 122.521 86.534C123.188 85.3832 123.24 85.438 123.409 87.4687C123.507 88.6553 123.445 89.9929 123.271 90.4415ZM89.3172 87.41C88.2333 89.128 87.7336 92.1282 88.1585 94.3642C88.4384 95.8366 88.7846 96.2209 89.8327 96.2209C91.9387 96.2209 92.9177 94.2288 92.9177 89.9425C92.9177 86.2811 92.8696 86.1513 91.5143 86.1513C90.6718 86.1513 89.7937 86.6542 89.3172 87.41ZM41.0991 87.3065C41.6073 88.1188 40.8736 91.7455 40.2011 91.7455C39.9036 91.7455 39.66 90.6127 39.66 89.2281C39.66 86.8383 40.2844 86.0047 41.0991 87.3065ZM33.3552 88.1943C32.8572 88.7862 32.5779 90.5456 32.5779 93.0893C32.5779 96.669 32.6923 97.0763 33.7422 97.2245C35.4323 97.4634 36.9189 95.5194 37.2475 92.6406C37.664 88.9915 37.094 87.2702 35.4691 87.2702C34.7342 87.2702 33.783 87.6858 33.3552 88.1943ZM59.4056 89.8027C58.4521 91.3987 58.0736 91.6504 57.4254 91.119C56.2883 90.1875 53.954 91.3355 53.2464 93.1737C52.6283 94.7793 52.5042 99.0046 53.0351 100.371C53.5302 101.646 54.8011 101.461 56.3994 99.8824C57.5127 98.7837 57.7903 97.94 57.7903 95.6537C57.7903 93.7013 57.9897 92.9198 58.4203 93.1827C58.7665 93.3942 59.2724 93.2202 59.5444 92.7961C59.8628 92.3005 60.0424 93.091 60.0481 95.0087C60.0543 97.1434 60.2583 97.9266 60.7648 97.761C61.6826 97.4606 62.0979 87.8296 61.1926 87.8296C60.8583 87.8296 60.0543 88.7174 59.4056 89.8027ZM65.7223 89.6807C65.7223 90.6989 65.3478 92.0202 64.8906 92.6177C64.1195 93.6241 64.0571 93.5156 64.0407 91.1397C64.0305 89.7294 64.1926 88.4075 64.4005 88.2027C65.2345 87.3787 65.7223 87.9241 65.7223 89.6807ZM86.3398 88.817C85.2418 89.5341 83.7568 92.9293 84.1251 93.8781C84.4322 94.6674 84.5517 94.6792 85.0073 93.9676C85.3767 93.3914 85.5376 93.9424 85.5438 95.8014C85.55 97.7868 85.767 98.4586 86.4022 98.4586C87.0945 98.4586 87.252 97.5261 87.252 93.4238C87.252 90.6547 87.188 88.3929 87.1104 88.3974C87.0328 88.4024 86.6854 88.591 86.3398 88.817ZM90.7189 93.581C89.7789 94.5091 89.3693 91.6202 90.1778 89.7657L90.9002 88.1093L91.0951 90.5629C91.2027 91.9123 91.0333 93.2705 90.7189 93.581ZM112.281 89.6818C109.944 92.1388 110.063 99.0181 112.443 99.0181C112.877 99.0181 113.771 98.3417 114.43 97.5143C115.423 96.2674 115.599 95.3857 115.462 92.3458C115.275 88.1753 114.407 87.4486 112.281 89.6818ZM35.694 91.6717C35.694 92.5175 35.3195 93.6985 34.8623 94.296C34.0912 95.3024 34.0289 95.1938 34.0124 92.818C34.0022 91.4077 34.1575 90.093 34.3563 89.8961C35.0266 89.2348 35.694 90.121 35.694 91.6717ZM113.881 93.3908C113.881 95.6106 113.149 96.7557 112.447 95.6341C111.935 94.8157 112.663 91.1861 113.34 91.1861C113.637 91.1861 113.881 92.178 113.881 93.3908ZM79.7614 92.6999C78.5852 93.9944 77.9591 97.365 78.4328 99.8572C78.737 101.457 79.0566 101.815 80.1823 101.815C82.3699 101.815 83.3716 99.7252 83.1727 95.577C83.0248 92.4857 82.852 92.004 81.8384 91.8608C81.1976 91.7702 80.2634 92.1478 79.7614 92.6999ZM106.612 92.7693C104.577 94.7782 104.51 102.375 106.527 102.375C106.86 102.375 107.771 101.745 108.55 100.976C109.824 99.7179 109.95 99.1987 109.799 95.807C109.613 91.6197 108.679 90.7285 106.612 92.7693ZM55.9812 95.7577C55.7773 98.4939 54.3909 99.4656 54.3909 96.8727C54.3909 94.8324 54.8917 93.4238 55.6169 93.4238C55.9132 93.4238 56.0776 94.4744 55.9812 95.7577ZM48.3784 95.3991C47.0458 97.4075 46.6827 102.321 47.7614 103.742C48.5495 104.78 48.656 104.786 50.064 103.875C51.8373 102.728 52.2481 101.345 52.0164 97.3101C51.8645 94.6663 51.677 94.24 50.6022 94.089C49.7665 93.9715 49.043 94.3978 48.3784 95.3991ZM81.3449 98.8329C81.1704 99.2815 80.771 99.4919 80.4571 99.3C79.6668 98.8178 79.7427 96.3955 80.5948 94.9253C81.2617 93.7746 81.3132 93.8294 81.4826 95.8601C81.5812 97.0466 81.5189 98.3842 81.3449 98.8329ZM107.974 98.8329C107.556 99.9059 106.515 99.2418 106.515 97.9026C106.515 97.3252 106.825 96.1443 107.202 95.2783L107.889 93.7035L108.09 95.8601C108.2 97.0466 108.148 98.3842 107.974 98.8329ZM73.9183 96.2416C72.7467 97.5205 72.1144 103.251 73.0022 104.548C73.7925 105.703 76.1767 104.891 76.9568 103.201C77.3217 102.41 77.6203 100.264 77.6203 98.4323C77.6203 95.3119 77.5364 95.1021 76.2917 95.1021C75.5608 95.1021 74.4928 95.6151 73.9183 96.2416ZM100.649 96.3608C99.5648 98.0788 99.065 101.079 99.49 103.315C99.7699 104.787 100.116 105.172 101.164 105.172C103.27 105.172 104.249 103.18 104.249 98.8933C104.249 95.2319 104.201 95.1021 102.846 95.1021C102.003 95.1021 101.125 95.605 100.649 96.3608ZM50.1835 101.071C50.009 101.519 49.6096 101.73 49.2957 101.538C48.5053 101.055 48.5812 98.6332 49.4334 97.163C50.1002 96.0123 50.1518 96.0671 50.3212 98.0978C50.4198 99.2843 50.3574 100.622 50.1835 101.071ZM42.8084 98.5834C42.3235 99.267 41.9263 100.259 41.9263 100.788C41.9263 102.202 40.9699 102.542 40.6271 101.25C40.2181 99.7033 38.8294 99.8605 37.4351 101.611C35.9801 103.437 35.7082 110.032 37.0662 110.547C38.5189 111.097 40.1756 109.671 40.8832 107.26C41.4283 105.403 41.6237 105.163 41.7915 106.151C41.9427 107.044 42.3965 107.409 43.3501 107.409C45.481 107.409 46.4589 105.435 46.4589 101.131C46.4589 97.4836 46.4062 97.3398 45.0747 97.3398C44.2861 97.3398 43.3104 97.8752 42.8084 98.5834ZM75.6792 102.189C75.5047 102.638 75.1053 102.848 74.7914 102.657C74.001 102.174 74.077 99.752 74.9291 98.2819C75.5959 97.1311 75.6475 97.1859 75.8169 99.2166C75.9155 100.403 75.8532 101.741 75.6792 102.189ZM97.6713 97.7677C96.9421 98.2438 95.184 101.481 95.184 102.347C95.184 102.67 95.5665 102.934 96.0339 102.934C96.6475 102.934 96.8837 103.556 96.8837 105.172C96.8837 106.788 97.12 107.409 97.7336 107.409C98.4259 107.409 98.5834 106.477 98.5834 102.375C98.5834 99.6055 98.5194 97.3437 98.4418 97.3482C98.3642 97.3532 98.0169 97.5417 97.6713 97.7677ZM103.108 99.4013C103.112 99.766 102.846 100.764 102.517 101.62C102.036 102.87 101.813 103.015 101.385 102.356C100.893 101.599 101.162 98.8239 101.837 97.6995C102.164 97.1541 103.094 98.3993 103.108 99.4013ZM68.6214 98.9526C66.5427 101.005 66.2441 107.04 68.1648 108.192C69.009 108.699 69.439 108.525 70.5971 107.21C71.8396 105.799 71.984 105.18 71.8373 101.901C71.652 97.7582 70.7081 96.8922 68.6214 98.9526ZM44.9665 102.89C44.7716 103.85 44.3982 104.767 44.1359 104.927C43.3133 105.428 42.9671 102.687 43.6345 100.954C44.1739 99.5529 44.3529 99.4399 44.796 100.222C45.0838 100.73 45.1608 101.931 44.9665 102.89ZM64.0164 102.514C62.8333 104.43 62.5342 106.291 63.409 106.291C63.6945 106.291 64.0566 105.976 64.2141 105.591C64.371 105.207 64.52 106.206 64.5444 107.812C64.5807 110.166 64.7535 110.669 65.439 110.409C66.1008 110.158 66.2889 109.049 66.2889 105.392C66.2889 100.26 65.7948 99.6345 64.0164 102.514ZM70.1455 103.03C69.9416 105.766 68.5552 106.738 68.5552 104.145C68.5552 102.105 69.056 100.696 69.7812 100.696C70.0775 100.696 70.2418 101.747 70.1455 103.03ZM90.967 101.94C90.3795 102.768 90.0849 104.448 90.0849 106.975C90.0849 110.636 90.133 110.766 91.4883 110.766C93.8747 110.766 95.6333 106.412 94.8361 102.476C94.5557 101.09 94.1852 100.696 93.1625 100.696C92.4401 100.696 91.452 101.256 90.967 101.94ZM32.8515 105.191C31.613 107.587 31.7994 109.071 33.1949 107.927C33.864 107.379 33.9943 107.702 33.9943 109.905C33.9943 111.762 34.2028 112.469 34.7025 112.306C35.1733 112.152 35.4657 110.542 35.575 107.505C35.7116 103.717 35.5926 102.934 34.8787 102.934C34.4051 102.934 33.4923 103.949 32.8515 105.191ZM39.66 105.098C39.66 105.944 39.2855 107.125 38.8283 107.722C38.0572 108.729 37.9949 108.62 37.9784 106.244C37.9682 104.834 38.1235 103.519 38.3223 103.322C38.9926 102.661 39.66 103.547 39.66 105.098ZM86.6968 105.149C85.3353 107.785 85.2441 108.765 86.4022 108.326C87.0809 108.069 87.252 108.517 87.252 110.551C87.252 112.338 87.4628 113.028 87.9602 112.865C88.8509 112.574 89.2962 102.934 88.4186 102.934C88.1013 102.934 87.3268 103.931 86.6968 105.149ZM93.1976 106.306C92.9959 107.213 92.5954 108.1 92.3075 108.275C91.7058 108.642 91.5823 103.88 92.1784 103.292C92.8871 102.591 93.5733 104.618 93.1976 106.306ZM58.9059 104.514C57.8062 105.393 57.5353 106.212 57.3727 109.153C57.1291 113.559 57.6787 114.608 59.7438 113.678C61.6571 112.817 62.4124 110.736 62.2062 106.894C62.0175 103.367 61.1353 102.732 58.9059 104.514ZM60.3954 110.545C60.2288 110.974 59.8294 111.325 59.5076 111.325C58.6923 111.325 58.7767 108.148 59.6317 106.673C60.2985 105.522 60.3501 105.577 60.5195 107.608C60.6181 108.795 60.562 110.116 60.3954 110.545ZM82.0452 106.814C81.0543 107.583 80.5087 108.679 80.2736 110.372C79.5982 115.236 81.3846 117.678 83.8418 115.252C84.8696 114.237 85.0112 113.524 84.8684 110.087C84.7761 107.87 84.4305 106.012 84.09 105.901C83.7534 105.791 82.8333 106.202 82.0452 106.814ZM54.1472 108.249C53.1212 110.13 52.1246 110.819 52.1246 109.647C52.1246 108.663 50.0702 109.049 48.9795 110.238C48.2515 111.033 47.8657 112.461 47.7342 114.854C47.515 118.839 48.0373 120.008 49.7937 119.457C51.4215 118.947 52.6912 116.362 52.6912 113.558C52.6912 112.014 52.898 111.386 53.3212 111.644C53.6674 111.855 54.1733 111.681 54.4453 111.257C54.7676 110.755 54.9433 111.412 54.9489 113.144C54.9552 115.129 55.1722 115.801 55.8073 115.801C56.4962 115.801 56.6572 114.9 56.6572 111.046C56.6572 105.707 55.9586 104.928 54.1472 108.249ZM77.1098 110.518C76.4554 111.613 75.9042 112.808 75.8849 113.175C75.8651 113.542 75.618 113.277 75.3364 112.584C74.6781 110.967 73.6061 110.988 72.026 112.649C70.9325 113.798 70.7886 114.481 70.9353 117.818C71.0713 120.9 71.2945 121.699 72.0617 121.843C73.6163 122.136 75.2418 120.003 75.6753 117.1C76.2135 113.493 77.2515 112.882 77.6203 115.956C77.7761 117.255 78.1585 118.257 78.4702 118.182C79.1954 118.007 79.55 108.528 78.8316 108.528C78.5387 108.528 77.7636 109.424 77.1098 110.518ZM83.4934 111.841C83.2985 112.801 82.9251 113.717 82.6628 113.877C81.8401 114.379 81.4939 111.638 82.1614 109.905C82.7007 108.504 82.8798 108.391 83.3228 109.173C83.6107 109.681 83.6877 110.882 83.4934 111.841ZM44.362 113.843C43.4594 115.711 42.4929 116.435 42.4929 115.241C42.4929 114.118 40.2776 114.722 39.1348 116.156C38.2294 117.292 37.9603 118.436 37.9603 121.144C37.9603 124.916 38.4509 125.551 40.6232 124.59C42.0492 123.958 43.0594 121.542 43.0594 118.761C43.0594 117.504 43.2742 116.985 43.6895 117.238C44.0356 117.449 44.5416 117.275 44.8135 116.851C45.1354 116.35 45.3116 117.026 45.3172 118.784C45.3235 120.695 45.5337 121.42 46.0339 121.257C46.5048 121.103 46.7971 119.492 46.9065 116.455C47.0447 112.622 46.9291 111.885 46.1892 111.885C45.7042 111.885 44.8821 112.766 44.362 113.843ZM50.9914 113.517C50.9914 115.484 50.4878 116.92 49.7977 116.92C49.2147 116.92 49.1019 112.818 49.6696 112.258C50.4753 111.462 50.9914 111.954 50.9914 113.517ZM73.9829 117.157C73.7738 118.257 73.3597 119.157 73.0622 119.157C72.4486 119.157 72.3144 115.072 72.9081 114.486C73.7206 113.684 74.3467 115.242 73.9829 117.157ZM66.2889 115.801C65.3716 116.706 65.1557 117.665 65.1557 120.836C65.1557 124.571 65.2169 124.752 66.4843 124.752C69.0968 124.752 70.8039 120.823 70.009 116.64C69.5738 114.349 68.0968 114.016 66.2889 115.801ZM68.5552 119.083C68.5552 119.929 68.1807 121.11 67.7234 121.708C66.9523 122.714 66.89 122.606 66.8736 120.23C66.8634 118.819 67.0186 117.505 67.2175 117.308C67.8877 116.647 68.5552 117.533 68.5552 119.083ZM41.3597 119.111C41.3597 121.078 40.856 122.514 40.166 122.514C39.583 122.514 39.4702 118.412 40.0379 117.852C40.8436 117.056 41.3597 117.548 41.3597 119.111ZM33.7524 118.917C32.5558 120.098 32.1892 121.766 32.4011 125.068C32.5478 127.357 32.7767 127.856 33.7422 127.993C35.4323 128.232 36.9189 126.288 37.2475 123.409C37.7892 118.664 36.1467 116.553 33.7524 118.917ZM60.3246 119.382C59.6923 120.335 59.4826 121.757 59.6033 124.277C59.7512 127.368 59.924 127.85 60.9376 127.993C61.5784 128.083 62.5331 127.687 63.0594 127.113C64.1625 125.91 64.9025 121.586 64.3665 119.477C63.8798 117.562 61.5682 117.508 60.3246 119.382ZM35.694 122.44C35.694 123.286 35.3195 124.467 34.8623 125.064C34.0912 126.071 34.0289 125.962 34.0124 123.586C34.0022 122.176 34.1575 120.861 34.3563 120.664C35.0266 120.003 35.694 120.889 35.694 122.44ZM56.2623 122.58C55.4135 123.846 54.6237 124.602 54.5076 124.258C54.3914 123.914 53.6861 123.633 52.9404 123.633C50.7761 123.633 49.7733 125.74 49.9716 129.871C50.1331 133.242 50.2135 133.423 51.558 133.423C53.2487 133.423 54.9552 130.543 54.9563 127.689C54.9569 126.493 55.2322 125.87 55.7603 125.87C56.2016 125.87 56.6911 125.556 56.8487 125.171C57.0056 124.787 57.1546 125.814 57.179 127.455C57.2107 129.578 57.4283 130.372 57.9319 130.208C58.826 129.915 59.2673 120.276 58.3869 120.276C58.0679 120.276 57.1115 121.313 56.2623 122.58ZM62.8894 122.44C62.8894 123.286 62.5149 124.467 62.0577 125.064C61.2866 126.071 61.2243 125.962 61.2079 123.586C61.1977 122.176 61.3529 120.861 61.5518 120.664C62.222 120.003 62.8894 120.889 62.8894 122.44ZM75.5189 125.991C73.2696 128.383 73.3308 135.381 75.601 135.381C76.0639 135.381 76.9727 134.819 77.6203 134.133C78.6209 133.072 78.7733 132.297 78.6339 128.964C78.4498 124.559 77.6152 123.763 75.5189 125.991ZM46.4974 127.968C45.8305 129.215 45.3654 129.669 45.3507 129.087C45.307 127.386 43.6974 128.025 42.5314 130.206C41.8645 131.453 41.3994 131.907 41.3847 131.325C41.3405 129.601 39.9093 130.274 38.5535 132.656C37.4651 134.568 37.149 134.809 36.7212 134.055C36.0113 132.803 35.3133 132.909 33.6855 134.516C32.4946 135.692 32.2946 136.411 32.2946 139.518C32.2946 141.514 32.5518 143.304 32.8662 143.496C34.8555 144.709 37.3937 141.249 37.3937 137.323C37.3937 135.992 37.6062 135.444 38.0237 135.699C38.3699 135.91 38.8759 135.736 39.1478 135.312C39.4668 134.816 39.6458 135.579 39.6515 137.461C39.6583 139.824 39.822 140.319 40.5099 140.059C41.1337 139.822 41.3597 138.85 41.3597 136.407C41.3597 134.106 41.5546 133.196 41.9897 133.461C42.3359 133.673 42.8419 133.499 43.1138 133.075C43.4328 132.578 43.6118 133.342 43.6175 135.223C43.6243 137.586 43.788 138.082 44.4759 137.821C45.0997 137.584 45.3257 136.612 45.3257 134.169C45.3257 131.869 45.5206 130.958 45.9557 131.224C46.3019 131.435 46.8079 131.261 47.0798 130.837C47.3977 130.342 47.5778 131.141 47.5835 133.071C47.5909 135.679 47.7048 135.985 48.4419 135.381C49.6606 134.382 49.673 125.87 48.4555 125.87C47.9954 125.87 47.1144 126.815 46.4974 127.968ZM53.2577 127.722C53.2577 128.74 52.8832 130.061 52.426 130.659C51.6549 131.665 51.5926 131.556 51.5761 129.181C51.5659 127.77 51.728 126.448 51.9359 126.244C52.7699 125.42 53.2577 125.965 53.2577 127.722ZM76.5546 132.741C75.6146 133.669 75.205 130.78 76.0135 128.925L76.7359 127.269L76.9308 129.723C77.0384 131.072 76.869 132.43 76.5546 132.741ZM69.7229 129.193C69.0809 129.827 68.5552 130.96 68.5552 131.711C68.5552 132.463 68.3002 133.232 67.9886 133.423C67.677 133.613 67.422 133.25 67.422 132.616C67.422 131.768 67.0577 131.465 66.0379 131.465C63.8639 131.465 62.8894 133.408 62.8894 137.743C62.8894 141.347 62.9552 141.534 64.2181 141.534C65.7784 141.534 67.4186 139.941 67.4305 138.413C67.4356 137.822 67.6866 136.961 67.9886 136.499C68.4316 135.823 68.5393 135.908 68.5467 136.936C68.5591 138.794 70.0775 139.097 71.7223 137.571C73.0039 136.382 73.1178 135.905 72.9687 132.331C72.7852 127.94 71.8792 127.064 69.7229 129.193ZM71.9461 132.407C71.9506 132.772 71.6849 133.77 71.3557 134.626C70.8741 135.876 70.6515 136.021 70.2231 135.362C69.7319 134.605 70.001 131.83 70.6758 130.706C71.0027 130.16 71.9331 131.405 71.9461 132.407ZM60.4985 134.681C60.022 135.22 59.2277 136.416 58.7336 137.339C58.1314 138.465 57.8283 138.695 57.813 138.038C57.7778 136.526 55.1671 136.782 54.0923 138.402C53.46 139.355 53.2504 140.777 53.371 143.297C53.5217 146.444 53.6798 146.868 54.7608 147.021C56.3994 147.251 57.6934 145.32 58.1433 141.974C58.6022 138.556 60.0566 138.222 60.0566 141.534C60.0566 143.15 60.2928 143.772 60.9064 143.772C61.5988 143.772 61.7563 142.839 61.7563 138.737C61.7563 135.968 61.6685 133.702 61.5608 133.702C61.4532 133.702 60.9756 134.143 60.4985 134.681ZM66.2889 135.866C66.2889 136.712 65.9144 137.893 65.4571 138.49C64.686 139.497 64.6237 139.388 64.6073 137.012C64.5971 135.602 64.7523 134.288 64.9512 134.091C65.6215 133.429 66.2889 134.315 66.2889 135.866ZM35.694 137.791C35.694 138.809 35.3195 140.131 34.8623 140.728C34.0912 141.735 34.0289 141.626 34.0124 139.25C34.0022 137.84 34.1643 136.518 34.3722 136.313C35.2062 135.489 35.694 136.035 35.694 137.791ZM51.2107 139.735C50.8645 139.955 50.047 141.143 49.3948 142.373C48.7421 143.604 48.1977 144.198 48.1835 143.692C48.1404 142.112 46.49 142.012 44.9852 143.498C43.7172 144.75 43.5914 145.273 43.7416 148.661C43.8759 151.673 44.1014 152.468 44.8662 152.611C46.4776 152.915 48.0849 150.743 48.4923 147.71C48.7252 145.977 49.1523 144.891 49.6005 144.891C50.0022 144.891 50.4589 144.576 50.6164 144.192C50.7733 143.807 50.9223 144.864 50.9467 146.541C50.9778 148.657 51.1722 149.412 51.5824 149.007C52.4124 148.187 52.0526 139.199 51.2107 139.735ZM56.6572 141.46C56.6572 142.306 56.2826 143.487 55.8254 144.085C55.0543 145.091 54.992 144.983 54.9756 142.607C54.9654 141.196 55.1206 139.882 55.3195 139.685C55.9897 139.024 56.6572 139.91 56.6572 141.46ZM76.4809 141.674C75.1212 143.876 74.9789 145.712 76.2039 145.248C76.8826 144.991 77.0537 145.438 77.0537 147.473C77.0537 149.26 77.2645 149.95 77.7619 149.787C78.6702 149.49 79.0957 139.856 78.2005 139.856C77.8724 139.856 77.0985 140.674 76.4809 141.674ZM71.0413 144.069C69.7087 146.077 69.3455 150.991 70.4243 152.412C71.2124 153.449 71.3189 153.456 72.7268 152.545C74.5002 151.397 74.911 150.015 74.6792 145.98C74.5274 143.336 74.3399 142.91 73.2651 142.759C72.4294 142.641 71.7059 143.068 71.0413 144.069ZM46.7914 147.906C46.2334 150.841 45.3257 150.958 45.3257 148.094C45.3257 146.743 45.5002 145.465 45.7127 145.254C46.5218 144.456 47.1523 146.006 46.7914 147.906ZM72.8464 149.74C72.6719 150.189 72.2724 150.399 71.9586 150.208C71.1682 149.725 71.2441 147.303 72.0962 145.833C72.7631 144.682 72.8146 144.737 72.984 146.768C73.0826 147.954 73.0203 149.292 72.8464 149.74ZM39.1342 146.925C38.115 148.204 37.9405 149.063 38.0787 152.123C38.2096 155.038 38.4396 155.825 39.2005 155.968C40.7405 156.258 42.3801 154.129 42.813 151.276C43.5569 146.378 41.5036 143.95 39.1342 146.925ZM67.2209 146.709C66.7846 147.402 66.1489 148.471 65.809 149.087C65.2713 150.059 65.188 150.077 65.1727 149.226C65.1461 147.714 62.5331 147.97 61.4577 149.591C60.8254 150.544 60.6158 151.966 60.7365 154.486C60.8979 157.857 60.9784 158.037 62.3229 158.037C63.992 158.037 65.72 155.169 65.7212 152.397C65.7217 151.236 66.0005 150.671 66.5722 150.671C67.1795 150.671 67.422 151.283 67.422 152.816C67.422 154.349 67.6645 154.96 68.2719 154.96C68.9608 154.96 69.1217 154.059 69.1217 150.205C69.1217 145.323 68.6464 144.448 67.2209 146.709ZM41.3597 149.88C41.3597 151.846 40.856 153.282 40.166 153.282C39.583 153.282 39.4702 149.18 40.0379 148.621C40.8436 147.824 41.3597 148.316 41.3597 149.88ZM34.2209 149.235C32.945 150.076 32.2946 152.186 32.2946 155.483C32.2946 158.67 32.3756 158.876 33.6232 158.876C35.5257 158.876 36.9167 157.073 37.2475 154.177C37.7512 149.765 36.5048 147.729 34.2209 149.235ZM64.0226 152.649C64.0226 153.495 63.6481 154.676 63.1909 155.273C62.4198 156.28 62.3574 156.171 62.341 153.795C62.3308 152.385 62.486 151.07 62.6849 150.873C63.3552 150.212 64.0226 151.098 64.0226 152.649ZM35.694 153.269C35.694 155.205 35.1864 156.639 34.5002 156.639C33.9297 156.639 33.813 153.281 34.3371 151.933C34.8493 150.614 35.694 151.446 35.694 153.269ZM56.5784 152.114C55.3931 153.061 55.2407 153.649 55.2407 157.276C55.2407 161.846 55.9376 162.601 58.3642 160.662C60.6311 158.849 60.6198 151.044 58.3501 151.044C58.1115 151.044 57.3138 151.526 56.5784 152.114ZM51.8725 155.815C51.1353 157.166 50.6124 157.607 50.2141 157.214C48.4339 155.456 46.0606 157.509 45.5405 161.255C45.0277 164.947 45.5926 166.708 47.2872 166.708C49.2243 166.708 50.4249 164.722 50.4249 161.516C50.4249 159.674 50.626 158.933 51.0549 159.195C51.4011 159.406 51.907 159.232 52.179 158.808C52.5014 158.306 52.677 158.963 52.6827 160.695C52.6889 162.68 52.9059 163.352 53.541 163.352C54.23 163.352 54.3909 162.451 54.3909 158.597C54.3909 153.251 53.6923 152.479 51.8725 155.815ZM58.3569 155.693C58.3569 156.711 57.9824 158.032 57.5251 158.63C56.754 159.636 56.6917 159.528 56.6753 157.152C56.6651 155.741 56.8271 154.419 57.0351 154.215C57.869 153.391 58.3569 153.936 58.3569 155.693ZM74.8435 158.069C73.4328 160.43 73.2826 161.934 74.5042 161.471C75.1829 161.214 75.354 161.662 75.354 163.696C75.354 165.483 75.5648 166.173 76.0622 166.011C76.9132 165.732 77.4016 156.079 76.5653 156.079C76.2724 156.079 75.4974 156.975 74.8435 158.069ZM43.8453 159.304C43.4991 159.53 42.6815 160.723 42.0294 161.953C41.3512 163.233 40.8322 163.771 40.8181 163.212C40.7796 161.701 38.1699 161.956 37.0951 163.576C35.83 165.483 36.1337 171.935 37.5008 172.191C39.1127 172.494 40.7195 170.322 41.1269 167.29C41.6022 163.753 43.0594 163.315 43.0594 166.708C43.0594 168.325 43.2957 168.946 43.9093 168.946C44.6016 168.946 44.7592 168.014 44.7592 163.911C44.7592 161.142 44.6957 158.88 44.6175 158.885C44.5393 158.89 44.192 159.078 43.8453 159.304ZM48.4838 163.726C48.3093 164.175 47.9099 164.385 47.596 164.193C46.8056 163.711 46.8815 161.289 47.7337 159.818C48.4005 158.668 48.4521 158.723 48.6215 160.753C48.7201 161.94 48.6577 163.277 48.4838 163.726ZM71.6651 162.223C72.111 162.935 71.3988 166.708 70.8192 166.708C70.0668 166.708 69.7025 165.099 70.0577 163.346C70.3999 161.657 71.0339 161.214 71.6651 162.223ZM32.8266 166.775C31.9461 168.479 31.8017 169.243 32.2725 169.707C32.7427 170.172 33.0476 170.118 33.4425 169.501C33.8164 168.917 33.9796 169.57 33.9858 171.672C33.9932 174.28 34.107 174.585 34.8441 173.981C36.0645 172.981 36.0747 164.471 34.8555 164.471C34.3949 164.471 33.4815 165.508 32.8266 166.775ZM39.66 166.635C39.66 167.48 39.2855 168.661 38.8283 169.259C38.0572 170.265 37.9949 170.157 37.9784 167.781C37.9682 166.37 38.1235 165.056 38.3223 164.859C38.9926 164.198 39.66 165.084 39.66 166.635ZM66.2889 166.788C66.2889 167.893 66.043 168.399 65.5807 168.247C64.7461 167.973 64.3574 166.434 64.8203 165.242C65.3353 163.917 66.2889 164.921 66.2889 166.788ZM79.32 174.294C79.32 175.478 79.0906 176.145 78.7534 175.939C77.8141 175.365 78.1325 172.303 79.1314 172.303C79.235 172.303 79.32 173.199 79.32 174.294Z" fill="#D6A4DE"/>
</svg>
