<svg width="400" height="383" viewBox="0 0 400 383" fill="none" xmlns="http://www.w3.org/2000/svg">
<path fill-rule="evenodd" clip-rule="evenodd" d="M186.396 1.81813C185.779 2.81838 185.273 3.86394 185.272 4.14253C185.271 4.42113 184.78 4.2119 184.183 3.67821C182.004 1.73086 179.604 4.80713 179.604 9.54769C179.604 12.3291 180.077 13.4262 181.276 13.4262C182.994 13.4262 184.313 11.3462 184.575 8.22297C184.78 5.78836 185.01 5.27481 185.896 5.27481C186.786 5.27481 186.969 5.69326 186.969 7.71893C186.969 9.42462 187.183 10.0931 187.677 9.93145C188.586 9.6344 189.011 0 188.116 0C187.788 0 187.014 0.817878 186.396 1.81813ZM176.765 7.41237C175.405 9.61426 175.263 11.4503 176.488 10.986C177.155 10.7331 177.337 11.1409 177.337 12.8841C177.337 14.4846 177.575 15.1044 178.187 15.1044C178.876 15.1044 179.037 14.2032 179.037 10.3493C179.037 5.15789 178.548 4.52518 176.765 7.41237ZM182.894 7.92816C182.69 10.6643 181.303 11.636 181.303 9.04309C181.303 7.00287 181.804 5.59424 182.529 5.59424C182.826 5.59424 182.99 6.64484 182.894 7.92816ZM172.054 9.09008C169.962 10.6005 169.519 17.9553 171.476 18.6965C171.932 18.8694 172.932 18.386 173.712 17.6163C174.98 16.3643 175.106 15.8407 174.956 12.4528C174.776 8.42828 174.083 7.62495 172.054 9.09008ZM168.149 11.608C167.674 12.1468 166.954 13.2158 166.55 13.9839C166.118 14.808 165.719 15.0949 165.58 14.6832C165.174 13.4776 162.693 13.8944 161.741 15.3288C161.109 16.282 160.899 17.7041 161.02 20.2237C161.168 23.3151 161.341 23.7968 162.354 23.94C164.097 24.1861 165.433 22.3193 165.819 19.0971C166.248 15.5179 167.706 15.0261 167.706 18.461C167.706 20.0772 167.942 20.6987 168.556 20.6987C169.248 20.6987 169.405 19.7661 169.405 15.6639C169.405 12.8947 169.318 10.6291 169.21 10.6291C169.102 10.6291 168.625 11.0699 168.149 11.608ZM173.618 14.262C173.221 16.3525 172.578 16.785 172.016 15.34C171.691 14.5025 172.064 12.0416 172.678 10.977C173.273 9.94432 173.974 12.3912 173.618 14.262ZM157.999 18.1813C156.741 20.2864 156.376 20.4766 155.415 19.5278C154.537 18.6607 152.495 19.8405 151.814 21.6083C151.518 22.3786 151.275 24.2208 151.275 25.7016C151.275 28.8959 152.252 30.0707 154.099 29.0951C155.584 28.3102 156.374 26.341 156.374 23.4264C156.374 21.9294 156.582 21.3191 157.004 21.5764C157.35 21.7879 157.856 21.6139 158.128 21.1899C158.447 20.6942 158.626 21.4847 158.632 23.4024C158.638 25.5371 158.842 26.3203 159.349 26.1548C160.267 25.8543 160.682 16.2233 159.777 16.2233C159.442 16.2233 158.642 17.1044 157.999 18.1813ZM164.306 18.3871C164.306 19.233 163.932 20.4139 163.475 21.0114C162.703 22.0178 162.641 21.9093 162.625 19.5334C162.614 18.1231 162.77 16.8085 162.969 16.6115C163.639 15.9503 164.306 16.8364 164.306 18.3871ZM184.955 17.3757C184.096 18.3127 183.853 19.398 183.853 22.2953C183.853 25.9159 183.893 26.0177 185.379 26.1872C187.552 26.435 188.779 23.9254 188.555 19.6951C188.41 16.9662 188.217 16.479 187.221 16.3385C186.58 16.2479 185.562 16.7139 184.955 17.3757ZM180.783 20.3451C179.378 22.5895 179.216 24.3221 180.454 23.8527C181.132 23.5959 181.303 24.0435 181.303 26.0776C181.303 27.8649 181.514 28.5547 182.012 28.3924C182.871 28.1111 183.35 18.461 182.505 18.461C182.207 18.461 181.431 19.3091 180.783 20.3451ZM186.741 23.2748C186.575 23.7039 186.175 24.0552 185.854 24.0552C185.024 24.0552 185.127 19.9457 185.978 19.0976C186.545 18.532 186.722 18.7983 186.865 20.4436C186.964 21.5714 186.908 22.8458 186.741 23.2748ZM154.565 24.1515C154.361 26.8876 152.975 27.8593 152.975 25.2664C152.975 23.2262 153.476 21.8175 154.201 21.8175C154.497 21.8175 154.662 22.8681 154.565 24.1515ZM175.49 22.7965C173.427 25.0667 173.557 31.8872 175.663 31.8872C177.977 31.8872 179.037 29.9538 179.037 25.7335C179.037 21.9982 178.976 21.8175 177.708 21.8175C176.978 21.8175 175.979 22.2578 175.49 22.7965ZM147.011 23.7201C145.896 25.3995 145.322 29.0017 145.842 31.0497C146.146 32.2441 146.499 32.4846 147.741 32.342C149.85 32.0998 150.749 30.0892 150.571 26.0132C150.442 23.0404 150.284 22.6365 149.186 22.4827C148.363 22.3669 147.633 22.782 147.011 23.7201ZM171.03 26.3058C170.019 28.0814 169.647 28.3768 169.265 27.7044C168.545 26.4333 167.367 26.67 166.024 28.3561C165.03 29.603 164.854 30.4847 164.991 33.5246C165.122 36.4398 165.352 37.2269 166.113 37.3701C167.668 37.6627 169.293 35.5296 169.727 32.6267C170.265 29.0196 171.303 28.4092 171.672 31.4827C171.827 32.7822 172.21 33.7836 172.522 33.7087C173.265 33.5296 173.6 24.0552 172.863 24.0552C172.559 24.0552 171.734 25.0678 171.03 26.3058ZM177.096 28.9049C176.922 29.3535 176.522 29.5639 176.208 29.372C175.418 28.8898 175.494 26.4675 176.346 24.9973C177.013 23.8466 177.064 23.9014 177.234 25.9321C177.332 27.1186 177.27 28.4562 177.096 28.9049ZM148.781 29.4285C148.614 29.8576 148.215 30.2089 147.893 30.2089C147.078 30.2089 147.162 27.0319 148.017 25.5567C148.684 24.406 148.736 24.4608 148.905 26.4915C149.004 27.6781 148.948 28.9994 148.781 29.4285ZM141.429 26.9922C139.468 30.0489 139.611 35.8031 141.647 35.8031C143.88 35.8031 145.043 33.66 145.043 29.5437C145.043 25.8616 144.996 25.7335 143.639 25.7335C142.801 25.7335 141.911 26.2403 141.429 26.9922ZM137.137 30.2816C136.049 32.1932 135.733 32.4348 135.305 31.6802C134.556 30.3583 133.394 30.5585 132.053 32.2424C131.147 33.3797 130.879 34.5221 130.879 37.2442C130.879 39.1843 131.136 40.9291 131.45 41.121C133.427 42.3271 135.978 38.8783 135.978 34.9998C135.978 32.2972 137.552 32.9165 137.788 35.7114C137.883 36.8386 138.216 37.6996 138.527 37.6246C139.217 37.4585 139.62 27.9712 138.937 27.9712C138.671 27.9712 137.861 29.0112 137.137 30.2816ZM143.102 32.8208C142.684 33.8938 141.643 33.2298 141.643 31.8905C141.643 31.3132 141.953 30.1323 142.33 29.2663L143.017 27.6915L143.218 29.8481C143.328 31.0346 143.276 32.3722 143.102 32.8208ZM331.332 28.6705C330.775 29.1046 329.523 33.2908 328.027 39.7191C326.702 45.4112 325.496 50.3912 325.347 50.7862C325.131 51.3607 325.373 51.3708 326.561 50.8365C327.377 50.469 328.047 50.0203 328.049 49.8385C328.051 49.6573 329.198 44.7534 330.599 38.9404C331.999 33.1274 333.145 28.2817 333.145 28.1715C333.145 27.7407 332.184 28.0053 331.332 28.6705ZM334.278 31.3037C334.278 33.2309 334.502 33.6773 335.694 34.1249C337.427 34.7755 337.427 34.9601 335.679 37.7611C334.338 39.9104 333.701 44.053 334.816 43.3727C335.705 42.8301 341.077 33.759 341.077 32.7996C341.077 31.9526 338.291 30.2397 335.552 29.4039C334.374 29.0442 334.278 29.1874 334.278 31.3037ZM161.573 31.6914C160.916 32.9557 160.359 33.4882 160.109 33.0899C159.417 31.984 157.639 32.3839 156.416 33.9207C155.533 35.0272 155.241 36.2037 155.241 38.6428C155.241 42.1425 155.699 42.8049 157.766 42.2925C159.277 41.9182 160.34 39.5104 160.34 36.4655C160.34 35.3836 160.508 34.6636 160.713 34.8661C160.918 35.0686 161.428 34.9534 161.846 34.611C162.464 34.1047 162.607 34.4818 162.607 36.6205C162.607 38.4772 162.815 39.1849 163.315 39.0215C163.786 38.8677 164.078 37.2571 164.187 34.22C164.324 30.4366 164.204 29.6495 163.493 29.6495C163.02 29.6495 162.156 30.568 161.573 31.6914ZM168.264 30.9082C168.253 32.7604 167.646 34.6843 167.073 34.6843C166.494 34.6843 166.386 30.5798 166.95 30.0226C167.697 29.2853 168.272 29.673 168.264 30.9082ZM186.396 32.5865C185.779 33.5861 185.273 34.6244 185.272 34.8924C185.271 35.1609 184.89 35.0703 184.427 34.6904C183.149 33.6432 180.969 34.46 180.209 36.2691C179.841 37.1491 179.617 39.2291 179.712 40.8917C179.86 43.4477 180.067 43.94 181.051 44.0793C182.884 44.3383 184.298 42.2958 184.575 38.9913C184.78 36.5567 185.01 36.0431 185.896 36.0431C186.786 36.0431 186.969 36.4616 186.969 38.4873C186.969 40.1929 187.183 40.8615 187.677 40.6998C188.586 40.4027 189.011 30.7683 188.116 30.7683C187.788 30.7683 187.014 31.5868 186.396 32.5865ZM127.671 35.477C126.869 37.1374 126.609 37.3035 125.695 36.7402C123.424 35.3399 121.268 38.3329 121.255 42.9028C121.246 46.0479 121.742 46.7119 123.731 46.2185C125.333 45.8219 126.346 43.714 126.346 40.7787C126.346 39.2744 126.554 38.6612 126.976 38.9186C127.322 39.13 127.828 38.9561 128.1 38.532C128.422 38.0308 128.598 38.7065 128.604 40.4648C128.61 42.3758 128.82 43.1008 129.32 42.9375C129.791 42.7836 130.084 41.173 130.193 38.1359C130.331 34.3028 130.216 33.5654 129.476 33.5654C128.991 33.5654 128.178 34.4258 127.671 35.477ZM134.278 35.4166C134.278 36.4347 133.903 37.7561 133.446 38.3536C132.675 39.36 132.613 39.2514 132.596 36.8756C132.586 35.4652 132.748 34.1433 132.956 33.9386C133.79 33.1145 134.278 33.66 134.278 35.4166ZM175.923 81.6547C130.117 107.78 92.0639 129.815 91.3596 130.623L90.0803 132.092L90.2242 191.777C90.3913 260.955 89.4185 253.572 97.7341 248.757L102.833 245.805L103.117 191.106L103.4 136.408L105.112 134.915C106.054 134.095 141.684 113.569 184.29 89.3042L261.757 45.1858V40.5403C261.757 35.275 261.464 34.1187 260.138 34.14C259.626 34.1478 221.729 55.5296 175.923 81.6547ZM158.391 38.9477C157.864 41.0192 156.941 40.5135 156.941 38.1527C156.941 35.501 158.26 33.8245 158.543 36.1153C158.646 36.941 158.577 38.2154 158.391 38.9477ZM320.446 40.6338C318.074 44.4474 317.247 46.2481 317.613 46.8048C317.898 47.2372 319.469 48.2 321.105 48.944L324.079 50.2967V47.8951C324.079 45.8616 323.857 45.3928 322.631 44.8412C321.121 44.1621 321.137 44.0244 323.072 41.2654C323.797 40.2321 324.088 39.0058 323.971 37.4915L323.796 35.2482L320.446 40.6338ZM151.452 36.2311C149.93 37.2134 148.988 42.5923 149.919 44.9878C150.446 46.3427 152.191 46.0428 153.524 44.3685C154.502 43.1417 154.693 42.2382 154.557 39.4735C154.415 36.5679 154.229 36.0622 153.258 35.9396C152.635 35.8613 151.822 35.9922 151.452 36.2311ZM176.403 38.6254C175.465 40.0251 174.735 40.6472 174.49 40.255C173.828 39.1983 171.463 39.9093 170.69 41.3974C170.273 42.1979 170.025 44.2314 170.109 46.1525C170.235 49.0565 170.412 49.5314 171.42 49.6735C173.277 49.9359 174.666 47.8917 174.953 44.4748C175.106 42.655 175.437 41.5546 175.77 41.7582C176.078 41.9462 176.553 41.7532 176.825 41.3291C177.144 40.8324 177.323 41.596 177.329 43.4779C177.336 45.8409 177.499 46.336 178.187 46.0753C178.849 45.8241 179.037 44.7153 179.037 41.0578C179.037 38.3457 178.801 36.3626 178.478 36.3626C178.171 36.3626 177.238 37.3807 176.403 38.6254ZM183.003 38.532C183.003 39.7773 182.641 40.9974 182.153 41.3974C181.425 41.9943 181.303 41.8102 181.303 40.1129C181.303 39.0237 181.458 37.7343 181.647 37.2476C182.273 35.637 183.003 36.3284 183.003 38.532ZM146.736 39.859C145.377 42.0609 145.234 43.8969 146.459 43.4326C147.138 43.1758 147.309 43.6233 147.309 45.6574C147.309 47.4448 147.52 48.1345 148.017 47.9723C148.926 47.6752 149.351 38.0408 148.456 38.0408C148.128 38.0408 147.354 38.8593 146.736 39.859ZM152.865 40.3748C152.662 43.1109 151.275 44.0826 151.275 41.4897C151.275 39.4495 151.776 38.0408 152.501 38.0408C152.797 38.0408 152.962 39.0914 152.865 40.3748ZM118.46 40.4844C117.055 42.7288 116.893 44.4613 118.131 43.992C118.809 43.7352 118.981 44.1828 118.981 46.2168C118.981 48.0042 119.191 48.694 119.689 48.5317C120.548 48.2503 121.028 38.6003 120.182 38.6003C119.884 38.6003 119.109 39.4483 118.46 40.4844ZM124.396 42.8636C123.87 44.9352 122.947 44.4295 122.947 42.0687C122.947 39.417 124.266 37.7404 124.549 40.0313C124.651 40.857 124.582 42.1313 124.396 42.8636ZM142.823 42.1627C141.418 44.4071 141.255 46.1396 142.493 45.6703C143.172 45.4135 143.343 45.861 143.343 47.8951C143.343 49.6825 143.554 50.3722 144.051 50.21C144.911 49.9286 145.39 40.2785 144.544 40.2785C144.246 40.2785 143.471 41.1266 142.823 42.1627ZM114.504 42.8278C113.093 45.1886 112.943 46.6929 114.165 46.2297C114.843 45.9729 115.015 46.4205 115.015 48.4545C115.015 50.2419 115.225 50.9316 115.723 50.7694C116.574 50.4908 117.062 40.838 116.226 40.838C115.933 40.838 115.158 41.7336 114.504 42.8278ZM166.557 44.2247C165.663 45.9556 165.513 46.7287 165.984 47.1936C166.454 47.6579 166.759 47.6042 167.154 46.9871C167.528 46.4031 167.691 47.056 167.697 49.1577C167.705 51.7999 167.811 52.0768 168.578 51.4485C169.251 50.897 169.413 49.7776 169.286 46.5301C169.092 41.5551 168.288 40.8754 166.557 44.2247ZM173.371 44.1262C173.371 45.3715 173.009 46.5916 172.522 46.9916C171.788 47.593 171.672 47.3474 171.672 45.1953C171.672 43.8242 171.842 42.5347 172.05 42.3299C172.918 41.4718 173.371 42.0871 173.371 44.1262ZM111.836 43.5036C111.083 43.9959 109.349 47.2294 109.349 48.1424C109.349 48.4982 109.731 48.6447 110.199 48.4674C110.876 48.2112 111.049 48.6531 111.049 50.6452C111.049 52.4947 111.269 53.1453 111.898 53.1453C112.591 53.1453 112.748 52.2127 112.748 48.1105C112.748 45.3413 112.684 43.0796 112.607 43.084C112.529 43.0891 112.182 43.2776 111.836 43.5036ZM137.712 44.1604C137.07 44.7942 136.51 46.0054 136.467 46.8518C136.401 48.1709 136.355 48.2106 136.144 47.1315C135.781 45.2697 134.553 45.6003 133.158 47.9348C132.263 49.4329 131.799 49.7949 131.463 49.2578C130.71 48.0556 128.272 49.0178 127.518 50.8142C127.149 51.6941 126.926 53.7741 127.021 55.4367C127.169 57.9927 127.376 58.485 128.36 58.6243C130.131 58.8743 131.577 56.8615 131.882 53.7209C132.032 52.1848 132.361 51.0547 132.615 51.2097C132.868 51.3641 133.338 51.0446 133.659 50.4998C134.114 49.7289 134.247 50.1708 134.261 52.4924C134.282 56.1947 135.528 56.2294 136.034 52.5422C136.255 50.9344 136.404 50.6133 136.459 51.6242C136.575 53.7422 137.987 54.1388 139.711 52.5383C140.993 51.3495 141.107 50.8723 140.958 47.2987C140.774 42.9073 139.868 42.0312 137.712 44.1604ZM161.747 46.1111C160.425 47.4168 160.304 47.9035 160.456 51.3216C160.59 54.3335 160.816 55.1279 161.58 55.2717C164.001 55.7276 166.229 50.1686 165.038 46.642C164.331 44.5464 163.472 44.4082 161.747 46.1111ZM139.654 46.4227C140.1 47.1343 139.388 50.9076 138.808 50.9076C138.056 50.9076 137.692 49.2987 138.047 47.5449C138.389 45.856 139.023 45.4135 139.654 46.4227ZM105.38 47.2747C104.99 47.7384 104.475 48.9339 104.236 49.932C103.816 51.6768 103.797 51.6874 103.741 50.2083C103.654 47.9074 102.196 48.3035 100.799 51.0072C99.7868 52.9651 99.5052 53.1917 99.0593 52.4057C98.2956 51.0575 97.142 51.2472 95.7925 52.9411C94.9177 54.0392 94.6202 55.2163 94.6265 57.5563C94.6378 61.6849 95.1908 62.5811 97.1035 61.5702C98.7058 60.7238 99.7171 58.3927 99.7171 55.5463C99.7171 54.2893 99.9318 53.7696 100.347 54.023C100.693 54.2345 101.199 54.0605 101.471 53.6365C101.789 53.1414 101.969 53.9408 101.975 55.8708C101.982 58.4788 102.096 58.7843 102.833 58.1801C103.301 57.7969 103.7 56.6965 103.719 55.7343C103.752 54.1254 103.796 54.0862 104.267 55.2431C104.901 56.8006 106.161 56.8526 107.649 55.383C108.566 54.4773 108.782 53.5184 108.782 50.3482C108.782 46.5978 108.725 46.4322 107.435 46.4322C106.694 46.4322 105.769 46.8115 105.38 47.2747ZM186.159 48.3902C185.133 50.2715 184.136 50.9602 184.136 49.7887C184.136 48.8042 182.082 49.1902 180.991 50.3801C179.549 51.9537 179.103 58.1918 180.359 59.2212C181.024 59.7666 181.515 59.7862 182.427 59.304C183.912 58.5191 184.703 56.5499 184.703 53.6353C184.703 52.1383 184.911 51.528 185.333 51.7853C185.679 51.9968 186.185 51.8228 186.457 51.3988C186.776 50.902 186.955 51.6656 186.961 53.5475C186.967 55.9105 187.131 56.4056 187.819 56.1449C188.481 55.8937 188.669 54.785 188.669 51.1274C188.669 45.8493 187.964 45.0806 186.159 48.3902ZM156.997 49.5409C155.604 51.872 155.438 53.4054 156.626 52.9545C157.241 52.7218 157.488 53.199 157.618 54.8627C157.932 58.9012 158.92 57.1854 159.088 52.3095C159.181 49.5974 159.022 47.551 158.719 47.551C158.426 47.551 157.651 48.4467 156.997 49.5409ZM163.74 49.7149C163.74 50.5607 163.365 51.7417 162.908 52.3392C162.137 53.3456 162.075 53.237 162.058 50.8612C162.048 49.4509 162.203 48.1362 162.402 47.9393C163.072 47.278 163.74 48.1642 163.74 49.7149ZM107.415 51.6852C107.208 52.7744 106.801 53.8104 106.511 53.9878C105.658 54.508 105.266 51.8429 105.939 50.0953C106.806 47.8442 107.917 49.0413 107.415 51.6852ZM152.018 51.5878C149.845 53.9218 149.812 60.4575 151.973 60.8687C152.467 60.9627 153.415 60.4642 154.078 59.7605C155.113 58.664 155.262 57.9216 155.122 54.5606C154.937 50.158 154.099 49.3546 152.018 51.5878ZM124.004 52.8656C122.748 54.9679 122.381 55.1603 121.427 54.2183C120.619 53.4205 118.711 54.5746 117.888 56.3581C117.229 57.7863 117.072 62.0256 117.625 63.4488C118.148 64.7947 119.893 64.5072 121.205 62.8597C122.033 61.822 122.38 60.5711 122.38 58.631C122.38 56.7525 122.581 55.9983 123.01 56.2607C123.356 56.4722 123.862 56.2982 124.134 55.8742C124.452 55.3785 124.632 56.169 124.638 58.0867C124.644 60.2214 124.848 61.0046 125.354 60.839C126.272 60.5386 126.688 50.9076 125.782 50.9076C125.448 50.9076 124.648 51.7887 124.004 52.8656ZM130.312 53.3898C130.312 54.4107 129.93 55.5592 129.462 55.9424C128.734 56.5393 128.612 56.3553 128.612 54.658C128.612 53.5688 128.766 52.2804 128.955 51.796C129.498 50.3985 130.312 51.3551 130.312 53.3898ZM182.775 56.2809C182.609 56.7099 182.209 57.0613 181.888 57.0613C181.058 57.0613 181.161 52.9517 182.012 52.1036C182.579 51.5381 182.756 51.8043 182.899 53.4496C182.998 54.5774 182.942 55.8518 182.775 56.2809ZM176.61 53.651C175.564 55.3992 175.311 57.6207 176.157 57.6207C176.443 57.6207 176.805 57.3063 176.962 56.9214C177.119 56.5371 177.268 57.4176 177.293 58.8794C177.326 60.8486 177.557 61.5366 178.187 61.5366C178.876 61.5366 179.037 60.6354 179.037 56.7815C179.037 51.5688 178.37 50.7084 176.61 53.651ZM147.356 55.0294C145.95 57.2738 145.788 59.0064 147.026 58.537C147.705 58.2802 147.876 58.7278 147.876 60.7618C147.876 62.5492 148.086 63.239 148.584 63.0767C149.443 62.7954 149.923 53.1453 149.077 53.1453C148.779 53.1453 148.004 53.9934 147.356 55.0294ZM153.69 55.6705C153.535 58.1046 153.205 58.6316 152.36 57.7963C151.582 57.0282 152.32 53.0183 153.184 53.3215C153.543 53.4479 153.765 54.4818 153.69 55.6705ZM91.41 56.1757C90.6083 57.8361 90.3483 58.0022 89.4344 57.4389C87.1636 56.0386 85.0078 59.0315 84.9947 63.6015C84.9857 66.7466 85.4814 67.4106 87.4707 66.9172C89.1194 66.5088 90.0735 64.4182 90.1301 61.0908C90.1545 59.6436 90.3069 58.7848 90.4684 59.1826C90.6939 59.7375 90.9466 59.7538 91.5568 59.2536C92.2197 58.7104 92.3517 59.0394 92.3517 61.2351C92.3517 63.0918 92.5602 63.7995 93.0599 63.6362C93.5307 63.4823 93.8231 61.8717 93.9324 58.8346C94.0706 55.0015 93.9551 54.2641 93.2151 54.2641C92.7301 54.2641 91.9177 55.1245 91.41 56.1757ZM98.0174 55.8965C98.0174 57.8629 97.5137 59.2989 96.8236 59.2989C96.2406 59.2989 96.1279 55.1973 96.6956 54.6373C97.5012 53.8412 98.0174 54.3329 98.0174 55.8965ZM171.357 55.976C170.498 56.913 170.255 57.9983 170.255 60.8955C170.255 64.5161 170.295 64.618 171.781 64.7875C173.954 65.0353 175.181 62.5257 174.957 58.2953C174.812 55.5665 174.619 55.0792 173.624 54.9388C172.982 54.8482 171.964 55.3142 171.357 55.976ZM143.337 57.2011C141.977 59.403 141.835 61.239 143.06 60.7747C143.739 60.5179 143.91 60.9655 143.91 62.9995C143.91 64.7869 144.12 65.4767 144.618 65.3144C145.526 65.0174 145.952 55.383 145.056 55.383C144.728 55.383 143.954 56.2014 143.337 57.2011ZM120.571 58.8357C120.367 61.5719 118.981 62.5436 118.981 59.9507C118.981 57.9105 119.481 56.5018 120.207 56.5018C120.503 56.5018 120.667 57.5524 120.571 58.8357ZM113.754 57.7443C111.702 59.2816 110.879 64.8037 112.396 66.8529C113.14 67.8565 113.249 67.8615 114.654 66.953C116.426 65.8062 116.838 64.4227 116.606 60.3932C116.419 57.1457 115.586 56.372 113.754 57.7443ZM173.144 61.8751C172.977 62.3042 172.578 62.6555 172.256 62.6555C171.426 62.6555 171.529 58.546 172.38 57.6979C172.948 57.1323 173.124 57.3986 173.268 59.0439C173.366 60.1717 173.31 61.446 173.144 61.8751ZM139.371 59.4388C138.011 61.6407 137.869 63.4767 139.094 63.0124C139.773 62.7556 139.944 63.2032 139.944 65.2372C139.944 67.0246 140.154 67.7144 140.652 67.5521C141.56 67.2551 141.986 57.6207 141.09 57.6207C140.762 57.6207 139.988 58.4391 139.371 59.4388ZM165.766 59.2514C164.632 60.4888 163.963 64.5855 164.531 66.8176C165.012 68.7135 166.714 68.6799 168.255 66.7454C169.233 65.5186 169.424 64.6152 169.288 61.8505C169.145 58.9197 168.964 58.4374 167.958 58.2953C167.317 58.2047 166.331 58.6355 165.766 59.2514ZM82.1647 61.5143C80.8032 64.1503 80.712 65.1298 81.8701 64.6907C82.5489 64.4339 82.72 64.8814 82.72 66.9155C82.72 68.7029 82.9307 69.3926 83.4282 69.2304C84.3188 68.9389 84.7642 59.2989 83.8865 59.2989C83.5693 59.2989 82.7947 60.2958 82.1647 61.5143ZM88.1358 63.5623C87.6095 65.6339 86.686 65.1281 86.686 62.7674C86.686 60.1157 88.0049 58.4391 88.2882 60.73C88.3908 61.5557 88.3217 62.83 88.1358 63.5623ZM114.773 64.1486C114.599 64.5973 114.199 64.8076 113.885 64.6157C113.095 64.1335 113.171 61.7112 114.023 60.241C114.69 59.0903 114.741 59.1451 114.911 61.1758C115.009 62.3624 114.947 63.6999 114.773 64.1486ZM108.768 61.6765C107.579 63.5875 107.532 65.2697 108.674 65.033C109.107 64.9435 109.349 65.6948 109.349 67.1309C109.349 68.7471 109.585 69.3686 110.199 69.3686C110.888 69.3686 111.049 68.4673 111.049 64.6135C111.049 59.4198 110.562 58.7927 108.768 61.6765ZM135.405 61.6765C134.787 62.6762 134.281 63.7341 134.28 64.0261C134.279 64.3181 133.972 64.2554 133.598 63.8862C133.224 63.517 132.339 63.2149 131.63 63.2149C129.706 63.2149 128.519 65.9113 128.726 69.8128C128.871 72.5416 129.064 73.0289 130.06 73.1693C131.892 73.4283 133.306 71.3859 133.584 68.0813C133.788 65.6467 134.018 65.1332 134.905 65.1332C135.794 65.1332 135.978 65.5516 135.978 67.5773C135.978 69.283 136.192 69.9515 136.686 69.7898C137.594 69.4928 138.02 59.8584 137.124 59.8584C136.796 59.8584 136.022 60.6768 135.405 61.6765ZM161.467 62.2359C160.107 64.4378 159.965 66.2738 161.19 65.8095C161.869 65.5528 162.04 66.0003 162.04 68.0344C162.04 69.8217 162.251 70.5115 162.748 70.3493C163.656 70.0522 164.082 60.4178 163.187 60.4178C162.859 60.4178 162.085 61.2362 161.467 62.2359ZM167.595 63.0751C167.416 65.833 166.43 66.7175 166.101 64.4166C165.848 62.6566 166.453 60.4178 167.181 60.4178C167.528 60.4178 167.697 61.5059 167.595 63.0751ZM78.2435 63.5265C76.8327 65.8873 76.6826 67.3916 77.9041 66.9284C78.5829 66.6716 78.754 67.1191 78.754 69.1532C78.754 70.9406 78.9647 71.6303 79.4622 71.4681C80.3132 71.1895 80.8015 61.5366 79.9653 61.5366C79.6724 61.5366 78.8973 62.4323 78.2435 63.5265ZM105.182 63.3548C104.745 64.0473 104.11 65.117 103.77 65.7323C103.232 66.7052 103.149 66.7231 103.134 65.8722C103.107 64.3601 100.494 64.6163 99.4185 66.2364C98.7862 67.1896 98.5766 68.6117 98.6973 71.1313C98.8451 74.2227 99.018 74.7044 100.032 74.8476C101.759 75.0915 103.109 73.2348 103.485 70.0981C103.899 66.6453 105.383 66.148 105.383 69.462C105.383 70.9948 105.625 71.6063 106.233 71.6063C106.922 71.6063 107.083 70.705 107.083 66.8512C107.083 61.9685 106.607 61.0941 105.182 63.3548ZM157.112 63.9153C155.652 64.576 154.675 67.0022 154.675 69.9655C154.675 72.7738 155.149 73.844 156.394 73.844C158.323 73.844 159.774 71.199 159.774 67.6836C159.774 64.0541 159.055 63.0359 157.112 63.9153ZM75.3018 64.463C74.805 64.9547 74.0588 66.1681 73.6429 67.1594C72.9347 68.8472 72.8588 68.8858 72.4395 67.7664C71.8554 66.2073 71.0877 66.2582 69.354 67.97C68.0797 69.2282 67.954 69.7473 68.1047 73.1391C68.2389 76.151 68.4644 76.9454 69.2293 77.0892C70.8327 77.3913 72.448 75.2207 72.8508 72.2216C73.35 68.5048 74.788 67.8537 74.788 71.3439C74.788 72.719 75.0508 73.844 75.3721 73.844C76.3324 73.844 76.5472 72.578 76.3715 67.9577C76.2185 63.9399 76.1279 63.644 75.3018 64.463ZM125.718 67.2707C125.019 68.2704 124.37 69.1879 124.277 69.3087C124.183 69.429 123.72 69.2108 123.246 68.8226C122.547 68.2492 122.126 68.2855 120.993 69.0184C119.426 70.0326 118.811 72.3111 119.083 76.0945C119.23 78.1241 119.485 78.6304 120.428 78.7636C122.285 79.0259 123.675 76.9818 123.961 73.5648C124.114 71.745 124.446 70.6446 124.779 70.8483C125.087 71.0362 125.562 70.8432 125.834 70.4192C126.152 69.9235 126.332 70.714 126.337 72.6317C126.344 74.7665 126.548 75.5497 127.054 75.3841C127.92 75.1004 128.392 65.4526 127.54 65.4526C127.237 65.4526 126.417 66.2711 125.718 67.2707ZM132.012 67.6221C132.012 68.8673 131.65 70.0874 131.162 70.4874C130.434 71.0843 130.312 70.9003 130.312 69.203C130.312 68.1138 130.467 66.8243 130.656 66.3376C131.282 64.727 132.012 65.4185 132.012 67.6221ZM158.074 67.9241C158.074 70.2609 157.562 71.7059 156.881 71.2902C156.304 70.9378 156.203 68.2223 156.718 66.897C157.315 65.3614 158.074 65.9365 158.074 67.9241ZM151.148 67.2545C149.834 68.2391 149.009 70.6597 149.009 73.5324C149.009 76.6562 150.126 77.7062 152.095 76.4319C153.662 75.4182 154.278 73.1385 154.005 69.3607C153.811 66.6682 152.863 65.9695 151.148 67.2545ZM95.7449 68.949C95.1273 69.9487 94.6214 70.9948 94.6202 71.2734C94.6191 71.552 94.1148 71.3299 93.4995 70.78C92.4588 69.8502 92.2831 69.8441 90.976 70.6894C89.397 71.7109 88.7817 73.9788 89.0548 77.7728C89.2015 79.8024 89.4565 80.3087 90.3998 80.4418C92.2571 80.7042 93.6463 78.6601 93.933 75.2431C94.0859 73.4233 94.4174 72.3229 94.7505 72.5265C95.0587 72.7145 95.5335 72.5215 95.8055 72.0975C96.1239 71.6018 96.3035 72.3923 96.3092 74.31C96.3154 76.4447 96.5194 77.2279 97.0259 77.0623C97.9341 76.7653 98.3596 67.1309 97.4644 67.1309C97.1364 67.1309 96.3624 67.9493 95.7449 68.949ZM101.983 69.2947C101.983 70.1406 101.609 71.3215 101.152 71.919C100.381 72.9254 100.318 72.8169 100.302 70.441C100.292 69.0307 100.447 67.716 100.646 67.5191C101.316 66.8579 101.983 67.744 101.983 69.2947ZM152.18 73.623C152.014 74.0521 151.614 74.4034 151.293 74.4034C150.477 74.4034 150.562 71.2264 151.417 69.7512C152.084 68.6005 152.135 68.6553 152.305 70.686C152.403 71.8726 152.347 73.1939 152.18 73.623ZM71.2248 71.674C70.7574 75.1144 69.6888 75.7941 69.6888 72.6507C69.6888 70.1014 69.9795 69.3686 70.9908 69.3686C71.3047 69.3686 71.4044 70.3521 71.2248 71.674ZM145.997 71.3456C145.472 72.4331 145.043 73.6918 145.043 74.1427C145.043 75.1435 145.973 75.2285 146.367 74.2635C146.524 73.8792 146.673 74.7598 146.698 76.2215C146.731 78.1907 146.962 78.8788 147.592 78.8788C148.281 78.8788 148.442 77.9776 148.442 74.1237C148.442 68.7941 147.659 67.9046 145.997 71.3456ZM63.4979 71.4021C62.5925 72.5377 62.3234 73.6823 62.3234 76.3905C62.3234 80.1621 62.814 80.7971 64.9863 79.836C66.9806 78.9532 68.0106 74.6691 67.0656 71.1867C66.6044 69.4883 64.9421 69.5884 63.4979 71.4021ZM122.38 72.898C122.38 73.9161 122.005 75.2375 121.548 75.835C120.777 76.8414 120.715 76.7328 120.698 74.357C120.688 72.9467 120.85 71.6247 121.058 71.42C121.892 70.596 122.38 71.1414 122.38 72.898ZM114.489 73.0804C113.583 74.2177 113.315 75.36 113.315 78.0822C113.315 81.8253 113.741 82.5324 115.638 81.9377C117.149 81.4644 118.414 78.4732 118.414 75.3723C118.414 71.5391 116.573 70.4639 114.489 73.0804ZM140.73 73.5816C139.398 75.5899 139.034 80.5034 140.113 81.9243C140.901 82.962 141.008 82.9682 142.416 82.0574C144.189 80.9101 144.6 79.5277 144.368 75.4926C144.216 72.8488 144.029 72.4225 142.954 72.2714C142.118 72.154 141.395 72.5802 140.73 73.5816ZM59.1154 74.6367C58.3137 76.2971 58.0537 76.4632 57.1398 75.8999C54.869 74.4996 52.7132 77.4925 52.7002 82.0625C52.6911 85.2076 53.1868 85.8716 55.1761 85.3782C56.7778 84.9815 57.7908 82.8736 57.7908 79.9383C57.7908 78.434 57.9987 77.8209 58.4208 78.0783C58.767 78.2897 59.273 78.1157 59.5449 77.6917C59.8667 77.1905 60.0429 77.8662 60.0486 79.6245C60.0548 81.5355 60.265 82.2605 60.7653 82.0972C61.2361 81.9433 61.5285 80.3327 61.6378 77.2956C61.7761 73.4624 61.6605 72.7251 60.9205 72.7251C60.4356 72.7251 59.6231 73.5855 59.1154 74.6367ZM65.7228 74.3575C65.7228 76.3239 65.2191 77.7599 64.529 77.7599C63.946 77.7599 63.8333 73.6582 64.401 73.0983C65.2067 72.3022 65.7228 72.7939 65.7228 74.3575ZM85.9409 74.7021C85.4157 75.7896 84.9862 77.0484 84.9862 77.4992C84.9862 78.5001 85.9166 78.5851 86.3109 77.6201C86.4678 77.2358 86.6168 78.1163 86.6412 79.5781C86.6746 81.5472 86.9058 82.2353 87.5358 82.2353C88.2248 82.2353 88.3857 81.3341 88.3857 77.4802C88.3857 72.1506 87.6027 71.2611 85.9409 74.7021ZM92.3517 74.8946C92.3517 76.1399 91.9896 77.36 91.5018 77.7599C90.7681 78.3613 90.652 78.1157 90.652 75.9636C90.652 74.5925 90.8219 73.303 91.0299 73.0983C91.8984 72.2401 92.3517 72.8555 92.3517 74.8946ZM116.714 76.2545C116.714 77.2727 116.34 78.594 115.883 79.1915C115.111 80.1979 115.049 80.0894 115.033 77.7135C115.022 76.3032 115.185 74.9813 115.392 74.7765C116.226 73.9525 116.714 74.4979 116.714 76.2545ZM137.948 74.8314C136.014 76.2025 134.576 80.434 136.261 79.7951C136.938 79.5389 137.111 79.9809 137.111 81.973C137.111 83.8224 137.332 84.473 137.961 84.473C138.653 84.473 138.811 83.5405 138.811 79.4382C138.811 76.6691 138.747 74.4073 138.669 74.4118C138.591 74.4168 138.267 74.6053 137.948 74.8314ZM142.535 79.253C142.361 79.7017 141.961 79.912 141.647 79.7202C140.857 79.2379 140.933 76.8156 141.785 75.3455C142.452 74.1947 142.503 74.2496 142.673 76.2803C142.771 77.4668 142.709 78.8044 142.535 79.253ZM82.1472 76.7809C80.7874 78.9828 80.6452 80.8189 81.8701 80.3546C82.5375 80.1017 82.72 80.5095 82.72 82.2527C82.72 83.8532 82.9574 84.473 83.5698 84.473C84.2588 84.473 84.4197 83.5718 84.4197 79.7179C84.4197 74.5265 83.9302 73.8938 82.1472 76.7809ZM108.824 76.4369C107.918 77.5725 107.649 78.7171 107.649 81.4253C107.649 85.1969 108.14 85.8319 110.312 84.8708C112.28 83.9992 113.511 78.6942 112.404 75.8478C111.881 74.5019 110.136 74.7894 108.824 76.4369ZM78.1812 79.0186C76.8214 81.2205 76.6792 83.0566 77.9041 82.5922C78.5829 82.3355 78.754 82.783 78.754 84.8171C78.754 86.6044 78.9647 87.2942 79.4622 87.132C80.3704 86.8349 80.7959 77.2005 79.9007 77.2005C79.5727 77.2005 78.7987 78.019 78.1812 79.0186ZM49.9053 79.6441C48.5002 81.8885 48.3376 83.621 49.5755 83.1517C50.2543 82.8949 50.4254 83.3424 50.4254 85.3765C50.4254 87.1639 50.6361 87.8536 51.1336 87.6914C51.9931 87.41 52.4724 77.7599 51.6265 77.7599C51.3285 77.7599 50.5534 78.608 49.9053 79.6441ZM55.8412 82.0233C55.3149 84.0949 54.3914 83.5891 54.3914 81.2284C54.3914 78.5767 55.7104 76.9001 55.9936 79.1909C56.0962 80.0167 56.0271 81.291 55.8412 82.0233ZM104.046 80.1375C103.172 81.5685 102.586 82.1251 102.572 81.5361C102.542 80.1968 100.567 80.2774 99.1505 81.6759C98.2367 82.5783 98.0174 83.5405 98.0174 86.6509C98.0174 91.0312 98.7364 91.8295 101.058 90.0259C102.13 89.1934 102.565 88.1893 102.858 85.8682C103.071 84.1849 103.456 82.9357 103.713 83.0924C103.97 83.2496 104.443 82.9318 104.764 82.3869C105.22 81.6144 105.352 82.0435 105.366 84.3332C105.382 87.1896 106.042 88.1764 106.739 86.3851C106.928 85.8984 107.083 83.7586 107.083 81.63C107.083 76.9756 106.232 76.5577 104.046 80.1375ZM111.049 79.3923C111.049 81.3587 110.545 82.7948 109.855 82.7948C109.272 82.7948 109.159 78.6931 109.727 78.1331C110.532 77.337 111.049 77.8288 111.049 79.3923ZM131.275 78.7552C130.172 79.9585 129.432 84.2823 129.968 86.3913C130.237 87.448 130.703 87.8296 131.726 87.8296C133.93 87.8296 134.931 85.7513 134.731 81.5914C134.583 78.5001 134.411 78.0184 133.397 77.8752C132.756 77.7846 131.801 78.1806 131.275 78.7552ZM73.1228 81.0824C72.4809 81.7162 71.9256 82.9279 71.8894 83.7738C71.8395 84.9362 71.7574 85.0392 71.5511 84.1933C71.0316 82.0614 70.3477 82.1212 68.7965 84.4361C67.7863 85.9432 67.0922 86.5289 66.8242 86.101C66.1256 84.9843 63.4764 86.0271 62.8446 87.6673C62.5302 88.4841 62.3483 90.554 62.4401 92.2669C62.5863 95.0008 62.7608 95.4036 63.8667 95.5586C65.5251 95.7913 67.4174 92.7922 67.4203 89.9274C67.422 88.4914 67.6758 87.8296 68.2254 87.8296C68.6667 87.8296 69.1562 87.5152 69.3137 87.1303C69.4707 86.746 69.6197 87.7736 69.6441 89.4144C69.6973 92.9718 70.9081 93.1922 71.4497 89.7439C71.6395 88.5372 71.8304 88.0892 71.8746 88.7487C71.9976 90.5825 73.5256 90.8052 75.1285 89.2225C76.3965 87.9706 76.5222 87.4469 76.3721 84.0591C76.1846 79.8365 75.2508 78.9812 73.1228 81.0824ZM126.924 82.213C125.562 84.849 125.471 85.8285 126.629 85.3894C127.308 85.1326 127.479 85.5801 127.479 87.6142C127.479 89.4016 127.69 90.0913 128.187 89.9291C129.078 89.6376 129.523 79.9976 128.646 79.9976C128.328 79.9976 127.554 80.9945 126.924 82.213ZM132.903 84.8473C132.729 85.2959 132.33 85.5063 132.016 85.3144C131.225 84.8322 131.301 82.4099 132.153 80.9397C132.82 79.789 132.872 79.8438 133.041 81.8745C133.14 83.061 133.077 84.3986 132.903 84.8473ZM45.4662 81.2429C44.6883 81.6121 43.9268 82.7433 43.516 84.1396C42.9806 85.96 42.7976 86.172 42.6282 85.1723C42.358 83.5819 40.6322 83.5136 39.0939 85.0325C38.1801 85.9348 37.9608 86.897 37.9608 90.0074C37.9608 92.8426 38.1761 93.9452 38.7744 94.1718C40.0078 94.6389 42.4934 92.4292 42.4934 90.8656C42.4934 89.3607 43.3228 89.039 43.8316 90.347C44.3047 91.5648 45.5132 91.3774 46.9546 89.8625C48.0458 88.7157 48.1914 88.0293 48.0452 84.732C47.8667 80.7193 47.5296 80.2639 45.4662 81.2429ZM75.0152 86.0394C74.7194 86.8702 74.2287 87.424 73.9245 87.2702C73.3109 86.9597 73.32 84.4294 73.9409 82.9257C74.6435 81.2228 75.6707 84.1995 75.0152 86.0394ZM95.6282 83.7738C94.2066 85.3832 93.3766 87.3037 93.7205 88.1887C93.8978 88.6452 94.3001 88.8628 94.614 88.6709C94.9613 88.4595 95.1845 89.2119 95.1845 90.5937C95.1845 92.239 95.4185 92.8644 96.0344 92.8644C96.7267 92.8644 96.8842 91.9318 96.8842 87.8296C96.8842 85.0604 96.7964 82.7948 96.6888 82.7948C96.5811 82.7948 96.1041 83.235 95.6282 83.7738ZM101.417 84.9586C101.417 85.8045 101.042 86.9854 100.585 87.5829C99.814 88.5893 99.7517 88.4807 99.7352 86.1049C99.725 84.6946 99.8803 83.3799 100.079 83.183C100.749 82.5218 101.417 83.4079 101.417 84.9586ZM121.974 84.1553C120.579 85.3401 120.42 85.847 120.409 89.1218C120.402 91.1274 120.577 92.9461 120.795 93.1631C121.57 93.9312 123.894 92.8722 124.549 91.453C124.914 90.6619 125.213 88.5428 125.213 86.7443C125.213 82.8697 124.324 82.1593 121.974 84.1553ZM46.4594 85.8716C46.4594 87.7362 46.239 88.389 45.6095 88.389C44.7172 88.389 44.5143 86.8332 45.1166 84.6129C45.6922 82.4927 46.4594 83.2121 46.4594 85.8716ZM333.286 83.7245C332.245 84.1396 332.363 87.8296 333.417 87.8296C333.878 87.8296 334.404 88.5221 334.584 89.368C334.765 90.2138 335.007 91.3713 335.123 91.9397C335.478 93.6817 334.363 99.1171 333.445 100.118C332.535 101.111 332.232 104.612 333.057 104.612C334.568 104.612 337.06 99.8852 337.505 96.1745C337.688 94.6439 338.057 93.2577 338.325 93.0949C338.958 92.7083 338.955 89.6622 338.32 89.2746C338.051 89.1101 337.681 88.0657 337.498 86.9541C336.98 83.8056 335.648 82.7841 333.286 83.7245ZM117.327 87.476C115.922 89.7204 115.76 91.453 116.998 90.9836C117.676 90.7268 117.847 91.1744 117.847 93.2084C117.847 94.9958 118.058 95.6856 118.556 95.5233C119.415 95.2419 119.894 85.5919 119.049 85.5919C118.751 85.5919 117.975 86.44 117.327 87.476ZM123.272 90.4415C123.097 90.8902 122.698 91.1005 122.384 90.9086C121.594 90.4264 121.669 88.0041 122.522 86.534C123.188 85.3832 123.24 85.438 123.409 87.4687C123.508 88.6553 123.446 89.9929 123.272 90.4415ZM89.3177 87.41C88.2338 89.128 87.7341 92.1282 88.159 94.3642C88.4389 95.8366 88.7851 96.2209 89.8333 96.2209C91.9392 96.2209 92.9182 94.2288 92.9182 89.9425C92.9182 86.2811 92.8701 86.1513 91.5148 86.1513C90.6724 86.1513 89.7942 86.6542 89.3177 87.41ZM41.0996 87.3065C41.6078 88.1188 40.8741 91.7455 40.2016 91.7455C39.9041 91.7455 39.6605 90.6127 39.6605 89.2281C39.6605 86.8383 40.2849 86.0047 41.0996 87.3065ZM33.3557 88.1943C32.8577 88.7862 32.5784 90.5456 32.5784 93.0893C32.5784 96.7675 32.6713 97.0729 33.8384 97.2368C36.2866 97.5803 38.1308 92.5595 37.0373 88.5289C36.626 87.0134 34.5115 86.8209 33.3557 88.1943ZM59.4282 89.7657C58.4378 91.4239 58.1228 91.6102 57.2367 91.0642C56.4282 90.5652 55.8979 90.6228 54.8089 91.3277C53.3857 92.2485 52.6917 94.3183 52.6917 97.6436C52.6917 101.479 53.9897 102.263 56.3999 99.8824C57.5132 98.7837 57.7908 97.94 57.7908 95.6537C57.7908 93.7013 57.9902 92.9198 58.4208 93.1827C58.767 93.3942 59.273 93.2202 59.5449 92.7961C59.8639 92.2994 60.0429 93.063 60.0486 94.9449C60.0554 97.3079 60.2191 97.803 60.9069 97.5423C61.5687 97.2911 61.7568 96.1823 61.7568 92.5248C61.7568 87.3401 61.2424 86.7303 59.4282 89.7657ZM65.7228 89.6807C65.7228 90.6989 65.3483 92.0202 64.8911 92.6177C64.12 93.6241 64.0577 93.5156 64.0412 91.1397C64.031 89.7294 64.1931 88.4075 64.401 88.2027C65.235 87.3787 65.7228 87.9241 65.7228 89.6807ZM85.9964 89.368C84.5313 91.0267 83.7489 92.908 84.1234 93.8714C84.4316 94.6652 84.5528 94.6786 85.0078 93.9676C85.3772 93.3914 85.5381 93.9424 85.5443 95.8014C85.5505 97.7868 85.7675 98.4586 86.4027 98.4586C87.095 98.4586 87.2525 97.5261 87.2525 93.4238C87.2525 90.6547 87.1647 88.389 87.0571 88.389C86.9494 88.389 86.4724 88.8293 85.9964 89.368ZM90.7194 93.581C89.7794 94.5091 89.3698 91.6202 90.1783 89.7657L90.9007 88.1093L91.0956 90.5629C91.2032 91.9123 91.0338 93.2705 90.7194 93.581ZM112.264 89.7008C109.943 92.1405 110.076 99.0181 112.444 99.0181C112.877 99.0181 113.761 98.3546 114.407 97.544C115.926 95.6369 116.127 89.2751 114.685 88.7286C113.505 88.2816 113.683 88.21 112.264 89.7008ZM323.632 89.7646C322.19 91.5749 321.408 93.6744 320.972 96.9074C320.775 98.3613 320.374 99.6978 320.081 99.8773C319.298 100.355 319.429 102.023 320.393 103.849C320.858 104.73 321.241 105.979 321.243 106.623C321.251 109.114 324.529 110.284 325.912 108.289C326.668 107.199 326.369 105.258 325.416 105.073C324.841 104.961 324.229 103.89 323.813 102.267C323.026 99.2038 323.744 94.5662 325.354 92.3201C327.508 89.316 325.896 86.9233 323.632 89.7646ZM35.6945 91.6717C35.6945 92.5175 35.32 93.6985 34.8628 94.296C34.0917 95.3024 34.0294 95.1938 34.0129 92.818C34.0027 91.4077 34.158 90.093 34.3568 89.8961C35.0271 89.2348 35.6945 90.121 35.6945 91.6717ZM113.881 93.3908C113.881 95.6106 113.15 96.7557 112.448 95.6341C111.935 94.8157 112.664 91.1861 113.34 91.1861C113.638 91.1861 113.881 92.178 113.881 93.3908ZM79.7619 92.6999C78.5857 93.9944 77.9596 97.365 78.4333 99.8572C78.7375 101.457 79.0571 101.815 80.1829 101.815C82.3704 101.815 83.3721 99.7252 83.1732 95.577C83.0253 92.4857 82.8525 92.004 81.8389 91.8608C81.1982 91.7702 80.2639 92.1478 79.7619 92.6999ZM106.612 92.7693C104.578 94.7782 104.51 102.375 106.528 102.375C106.861 102.375 107.771 101.745 108.551 100.976C109.825 99.7179 109.951 99.1987 109.8 95.807C109.613 91.6197 108.679 90.7285 106.612 92.7693ZM55.9817 95.7577C55.7778 98.4939 54.3914 99.4656 54.3914 96.8727C54.3914 94.8324 54.8922 93.4238 55.6174 93.4238C55.9138 93.4238 56.0781 94.4744 55.9817 95.7577ZM48.3789 95.3991C47.0463 97.4075 46.6832 102.321 47.7619 103.742C48.5472 104.776 48.6611 104.783 50.0469 103.886C51.6837 102.827 52.299 100.609 52.0225 96.7675C51.8724 94.6848 51.6333 94.2339 50.6027 94.089C49.767 93.9715 49.0435 94.3978 48.3789 95.3991ZM81.3455 98.8329C81.171 99.2815 80.7715 99.4919 80.4576 99.3C79.6673 98.8178 79.7432 96.3955 80.5953 94.9253C81.2622 93.7746 81.3137 93.8294 81.4831 95.8601C81.5817 97.0466 81.5194 98.3842 81.3455 98.8329ZM108.255 97.224C108.067 98.3646 107.663 99.2978 107.356 99.2978C106.523 99.2978 106.381 97.2033 107.089 95.3639C107.925 93.1945 108.711 94.4498 108.255 97.224ZM73.9188 96.2416C72.7472 97.5205 72.1149 103.251 73.0027 104.548C73.7931 105.703 76.1772 104.891 76.9574 103.201C77.3222 102.41 77.6208 100.264 77.6208 98.4323C77.6208 95.3119 77.537 95.1021 76.2922 95.1021C75.5613 95.1021 74.4933 95.6151 73.9188 96.2416ZM100.887 95.8981C99.8185 97.1686 99.15 100.7 99.5279 103.074C99.8044 104.809 100.092 105.172 101.193 105.172C103.33 105.172 104.334 103.044 104.136 98.9336C103.987 95.8232 103.82 95.3611 102.783 95.2151C102.133 95.1233 101.279 95.4305 100.887 95.8981ZM50.184 101.071C50.0095 101.519 49.6101 101.73 49.2962 101.538C48.5058 101.055 48.5818 98.6332 49.4339 97.163C50.1007 96.0123 50.1523 96.0671 50.3217 98.0978C50.4203 99.2843 50.358 100.622 50.184 101.071ZM42.809 98.5834C42.324 99.267 41.9268 100.259 41.9268 100.788C41.9268 102.202 40.9704 102.542 40.6277 101.25C40.2356 99.7677 39.3364 99.8466 37.652 101.51C36.4571 102.69 36.2611 103.402 36.2611 106.562C36.2611 109.37 36.469 110.321 37.1398 110.575C38.3495 111.033 40.5727 108.842 41.0996 106.671C41.4758 105.121 41.5619 105.054 41.7687 106.151C41.9353 107.037 42.4039 107.409 43.3506 107.409C45.4815 107.409 46.4594 105.435 46.4594 101.131C46.4594 97.4836 46.4067 97.3398 45.0752 97.3398C44.2866 97.3398 43.3109 97.8752 42.809 98.5834ZM75.6797 102.189C75.5052 102.638 75.1058 102.848 74.7919 102.657C74.0016 102.174 74.0775 99.752 74.9296 98.2819C75.5965 97.1311 75.648 97.1859 75.8174 99.2166C75.916 100.403 75.8537 101.741 75.6797 102.189ZM97.6718 97.7778C96.9211 98.2561 95.1845 101.488 95.1845 102.406C95.1845 102.762 95.567 102.909 96.0344 102.732C96.7007 102.479 96.8842 102.883 96.8842 104.597C96.8842 106.823 97.7772 108.119 98.3301 106.696C98.9188 105.182 98.3403 97.351 97.6718 97.7778ZM103.108 99.4013C103.113 99.766 102.847 100.764 102.518 101.62C102.036 102.87 101.813 103.015 101.385 102.356C100.894 101.599 101.163 98.8239 101.838 97.6995C102.165 97.1541 103.095 98.3993 103.108 99.4013ZM68.622 98.9526C66.5432 101.005 66.2446 107.04 68.1653 108.192C69.0095 108.699 69.4395 108.525 70.5976 107.21C71.8401 105.799 71.9846 105.18 71.8378 101.901C71.6525 97.7582 70.7086 96.8922 68.622 98.9526ZM45.0497 102.299C44.8418 103.417 44.4503 104.558 44.1806 104.833C43.3857 105.643 42.9381 102.763 43.5942 101.061C44.4452 98.8491 45.5211 99.7643 45.0497 102.299ZM70.0276 104.951C69.861 105.38 69.4616 105.731 69.1398 105.731C68.3245 105.731 68.4089 102.554 69.2639 101.079C69.9307 99.9282 69.9823 99.9831 70.1517 102.014C70.2503 103.2 70.1942 104.522 70.0276 104.951ZM222.546 128.283C195.528 143.725 173.109 156.67 172.726 157.049C169.36 160.389 177.396 155.944 255.217 111.431C271.218 102.278 274.592 100.071 272.427 100.172C272.012 100.192 249.565 112.841 222.546 128.283ZM64.0169 102.514C62.8339 104.43 62.5347 106.291 63.4095 106.291C63.6951 106.291 64.0571 105.976 64.2146 105.591C64.3715 105.207 64.5205 106.087 64.5449 107.549C64.5783 109.518 64.8095 110.207 65.4395 110.207C66.1285 110.207 66.2894 109.305 66.2894 105.451C66.2894 100.26 65.7999 99.6273 64.0169 102.514ZM90.9675 101.94C90.38 102.768 90.0854 104.448 90.0854 106.975C90.0854 110.636 90.1335 110.766 91.4888 110.766C93.8752 110.766 95.6338 106.412 94.8367 102.476C94.5562 101.09 94.1857 100.696 93.163 100.696C92.4406 100.696 91.4525 101.256 90.9675 101.94ZM32.852 105.191C31.6135 107.587 31.7999 109.071 33.1954 107.927C33.8645 107.379 33.9948 107.702 33.9948 109.905C33.9948 111.762 34.2033 112.469 34.703 112.306C35.1738 112.152 35.4662 110.542 35.5755 107.505C35.7121 103.717 35.5931 102.934 34.8792 102.934C34.4056 102.934 33.4928 103.949 32.852 105.191ZM39.6605 105.098C39.6605 105.944 39.286 107.125 38.8288 107.722C38.0577 108.729 37.9954 108.62 37.9789 106.244C37.9687 104.834 38.124 103.519 38.3228 103.322C38.9931 102.661 39.6605 103.547 39.6605 105.098ZM86.6973 105.149C85.346 107.765 85.244 108.765 86.3715 108.337C86.9857 108.105 87.2333 108.582 87.363 110.246C87.6775 114.284 88.665 112.568 88.8327 107.692C89.0163 102.361 88.4724 101.714 86.6973 105.149ZM93.1981 106.306C92.9964 107.213 92.5959 108.1 92.308 108.275C91.7064 108.642 91.5828 103.88 92.1789 103.292C92.8877 102.591 93.5738 104.618 93.1981 106.306ZM58.9064 104.514C57.8067 105.393 57.5358 106.212 57.3732 109.153C57.1296 113.559 57.6792 114.608 59.7443 113.678C61.6577 112.817 62.4129 110.736 62.2067 106.894C62.018 103.367 61.1358 102.732 58.9064 104.514ZM60.3959 110.545C60.2293 110.974 59.8299 111.325 59.5081 111.325C58.6928 111.325 58.7772 108.148 59.6322 106.673C60.299 105.522 60.3506 105.577 60.52 107.608C60.6186 108.795 60.5625 110.116 60.3959 110.545ZM82.0457 106.814C80.4333 108.066 79.6355 111.714 80.3766 114.449C80.9273 116.483 82.0871 116.746 83.7517 115.214C84.8888 114.169 85.0151 113.585 84.8684 110.068C84.7766 107.864 84.431 106.011 84.0905 105.901C83.754 105.791 82.8338 106.202 82.0457 106.814ZM54.1478 108.249C53.1217 110.13 52.1251 110.819 52.1251 109.647C52.1251 108.663 50.0707 109.049 48.9801 110.238C47.8044 111.521 47.1585 117.756 48.0639 119.077C49.5829 121.294 52.6917 117.392 52.6917 113.268C52.6917 111.937 52.9041 111.389 53.3217 111.644C53.6679 111.855 54.1738 111.681 54.4458 111.257C54.7681 110.755 54.9438 111.412 54.9494 113.144C54.9557 115.129 55.1727 115.801 55.8078 115.801C56.4968 115.801 56.6577 114.9 56.6577 111.046C56.6577 105.707 55.9591 104.928 54.1478 108.249ZM77.1103 110.518C76.4559 111.613 75.9047 112.808 75.8854 113.175C75.8656 113.542 75.6185 113.277 75.337 112.584C74.6786 110.967 73.6067 110.988 72.0265 112.649C70.933 113.798 70.7891 114.481 70.9358 117.818C71.0718 120.9 71.295 121.699 72.0622 121.843C73.6168 122.136 75.2423 120.003 75.6758 117.1C76.214 113.493 77.252 112.882 77.6208 115.956C77.7766 117.255 78.1591 118.257 78.4707 118.182C79.1959 118.007 79.5506 108.528 78.8321 108.528C78.5392 108.528 77.7642 109.424 77.1103 110.518ZM83.4939 109.374C83.8797 110.366 83.3336 113.468 82.7064 113.851C81.976 114.296 81.5438 112.401 81.9217 110.411C82.3018 108.411 82.9528 107.981 83.4939 109.374ZM44.4367 113.843C43.4039 115.737 42.4934 116.392 42.4934 115.241C42.4934 114.118 40.2781 114.722 39.1353 116.156C38.2299 117.292 37.9608 118.436 37.9608 121.144C37.9608 124.916 38.4515 125.551 40.6237 124.59C42.0497 123.958 43.0599 121.542 43.0599 118.761C43.0599 117.504 43.2747 116.985 43.69 117.238C44.0361 117.449 44.5421 117.275 44.8141 116.851C45.1359 116.35 45.3121 117.026 45.3177 118.784C45.324 120.695 45.5342 121.42 46.0344 121.257C47.1036 120.907 47.3478 111.885 46.2883 111.885C45.8571 111.885 45.0242 112.766 44.4367 113.843ZM50.9919 113.517C50.9919 115.484 50.4883 116.92 49.7982 116.92C49.2152 116.92 49.1024 112.818 49.6701 112.258C50.4758 111.462 50.9919 111.954 50.9919 113.517ZM74.2214 116.068C74.2214 117.751 73.678 119.157 73.0276 119.157C72.4543 119.157 72.3273 115.06 72.8837 114.511C73.5183 113.884 74.2214 114.703 74.2214 116.068ZM66.3715 115.846C65.2667 116.861 65.1273 117.481 65.2729 120.734C65.4112 123.821 65.6169 124.494 66.473 124.655C68.1279 124.966 69.5653 123.196 69.9608 120.36C70.3602 117.489 69.5857 114.682 68.3931 114.682C67.9766 114.682 67.0673 115.206 66.3715 115.846ZM41.3602 119.144C41.3602 121.081 40.8526 122.514 40.1665 122.514C39.5959 122.514 39.4792 119.156 40.0033 117.808C40.5155 116.489 41.3602 117.321 41.3602 119.144ZM68.5557 119.402C68.5557 120.423 68.1732 121.571 67.7058 121.954C66.9721 122.556 66.856 122.31 66.856 120.158C66.856 118.787 67.0191 117.505 67.218 117.308C67.9324 116.602 68.5557 117.578 68.5557 119.402ZM33.4452 119.543C32.4679 120.77 32.277 121.673 32.4124 124.438C32.5557 127.369 32.7364 127.851 33.7427 127.993C35.4328 128.232 36.9194 126.288 37.2481 123.409C37.8328 118.284 35.9631 116.382 33.4452 119.543ZM60.3789 119.457C59.6968 120.485 59.4837 121.833 59.6055 124.352C59.7517 127.369 59.9279 127.85 60.9381 127.993C61.5789 128.083 62.5336 127.687 63.0599 127.113C64.163 125.91 64.903 121.586 64.367 119.477C63.8741 117.537 61.6605 117.526 60.3789 119.457ZM273.371 123.116C270.255 124.933 267.623 126.8 267.523 127.264C267.422 127.728 267.46 128.108 267.608 128.108C268.63 128.108 279.887 121.142 279.887 120.51C279.887 119.365 279.617 119.473 273.371 123.116ZM35.6945 122.44C35.6945 123.286 35.32 124.467 34.8628 125.064C34.0917 126.071 34.0294 125.962 34.0129 123.586C34.0027 122.176 34.158 120.861 34.3568 120.664C35.0271 120.003 35.6945 120.889 35.6945 122.44ZM56.2866 122.651C55.4509 123.958 54.6616 124.714 54.5325 124.33C54.1251 123.124 51.6446 123.542 50.6934 124.976C50.0611 125.929 49.8514 127.351 49.9721 129.871C50.1336 133.242 50.214 133.423 51.5585 133.423C53.2492 133.423 54.9557 130.543 54.9568 127.689C54.9574 126.493 55.2327 125.87 55.7608 125.87C56.2021 125.87 56.6917 125.556 56.8492 125.171C57.0061 124.787 57.1551 125.814 57.1795 127.455C57.2112 129.578 57.4288 130.372 57.9324 130.208C58.8271 129.915 59.2679 120.276 58.3863 120.276C58.0667 120.276 57.1217 121.345 56.2866 122.651ZM62.8899 122.758C62.8899 123.779 62.5075 124.928 62.0401 125.311C61.3064 125.912 61.1902 125.667 61.1902 123.515C61.1902 122.144 61.3534 120.861 61.5523 120.664C62.2667 119.959 62.8899 120.935 62.8899 122.758ZM75.3931 126.11C74.3262 127.231 74.052 128.165 74.0016 130.853C73.933 134.486 74.5999 135.693 76.3698 135.138C78.0038 134.626 78.8412 132.123 78.6435 128.344C78.4435 124.52 77.5132 123.881 75.3931 126.11ZM46.4979 127.968C45.831 129.215 45.3659 129.669 45.3512 129.087C45.3081 127.406 43.6526 128.016 42.656 130.08C41.9036 131.638 41.6027 131.872 41.2209 131.198C40.4747 129.883 39.9784 130.154 38.554 132.656C37.4656 134.568 37.1495 134.809 36.7217 134.055C36.0118 132.803 35.3138 132.909 33.686 134.516C32.4951 135.692 32.2951 136.411 32.2951 139.518C32.2951 141.514 32.5523 143.304 32.8668 143.496C34.856 144.709 37.3942 141.249 37.3942 137.323C37.3942 135.992 37.6067 135.444 38.0243 135.699C38.3704 135.91 38.8764 135.736 39.1483 135.312C39.4673 134.816 39.6464 135.579 39.652 137.461C39.6588 139.824 39.8226 140.319 40.5104 140.059C41.1342 139.822 41.3602 138.85 41.3602 136.407C41.3602 134.106 41.5551 133.196 41.9903 133.461C42.3364 133.673 42.8424 133.499 43.1143 133.075C43.4333 132.578 43.6124 133.342 43.618 135.223C43.6248 137.586 43.7886 138.082 44.4764 137.821C45.1002 137.584 45.3262 136.612 45.3262 134.169C45.3262 131.869 45.5211 130.958 45.9563 131.224C46.3024 131.435 46.8084 131.261 47.0803 130.837C47.3982 130.342 47.5784 131.141 47.584 133.071C47.5914 135.679 47.7053 135.985 48.4424 135.381C49.6611 134.382 49.6735 125.87 48.456 125.87C47.9959 125.87 47.1149 126.815 46.4979 127.968ZM53.2582 127.722C53.2582 128.74 52.8837 130.061 52.4265 130.659C51.6554 131.665 51.5931 131.556 51.5766 129.181C51.5664 127.77 51.7285 126.448 51.9364 126.244C52.7704 125.42 53.2582 125.965 53.2582 127.722ZM76.5551 132.741C75.6152 133.669 75.2055 130.78 76.014 128.925L76.7364 127.269L76.9313 129.723C77.0389 131.072 76.8695 132.43 76.5551 132.741ZM270.538 132.783C265.553 135.65 247.004 146.251 229.32 156.342C211.583 166.464 197.167 175.033 197.167 175.454C197.167 175.875 197.282 176.219 197.423 176.219C197.819 176.219 278.974 129.788 279.525 129.245C279.794 128.981 279.922 128.497 279.809 128.168C279.696 127.84 275.524 129.916 270.538 132.783ZM69.7234 129.193C69.0814 129.827 68.5557 130.96 68.5557 131.711C68.5557 132.463 68.3007 133.232 67.9891 133.423C67.6775 133.613 67.4225 133.25 67.4225 132.616C67.4225 131.768 67.0582 131.465 66.0384 131.465C63.8645 131.465 62.8899 133.408 62.8899 137.743C62.8899 141.347 62.9557 141.534 64.2186 141.534C65.9625 141.534 67.1698 140.098 67.746 137.339C68.1738 135.29 68.2316 135.233 68.4254 136.672C68.712 138.797 70.0174 139.153 71.7228 137.571C73.0044 136.382 73.1183 135.905 72.9693 132.331C72.7857 127.94 71.8797 127.064 69.7234 129.193ZM223.513 151.561C196.192 167.204 182.654 175.255 182.519 175.938C182.329 176.903 182.419 176.899 184.219 175.859C185.264 175.255 203.902 164.616 225.638 152.215C248.162 139.365 265.156 129.334 265.156 128.888C265.156 128.459 264.965 128.13 264.731 128.157C264.497 128.184 245.949 138.716 223.513 151.561ZM71.6684 133.717C71.4667 134.625 71.0735 135.507 70.7948 135.677C69.9483 136.193 69.5846 133.486 70.2639 131.723C70.8321 130.246 70.963 130.175 71.4684 131.066C71.7806 131.617 71.8707 132.81 71.6684 133.717ZM60.499 134.681C60.0225 135.22 59.2282 136.416 58.7341 137.339C58.1319 138.465 57.8288 138.695 57.8135 138.038C57.7783 136.526 55.1676 136.782 54.0928 138.402C53.4605 139.355 53.2509 140.777 53.3715 143.297C53.5228 146.462 53.6764 146.868 54.7806 147.023C56.3863 147.249 57.5834 145.417 58.0945 141.954C58.5965 138.549 60.0571 138.236 60.0571 141.534C60.0571 143.15 60.2934 143.772 60.9069 143.772C61.5993 143.772 61.7568 142.839 61.7568 138.737C61.7568 135.968 61.669 133.702 61.5613 133.702C61.4537 133.702 60.9761 134.143 60.499 134.681ZM66.2894 135.866C66.2894 136.712 65.9149 137.893 65.4577 138.49C64.6865 139.497 64.6242 139.388 64.6078 137.012C64.5976 135.602 64.7528 134.288 64.9517 134.091C65.622 133.429 66.2894 134.315 66.2894 135.866ZM35.6945 137.791C35.6945 138.809 35.32 140.131 34.8628 140.728C34.0917 141.735 34.0294 141.626 34.0129 139.25C34.0027 137.84 34.1648 136.518 34.3727 136.313C35.2067 135.489 35.6945 136.035 35.6945 137.791ZM332.554 137.981C332.073 138.11 331.308 139.253 330.854 140.522C329.767 143.559 328.498 144.35 326.942 142.959C326.299 142.385 325.694 142.018 325.598 142.143C325.502 142.27 324.883 143.078 324.224 143.939C323.236 145.228 323.124 145.786 323.59 147.108C324.323 149.183 322.998 151.889 321.009 152.382C319.984 152.635 319.436 153.305 319.009 154.825C318.204 157.688 318.223 157.758 319.83 157.758C321.036 157.758 321.247 158.015 321.247 159.487C321.247 160.439 320.737 161.858 320.113 162.64C318.881 164.187 318.703 165.41 319.526 166.694C319.972 167.39 320.274 167.314 321.471 166.203C323.532 164.292 324.824 164.975 324.549 167.832C324.347 169.922 324.428 170.065 325.816 170.065C327.045 170.065 327.411 169.697 327.951 167.918C328.309 166.737 329.134 165.296 329.784 164.716C330.946 163.677 330.981 163.681 331.964 164.967L332.963 166.275L334.41 164.448C335.642 162.894 335.773 162.381 335.29 161.012C334.467 158.681 335.657 156.115 337.751 155.701C339.011 155.452 339.486 154.942 339.933 153.354C340.7 150.627 340.708 150.655 339.094 150.255C337.294 149.809 337.19 147.697 338.854 145.39C339.715 144.196 339.931 143.31 339.658 142.087C339.208 140.061 338.824 140.013 337.149 141.774C335.227 143.794 334.083 143.07 334.427 140.052C334.707 137.607 334.56 137.445 332.554 137.981ZM51.2112 139.735C50.865 139.955 50.0475 141.143 49.3953 142.373C48.7427 143.604 48.1982 144.198 48.184 143.692C48.141 142.112 46.4905 142.012 44.9857 143.498C43.7177 144.75 43.592 145.273 43.7421 148.661C43.8764 151.673 44.1019 152.468 44.8667 152.611C46.4781 152.915 48.0854 150.743 48.4928 147.71C48.7257 145.977 49.1529 144.891 49.601 144.891C50.0027 144.891 50.4594 144.576 50.6169 144.192C50.7738 143.807 50.9228 144.864 50.9472 146.541C50.9783 148.657 51.1727 149.412 51.5829 149.007C52.4129 148.187 52.0531 139.199 51.2112 139.735ZM56.6577 141.46C56.6577 142.306 56.2832 143.487 55.8259 144.085C55.0548 145.091 54.9925 144.983 54.9761 142.607C54.9659 141.196 55.1211 139.882 55.32 139.685C55.9902 139.024 56.6577 139.91 56.6577 141.46ZM76.4814 141.674C75.1409 143.845 74.9806 145.712 76.1732 145.259C76.7874 145.027 77.035 145.504 77.1647 147.168C77.4792 151.206 78.4667 149.49 78.6344 144.614C78.8146 139.384 78.316 138.704 76.4814 141.674ZM128.471 145.517C124.186 147.989 120.68 150.359 120.68 150.783C120.68 151.68 136.621 142.77 136.978 141.674C137.362 140.493 136.525 140.871 128.471 145.517ZM71.0418 144.069C69.7092 146.077 69.346 150.991 70.4248 152.412C71.2129 153.449 71.3194 153.456 72.7273 152.545C74.5007 151.397 74.9115 150.015 74.6797 145.98C74.5279 143.336 74.3404 142.91 73.2656 142.759C72.4299 142.641 71.7064 143.068 71.0418 144.069ZM46.792 147.906C46.2339 150.841 45.3262 150.958 45.3262 148.094C45.3262 146.743 45.5007 145.465 45.7132 145.254C46.5223 144.456 47.1529 146.006 46.792 147.906ZM72.8469 149.74C72.6724 150.189 72.2729 150.399 71.9591 150.208C71.1687 149.725 71.2446 147.303 72.0967 145.833C72.7636 144.682 72.8152 144.737 72.9846 146.768C73.0831 147.954 73.0208 149.292 72.8469 149.74ZM39.1347 146.925C38.1155 148.204 37.941 149.063 38.0792 152.123C38.2101 155.038 38.4401 155.825 39.201 155.968C40.741 156.258 42.3806 154.129 42.8135 151.276C43.5574 146.378 41.5041 143.95 39.1347 146.925ZM67.2214 146.709C66.7851 147.402 66.1494 148.471 65.8095 149.087C65.2718 150.059 65.1885 150.077 65.1732 149.226C65.1466 147.714 62.5336 147.97 61.4582 149.591C60.8259 150.544 60.6163 151.966 60.737 154.486C60.8984 157.857 60.9789 158.037 62.3234 158.037C63.9925 158.037 65.7205 155.169 65.7217 152.397C65.7222 151.236 66.001 150.671 66.5727 150.671C67.18 150.671 67.4225 151.283 67.4225 152.816C67.4225 154.349 67.665 154.96 68.2724 154.96C68.9613 154.96 69.1222 154.059 69.1222 150.205C69.1222 145.323 68.6469 144.448 67.2214 146.709ZM130.735 149.305C124.934 152.662 123.656 153.61 124.204 154.15C124.711 154.652 137.097 147.507 137.105 146.709C137.114 145.674 136.759 145.818 130.735 149.305ZM333.241 148.054C335.362 149.949 333.947 156.456 330.811 159.232C328.699 161.101 327.148 161.347 325.808 160.024C323.576 157.82 324.956 151.662 328.385 148.525C330.156 146.904 331.778 146.747 333.241 148.054ZM41.3602 149.88C41.3602 151.846 40.8565 153.282 40.1665 153.282C39.5835 153.282 39.4707 149.18 40.0384 148.621C40.8441 147.824 41.3602 148.316 41.3602 149.88ZM34.2214 149.235C32.9455 150.076 32.2951 152.186 32.2951 155.483C32.2951 158.67 32.3761 158.876 33.6237 158.876C35.5262 158.876 36.9172 157.073 37.2481 154.177C37.7517 149.765 36.5053 147.729 34.2214 149.235ZM64.0231 152.336C64.0231 153.354 63.6486 154.676 63.1914 155.273C62.4203 156.28 62.3579 156.171 62.3415 153.795C62.3313 152.385 62.4934 151.063 62.7013 150.858C63.5353 150.034 64.0231 150.58 64.0231 152.336ZM35.6945 153.269C35.6945 155.205 35.1869 156.639 34.5008 156.639C33.9302 156.639 33.8135 153.281 34.3376 151.933C34.8498 150.614 35.6945 151.446 35.6945 153.269ZM56.5789 152.114C55.3936 153.061 55.2412 153.649 55.2412 157.276C55.2412 161.846 55.9381 162.601 58.3647 160.662C60.6316 158.849 60.6203 151.044 58.3506 151.044C58.1121 151.044 57.3143 151.526 56.5789 152.114ZM130.986 154.331C124.848 157.768 123.646 158.635 124.224 159.205C124.757 159.731 137.111 152.603 137.111 151.769C137.111 151.371 137.047 151.048 136.969 151.052C136.892 151.056 134.199 152.532 130.986 154.331ZM51.873 155.815C51.1359 157.166 50.6129 157.607 50.2146 157.214C48.4344 155.456 46.0611 157.509 45.541 161.255C45.0282 164.947 45.5931 166.708 47.2877 166.708C49.2248 166.708 50.4254 164.722 50.4254 161.516C50.4254 159.674 50.6265 158.933 51.0554 159.195C51.4016 159.406 51.9075 159.232 52.1795 158.808C52.5019 158.306 52.6775 158.963 52.6832 160.695C52.6894 162.68 52.9064 163.352 53.5415 163.352C54.2305 163.352 54.3914 162.451 54.3914 158.597C54.3914 153.251 53.6928 152.479 51.873 155.815ZM58.3574 155.693C58.3574 156.711 57.9829 158.032 57.5256 158.63C56.7545 159.636 56.6922 159.528 56.6758 157.152C56.6656 155.741 56.8276 154.419 57.0356 154.215C57.8696 153.391 58.3574 153.936 58.3574 155.693ZM78.329 156.609C77.4701 157.984 77.4067 159.436 78.205 159.436C78.9766 159.436 79.4559 158.128 79.2236 156.658C79.0378 155.479 79.0355 155.479 78.329 156.609ZM74.844 158.069C73.4333 160.43 73.2831 161.934 74.5047 161.471C75.1834 161.214 75.3545 161.662 75.3545 163.696C75.3545 165.483 75.5653 166.173 76.0627 166.011C76.9137 165.732 77.4021 156.079 76.5659 156.079C76.2729 156.079 75.4979 156.975 74.844 158.069ZM128.896 160.639C119.76 165.854 120.505 165.351 120.764 166.118C120.875 166.447 124.511 164.703 128.844 162.242C137.664 157.233 137.302 157.479 137.028 156.689C136.918 156.371 133.258 158.148 128.896 160.639ZM179.604 160.748C175.409 163.165 172.443 165.233 172.328 165.822C172.115 166.912 172.562 166.692 182.401 160.867C186.604 158.379 188.603 156.608 187.158 156.654C186.898 156.662 183.499 158.504 179.604 160.748ZM43.8475 159.304C43.1183 159.78 41.3602 163.018 41.3602 163.883C41.3602 164.207 41.7427 164.471 42.2101 164.471C42.8237 164.471 43.0599 165.092 43.0599 166.708C43.0599 168.325 43.2962 168.946 43.9098 168.946C44.6022 168.946 44.7597 168.014 44.7597 163.911C44.7597 161.142 44.6962 158.88 44.618 158.885C44.5398 158.89 44.1931 159.078 43.8475 159.304ZM48.4843 163.726C48.3098 164.175 47.9104 164.385 47.5965 164.193C46.8061 163.711 46.882 161.289 47.7342 159.818C48.401 158.668 48.4526 158.723 48.622 160.753C48.7206 161.94 48.6582 163.277 48.4843 163.726ZM69.7528 160.321C69.0945 161.148 68.5557 162.279 68.5557 162.835C68.5557 163.39 68.3007 164.001 67.9891 164.191C67.6775 164.381 67.4225 164.018 67.4225 163.385C67.4225 162.613 67.0554 162.233 66.3115 162.233C64.8412 162.233 62.8899 164.357 62.8899 165.957C62.8899 166.859 62.6418 167.139 62.0435 166.912C61.5778 166.735 61.3041 166.42 61.435 166.21C61.5664 166.001 61.2463 165.8 60.7239 165.764C60.201 165.728 59.2639 165.537 58.6407 165.341C57.8123 165.08 52.4809 167.848 38.8107 175.635C28.5274 181.492 20.1138 186.558 20.1138 186.892C20.1138 187.615 56.9211 208.665 58.1846 208.665C58.6639 208.665 63.6072 206.085 69.1698 202.931L79.2837 197.197L79.3018 187.019C79.32 177.126 79.2854 176.817 78.061 175.971C77.3687 175.492 77.1137 175.1 77.4945 175.1C77.8758 175.1 78.1874 174.611 78.1874 174.014C78.1874 173.416 78.4423 172.773 78.754 172.582C79.4514 172.157 79.5092 170.065 78.8231 170.065C77.993 170.065 76.9302 171.653 76.5568 173.449C76.2208 175.068 76.1511 175.105 75.0712 174.243C74.448 173.746 74.2962 173.522 74.7341 173.746C75.2616 174.017 75.3914 173.933 75.1194 173.499C74.8939 173.138 74.4831 172.982 74.2067 173.151C73.9296 173.32 72.2899 172.671 70.563 171.708C68.15 170.363 67.4225 169.654 67.4225 168.646C67.4225 167.925 67.6775 167.178 67.9891 166.988C68.3007 166.798 68.5557 167.169 68.5557 167.812C68.5557 169.572 70.1143 169.832 71.7228 168.339C73.0044 167.15 73.1183 166.673 72.9693 163.1C72.7812 158.595 71.8021 157.749 69.7528 160.321ZM130.454 164.827C126.82 166.91 124.08 168.841 124.08 169.319C124.08 170.01 124.403 169.964 125.921 169.06C126.934 168.458 129.866 166.779 132.437 165.329C135.008 163.88 137.111 162.339 137.111 161.904C137.111 161.47 137.047 161.127 136.969 161.143C136.892 161.159 133.96 162.817 130.454 164.827ZM71.5874 163.84C71.5409 164.812 71.3239 166.044 71.1058 166.577C70.7557 167.432 70.6497 167.397 70.214 166.282C69.5982 164.704 70.1851 161.553 71.0389 161.851C71.3868 161.973 71.6338 162.868 71.5874 163.84ZM37.1432 163.477C35.9665 165.135 35.9092 171.645 37.0668 172.083C39.5183 173.013 41.792 168.649 41.0662 164.407C40.7568 162.601 40.4684 162.233 39.3597 162.233C38.6226 162.233 37.6299 162.79 37.1432 163.477ZM32.8271 166.775C31.9466 168.479 31.8022 169.243 32.273 169.707C32.7432 170.172 33.0481 170.118 33.443 169.501C33.8169 168.917 33.9801 169.57 33.9863 171.672C33.9937 174.28 34.1076 174.585 34.8447 173.981C36.0651 172.981 36.0753 164.471 34.856 164.471C34.3954 164.471 33.4821 165.508 32.8271 166.775ZM39.6605 166.635C39.6605 167.48 39.286 168.661 38.8288 169.259C38.0577 170.265 37.9954 170.157 37.9789 167.781C37.9687 166.37 38.124 165.056 38.3228 164.859C38.9931 164.198 39.6605 165.084 39.6605 166.635ZM66.3812 167.211L66.5925 169.4L65.0242 168.599C64.1619 168.159 63.4565 167.664 63.4565 167.5C63.4565 167.336 63.7115 167.357 64.0231 167.548C64.3404 167.741 64.5897 167.305 64.5897 166.555C64.5897 163.549 66.0797 164.095 66.3812 167.211ZM179.604 168.689C175.709 170.959 172.435 173.221 172.331 173.717C172.103 174.793 172.828 174.464 180.654 169.944C185.835 166.951 187.536 165.715 187.536 164.943C187.536 164.138 186.898 164.44 179.604 168.689ZM283.815 166.469C283.057 167.267 280.976 168.732 279.191 169.726L275.944 171.532L316.468 194.642C338.756 207.353 357.084 217.658 357.198 217.544C357.311 217.43 357.481 212.981 357.576 207.657L357.747 197.977L354.086 195.45C347.943 191.211 338.949 186.053 330.253 181.781L321.979 177.717L318.448 179.835C316.505 180.999 314.364 181.947 313.69 181.939C311.755 181.918 307.112 179.065 306.805 177.708C306.655 177.043 306.464 175.388 306.382 174.031C306.203 171.08 307.847 171.788 286.081 165.285C285.592 165.139 284.575 165.67 283.815 166.469ZM129.289 170.614C121.507 175.078 120.235 175.965 120.808 176.531C121.114 176.833 135.615 168.923 136.75 167.834C137.018 167.577 137.146 167.123 137.033 166.828C136.92 166.531 133.435 168.235 129.289 170.614ZM377.646 174.663C373.145 179.854 368.37 189.349 365.722 198.371C363.583 205.659 361.192 222.482 362.589 220.413C362.9 219.952 363.164 218.315 363.175 216.777C363.264 204.294 369.007 187.579 376.967 176.638C378.701 174.254 380.024 172.303 379.906 172.303C379.788 172.303 378.771 173.364 377.646 174.663ZM128.658 186.716C122.032 190.497 119.422 192.46 121.058 192.434C121.966 192.42 136.763 183.682 136.983 183.03C137.376 181.866 136.398 182.299 128.658 186.716ZM130.879 190.552C125.295 193.76 123.639 194.99 124.182 195.527C124.626 195.965 136.692 188.966 136.975 188.106C137.348 186.974 136.549 187.294 130.879 190.552ZM385.412 196.777C380.141 201.915 375.158 208.851 372.638 214.564C370.97 218.344 369.266 224.888 369.95 224.888C370.194 224.888 370.561 223.855 370.765 222.591C371.393 218.715 374.338 211.942 377.434 207.253C379.054 204.799 382.875 200.337 385.925 197.337C388.975 194.337 391.237 191.882 390.952 191.882C390.668 191.882 388.175 194.085 385.412 196.777ZM130.735 195.737C124.934 199.094 123.656 200.042 124.204 200.583C124.711 201.084 137.097 193.939 137.105 193.141C137.114 192.106 136.759 192.251 130.735 195.737ZM128.612 202.01C124.405 204.436 120.873 206.841 120.763 207.353C120.585 208.178 120.779 208.161 122.463 207.194C123.508 206.594 127.229 204.476 130.732 202.489C134.235 200.502 137.104 198.561 137.106 198.176C137.109 197.792 136.92 197.504 136.686 197.538C136.452 197.571 132.819 199.583 128.612 202.01ZM29.507 198.922C29.5342 199.573 29.6685 199.706 29.8492 199.26C30.0129 198.856 29.9925 198.373 29.8044 198.188C29.6163 198.002 29.4826 198.332 29.507 198.922ZM30.6401 199.481C30.6673 200.133 30.8016 200.265 30.9823 199.82C31.1461 199.416 31.1257 198.933 30.9376 198.747C30.7495 198.561 30.6158 198.891 30.6401 199.481ZM183.57 206.208C177.493 209.717 172.436 212.978 172.332 213.457C172.097 214.531 174.031 213.565 186.648 206.307C194.817 201.607 197.482 199.611 195.373 199.772C194.958 199.804 189.646 202.7 183.57 206.208ZM33.473 201.159C33.5002 201.811 33.6345 201.944 33.8152 201.498C33.9789 201.094 33.9585 200.611 33.7704 200.425C33.5823 200.24 33.4486 200.57 33.473 201.159ZM130.879 205.922C124.462 209.575 123.68 210.135 124.232 210.68C124.797 211.238 137.111 204.181 137.111 203.3C137.111 202.866 137.047 202.517 136.969 202.524C136.892 202.531 134.15 204.06 130.879 205.922ZM38.5721 203.957C38.5993 204.608 38.7336 204.741 38.9143 204.295C39.0781 203.891 39.0577 203.408 38.8696 203.223C38.6815 203.037 38.5478 203.367 38.5721 203.957ZM130.454 211.259C126.82 213.343 124.08 215.274 124.08 215.751C124.08 216.442 124.403 216.396 125.921 215.492C126.934 214.89 129.866 213.211 132.437 211.762C135.008 210.313 137.111 208.771 137.111 208.336C137.111 207.902 137.047 207.559 136.969 207.575C136.892 207.592 133.96 209.249 130.454 211.259ZM22.7081 211.788C22.7353 212.44 22.8696 212.573 23.0503 212.127C23.2141 211.723 23.1937 211.24 23.0056 211.054C22.8175 210.869 22.6838 211.199 22.7081 211.788ZM25.541 213.467C25.5682 214.118 25.7025 214.251 25.8832 213.805C26.0469 213.401 26.0265 212.918 25.8384 212.733C25.6503 212.547 25.5166 212.877 25.541 213.467ZM130.595 216.257C127.167 218.22 124.273 220.25 124.163 220.767C123.948 221.776 123.396 222.039 133.003 216.555C135.263 215.265 137.111 213.844 137.111 213.396C137.111 212.948 137.047 212.605 136.969 212.634C136.892 212.663 134.023 214.293 130.595 216.257ZM264.236 213.84C265.868 219.795 266.027 223.21 264.671 223.21C263.226 223.21 258.389 219.195 256.417 216.357C254.809 214.045 253.822 213.141 252.903 213.141C251.506 213.141 250.652 213.986 251.516 214.513C252.459 215.088 252.812 219.518 252.183 222.879C251.849 224.659 250.364 228.545 248.882 231.515C246.449 236.39 246.167 237.364 245.983 241.507L245.778 246.099L250.793 249.294C258.697 254.33 260.994 255.211 264.502 254.554C268.435 253.818 270.652 252.602 271.978 250.455C273.48 248.022 273.38 247.192 271.353 245.274C269.634 243.648 269.622 243.594 270.001 239.435C270.262 236.566 270.71 234.884 271.414 234.119C274.951 230.282 274.206 222.33 269.653 215.323C268.074 212.894 267.643 212.581 265.881 212.581C264.093 212.581 263.925 212.709 264.236 213.84ZM26.6741 214.026C26.7013 214.678 26.8356 214.81 27.0163 214.365C27.1801 213.961 27.1597 213.478 26.9716 213.292C26.7835 213.106 26.6498 213.436 26.6741 214.026ZM20.1229 218.52C19.5886 219.326 19.3676 219.884 19.6328 219.761C23.3699 218.029 24.2798 217.057 22.162 217.057C21.5744 217.057 20.6571 217.715 20.1229 218.52ZM34.6061 218.502C34.6333 219.153 34.7676 219.286 34.9483 218.84C35.1121 218.436 35.0917 217.953 34.9036 217.768C34.7155 217.582 34.5818 217.912 34.6061 218.502ZM128.659 222.525C122.043 226.286 119.411 228.264 121.058 228.237C121.941 228.223 136.777 219.444 136.992 218.808C137.369 217.692 136.406 218.121 128.659 222.525ZM377.685 221.356C374.138 226.174 373.313 228.278 374.048 230.64C374.874 233.299 373.948 236.564 371.801 238.561C370.951 239.352 355.85 248.208 338.244 258.24C320.637 268.272 306.175 276.531 306.104 276.592C306.033 276.653 307.511 282.226 309.388 288.977C312.544 300.33 313.171 302.872 313.275 304.746C313.297 305.131 313.666 305.446 314.095 305.446C314.531 305.446 315.127 306.421 315.444 307.653C315.965 309.68 315.913 309.88 314.805 310.094C313.852 310.279 313.926 310.344 315.156 310.404C316.681 310.479 317.405 311.545 316.006 311.655C315.617 311.686 315.886 311.874 316.606 312.075C317.325 312.274 317.844 312.564 317.76 312.718C317.568 313.064 322.104 317.537 323.409 318.288C324.286 318.793 324.281 318.839 323.343 318.855C321.996 318.877 318.875 320.492 318.007 321.615C317.627 322.106 317.308 323.063 317.299 323.742C317.285 324.717 317.702 325.053 319.299 325.349C322.22 325.89 326.218 325.313 327.502 324.166C328.572 323.209 328.612 323.218 328.612 324.408C328.612 327.358 320.123 328.184 315.954 325.64C314.897 324.995 313.371 323.48 312.562 322.273C311.753 321.066 310.324 319.631 309.387 319.084C307.23 317.827 306.516 315.796 306.516 310.927C306.516 307.213 306.382 306.836 303.014 301.08C301.088 297.789 298.21 292.558 296.619 289.455C293.919 284.19 293.641 283.85 292.472 284.365C291.783 284.669 291.218 285.345 291.218 285.867C291.218 286.785 295.085 303.832 296.387 308.652C296.738 309.954 297.021 311.717 297.015 312.568C297.009 313.42 297.323 314.494 297.713 314.956C298.542 315.936 299.832 319.504 299.482 319.849C299.351 319.979 300.611 321.512 302.285 323.255C305.122 326.212 305.243 326.447 304.079 326.764C303.057 327.043 303.189 327.143 304.816 327.323C307.141 327.581 307.2 328.488 304.929 329.069C303.08 329.542 301.032 331.533 300.758 333.124C300.391 335.248 306.724 336.129 310.089 334.423C310.652 334.137 311.337 333.353 311.611 332.681C312.054 331.594 312.113 331.658 312.146 333.262C312.192 335.608 310.045 336.773 305.676 336.773C301.724 336.773 299.185 335.751 297.411 333.447C295.766 331.309 294.324 329.868 292.168 328.205C290.685 327.061 290.536 326.578 290.098 321.532C289.63 316.148 289.578 316.004 284.95 307.273C282.378 302.422 279.816 297.194 279.255 295.656C278.695 294.117 277.957 292.926 277.615 293.008C277.274 293.091 258.842 303.517 236.656 316.178C200.714 336.688 196.004 339.224 193.436 339.445C191.396 339.621 189.989 339.406 188.62 338.71C185.665 337.207 91.7573 283.68 89.6905 282.321C86.942 280.513 85.3573 277.336 85.7013 274.322C85.9783 271.896 85.9568 271.856 84.7772 272.611C78.1715 276.835 59.3778 286.985 58.1602 286.985C56.5308 286.985 20.6673 266.919 19.4056 265.302C18.9557 264.725 18.6974 262.499 18.6974 259.203V254.012L20.9591 252.737C22.2033 252.035 23.2226 251.335 23.2243 251.181C23.2254 251.028 22.2713 250.398 21.1036 249.783L18.9807 248.664L18.8198 242.958L18.6583 237.251L20.9399 235.965C22.1948 235.257 23.2226 234.553 23.2243 234.399C23.2254 234.245 22.2713 233.615 21.1036 233L18.9807 231.881L18.6974 226.096L18.4141 220.31L17.2271 221.9C8.09285 234.135 2.72289 246.171 0.884929 258.526C-0.724701 269.348 0.171049 279.515 3.66283 290.038C8.12968 303.504 15.8481 314.992 28.6866 327.287C46.4922 344.337 71.5664 358.231 102.343 368.098C143.537 381.307 192.139 385.657 239.666 380.392C305.541 373.093 362.083 346.074 386.495 310.227C395.864 296.47 400 283.697 400 268.524C400 256.293 397.573 246.608 391.733 235.524C388.635 229.644 381.518 219.272 380.309 218.874C379.956 218.758 378.775 219.875 377.685 221.356ZM37.439 220.18C37.4662 220.832 37.6005 220.964 37.7812 220.518C37.9449 220.114 37.9245 219.632 37.7364 219.446C37.5483 219.26 37.4146 219.59 37.439 220.18ZM41.405 222.417C41.4322 223.069 41.5665 223.202 41.7472 222.756C41.9109 222.352 41.8905 221.869 41.7024 221.684C41.5143 221.498 41.3806 221.828 41.405 222.417ZM128.612 227.698C124.405 230.129 120.876 232.53 120.77 233.033C120.561 234.017 120.577 234.009 131.4 227.714C136.038 225.016 138.285 223.132 136.733 223.244C136.473 223.263 132.819 225.267 128.612 227.698ZM22.7081 228.571C22.7353 229.223 22.8696 229.355 23.0503 228.91C23.2141 228.506 23.1937 228.023 23.0056 227.837C22.8175 227.651 22.6838 227.982 22.7081 228.571ZM130.986 231.532C124.848 234.969 123.646 235.835 124.224 236.406C124.757 236.932 137.111 229.804 137.111 228.97C137.111 228.571 137.047 228.248 136.969 228.253C136.892 228.257 134.199 229.733 130.986 231.532ZM25.541 230.249C25.5682 230.901 25.7025 231.034 25.8832 230.588C26.0469 230.184 26.0265 229.701 25.8384 229.515C25.6503 229.33 25.5166 229.66 25.541 230.249ZM26.6741 230.809C26.7013 231.461 26.8356 231.593 27.0163 231.147C27.1801 230.743 27.1597 230.261 26.9716 230.075C26.7835 229.889 26.6498 230.219 26.6741 230.809ZM30.6401 233.047C30.6673 233.698 30.8016 233.831 30.9823 233.385C31.1461 232.981 31.1257 232.498 30.9376 232.313C30.7495 232.127 30.6158 232.457 30.6401 233.047ZM130.879 236.691C124.462 240.343 123.68 240.903 124.232 241.449C124.797 242.006 137.111 234.95 137.111 234.068C137.111 233.634 137.047 233.285 136.969 233.292C136.892 233.299 134.15 234.828 130.879 236.691ZM33.473 234.725C33.5002 235.377 33.6345 235.509 33.8152 235.063C33.9789 234.659 33.9585 234.177 33.7704 233.991C33.5823 233.805 33.4486 234.135 33.473 234.725ZM37.439 236.963C37.4662 237.614 37.6005 237.747 37.7812 237.301C37.9449 236.897 37.9245 236.414 37.7364 236.229C37.5483 236.043 37.4146 236.373 37.439 236.963ZM307.753 238.212C307.124 238.833 306.461 239.193 306.279 239.014C306.098 238.834 305.949 238.996 305.949 239.373C305.949 239.75 305.733 239.927 305.468 239.766C305.204 239.604 304.466 239.952 303.829 240.538C303.192 241.124 302.516 241.451 302.326 241.264C302.138 241.078 301.983 241.234 301.983 241.611C301.983 241.988 301.726 242.14 301.413 241.949C301.099 241.757 300.69 241.992 300.503 242.472C300.317 242.951 299.937 243.204 299.657 243.033C299.379 242.863 299.15 243.005 299.15 243.349C299.15 243.694 298.904 243.825 298.604 243.642C298.304 243.459 297.56 243.8 296.952 244.401C296.343 245.002 295.696 245.347 295.515 245.168C295.333 244.988 295.184 245.15 295.184 245.527C295.184 245.904 294.938 246.063 294.638 245.88C294.338 245.696 293.594 246.038 292.986 246.639C292.377 247.24 291.73 247.585 291.549 247.405C291.367 247.226 291.218 247.415 291.218 247.825C291.218 248.235 291.067 248.421 290.882 248.238C290.566 247.927 287.672 249.331 283.438 251.849C282.431 252.448 281.35 252.782 281.037 252.59C280.523 252.277 268.555 258.771 268.555 259.363C268.555 259.499 269.193 260.852 269.972 262.37C270.751 263.888 271.388 265.767 271.388 266.547C271.388 268.883 268.536 268.485 265.505 265.726C264.153 264.496 262.505 263.489 261.843 263.489C260.549 263.489 254.958 266.652 254.958 267.384C254.958 267.628 255.277 268.084 255.666 268.397C256.481 269.053 269.06 276.291 271.815 277.689L273.659 278.624L289.096 269.873C297.586 265.06 304.992 260.691 305.553 260.164C306.304 259.458 307.036 256.456 308.338 248.742C310.201 237.699 310.1 235.894 307.753 238.212ZM129.289 242.744C121.472 247.265 120.237 248.134 120.815 248.703C121.368 249.25 137.111 239.985 137.111 239.112C137.111 238.673 137.047 238.33 136.969 238.349C136.892 238.367 133.435 240.345 129.289 242.744ZM22.7081 245.354C22.7353 246.006 22.8696 246.138 23.0503 245.692C23.2141 245.288 23.1937 244.806 23.0056 244.62C22.8175 244.434 22.6838 244.764 22.7081 245.354ZM25.541 247.032C25.5682 247.684 25.7025 247.816 25.8832 247.371C26.0469 246.967 26.0265 246.484 25.8384 246.298C25.6503 246.112 25.5166 246.443 25.541 247.032ZM29.507 249.27C29.5342 249.922 29.6685 250.054 29.8492 249.608C30.0129 249.204 29.9925 248.722 29.8044 248.536C29.6163 248.35 29.4826 248.68 29.507 249.27ZM30.6401 249.829C30.6673 250.481 30.8016 250.614 30.9823 250.168C31.1461 249.764 31.1257 249.281 30.9376 249.095C30.7495 248.91 30.6158 249.24 30.6401 249.829ZM34.6061 252.067C34.6333 252.719 34.7676 252.851 34.9483 252.405C35.1121 252.002 35.0917 251.519 34.9036 251.333C34.7155 251.147 34.5818 251.477 34.6061 252.067ZM37.439 253.745C37.4662 254.397 37.6005 254.53 37.7812 254.084C37.9449 253.68 37.9245 253.197 37.7364 253.011C37.5483 252.826 37.4146 253.156 37.439 253.745ZM41.405 255.983C41.4322 256.635 41.5665 256.767 41.7472 256.321C41.9109 255.917 41.8905 255.435 41.7024 255.249C41.5143 255.063 41.3806 255.393 41.405 255.983ZM296.114 255.941C296.813 257.737 292.393 262.076 291.133 260.831C290.32 260.028 290.967 258.295 292.732 256.552C294.392 254.914 295.628 254.69 296.114 255.941ZM22.7081 262.137C22.7353 262.788 22.8696 262.921 23.0503 262.475C23.2141 262.071 23.1937 261.588 23.0056 261.403C22.8175 261.217 22.6838 261.547 22.7081 262.137ZM25.541 263.815C25.5682 264.467 25.7025 264.599 25.8832 264.153C26.0469 263.749 26.0265 263.267 25.8384 263.081C25.6503 262.895 25.5166 263.225 25.541 263.815ZM29.507 266.053C29.5342 266.704 29.6685 266.837 29.8492 266.391C30.0129 265.987 29.9925 265.504 29.8044 265.319C29.6163 265.133 29.4826 265.463 29.507 266.053ZM30.6401 266.612C30.6673 267.264 30.8016 267.396 30.9823 266.95C31.1461 266.547 31.1257 266.064 30.9376 265.878C30.7495 265.692 30.6158 266.022 30.6401 266.612ZM33.473 268.29C33.5002 268.942 33.6345 269.075 33.8152 268.629C33.9789 268.225 33.9585 267.742 33.7704 267.556C33.5823 267.371 33.4486 267.701 33.473 268.29ZM34.6061 268.85C34.6333 269.501 34.7676 269.634 34.9483 269.188C35.1121 268.784 35.0917 268.301 34.9036 268.116C34.7155 267.93 34.5818 268.26 34.6061 268.85ZM37.439 270.528C37.4662 271.18 37.6005 271.312 37.7812 270.866C37.9449 270.462 37.9245 269.98 37.7364 269.794C37.5483 269.608 37.4146 269.938 37.439 270.528ZM41.405 272.766C41.4322 273.417 41.5665 273.55 41.7472 273.104C41.9109 272.7 41.8905 272.217 41.7024 272.032C41.5143 271.846 41.3806 272.176 41.405 272.766ZM311.373 311.331C310.772 311.78 310.39 312.254 310.523 312.385C310.656 312.515 311.367 312.14 312.103 311.551C313.652 310.31 313.002 310.115 311.373 311.331ZM313.073 313.009C312.472 313.458 312.09 313.932 312.223 314.063C312.356 314.193 313.066 313.818 313.802 313.229C315.352 311.989 314.702 311.793 313.073 313.009ZM314.448 315.017C313.669 315.652 313.351 316.009 313.741 315.809C317.006 314.143 317.459 313.845 316.714 313.853C316.247 313.858 315.227 314.382 314.448 315.017ZM316.069 316.677C315.333 317.315 315.051 317.678 315.441 317.482C318.687 315.852 319.174 315.522 318.335 315.519C317.824 315.517 316.804 316.038 316.069 316.677ZM318.025 318.172C317.43 318.711 317.224 318.973 317.568 318.754C317.911 318.536 318.815 318.111 319.577 317.811C320.453 317.465 320.622 317.251 320.035 317.229C319.524 317.21 318.619 317.634 318.025 318.172ZM295.106 321.142L293.768 322.295L295.468 321.312C297.704 320.019 297.738 319.991 297.041 319.991C296.712 319.991 295.841 320.509 295.106 321.142ZM296.805 322.821L295.468 323.973L297.167 322.99C299.404 321.697 299.438 321.669 298.741 321.669C298.412 321.669 297.541 322.187 296.805 322.821ZM300.177 323.729C300.586 323.891 301.075 323.871 301.263 323.685C301.451 323.499 301.117 323.367 300.52 323.391C299.86 323.418 299.725 323.551 300.177 323.729ZM297.7 324.728C297.096 325.18 296.888 325.557 297.24 325.567C297.591 325.577 298.196 325.207 298.584 324.746C299.479 323.68 299.113 323.673 297.7 324.728ZM301.841 325.396C302.231 325.551 302.869 325.551 303.258 325.396C303.648 325.241 303.329 325.114 302.55 325.114C301.771 325.114 301.452 325.241 301.841 325.396ZM299.4 326.455C298.344 327.29 298.351 327.301 299.575 326.715C300.276 326.379 300.85 325.988 300.85 325.845C300.85 325.417 300.556 325.541 299.4 326.455ZM301.1 328.133C300.044 328.969 300.051 328.979 301.275 328.393C301.976 328.057 302.55 327.666 302.55 327.523C302.55 327.095 302.256 327.219 301.1 328.133Z" fill="#F5F5F5"/>
</svg>
