<svg width="400" height="383" viewBox="0 0 400 383" fill="none" xmlns="http://www.w3.org/2000/svg">
<path fill-rule="evenodd" clip-rule="evenodd" d="M186.396 1.81813C185.778 2.81838 185.272 3.86394 185.271 4.14253C185.27 4.42113 184.78 4.2119 184.183 3.67821C182.003 1.73086 179.603 4.80713 179.603 9.54769C179.603 12.3291 180.076 13.4262 181.276 13.4262C182.994 13.4262 184.313 11.3462 184.575 8.22297C184.779 5.78836 185.009 5.27481 185.896 5.27481C186.785 5.27481 186.969 5.69326 186.969 7.71893C186.969 9.42462 187.183 10.0931 187.677 9.93145C188.585 9.6344 189.011 0 188.115 0C187.787 0 187.013 0.817878 186.396 1.81813ZM176.764 7.41237C175.404 9.61426 175.262 11.4503 176.487 10.986C177.154 10.7331 177.337 11.1409 177.337 12.8841C177.337 14.4846 177.574 15.1044 178.187 15.1044C178.876 15.1044 179.037 14.2032 179.037 10.3493C179.037 5.15789 178.547 4.52518 176.764 7.41237ZM182.893 7.92816C182.689 10.6643 181.303 11.636 181.303 9.04309C181.303 7.00287 181.804 5.59424 182.529 5.59424C182.825 5.59424 182.99 6.64484 182.893 7.92816ZM172.053 9.09008C169.961 10.6005 169.519 17.9553 171.475 18.6965C171.931 18.8694 172.931 18.386 173.711 17.6163C174.979 16.3643 175.105 15.8407 174.955 12.4528C174.776 8.42828 174.083 7.62495 172.053 9.09008ZM328.375 18.626L313.691 27.0672L310.426 25.2815C308.631 24.2991 307.017 23.4958 306.839 23.4958C306.661 23.4958 306.515 26.3668 306.515 29.876V36.2557L309.773 38.0565C311.565 39.0467 313.121 39.9362 313.231 40.0324C313.341 40.1292 311.111 42.9073 308.274 46.2062C302.703 52.6843 302.025 54.2641 304.815 54.2641H306.515V59.8175V65.3704L309.559 67.09C311.232 68.0355 313.081 68.8047 313.666 68.7991C314.252 68.794 321.487 64.9447 329.745 60.246L344.759 51.7025L344.907 30.8858C345.047 11.3048 344.997 10.073 344.057 10.1273C343.508 10.1591 336.451 13.9839 328.375 18.626ZM168.149 11.608C167.673 12.1468 166.954 13.2158 166.55 13.9839C166.117 14.808 165.719 15.0949 165.58 14.6832C165.173 13.4776 162.693 13.8944 161.741 15.3288C161.109 16.282 160.899 17.7041 161.02 20.2237C161.168 23.3151 161.34 23.7968 162.354 23.94C164.097 24.1861 165.432 22.3193 165.818 19.0971C166.248 15.5179 167.705 15.0261 167.705 18.461C167.705 20.0772 167.941 20.6987 168.555 20.6987C169.247 20.6987 169.405 19.7661 169.405 15.6639C169.405 12.8947 169.317 10.6291 169.209 10.6291C169.102 10.6291 168.625 11.0699 168.149 11.608ZM173.617 14.262C173.22 16.3525 172.577 16.785 172.016 15.34C171.69 14.5025 172.064 12.0416 172.678 10.977C173.273 9.94432 173.973 12.3912 173.617 14.262ZM157.998 18.1813C156.74 20.2864 156.375 20.4766 155.415 19.5278C154.536 18.6607 152.494 19.8405 151.814 21.6083C151.517 22.3786 151.275 24.2208 151.275 25.7016C151.275 28.8959 152.252 30.0707 154.098 29.0951C155.583 28.3102 156.374 26.341 156.374 23.4264C156.374 21.9294 156.582 21.3191 157.004 21.5764C157.35 21.7879 157.856 21.6139 158.128 21.1899C158.446 20.6942 158.626 21.4847 158.632 23.4024C158.638 25.5371 158.842 26.3203 159.348 26.1548C160.266 25.8543 160.681 16.2233 159.776 16.2233C159.442 16.2233 158.642 17.1044 157.998 18.1813ZM164.306 18.3871C164.306 19.233 163.931 20.4139 163.474 21.0114C162.703 22.0178 162.641 21.9093 162.624 19.5334C162.614 18.1231 162.769 16.8085 162.968 16.6115C163.638 15.9503 164.306 16.8364 164.306 18.3871ZM184.954 17.3757C184.096 18.3127 183.852 19.398 183.852 22.2953C183.852 25.9159 183.892 26.0177 185.378 26.1872C187.551 26.435 188.778 23.9254 188.554 19.6951C188.409 16.9662 188.216 16.479 187.221 16.3385C186.579 16.2479 185.561 16.7139 184.954 17.3757ZM180.783 20.3451C179.378 22.5895 179.215 24.3221 180.453 23.8527C181.132 23.5959 181.303 24.0435 181.303 26.0776C181.303 27.8649 181.514 28.5547 182.011 28.3924C182.871 28.1111 183.35 18.461 182.504 18.461C182.206 18.461 181.431 19.3091 180.783 20.3451ZM186.741 23.2748C186.574 23.7039 186.175 24.0552 185.853 24.0552C185.024 24.0552 185.126 19.9457 185.977 19.0976C186.545 18.532 186.721 18.7983 186.865 20.4436C186.963 21.5714 186.907 22.8458 186.741 23.2748ZM258.64 20.6584C256.68 21.1227 84.2452 119.255 82.2407 121.047C79.4226 123.566 79.32 124.24 79.32 140.281C79.32 152.626 79.1716 155.5 78.4883 156.392C77.3665 157.856 77.3551 159.656 78.4702 159.233C79.1891 158.961 79.32 159.736 79.32 164.259C79.32 169 79.1863 169.712 78.1415 170.548C77.4934 171.066 76.792 172.313 76.5835 173.319C76.2209 175.067 76.1534 175.108 75.0707 174.243C74.4475 173.746 74.2957 173.522 74.7336 173.746C75.2611 174.017 75.3908 173.933 75.1189 173.499C74.8934 173.138 74.4826 172.982 74.2061 173.151C73.9291 173.32 72.2894 172.671 70.5625 171.708C68.1495 170.363 67.422 169.654 67.422 168.646C67.422 167.925 67.677 167.178 67.9886 166.988C68.3002 166.798 68.5552 167.169 68.5552 167.812C68.5552 169.562 70.1115 169.833 71.7002 168.36C72.911 167.237 73.0877 166.584 73.0877 163.237C73.0877 160.181 72.8968 159.328 72.1483 159.045C71.0254 158.62 68.5552 161.195 68.5552 162.791C68.5552 163.371 68.3002 164.001 67.9886 164.191C67.677 164.381 67.422 164.018 67.422 163.385C67.422 162.613 67.0549 162.233 66.311 162.233C64.8407 162.233 62.8894 164.357 62.8894 165.957C62.8894 166.859 62.6413 167.139 62.043 166.912C61.5773 166.735 61.3036 166.42 61.4345 166.21C61.5659 166.001 61.2458 165.8 60.7234 165.764C60.2005 165.728 59.2634 165.537 58.6402 165.341C57.8118 165.08 52.4804 167.848 38.8102 175.635C28.5269 181.492 20.1133 186.558 20.1133 186.892C20.1133 187.619 56.9246 208.665 58.196 208.665C58.6821 208.665 63.4707 206.148 68.8384 203.071C74.2061 199.994 78.7602 197.477 78.9585 197.477C79.1574 197.477 79.3115 199.931 79.3013 202.931L79.2832 208.385L69.0061 214.213C63.3535 217.418 58.4339 220.04 58.073 220.04C57.7127 220.04 49.8526 215.718 40.6073 210.437C31.362 205.155 23.6056 200.841 23.3716 200.851C23.1376 200.86 21.9773 201.456 20.7937 202.175L18.6413 203.481L25.043 207.1C28.5637 209.091 37.4753 214.168 44.8458 218.383L58.2464 226.046L68.4945 220.153C74.1308 216.912 78.8724 214.259 79.0316 214.259C79.1903 214.259 79.3143 216.714 79.3075 219.714L79.2951 225.168L71.8413 229.364C67.7416 231.671 62.9563 234.362 61.2079 235.344L58.0288 237.128L41.3371 227.587C32.1569 222.34 24.3274 218.033 23.9376 218.018C23.5484 218.002 23.2294 217.779 23.2294 217.523C23.2294 217.266 22.7286 217.057 22.1161 217.057C21.0861 217.057 19.6136 218.833 19.5665 220.131C19.549 220.63 29.8912 226.754 51.0555 238.778L58.2016 242.838L68.5393 236.94C74.2254 233.696 78.9772 231.042 79.0985 231.042C79.2203 231.042 79.3189 233.496 79.3183 236.497L79.316 241.951L71.8662 246.147C67.7688 248.454 62.9807 251.153 61.2249 252.144L58.0334 253.946L41.3399 244.411C32.158 239.168 24.4011 234.833 24.1014 234.778C23.8022 234.723 23.2923 234.475 22.9682 234.226C22.6447 233.977 21.5512 233.288 20.5382 232.695L18.6969 231.618L18.6844 225.876L18.6719 220.133L17.5535 221.532C6.69574 235.109 0 253.034 0 268.524C0 278.112 3.14901 291.006 7.66288 299.899C12.6334 309.692 19.0731 318.081 28.6861 327.287C46.4917 344.337 71.5659 358.231 102.342 368.098C143.536 381.307 192.138 385.657 239.666 380.392C305.541 373.093 362.083 346.074 386.495 310.227C395.864 296.47 400 283.697 400 268.524C400 256.796 397.696 247.146 392.424 236.78C390.018 232.051 384.624 223.703 381.67 220.136L380.282 218.461L378.951 219.577C378.219 220.19 381.827 216.473 386.968 211.316C392.11 206.159 396.756 200.998 397.294 199.848C400.287 193.438 395.926 186.901 389.137 187.622C387.681 187.777 385.169 188.564 383.556 189.372C381.942 190.179 380.745 190.634 380.895 190.382C381.045 190.13 382.257 188.162 383.589 186.008C387.256 180.079 388.668 176.567 388.668 173.379C388.668 169.847 387.039 168.153 382.809 167.286C377.202 166.137 371.698 168.881 366.794 175.27C362.631 180.695 359.181 188.8 358.162 195.552L357.79 198.012L354.107 195.468C348.056 191.287 339.013 186.084 330.736 182.02C326.452 179.917 322.946 178.031 322.946 177.829C322.946 177.628 327.917 174.643 333.994 171.198L345.042 164.933V144.004C345.042 132.492 344.845 123.073 344.606 123.073C344.366 123.073 337.292 126.994 328.887 131.785L313.606 140.497L311.902 139.539C310.964 139.012 309.37 138.092 308.357 137.495L306.515 136.408V143.038V149.667L309.922 151.517C312.096 152.697 313.184 153.604 312.93 154.023C312.711 154.385 310.413 157.119 307.824 160.099C305.234 163.08 303.116 165.918 303.116 166.407C303.116 166.947 303.783 167.427 304.815 167.631C306.295 167.923 306.515 168.208 306.515 169.825V171.683L303.257 170.563C295.821 168.008 285.344 165.089 284.761 165.409C284.417 165.599 284.455 165.414 284.844 165C285.903 163.874 285.88 37.8864 284.82 37.0182C284.27 36.5679 281.409 37.9306 273.347 42.4827C243.733 59.2027 109.996 135.571 108.664 136.521C107.382 137.437 106.895 137.51 105.69 136.968C103.986 136.202 103.917 135.848 105.241 134.675C106.179 133.843 254.621 49.1034 263.31 44.4395L267.414 42.2365L267.418 32.841C267.422 23.6088 267.397 23.4208 266.031 22.0721C265.266 21.3169 264.012 20.6987 263.244 20.6987C262.477 20.6987 261.509 20.5991 261.094 20.4772C260.679 20.3558 259.575 20.4369 258.64 20.6584ZM154.565 24.1515C154.361 26.8876 152.974 27.8593 152.974 25.2664C152.974 23.2262 153.475 21.8175 154.2 21.8175C154.497 21.8175 154.661 22.8681 154.565 24.1515ZM175.49 22.7965C173.426 25.0667 173.557 31.8872 175.663 31.8872C177.977 31.8872 179.037 29.9538 179.037 25.7335C179.037 21.9982 178.975 21.8175 177.708 21.8175C176.977 21.8175 175.979 22.2578 175.49 22.7965ZM147.01 23.7201C145.896 25.3995 145.322 29.0017 145.842 31.0497C146.145 32.2441 146.498 32.4846 147.74 32.342C149.849 32.0998 150.749 30.0892 150.571 26.0132C150.442 23.0404 150.283 22.6365 149.186 22.4827C148.362 22.3669 147.633 22.782 147.01 23.7201ZM171.029 26.3058C170.018 28.0814 169.646 28.3768 169.265 27.7044C168.544 26.4333 167.366 26.67 166.023 28.3561C165.03 29.603 164.854 30.4847 164.991 33.5246C165.122 36.4398 165.352 37.2269 166.113 37.3701C167.667 37.6627 169.293 35.5296 169.726 32.6267C170.264 29.0196 171.302 28.4092 171.671 31.4827C171.827 32.7822 172.209 33.7836 172.521 33.7087C173.264 33.5296 173.599 24.0552 172.863 24.0552C172.559 24.0552 171.734 25.0678 171.029 26.3058ZM177.096 28.9049C176.921 29.3535 176.522 29.5639 176.208 29.372C175.417 28.8898 175.493 26.4675 176.345 24.9973C177.012 23.8466 177.064 23.9014 177.233 25.9321C177.332 27.1186 177.269 28.4562 177.096 28.9049ZM148.781 29.4285C148.614 29.8576 148.215 30.2089 147.893 30.2089C147.077 30.2089 147.162 27.0319 148.017 25.5567C148.684 24.406 148.735 24.4608 148.905 26.4915C149.003 27.6781 148.947 28.9994 148.781 29.4285ZM141.428 26.9922C139.468 30.0489 139.611 35.8031 141.646 35.8031C143.88 35.8031 145.042 33.66 145.042 29.5437C145.042 25.8616 144.995 25.7335 143.639 25.7335C142.8 25.7335 141.911 26.2403 141.428 26.9922ZM137.137 30.2816C136.049 32.1932 135.732 32.4348 135.305 31.6802C134.555 30.3583 133.394 30.5585 132.053 32.2424C131.146 33.3797 130.878 34.5221 130.878 37.2442C130.878 39.1843 131.135 40.9291 131.45 41.121C133.426 42.3271 135.977 38.8783 135.977 34.9998C135.977 32.2972 137.552 32.9165 137.787 35.7114C137.883 36.8386 138.215 37.6996 138.527 37.6246C139.217 37.4585 139.62 27.9712 138.936 27.9712C138.67 27.9712 137.86 29.0112 137.137 30.2816ZM143.101 32.8208C142.684 33.8938 141.643 33.2298 141.643 31.8905C141.643 31.3132 141.952 30.1323 142.33 29.2663L143.017 27.6915L143.217 29.8481C143.328 31.0346 143.275 32.3722 143.101 32.8208ZM161.572 31.6914C160.915 32.9557 160.358 33.4882 160.109 33.0899C159.417 31.984 157.639 32.3839 156.415 33.9207C155.533 35.0272 155.241 36.2037 155.241 38.6428C155.241 42.1425 155.699 42.8049 157.766 42.2925C159.276 41.9182 160.34 39.5104 160.34 36.4655C160.34 35.3836 160.507 34.6636 160.713 34.8661C160.918 35.0686 161.428 34.9534 161.846 34.611C162.463 34.1047 162.606 34.4818 162.606 36.6205C162.606 38.4772 162.815 39.1849 163.314 39.0215C163.785 38.8677 164.077 37.2571 164.187 34.22C164.323 30.4366 164.204 29.6495 163.492 29.6495C163.02 29.6495 162.156 30.568 161.572 31.6914ZM168.264 30.9082C168.252 32.7604 167.646 34.6843 167.072 34.6843C166.494 34.6843 166.386 30.5798 166.95 30.0226C167.697 29.2853 168.272 29.673 168.264 30.9082ZM186.396 32.5865C185.778 33.5861 185.272 34.6244 185.271 34.8924C185.27 35.1609 184.89 35.0703 184.426 34.6904C183.149 33.6432 180.968 34.46 180.209 36.2691C179.84 37.1491 179.616 39.2291 179.712 40.8917C179.859 43.4477 180.067 43.94 181.051 44.0793C182.883 44.3383 184.297 42.2958 184.575 38.9913C184.779 36.5567 185.009 36.0431 185.896 36.0431C186.785 36.0431 186.969 36.4616 186.969 38.4873C186.969 40.1929 187.183 40.8615 187.677 40.6998C188.585 40.4027 189.011 30.7683 188.115 30.7683C187.787 30.7683 187.013 31.5868 186.396 32.5865ZM127.67 35.477C126.868 37.1374 126.608 37.3035 125.694 36.7402C123.424 35.3399 121.268 38.3329 121.255 42.9028C121.246 46.0479 121.741 46.7119 123.731 46.2185C125.332 45.8219 126.345 43.714 126.345 40.7787C126.345 39.2744 126.553 38.6612 126.975 38.9186C127.322 39.13 127.828 38.9561 128.1 38.532C128.421 38.0308 128.598 38.7065 128.603 40.4648C128.609 42.3758 128.82 43.1008 129.32 42.9375C129.791 42.7836 130.083 41.173 130.192 38.1359C130.331 34.3028 130.215 33.5654 129.475 33.5654C128.99 33.5654 128.178 34.4258 127.67 35.477ZM134.277 35.4166C134.277 36.4347 133.903 37.7561 133.446 38.3536C132.675 39.36 132.612 39.2514 132.596 36.8756C132.586 35.4652 132.748 34.1433 132.956 33.9386C133.79 33.1145 134.277 33.66 134.277 35.4166ZM158.39 38.9477C157.864 41.0192 156.94 40.5135 156.94 38.1527C156.94 35.501 158.259 33.8245 158.543 36.1153C158.645 36.941 158.576 38.2154 158.39 38.9477ZM324.479 38.174C324.344 38.8699 324.228 38.4324 324.222 37.2017C324.215 35.971 324.327 35.4015 324.468 35.9363C324.61 36.4711 324.615 37.4781 324.479 38.174ZM151.452 36.2311C149.93 37.2134 148.988 42.5923 149.919 44.9878C150.445 46.3427 152.19 46.0428 153.524 44.3685C154.501 43.1417 154.692 42.2382 154.557 39.4735C154.415 36.5679 154.229 36.0622 153.258 35.9396C152.634 35.8613 151.822 35.9922 151.452 36.2311ZM176.403 38.6254C175.465 40.0251 174.735 40.6472 174.489 40.255C173.828 39.1983 171.463 39.9093 170.689 41.3974C170.273 42.1979 170.025 44.2314 170.109 46.1525C170.235 49.0565 170.412 49.5314 171.419 49.6735C173.276 49.9359 174.665 47.8917 174.952 44.4748C175.105 42.655 175.437 41.5546 175.77 41.7582C176.078 41.9462 176.553 41.7532 176.825 41.3291C177.144 40.8324 177.323 41.596 177.328 43.4779C177.335 45.8409 177.499 46.336 178.187 46.0753C178.849 45.8241 179.037 44.7153 179.037 41.0578C179.037 38.3457 178.801 36.3626 178.478 36.3626C178.171 36.3626 177.237 37.3807 176.403 38.6254ZM183.003 38.532C183.003 39.7773 182.641 40.9974 182.153 41.3974C181.425 41.9943 181.303 41.8102 181.303 40.1129C181.303 39.0237 181.458 37.7343 181.647 37.2476C182.273 35.637 183.003 36.3284 183.003 38.532ZM146.736 39.859C145.376 42.0609 145.234 43.8969 146.459 43.4326C147.137 43.1758 147.309 43.6233 147.309 45.6574C147.309 47.4448 147.519 48.1345 148.017 47.9723C148.925 47.6752 149.351 38.0408 148.455 38.0408C148.127 38.0408 147.353 38.8593 146.736 39.859ZM152.865 40.3748C152.661 43.1109 151.275 44.0826 151.275 41.4897C151.275 39.4495 151.775 38.0408 152.501 38.0408C152.797 38.0408 152.961 39.0914 152.865 40.3748ZM118.46 40.4844C117.055 42.7288 116.892 44.4613 118.13 43.992C118.809 43.7352 118.98 44.1828 118.98 46.2168C118.98 48.0042 119.191 48.694 119.688 48.5317C120.548 48.2503 121.027 38.6003 120.181 38.6003C119.883 38.6003 119.108 39.4483 118.46 40.4844ZM124.396 42.8636C123.87 44.9352 122.946 44.4295 122.946 42.0687C122.946 39.417 124.265 37.7404 124.548 40.0313C124.651 40.857 124.582 42.1313 124.396 42.8636ZM142.822 42.1627C141.417 44.4071 141.255 46.1396 142.493 45.6703C143.171 45.4135 143.343 45.861 143.343 47.8951C143.343 49.6825 143.553 50.3722 144.051 50.21C144.91 49.9286 145.39 40.2785 144.544 40.2785C144.246 40.2785 143.471 41.1266 142.822 42.1627ZM114.504 42.8278C113.093 45.1886 112.943 46.6929 114.164 46.2297C114.843 45.9729 115.014 46.4205 115.014 48.4545C115.014 50.2419 115.225 50.9316 115.722 50.7694C116.573 50.4908 117.062 40.838 116.225 40.838C115.932 40.838 115.157 41.7336 114.504 42.8278ZM166.557 44.2247C165.662 45.9556 165.513 46.7287 165.983 47.1936C166.454 47.6579 166.758 47.6042 167.153 46.9871C167.527 46.4031 167.69 47.056 167.697 49.1577C167.704 51.7999 167.811 52.0768 168.577 51.4485C169.251 50.897 169.412 49.7776 169.285 46.5301C169.092 41.5551 168.287 40.8754 166.557 44.2247ZM173.371 44.1262C173.371 45.3715 173.009 46.5916 172.521 46.9916C171.787 47.593 171.671 47.3474 171.671 45.1953C171.671 43.8242 171.841 42.5347 172.049 42.3299C172.918 41.4718 173.371 42.0871 173.371 44.1262ZM335.977 42.7277C335.977 42.8435 335.53 43.2843 334.985 43.7067C334.087 44.402 334.067 44.3825 334.771 43.4952C335.512 42.5632 335.977 42.2673 335.977 42.7277ZM111.836 43.5036C111.082 43.9959 109.348 47.2294 109.348 48.1424C109.348 48.4982 109.731 48.6447 110.198 48.4674C110.875 48.2112 111.048 48.6531 111.048 50.6452C111.048 52.4947 111.269 53.1453 111.898 53.1453C112.59 53.1453 112.748 52.2127 112.748 48.1105C112.748 45.3413 112.684 43.0796 112.606 43.084C112.528 43.0891 112.181 43.2776 111.836 43.5036ZM137.711 44.1604C137.07 44.7942 136.509 46.0054 136.467 46.8518C136.4 48.1709 136.355 48.2106 136.144 47.1315C135.781 45.2697 134.552 45.6003 133.157 47.9348C132.262 49.4329 131.799 49.7949 131.462 49.2578C130.71 48.0556 128.271 49.0178 127.518 50.8142C127.149 51.6941 126.925 53.7741 127.021 55.4367C127.168 57.9927 127.375 58.485 128.36 58.6243C130.13 58.8743 131.576 56.8615 131.881 53.7209C132.031 52.1848 132.361 51.0547 132.614 51.2097C132.867 51.3641 133.338 51.0446 133.659 50.4998C134.114 49.7289 134.247 50.1708 134.26 52.4924C134.281 56.1947 135.527 56.2294 136.034 52.5422C136.255 50.9344 136.403 50.6133 136.459 51.6242C136.574 53.7422 137.986 54.1388 139.711 52.5383C140.992 51.3495 141.106 50.8723 140.957 47.2987C140.774 42.9073 139.868 42.0312 137.711 44.1604ZM161.747 46.1111C160.424 47.4168 160.303 47.9035 160.455 51.3216C160.59 54.3335 160.815 55.1279 161.58 55.2717C164.001 55.7276 166.228 50.1686 165.038 46.642C164.33 44.5464 163.471 44.4082 161.747 46.1111ZM139.654 46.4227C140.1 47.1343 139.387 50.9076 138.808 50.9076C138.055 50.9076 137.691 49.2987 138.046 47.5449C138.389 45.856 139.022 45.4135 139.654 46.4227ZM324.479 48.803C324.344 49.499 324.228 49.0615 324.222 47.8308C324.215 46.6 324.327 46.0305 324.468 46.5653C324.61 47.1001 324.615 48.1071 324.479 48.803ZM105.379 47.2747C104.99 47.7384 104.475 48.9339 104.235 49.932C103.815 51.6768 103.796 51.6874 103.74 50.2083C103.654 47.9074 102.195 48.3035 100.798 51.0072C99.7863 52.9651 99.5047 53.1917 99.0588 52.4057C98.2951 51.0575 97.1415 51.2472 95.7919 52.9411C94.9172 54.0392 94.6197 55.2163 94.6259 57.5563C94.6373 61.6849 95.1902 62.5811 97.103 61.5702C98.7053 60.7238 99.7166 58.3927 99.7166 55.5463C99.7166 54.2893 99.9313 53.7696 100.347 54.023C100.693 54.2345 101.199 54.0605 101.471 53.6365C101.789 53.1414 101.969 53.9408 101.974 55.8708C101.982 58.4788 102.096 58.7843 102.833 58.1801C103.3 57.7969 103.699 56.6965 103.718 55.7343C103.752 54.1254 103.796 54.0862 104.267 55.2431C104.901 56.8006 106.16 56.8526 107.649 55.383C108.566 54.4773 108.782 53.5184 108.782 50.3482C108.782 46.5978 108.725 46.4322 107.434 46.4322C106.694 46.4322 105.769 46.8115 105.379 47.2747ZM186.158 48.3902C185.132 50.2715 184.136 50.9602 184.136 49.7887C184.136 48.8042 182.081 49.1902 180.991 50.3801C179.548 51.9537 179.102 58.1918 180.358 59.2212C181.024 59.7666 181.514 59.7862 182.427 59.304C183.912 58.5191 184.702 56.5499 184.702 53.6353C184.702 52.1383 184.91 51.528 185.332 51.7853C185.679 51.9968 186.184 51.8228 186.456 51.3988C186.775 50.902 186.954 51.6656 186.96 53.5475C186.967 55.9105 187.131 56.4056 187.818 56.1449C188.48 55.8937 188.668 54.785 188.668 51.1274C188.668 45.8493 187.964 45.0806 186.158 48.3902ZM156.996 49.5409C155.604 51.872 155.437 53.4054 156.626 52.9545C157.24 52.7218 157.488 53.199 157.617 54.8627C157.932 58.9012 158.919 57.1854 159.087 52.3095C159.181 49.5974 159.022 47.551 158.718 47.551C158.425 47.551 157.65 48.4467 156.996 49.5409ZM163.739 49.7149C163.739 50.5607 163.365 51.7417 162.907 52.3392C162.136 53.3456 162.074 53.237 162.058 50.8612C162.047 49.4509 162.203 48.1362 162.402 47.9393C163.072 47.278 163.739 48.1642 163.739 49.7149ZM107.415 51.6852C107.207 52.7744 106.8 53.8104 106.51 53.9878C105.657 54.508 105.266 51.8429 105.939 50.0953C106.806 47.8442 107.917 49.0413 107.415 51.6852ZM152.017 51.5878C149.844 53.9218 149.812 60.4575 151.972 60.8687C152.467 60.9627 153.415 60.4642 154.078 59.7605C155.113 58.664 155.262 57.9216 155.121 54.5606C154.937 50.158 154.098 49.3546 152.017 51.5878ZM124.004 52.8656C122.748 54.9679 122.381 55.1603 121.426 54.2183C120.619 53.4205 118.71 54.5746 117.887 56.3581C117.228 57.7863 117.071 62.0256 117.624 63.4488C118.147 64.7947 119.893 64.5072 121.205 62.8597C122.032 61.822 122.379 60.5711 122.379 58.631C122.379 56.7525 122.58 55.9983 123.009 56.2607C123.356 56.4722 123.862 56.2982 124.134 55.8742C124.452 55.3785 124.632 56.169 124.637 58.0867C124.643 60.2214 124.847 61.0046 125.354 60.839C126.272 60.5386 126.687 50.9076 125.782 50.9076C125.447 50.9076 124.647 51.7887 124.004 52.8656ZM130.311 53.3898C130.311 54.4107 129.929 55.5592 129.462 55.9424C128.734 56.5393 128.612 56.3553 128.612 54.658C128.612 53.5688 128.766 52.2804 128.955 51.796C129.497 50.3985 130.311 51.3551 130.311 53.3898ZM182.775 56.2809C182.608 56.7099 182.209 57.0613 181.887 57.0613C181.058 57.0613 181.16 52.9517 182.011 52.1036C182.579 51.5381 182.755 51.8043 182.899 53.4496C182.997 54.5774 182.941 55.8518 182.775 56.2809ZM176.609 53.651C175.564 55.3992 175.31 57.6207 176.157 57.6207C176.442 57.6207 176.804 57.3063 176.962 56.9214C177.119 56.5371 177.268 57.4176 177.292 58.8794C177.326 60.8486 177.557 61.5366 178.187 61.5366C178.876 61.5366 179.037 60.6354 179.037 56.7815C179.037 51.5688 178.37 50.7084 176.609 53.651ZM147.355 55.0294C145.95 57.2738 145.787 59.0064 147.025 58.537C147.704 58.2802 147.875 58.7278 147.875 60.7618C147.875 62.5492 148.086 63.239 148.583 63.0767C149.443 62.7954 149.922 53.1453 149.076 53.1453C148.778 53.1453 148.003 53.9934 147.355 55.0294ZM153.689 55.6705C153.535 58.1046 153.205 58.6316 152.359 57.7963C151.581 57.0282 152.32 53.0183 153.183 53.3215C153.542 53.4479 153.765 54.4818 153.689 55.6705ZM91.4095 56.1757C90.6078 57.8361 90.3478 58.0022 89.4339 57.4389C87.1631 56.0386 85.0073 59.0315 84.9942 63.6015C84.9852 66.7466 85.4809 67.4106 87.4701 66.9172C89.1189 66.5088 90.073 64.4182 90.1296 61.0908C90.154 59.6436 90.3064 58.7848 90.4679 59.1826C90.6934 59.7375 90.9461 59.7538 91.5563 59.2536C92.2191 58.7104 92.3512 59.0394 92.3512 61.2351C92.3512 63.0918 92.5597 63.7995 93.0594 63.6362C93.5302 63.4823 93.8225 61.8717 93.9319 58.8346C94.0701 55.0015 93.9546 54.2641 93.2146 54.2641C92.7296 54.2641 91.9172 55.1245 91.4095 56.1757ZM98.0169 55.8965C98.0169 57.8629 97.5132 59.2989 96.8231 59.2989C96.2401 59.2989 96.1274 55.1973 96.6951 54.6373C97.5007 53.8412 98.0169 54.3329 98.0169 55.8965ZM171.357 55.976C170.498 56.913 170.255 57.9983 170.255 60.8955C170.255 64.5161 170.294 64.618 171.781 64.7875C173.953 65.0353 175.181 62.5257 174.957 58.2953C174.812 55.5665 174.618 55.0792 173.623 54.9388C172.982 54.8482 171.964 55.3142 171.357 55.976ZM143.336 57.2011C141.977 59.403 141.834 61.239 143.059 60.7747C143.738 60.5179 143.909 60.9655 143.909 62.9995C143.909 64.7869 144.12 65.4767 144.617 65.3144C145.526 65.0174 145.951 55.383 145.056 55.383C144.728 55.383 143.954 56.2014 143.336 57.2011ZM120.57 58.8357C120.366 61.5719 118.98 62.5436 118.98 59.9507C118.98 57.9105 119.481 56.5018 120.206 56.5018C120.502 56.5018 120.667 57.5524 120.57 58.8357ZM113.754 57.7443C111.701 59.2816 110.878 64.8037 112.396 66.8529C113.139 67.8565 113.249 67.8615 114.653 66.953C116.426 65.8062 116.838 64.4227 116.606 60.3932C116.419 57.1457 115.586 56.372 113.754 57.7443ZM173.143 61.8751C172.977 62.3042 172.577 62.6555 172.255 62.6555C171.426 62.6555 171.528 58.546 172.379 57.6979C172.947 57.1323 173.123 57.3986 173.267 59.0439C173.366 60.1717 173.31 61.446 173.143 61.8751ZM139.37 59.4388C138.011 61.6407 137.868 63.4767 139.093 63.0124C139.772 62.7556 139.943 63.2032 139.943 65.2372C139.943 67.0246 140.154 67.7144 140.651 67.5521C141.56 67.2551 141.985 57.6207 141.09 57.6207C140.762 57.6207 139.988 58.4391 139.37 59.4388ZM165.766 59.2514C164.632 60.4888 163.962 64.5855 164.53 66.8176C165.012 68.7135 166.714 68.6799 168.255 66.7454C169.232 65.5186 169.423 64.6152 169.288 61.8505C169.144 58.9197 168.964 58.4374 167.957 58.2953C167.317 58.2047 166.331 58.6355 165.766 59.2514ZM82.1642 61.5143C80.8027 64.1503 80.7115 65.1298 81.8696 64.6907C82.5483 64.4339 82.7194 64.8814 82.7194 66.9155C82.7194 68.7029 82.9302 69.3926 83.4277 69.2304C84.3183 68.9389 84.7636 59.2989 83.886 59.2989C83.5687 59.2989 82.7942 60.2958 82.1642 61.5143ZM88.1353 63.5623C87.609 65.6339 86.6854 65.1281 86.6854 62.7674C86.6854 60.1157 88.0044 58.4391 88.2877 60.73C88.3903 61.5557 88.3211 62.83 88.1353 63.5623ZM114.773 64.1486C114.598 64.5973 114.199 64.8076 113.885 64.6157C113.094 64.1335 113.17 61.7112 114.023 60.241C114.689 59.0903 114.741 59.1451 114.91 61.1758C115.009 62.3624 114.947 63.6999 114.773 64.1486ZM108.768 61.6765C107.579 63.5875 107.532 65.2697 108.674 65.033C109.106 64.9435 109.348 65.6948 109.348 67.1309C109.348 68.7471 109.585 69.3686 110.198 69.3686C110.887 69.3686 111.048 68.4673 111.048 64.6135C111.048 59.4198 110.561 58.7927 108.768 61.6765ZM135.404 61.6765C134.787 62.6762 134.281 63.7341 134.28 64.0261C134.279 64.3181 133.971 64.2554 133.598 63.8862C133.224 63.517 132.338 63.2149 131.629 63.2149C129.706 63.2149 128.519 65.9113 128.726 69.8128C128.871 72.5416 129.064 73.0289 130.059 73.1693C131.892 73.4283 133.306 71.3859 133.583 68.0813C133.788 65.6467 134.018 65.1332 134.904 65.1332C135.794 65.1332 135.977 65.5516 135.977 67.5773C135.977 69.283 136.191 69.9515 136.685 69.7898C137.594 69.4928 138.019 59.8584 137.124 59.8584C136.796 59.8584 136.022 60.6768 135.404 61.6765ZM161.467 62.2359C160.107 64.4378 159.965 66.2738 161.19 65.8095C161.868 65.5528 162.039 66.0003 162.039 68.0344C162.039 69.8217 162.25 70.5115 162.748 70.3493C163.656 70.0522 164.081 60.4178 163.186 60.4178C162.858 60.4178 162.084 61.2362 161.467 62.2359ZM167.595 63.0751C167.415 65.833 166.43 66.7175 166.1 64.4166C165.848 62.6566 166.452 60.4178 167.181 60.4178C167.527 60.4178 167.697 61.5059 167.595 63.0751ZM78.243 63.5265C76.8322 65.8873 76.6821 67.3916 77.9036 66.9284C78.5823 66.6716 78.7534 67.1191 78.7534 69.1532C78.7534 70.9406 78.9642 71.6303 79.4617 71.4681C80.3126 71.1895 80.801 61.5366 79.9648 61.5366C79.6719 61.5366 78.8968 62.4323 78.243 63.5265ZM105.181 63.3548C104.745 64.0473 104.109 65.117 103.769 65.7323C103.232 66.7052 103.148 66.7231 103.133 65.8722C103.106 64.3601 100.493 64.6163 99.418 66.2364C98.7857 67.1896 98.5761 68.6117 98.6968 71.1313C98.8446 74.2227 99.0174 74.7044 100.031 74.8476C101.759 75.0915 103.108 73.2348 103.484 70.0981C103.898 66.6453 105.382 66.148 105.382 69.462C105.382 70.9948 105.625 71.6063 106.232 71.6063C106.921 71.6063 107.082 70.705 107.082 66.8512C107.082 61.9685 106.607 61.0941 105.181 63.3548ZM157.112 63.9153C155.651 64.576 154.674 67.0022 154.674 69.9655C154.674 72.7738 155.148 73.844 156.393 73.844C158.322 73.844 159.773 71.199 159.773 67.6836C159.773 64.0541 159.054 63.0359 157.112 63.9153ZM75.3013 64.463C74.8044 64.9547 74.0583 66.1681 73.6424 67.1594C72.9342 68.8472 72.8583 68.8858 72.439 67.7664C71.8549 66.2073 71.0872 66.2582 69.3535 67.97C68.0792 69.2282 67.9535 69.7473 68.1042 73.1391C68.2384 76.151 68.4639 76.9454 69.2288 77.0892C70.8322 77.3913 72.4475 75.2207 72.8503 72.2216C73.3495 68.5048 74.7874 67.8537 74.7874 71.3439C74.7874 72.719 75.0503 73.844 75.3716 73.844C76.3319 73.844 76.5466 72.578 76.371 67.9577C76.218 63.9399 76.1274 63.644 75.3013 64.463ZM125.718 67.2707C125.019 68.2704 124.37 69.1879 124.276 69.3087C124.183 69.429 123.719 69.2108 123.246 68.8226C122.546 68.2492 122.125 68.2855 120.992 69.0184C119.425 70.0326 118.81 72.3111 119.083 76.0945C119.229 78.1241 119.484 78.6304 120.428 78.7636C122.285 79.0259 123.674 76.9818 123.961 73.5648C124.114 71.745 124.445 70.6446 124.778 70.8483C125.087 71.0362 125.561 70.8432 125.833 70.4192C126.152 69.9235 126.331 70.714 126.337 72.6317C126.343 74.7665 126.547 75.5497 127.054 75.3841C127.92 75.1004 128.392 65.4526 127.539 65.4526C127.237 65.4526 126.417 66.2711 125.718 67.2707ZM132.011 67.6221C132.011 68.8673 131.649 70.0874 131.161 70.4874C130.433 71.0843 130.311 70.9003 130.311 69.203C130.311 68.1138 130.466 66.8243 130.655 66.3376C131.281 64.727 132.011 65.4185 132.011 67.6221ZM158.073 67.9241C158.073 70.2609 157.561 71.7059 156.881 71.2902C156.303 70.9378 156.203 68.2223 156.718 66.897C157.314 65.3614 158.073 65.9365 158.073 67.9241ZM151.148 67.2545C149.833 68.2391 149.008 70.6597 149.008 73.5324C149.008 76.6562 150.126 77.7062 152.095 76.4319C153.662 75.4182 154.277 73.1385 154.005 69.3607C153.81 66.6682 152.863 65.9695 151.148 67.2545ZM329.608 74.6417C321.898 79.0461 315.219 82.9542 314.765 83.3257C314.099 83.8717 313.274 83.616 310.481 81.9998C308.578 80.8983 306.899 79.9976 306.75 79.9976C306.601 79.9976 306.551 82.9396 306.639 86.5356L306.798 93.0731L310.071 94.96C313.85 97.139 314.212 95.9742 307.223 104.143C304.964 106.784 303.116 109.338 303.116 109.818C303.116 110.355 303.716 110.76 304.674 110.869L306.232 111.046L306.394 116.512L306.557 121.978L309.227 123.634C310.696 124.545 312.601 125.295 313.461 125.3C314.819 125.31 338.34 112.514 343.484 108.967L345.042 107.893V87.2321C345.042 71.0597 344.888 66.5782 344.334 66.6028C343.945 66.6201 337.317 70.2374 329.608 74.6417ZM95.7444 68.949C95.1268 69.9487 94.6208 70.9948 94.6197 71.2734C94.6186 71.552 94.1143 71.3299 93.499 70.78C92.4582 69.8502 92.2826 69.8441 90.9755 70.6894C89.3965 71.7109 88.7812 73.9788 89.0543 77.7728C89.201 79.8024 89.456 80.3087 90.3993 80.4418C92.2565 80.7042 93.6458 78.6601 93.9325 75.2431C94.0854 73.4233 94.4169 72.3229 94.75 72.5265C95.0582 72.7145 95.533 72.5215 95.805 72.0975C96.1234 71.6018 96.303 72.3923 96.3087 74.31C96.3149 76.4447 96.5189 77.2279 97.0254 77.0623C97.9336 76.7653 98.3591 67.1309 97.4639 67.1309C97.1359 67.1309 96.3619 67.9493 95.7444 68.949ZM101.983 69.2947C101.983 70.1406 101.608 71.3215 101.151 71.919C100.38 72.9254 100.318 72.8169 100.301 70.441C100.291 69.0307 100.446 67.716 100.645 67.5191C101.315 66.8579 101.983 67.744 101.983 69.2947ZM152.18 73.623C152.013 74.0521 151.614 74.4034 151.292 74.4034C150.477 74.4034 150.561 71.2264 151.416 69.7512C152.083 68.6005 152.135 68.6553 152.304 70.686C152.403 71.8726 152.347 73.1939 152.18 73.623ZM71.2243 71.674C70.7569 75.1144 69.6883 75.7941 69.6883 72.6507C69.6883 70.1014 69.979 69.3686 70.9903 69.3686C71.3042 69.3686 71.4039 70.3521 71.2243 71.674ZM145.997 71.3456C145.472 72.4331 145.042 73.6918 145.042 74.1427C145.042 75.1435 145.973 75.2285 146.367 74.2635C146.524 73.8792 146.673 74.7598 146.697 76.2215C146.731 78.1907 146.962 78.8788 147.592 78.8788C148.281 78.8788 148.442 77.9776 148.442 74.1237C148.442 68.7941 147.659 67.9046 145.997 71.3456ZM63.4974 71.4021C62.592 72.5377 62.3229 73.6823 62.3229 76.3905C62.3229 80.1621 62.8135 80.7971 64.9858 79.836C66.9801 78.9532 68.0101 74.6691 67.0651 71.1867C66.6039 69.4883 64.9416 69.5884 63.4974 71.4021ZM122.379 72.898C122.379 73.9161 122.005 75.2375 121.548 75.835C120.777 76.8414 120.714 76.7328 120.698 74.357C120.688 72.9467 120.85 71.6247 121.058 71.42C121.892 70.596 122.379 71.1414 122.379 72.898ZM114.489 73.0804C113.582 74.2177 113.314 75.36 113.314 78.0822C113.314 81.8253 113.74 82.5324 115.637 81.9377C117.149 81.4644 118.413 78.4732 118.413 75.3723C118.413 71.5391 116.573 70.4639 114.489 73.0804ZM140.73 73.5816C139.397 75.5899 139.034 80.5034 140.113 81.9243C140.901 82.962 141.007 82.9682 142.415 82.0574C144.188 80.9101 144.599 79.5277 144.368 75.4926C144.216 72.8488 144.028 72.4225 142.953 72.2714C142.118 72.154 141.394 72.5802 140.73 73.5816ZM59.1149 74.6367C58.3132 76.2971 58.0532 76.4632 57.1393 75.8999C54.8685 74.4996 52.7127 77.4925 52.6997 82.0625C52.6906 85.2076 53.1863 85.8716 55.1756 85.3782C56.7773 84.9815 57.7903 82.8736 57.7903 79.9383C57.7903 78.434 57.9982 77.8209 58.4203 78.0783C58.7665 78.2897 59.2724 78.1157 59.5444 77.6917C59.8662 77.1905 60.0424 77.8662 60.0481 79.6245C60.0543 81.5355 60.2645 82.2605 60.7648 82.0972C61.2356 81.9433 61.528 80.3327 61.6373 77.2956C61.7756 73.4624 61.66 72.7251 60.92 72.7251C60.4351 72.7251 59.6226 73.5855 59.1149 74.6367ZM65.7223 74.3575C65.7223 76.3239 65.2186 77.7599 64.5285 77.7599C63.9455 77.7599 63.8328 73.6582 64.4005 73.0983C65.2062 72.3022 65.7223 72.7939 65.7223 74.3575ZM85.9404 74.7021C85.4152 75.7896 84.9857 77.0484 84.9857 77.4992C84.9857 78.5001 85.916 78.5851 86.3104 77.6201C86.4673 77.2358 86.6163 78.1163 86.6407 79.5781C86.6741 81.5472 86.9053 82.2353 87.5353 82.2353C88.2243 82.2353 88.3852 81.3341 88.3852 77.4802C88.3852 72.1506 87.6022 71.2611 85.9404 74.7021ZM92.3512 74.8946C92.3512 76.1399 91.9891 77.36 91.5013 77.7599C90.7676 78.3613 90.6514 78.1157 90.6514 75.9636C90.6514 74.5925 90.8214 73.303 91.0294 73.0983C91.8979 72.2401 92.3512 72.8555 92.3512 74.8946ZM116.714 76.2545C116.714 77.2727 116.339 78.594 115.882 79.1915C115.111 80.1979 115.049 80.0894 115.032 77.7135C115.022 76.3032 115.184 74.9813 115.392 74.7765C116.226 73.9525 116.714 74.4979 116.714 76.2545ZM137.947 74.8314C136.013 76.2025 134.575 80.434 136.26 79.7951C136.938 79.5389 137.11 79.9809 137.11 81.973C137.11 83.8224 137.331 84.473 137.96 84.473C138.653 84.473 138.81 83.5405 138.81 79.4382C138.81 76.6691 138.746 74.4073 138.668 74.4118C138.591 74.4168 138.266 74.6053 137.947 74.8314ZM142.535 79.253C142.36 79.7017 141.961 79.912 141.647 79.7202C140.856 79.2379 140.932 76.8156 141.785 75.3455C142.451 74.1947 142.503 74.2496 142.672 76.2803C142.771 77.4668 142.709 78.8044 142.535 79.253ZM82.1466 76.7809C80.7869 78.9828 80.6447 80.8189 81.8696 80.3546C82.537 80.1017 82.7194 80.5095 82.7194 82.2527C82.7194 83.8532 82.9568 84.473 83.5693 84.473C84.2583 84.473 84.4192 83.5718 84.4192 79.7179C84.4192 74.5265 83.9296 73.8938 82.1466 76.7809ZM108.823 76.4369C107.918 77.5725 107.649 78.7171 107.649 81.4253C107.649 85.1969 108.139 85.8319 110.311 84.8708C112.28 83.9992 113.51 78.6942 112.404 75.8478C111.881 74.5019 110.135 74.7894 108.823 76.4369ZM78.1806 79.0186C76.8209 81.2205 76.6787 83.0566 77.9036 82.5922C78.5823 82.3355 78.7534 82.783 78.7534 84.8171C78.7534 86.6044 78.9642 87.2942 79.4617 87.132C80.3699 86.8349 80.7954 77.2005 79.9002 77.2005C79.5721 77.2005 78.7982 78.019 78.1806 79.0186ZM49.9048 79.6441C48.4997 81.8885 48.3371 83.621 49.575 83.1517C50.2538 82.8949 50.4249 83.3424 50.4249 85.3765C50.4249 87.1639 50.6356 87.8536 51.1331 87.6914C51.9926 87.41 52.4719 77.7599 51.626 77.7599C51.328 77.7599 50.5529 78.608 49.9048 79.6441ZM55.8407 82.0233C55.3144 84.0949 54.3909 83.5891 54.3909 81.2284C54.3909 78.5767 55.7098 76.9001 55.9931 79.1909C56.0957 80.0167 56.0266 81.291 55.8407 82.0233ZM104.046 80.1375C103.172 81.5685 102.585 82.1251 102.572 81.5361C102.542 80.1968 100.566 80.2774 99.15 81.6759C98.2361 82.5783 98.0169 83.5405 98.0169 86.6509C98.0169 91.0312 98.7359 91.8295 101.057 90.0259C102.129 89.1934 102.564 88.1893 102.858 85.8682C103.071 84.1849 103.455 82.9357 103.712 83.0924C103.969 83.2496 104.442 82.9318 104.764 82.3869C105.219 81.6144 105.352 82.0435 105.365 84.3332C105.382 87.1896 106.042 88.1764 106.738 86.3851C106.927 85.8984 107.082 83.7586 107.082 81.63C107.082 76.9756 106.232 76.5577 104.046 80.1375ZM111.048 79.3923C111.048 81.3587 110.544 82.7948 109.854 82.7948C109.271 82.7948 109.159 78.6931 109.726 78.1331C110.532 77.337 111.048 77.8288 111.048 79.3923ZM131.275 78.7552C130.172 79.9585 129.432 84.2823 129.968 86.3913C130.236 87.448 130.702 87.8296 131.726 87.8296C133.929 87.8296 134.93 85.7513 134.731 81.5914C134.583 78.5001 134.41 78.0184 133.396 77.8752C132.756 77.7846 131.801 78.1806 131.275 78.7552ZM73.1223 81.0824C72.4804 81.7162 71.9251 82.9279 71.8889 83.7738C71.839 84.9362 71.7569 85.0392 71.5506 84.1933C71.0311 82.0614 70.3472 82.1212 68.796 84.4361C67.7858 85.9432 67.0917 86.5289 66.8237 86.101C66.1251 84.9843 63.4758 86.0271 62.8441 87.6673C62.5297 88.4841 62.3478 90.554 62.4396 92.2669C62.5858 95.0008 62.7603 95.4036 63.8662 95.5586C65.5246 95.7913 67.4169 92.7922 67.4197 89.9274C67.4214 88.4914 67.6753 87.8296 68.2248 87.8296C68.6662 87.8296 69.1557 87.5152 69.3132 87.1303C69.4702 86.746 69.6192 87.7736 69.6435 89.4144C69.6968 92.9718 70.9076 93.1922 71.4492 89.7439C71.639 88.5372 71.8299 88.0892 71.8741 88.7487C71.9971 90.5825 73.5251 90.8052 75.128 89.2225C76.3959 87.9706 76.5217 87.4469 76.3716 84.0591C76.184 79.8365 75.2503 78.9812 73.1223 81.0824ZM126.923 82.213C125.562 84.849 125.471 85.8285 126.629 85.3894C127.307 85.1326 127.479 85.5801 127.479 87.6142C127.479 89.4016 127.689 90.0913 128.187 89.9291C129.077 89.6376 129.523 79.9976 128.645 79.9976C128.328 79.9976 127.553 80.9945 126.923 82.213ZM132.903 84.8473C132.728 85.2959 132.329 85.5063 132.015 85.3144C131.225 84.8322 131.301 82.4099 132.153 80.9397C132.82 79.789 132.871 79.8438 133.041 81.8745C133.139 83.061 133.077 84.3986 132.903 84.8473ZM45.4657 81.2429C44.6878 81.6121 43.9263 82.7433 43.5155 84.1396C42.9801 85.96 42.7971 86.172 42.6277 85.1723C42.3575 83.5819 40.6317 83.5136 39.0934 85.0325C38.1796 85.9348 37.9603 86.897 37.9603 90.0074C37.9603 92.8426 38.1756 93.9452 38.7739 94.1718C40.0073 94.6389 42.4929 92.4292 42.4929 90.8656C42.4929 89.3607 43.3223 89.039 43.8311 90.347C44.3042 91.5648 45.5127 91.3774 46.954 89.8625C48.0453 88.7157 48.1909 88.0293 48.0447 84.732C47.8662 80.7193 47.5291 80.2639 45.4657 81.2429ZM75.0146 86.0394C74.7189 86.8702 74.2282 87.424 73.924 87.2702C73.3104 86.9597 73.3195 84.4294 73.9404 82.9257C74.643 81.2228 75.6702 84.1995 75.0146 86.0394ZM95.6276 83.7738C94.2061 85.3832 93.3761 87.3037 93.72 88.1887C93.8973 88.6452 94.2996 88.8628 94.6135 88.6709C94.9608 88.4595 95.184 89.2119 95.184 90.5937C95.184 92.239 95.418 92.8644 96.0339 92.8644C96.7262 92.8644 96.8837 91.9318 96.8837 87.8296C96.8837 85.0604 96.7959 82.7948 96.6883 82.7948C96.5806 82.7948 96.1036 83.235 95.6276 83.7738ZM101.416 84.9586C101.416 85.8045 101.042 86.9854 100.585 87.5829C99.8135 88.5893 99.7511 88.4807 99.7347 86.1049C99.7245 84.6946 99.8798 83.3799 100.079 83.183C100.749 82.5218 101.416 83.4079 101.416 84.9586ZM121.974 84.1553C120.578 85.3401 120.419 85.847 120.408 89.1218C120.402 91.1274 120.576 92.9461 120.795 93.1631C121.57 93.9312 123.894 92.8722 124.549 91.453C124.914 90.6619 125.212 88.5428 125.212 86.7443C125.212 82.8697 124.324 82.1593 121.974 84.1553ZM46.4589 85.8716C46.4589 87.7362 46.2385 88.389 45.609 88.389C44.7167 88.389 44.5138 86.8332 45.1161 84.6129C45.6917 82.4927 46.4589 83.2121 46.4589 85.8716ZM332.681 86.3919C332.805 87.4469 332.706 88.1876 332.459 88.0371C332.015 87.7664 331.806 84.473 332.232 84.473C332.354 84.473 332.555 85.3362 332.681 86.3919ZM117.327 87.476C115.922 89.7204 115.759 91.453 116.997 90.9836C117.676 90.7268 117.847 91.1744 117.847 93.2084C117.847 94.9958 118.058 95.6856 118.555 95.5233C119.415 95.2419 119.894 85.5919 119.048 85.5919C118.75 85.5919 117.975 86.44 117.327 87.476ZM123.271 90.4415C123.097 90.8902 122.697 91.1005 122.383 90.9086C121.593 90.4264 121.669 88.0041 122.521 86.534C123.188 85.3832 123.24 85.438 123.409 87.4687C123.507 88.6553 123.445 89.9929 123.271 90.4415ZM89.3172 87.41C88.2333 89.128 87.7336 92.1282 88.1585 94.3642C88.4384 95.8366 88.7846 96.2209 89.8327 96.2209C91.9387 96.2209 92.9177 94.2288 92.9177 89.9425C92.9177 86.2811 92.8696 86.1513 91.5143 86.1513C90.6718 86.1513 89.7937 86.6542 89.3172 87.41ZM41.0991 87.3065C41.6073 88.1188 40.8736 91.7455 40.2011 91.7455C39.9036 91.7455 39.66 90.6127 39.66 89.2281C39.66 86.8383 40.2844 86.0047 41.0991 87.3065ZM33.3552 88.1943C32.8572 88.7862 32.5779 90.5456 32.5779 93.0893C32.5779 96.7675 32.6708 97.0729 33.8379 97.2368C36.2861 97.5803 38.1303 92.5595 37.0368 88.5289C36.6255 87.0134 34.511 86.8209 33.3552 88.1943ZM59.4277 89.7657C58.4373 91.4239 58.1223 91.6102 57.2362 91.0642C56.4277 90.5652 55.8974 90.6228 54.8084 91.3277C53.3852 92.2485 52.6912 94.3183 52.6912 97.6436C52.6912 101.479 53.9892 102.263 56.3994 99.8824C57.5127 98.7837 57.7903 97.94 57.7903 95.6537C57.7903 93.7013 57.9897 92.9198 58.4203 93.1827C58.7665 93.3942 59.2724 93.2202 59.5444 92.7961C59.8634 92.2994 60.0424 93.063 60.0481 94.9449C60.0549 97.3079 60.2186 97.803 60.9064 97.5423C61.5682 97.2911 61.7563 96.1823 61.7563 92.5248C61.7563 87.3401 61.2418 86.7303 59.4277 89.7657ZM65.7223 89.6807C65.7223 90.6989 65.3478 92.0202 64.8906 92.6177C64.1195 93.6241 64.0571 93.5156 64.0407 91.1397C64.0305 89.7294 64.1926 88.4075 64.4005 88.2027C65.2345 87.3787 65.7223 87.9241 65.7223 89.6807ZM85.9959 89.368C84.5308 91.0267 83.7483 92.908 84.1228 93.8714C84.4311 94.6652 84.5523 94.6786 85.0073 93.9676C85.3767 93.3914 85.5376 93.9424 85.5438 95.8014C85.55 97.7868 85.767 98.4586 86.4022 98.4586C87.0945 98.4586 87.252 97.5261 87.252 93.4238C87.252 90.6547 87.1642 88.389 87.0565 88.389C86.9489 88.389 86.4718 88.8293 85.9959 89.368ZM90.7189 93.581C89.7789 94.5091 89.3693 91.6202 90.1778 89.7657L90.9002 88.1093L91.0951 90.5629C91.2027 91.9123 91.0333 93.2705 90.7189 93.581ZM112.264 89.7008C109.943 92.1405 110.075 99.0181 112.443 99.0181C112.877 99.0181 113.761 98.3546 114.406 97.544C115.926 95.6369 116.126 89.2751 114.684 88.7286C113.504 88.2816 113.682 88.21 112.264 89.7008ZM334.652 90.7666C334.495 91.1514 334.367 90.8365 334.367 90.0673C334.367 89.2981 334.495 88.9837 334.652 89.368C334.81 89.7529 334.81 90.3822 334.652 90.7666ZM35.694 91.6717C35.694 92.5175 35.3195 93.6985 34.8623 94.296C34.0912 95.3024 34.0289 95.1938 34.0124 92.818C34.0022 91.4077 34.1575 90.093 34.3563 89.8961C35.0266 89.2348 35.694 90.121 35.694 91.6717ZM339.202 91.5951C339.058 92.1394 338.932 91.8295 338.92 90.9064C338.909 89.9834 339.026 89.5381 339.181 89.9168C339.337 90.2955 339.346 91.0507 339.202 91.5951ZM113.881 93.3908C113.881 95.6106 113.149 96.7557 112.447 95.6341C111.935 94.8157 112.663 91.1861 113.34 91.1861C113.637 91.1861 113.881 92.178 113.881 93.3908ZM79.7614 92.6999C78.5852 93.9944 77.9591 97.365 78.4328 99.8572C78.737 101.457 79.0566 101.815 80.1823 101.815C82.3699 101.815 83.3716 99.7252 83.1727 95.577C83.0248 92.4857 82.852 92.004 81.8384 91.8608C81.1976 91.7702 80.2634 92.1478 79.7614 92.6999ZM106.612 92.7693C104.577 94.7782 104.51 102.375 106.527 102.375C106.86 102.375 107.771 101.745 108.55 100.976C109.824 99.7179 109.95 99.1987 109.799 95.807C109.613 91.6197 108.679 90.7285 106.612 92.7693ZM55.9812 95.7577C55.7773 98.4939 54.3909 99.4656 54.3909 96.8727C54.3909 94.8324 54.8917 93.4238 55.6169 93.4238C55.9132 93.4238 56.0776 94.4744 55.9812 95.7577ZM48.3784 95.3991C47.0458 97.4075 46.6827 102.321 47.7614 103.742C48.5467 104.776 48.6606 104.783 50.0464 103.886C51.6832 102.827 52.2985 100.609 52.022 96.7675C51.8719 94.6848 51.6328 94.2339 50.6022 94.089C49.7665 93.9715 49.043 94.3978 48.3784 95.3991ZM81.3449 98.8329C81.1704 99.2815 80.771 99.4919 80.4571 99.3C79.6668 98.8178 79.7427 96.3955 80.5948 94.9253C81.2617 93.7746 81.3132 93.8294 81.4826 95.8601C81.5812 97.0466 81.5189 98.3842 81.3449 98.8329ZM108.254 97.224C108.066 98.3646 107.662 99.2978 107.356 99.2978C106.523 99.2978 106.381 97.2033 107.089 95.3639C107.925 93.1945 108.711 94.4498 108.254 97.224ZM269.688 94.456C269.688 94.7161 269.242 95.3085 268.697 95.7728C267.877 96.4704 199.616 135.501 195.646 137.542C193.987 138.395 193.651 138.344 193.868 137.277C194.047 136.391 267.545 94.0509 268.98 94.0056C269.37 93.9933 269.688 94.1958 269.688 94.456ZM73.9183 96.2416C72.7467 97.5205 72.1144 103.251 73.0022 104.548C73.7925 105.703 76.1767 104.891 76.9568 103.201C77.3217 102.41 77.6203 100.264 77.6203 98.4323C77.6203 95.3119 77.5364 95.1021 76.2917 95.1021C75.5608 95.1021 74.4928 95.6151 73.9183 96.2416ZM100.886 95.8981C99.818 97.1686 99.1495 100.7 99.5274 103.074C99.8038 104.809 100.092 105.172 101.193 105.172C103.329 105.172 104.333 103.044 104.136 98.9336C103.987 95.8232 103.819 95.3611 102.783 95.2151C102.132 95.1233 101.279 95.4305 100.886 95.8981ZM321.055 96.9202C320.898 97.3051 320.769 96.9901 320.769 96.2209C320.769 95.4517 320.898 95.1373 321.055 95.5217C321.212 95.9065 321.212 96.5359 321.055 96.9202ZM334.67 97.1893C334.526 97.7336 334.399 97.4237 334.388 96.5006C334.376 95.5776 334.494 95.1323 334.649 95.511C334.804 95.8898 334.814 96.645 334.67 97.1893ZM50.1835 101.071C50.009 101.519 49.6096 101.73 49.2957 101.538C48.5053 101.055 48.5812 98.6332 49.4334 97.163C50.1002 96.0123 50.1518 96.0671 50.3212 98.0978C50.4198 99.2843 50.3574 100.622 50.1835 101.071ZM323.899 98.0044C323.719 98.4502 323.584 98.3177 323.557 97.6659C323.533 97.0763 323.666 96.7462 323.855 96.932C324.043 97.1177 324.063 97.6005 323.899 98.0044ZM42.8084 98.5834C42.3235 99.267 41.9263 100.259 41.9263 100.788C41.9263 102.202 40.9699 102.542 40.6271 101.25C40.2351 99.7677 39.3359 99.8466 37.6515 101.51C36.4566 102.69 36.2606 103.402 36.2606 106.562C36.2606 109.37 36.4685 110.321 37.1393 110.575C38.349 111.033 40.5722 108.842 41.0991 106.671C41.4753 105.121 41.5614 105.054 41.7682 106.151C41.9348 107.037 42.4033 107.409 43.3501 107.409C45.481 107.409 46.4589 105.435 46.4589 101.131C46.4589 97.4836 46.4062 97.3398 45.0747 97.3398C44.2861 97.3398 43.3104 97.8752 42.8084 98.5834ZM75.6792 102.189C75.5047 102.638 75.1053 102.848 74.7914 102.657C74.001 102.174 74.077 99.752 74.9291 98.2819C75.5959 97.1311 75.6475 97.1859 75.8169 99.2166C75.9155 100.403 75.8532 101.741 75.6792 102.189ZM97.6713 97.7778C96.9206 98.2561 95.184 101.488 95.184 102.406C95.184 102.762 95.5665 102.909 96.0339 102.732C96.7002 102.479 96.8837 102.883 96.8837 104.597C96.8837 106.823 97.7767 108.119 98.3296 106.696C98.9183 105.182 98.3398 97.351 97.6713 97.7778ZM103.108 99.4013C103.112 99.766 102.846 100.764 102.517 101.62C102.036 102.87 101.813 103.015 101.385 102.356C100.893 101.599 101.162 98.8239 101.837 97.6995C102.164 97.1541 103.094 98.3993 103.108 99.4013ZM68.6214 98.9526C66.5427 101.005 66.2441 107.04 68.1648 108.192C69.009 108.699 69.439 108.525 70.5971 107.21C71.8396 105.799 71.984 105.18 71.8373 101.901C71.652 97.7582 70.7081 96.8922 68.6214 98.9526ZM45.0492 102.299C44.8413 103.417 44.4498 104.558 44.1801 104.833C43.3852 105.643 42.9376 102.763 43.5937 101.061C44.4447 98.8491 45.5206 99.7643 45.0492 102.299ZM70.0271 104.951C69.8605 105.38 69.4611 105.731 69.1393 105.731C68.324 105.731 68.4084 102.554 69.2634 101.079C69.9302 99.9282 69.9818 99.9831 70.1512 102.014C70.2498 103.2 70.1937 104.522 70.0271 104.951ZM64.0164 102.514C62.8333 104.43 62.5342 106.291 63.409 106.291C63.6945 106.291 64.0566 105.976 64.2141 105.591C64.371 105.207 64.52 106.087 64.5444 107.549C64.5778 109.518 64.809 110.207 65.439 110.207C66.128 110.207 66.2889 109.305 66.2889 105.451C66.2889 100.26 65.7994 99.6273 64.0164 102.514ZM90.967 101.94C90.3795 102.768 90.0849 104.448 90.0849 106.975C90.0849 110.636 90.133 110.766 91.4883 110.766C93.8747 110.766 95.6333 106.412 94.8361 102.476C94.5557 101.09 94.1852 100.696 93.1625 100.696C92.4401 100.696 91.452 101.256 90.967 101.94ZM319.711 102.375C319.874 102.991 319.776 103.354 319.494 103.181C319.211 103.009 318.98 102.506 318.98 102.062C318.98 100.904 319.364 101.069 319.711 102.375ZM332.681 103.175C332.805 104.23 332.706 104.97 332.459 104.82C332.015 104.549 331.806 101.256 332.232 101.256C332.354 101.256 332.555 102.119 332.681 103.175ZM32.8515 105.191C31.613 107.587 31.7994 109.071 33.1949 107.927C33.864 107.379 33.9943 107.702 33.9943 109.905C33.9943 111.762 34.2028 112.469 34.7025 112.306C35.1733 112.152 35.4657 110.542 35.575 107.505C35.7116 103.717 35.5926 102.934 34.8787 102.934C34.4051 102.934 33.4923 103.949 32.8515 105.191ZM39.66 105.098C39.66 105.944 39.2855 107.125 38.8283 107.722C38.0572 108.729 37.9949 108.62 37.9784 106.244C37.9682 104.834 38.1235 103.519 38.3223 103.322C38.9926 102.661 39.66 103.547 39.66 105.098ZM86.6968 105.149C85.3455 107.765 85.2435 108.765 86.371 108.337C86.9852 108.105 87.2328 108.582 87.3625 110.246C87.6769 114.284 88.6645 112.568 88.8322 107.692C89.0158 102.361 88.4718 101.714 86.6968 105.149ZM93.1976 106.306C92.9959 107.213 92.5954 108.1 92.3075 108.275C91.7058 108.642 91.5823 103.88 92.1784 103.292C92.8871 102.591 93.5733 104.618 93.1976 106.306ZM58.9059 104.514C57.8062 105.393 57.5353 106.212 57.3727 109.153C57.1291 113.559 57.6787 114.608 59.7438 113.678C61.6571 112.817 62.4124 110.736 62.2062 106.894C62.0175 103.367 61.1353 102.732 58.9059 104.514ZM326.192 104.95C326.004 105.136 325.515 105.156 325.106 104.994C324.654 104.816 324.788 104.683 325.448 104.656C326.045 104.632 326.38 104.764 326.192 104.95ZM321.055 106.99C320.898 107.375 320.769 107.06 320.769 106.291C320.769 105.521 320.898 105.207 321.055 105.591C321.212 105.976 321.212 106.606 321.055 106.99ZM60.3954 110.545C60.2288 110.974 59.8294 111.325 59.5076 111.325C58.6923 111.325 58.7767 108.148 59.6317 106.673C60.2985 105.522 60.3501 105.577 60.5195 107.608C60.6181 108.795 60.562 110.116 60.3954 110.545ZM82.0452 106.814C80.4328 108.066 79.635 111.714 80.3761 114.449C80.9268 116.483 82.0866 116.746 83.7512 115.214C84.8883 114.169 85.0146 113.585 84.8679 110.068C84.7761 107.864 84.4305 106.011 84.09 105.901C83.7534 105.791 82.8333 106.202 82.0452 106.814ZM54.1472 108.249C53.1212 110.13 52.1246 110.819 52.1246 109.647C52.1246 108.663 50.0702 109.049 48.9795 110.238C47.8039 111.521 47.158 117.756 48.0634 119.077C49.5824 121.294 52.6912 117.392 52.6912 113.268C52.6912 111.937 52.9036 111.389 53.3212 111.644C53.6674 111.855 54.1733 111.681 54.4453 111.257C54.7676 110.755 54.9433 111.412 54.9489 113.144C54.9552 115.129 55.1722 115.801 55.8073 115.801C56.4962 115.801 56.6572 114.9 56.6572 111.046C56.6572 105.707 55.9586 104.928 54.1472 108.249ZM322.452 108.948C323.156 109.835 323.136 109.855 322.238 109.159C321.693 108.737 321.246 108.296 321.246 108.18C321.246 107.72 321.711 108.016 322.452 108.948ZM77.1098 110.518C76.4554 111.613 75.9042 112.808 75.8849 113.175C75.8651 113.542 75.618 113.277 75.3364 112.584C74.6781 110.967 73.6061 110.988 72.026 112.649C70.9325 113.798 70.7886 114.481 70.9353 117.818C71.0713 120.9 71.2945 121.699 72.0617 121.843C73.6163 122.136 75.2418 120.003 75.6753 117.1C76.2135 113.493 77.2515 112.882 77.6203 115.956C77.7761 117.255 78.1585 118.257 78.4702 118.182C79.1954 118.007 79.55 108.528 78.8316 108.528C78.5387 108.528 77.7636 109.424 77.1098 110.518ZM83.4934 109.374C83.8792 110.366 83.333 113.468 82.7058 113.851C81.9755 114.296 81.5432 112.401 81.9211 110.411C82.3013 108.411 82.9523 107.981 83.4934 109.374ZM44.4362 113.843C43.4033 115.737 42.4929 116.392 42.4929 115.241C42.4929 114.118 40.2776 114.722 39.1348 116.156C38.2294 117.292 37.9603 118.436 37.9603 121.144C37.9603 124.916 38.4509 125.551 40.6232 124.59C42.0492 123.958 43.0594 121.542 43.0594 118.761C43.0594 117.504 43.2742 116.985 43.6895 117.238C44.0356 117.449 44.5416 117.275 44.8135 116.851C45.1354 116.35 45.3116 117.026 45.3172 118.784C45.3235 120.695 45.5337 121.42 46.0339 121.257C47.1031 120.907 47.3472 111.885 46.2878 111.885C45.8566 111.885 45.0237 112.766 44.4362 113.843ZM50.9914 113.517C50.9914 115.484 50.4878 116.92 49.7977 116.92C49.2147 116.92 49.1019 112.818 49.6696 112.258C50.4753 111.462 50.9914 111.954 50.9914 113.517ZM74.2209 116.068C74.2209 117.751 73.6775 119.157 73.0271 119.157C72.4537 119.157 72.3268 115.06 72.8832 114.511C73.5178 113.884 74.2209 114.703 74.2209 116.068ZM66.371 115.846C65.2662 116.861 65.1268 117.481 65.2724 120.734C65.4107 123.821 65.6164 124.494 66.4724 124.655C68.1274 124.966 69.5648 123.196 69.9603 120.36C70.3597 117.489 69.5852 114.682 68.3925 114.682C67.9761 114.682 67.0668 115.206 66.371 115.846ZM41.3597 119.144C41.3597 121.081 40.8521 122.514 40.166 122.514C39.5954 122.514 39.4787 119.156 40.0028 117.808C40.515 116.489 41.3597 117.321 41.3597 119.144ZM68.5552 119.402C68.5552 120.423 68.1727 121.571 67.7053 121.954C66.9716 122.556 66.8554 122.31 66.8554 120.158C66.8554 118.787 67.0186 117.505 67.2175 117.308C67.9319 116.602 68.5552 117.578 68.5552 119.402ZM33.4447 119.543C32.4674 120.77 32.2764 121.673 32.4119 124.438C32.5552 127.369 32.7359 127.851 33.7422 127.993C35.4323 128.232 36.9189 126.288 37.2475 123.409C37.8322 118.284 35.9626 116.382 33.4447 119.543ZM60.3784 119.457C59.6962 120.485 59.4832 121.833 59.605 124.352C59.7512 127.369 59.9274 127.85 60.9376 127.993C61.5784 128.083 62.5331 127.687 63.0594 127.113C64.1625 125.91 64.9025 121.586 64.3665 119.477C63.8736 117.537 61.66 117.526 60.3784 119.457ZM35.694 122.44C35.694 123.286 35.3195 124.467 34.8623 125.064C34.0912 126.071 34.0289 125.962 34.0124 123.586C34.0022 122.176 34.1575 120.861 34.3563 120.664C35.0266 120.003 35.694 120.889 35.694 122.44ZM56.286 122.651C55.4504 123.958 54.6611 124.714 54.5319 124.33C54.1246 123.124 51.6441 123.542 50.6929 124.976C50.0606 125.929 49.8509 127.351 49.9716 129.871C50.1331 133.242 50.2135 133.423 51.558 133.423C53.2487 133.423 54.9552 130.543 54.9563 127.689C54.9569 126.493 55.2322 125.87 55.7603 125.87C56.2016 125.87 56.6911 125.556 56.8487 125.171C57.0056 124.787 57.1546 125.814 57.179 127.455C57.2107 129.578 57.4283 130.372 57.9319 130.208C58.8266 129.915 59.2673 120.276 58.3858 120.276C58.0662 120.276 57.1212 121.345 56.286 122.651ZM62.8894 122.758C62.8894 123.779 62.507 124.928 62.0396 125.311C61.3059 125.912 61.1897 125.667 61.1897 123.515C61.1897 122.144 61.3529 120.861 61.5518 120.664C62.2662 119.959 62.8894 120.935 62.8894 122.758ZM75.3925 126.11C74.3257 127.231 74.0515 128.165 74.001 130.853C73.9325 134.486 74.5993 135.693 76.3693 135.138C78.0033 134.626 78.8407 132.123 78.643 128.344C78.443 124.52 77.5126 123.881 75.3925 126.11ZM46.4974 127.968C45.8305 129.215 45.3654 129.669 45.3507 129.087C45.3076 127.406 43.6521 128.016 42.6555 130.08C41.9031 131.638 41.6022 131.872 41.2203 131.198C40.4742 129.883 39.9779 130.154 38.5535 132.656C37.4651 134.568 37.149 134.809 36.7212 134.055C36.0113 132.803 35.3133 132.909 33.6855 134.516C32.4946 135.692 32.2946 136.411 32.2946 139.518C32.2946 141.514 32.5518 143.304 32.8662 143.496C34.8555 144.709 37.3937 141.249 37.3937 137.323C37.3937 135.992 37.6062 135.444 38.0237 135.699C38.3699 135.91 38.8759 135.736 39.1478 135.312C39.4668 134.816 39.6458 135.579 39.6515 137.461C39.6583 139.824 39.822 140.319 40.5099 140.059C41.1337 139.822 41.3597 138.85 41.3597 136.407C41.3597 134.106 41.5546 133.196 41.9897 133.461C42.3359 133.673 42.8419 133.499 43.1138 133.075C43.4328 132.578 43.6118 133.342 43.6175 135.223C43.6243 137.586 43.788 138.082 44.4759 137.821C45.0997 137.584 45.3257 136.612 45.3257 134.169C45.3257 131.869 45.5206 130.958 45.9557 131.224C46.3019 131.435 46.8079 131.261 47.0798 130.837C47.3977 130.342 47.5778 131.141 47.5835 133.071C47.5909 135.679 47.7048 135.985 48.4419 135.381C49.6606 134.382 49.673 125.87 48.4555 125.87C47.9954 125.87 47.1144 126.815 46.4974 127.968ZM53.2577 127.722C53.2577 128.74 52.8832 130.061 52.426 130.659C51.6549 131.665 51.5926 131.556 51.5761 129.181C51.5659 127.77 51.728 126.448 51.9359 126.244C52.7699 125.42 53.2577 125.965 53.2577 127.722ZM76.5546 132.741C75.6146 133.669 75.205 130.78 76.0135 128.925L76.7359 127.269L76.9308 129.723C77.0384 131.072 76.869 132.43 76.5546 132.741ZM69.7229 129.193C69.0809 129.827 68.5552 130.96 68.5552 131.711C68.5552 132.463 68.3002 133.232 67.9886 133.423C67.677 133.613 67.422 133.25 67.422 132.616C67.422 131.768 67.0577 131.465 66.0379 131.465C63.8639 131.465 62.8894 133.408 62.8894 137.743C62.8894 141.347 62.9552 141.534 64.2181 141.534C65.962 141.534 67.1693 140.098 67.7455 137.339C68.1733 135.29 68.2311 135.233 68.4248 136.672C68.7115 138.797 70.0169 139.153 71.7223 137.571C73.0039 136.382 73.1178 135.905 72.9687 132.331C72.7852 127.94 71.8792 127.064 69.7229 129.193ZM192.634 130.601C192.634 131.328 190.685 132.595 182.616 137.113C180.177 138.478 178.886 138.306 180.164 136.786C180.895 135.917 191.426 129.801 192.209 129.791C192.443 129.789 192.634 130.153 192.634 130.601ZM71.6679 133.717C71.4662 134.625 71.073 135.507 70.7942 135.677C69.9478 136.193 69.584 133.486 70.2634 131.723C70.8316 130.246 70.9625 130.175 71.4679 131.066C71.7801 131.617 71.8702 132.81 71.6679 133.717ZM60.4985 134.681C60.022 135.22 59.2277 136.416 58.7336 137.339C58.1314 138.465 57.8283 138.695 57.813 138.038C57.7778 136.526 55.1671 136.782 54.0923 138.402C53.46 139.355 53.2504 140.777 53.371 143.297C53.5223 146.462 53.6759 146.868 54.7801 147.023C56.3858 147.249 57.5829 145.417 58.094 141.954C58.596 138.549 60.0566 138.236 60.0566 141.534C60.0566 143.15 60.2928 143.772 60.9064 143.772C61.5988 143.772 61.7563 142.839 61.7563 138.737C61.7563 135.968 61.6685 133.702 61.5608 133.702C61.4532 133.702 60.9756 134.143 60.4985 134.681ZM66.2889 135.866C66.2889 136.712 65.9144 137.893 65.4571 138.49C64.686 139.497 64.6237 139.388 64.6073 137.012C64.5971 135.602 64.7523 134.288 64.9512 134.091C65.6215 133.429 66.2889 134.315 66.2889 135.866ZM35.694 137.791C35.694 138.809 35.3195 140.131 34.8623 140.728C34.0912 141.735 34.0289 141.626 34.0124 139.25C34.0022 137.84 34.1643 136.518 34.3722 136.313C35.2062 135.489 35.694 136.035 35.694 137.791ZM332.991 137.956C332.802 138.142 332.313 138.162 331.905 138C331.453 137.822 331.587 137.689 332.247 137.663C332.844 137.638 333.179 137.77 332.991 137.956ZM177.803 139.077C177.601 140.068 158.68 151.135 157.949 150.689C157.698 150.535 157.697 150.049 157.948 149.608C158.458 148.708 176.068 138.325 177.237 138.235C177.649 138.203 177.904 138.582 177.803 139.077ZM192.068 138.915C192.068 139.64 173.362 150.746 172.432 150.573C170.752 150.262 173.072 148.455 181.303 143.662C186.445 140.667 190.97 138.209 191.36 138.197C191.749 138.187 192.068 138.509 192.068 138.915ZM334.664 139.961C334.483 140.407 334.349 140.274 334.322 139.623C334.298 139.033 334.431 138.703 334.619 138.889C334.808 139.074 334.828 139.557 334.664 139.961ZM51.2107 139.735C50.8645 139.955 50.047 141.143 49.3948 142.373C48.7421 143.604 48.1977 144.198 48.1835 143.692C48.1404 142.112 46.49 142.012 44.9852 143.498C43.7172 144.75 43.5914 145.273 43.7416 148.661C43.8759 151.673 44.1014 152.468 44.8662 152.611C46.4776 152.915 48.0849 150.743 48.4923 147.71C48.7252 145.977 49.1523 144.891 49.6005 144.891C50.0022 144.891 50.4589 144.576 50.6164 144.192C50.7733 143.807 50.9223 144.864 50.9467 146.541C50.9778 148.657 51.1722 149.412 51.5824 149.007C52.4124 148.187 52.0526 139.199 51.2107 139.735ZM56.6572 141.46C56.6572 142.306 56.2826 143.487 55.8254 144.085C55.0543 145.091 54.992 144.983 54.9756 142.607C54.9654 141.196 55.1206 139.882 55.3195 139.685C55.9897 139.024 56.6572 139.91 56.6572 141.46ZM76.4809 141.674C75.1404 143.845 74.9801 145.712 76.1727 145.259C76.7869 145.027 77.0345 145.504 77.1642 147.168C77.4787 151.206 78.4662 149.49 78.6339 144.614C78.8141 139.384 78.3155 138.704 76.4809 141.674ZM136.834 142.517C135.863 143.395 135.828 143.397 136.482 142.538C136.881 142.013 137.021 141.257 136.792 140.86C136.458 140.277 136.527 140.273 137.144 140.839C137.785 141.426 137.734 141.703 136.834 142.517ZM326.984 142.513C327.689 143.401 327.669 143.42 326.77 142.725C325.826 141.994 325.527 141.534 325.993 141.534C326.11 141.534 326.557 141.975 326.984 142.513ZM71.0413 144.069C69.7087 146.077 69.3455 150.991 70.4243 152.412C71.2124 153.449 71.3189 153.456 72.7268 152.545C74.5002 151.397 74.911 150.015 74.6792 145.98C74.5274 143.336 74.3399 142.91 73.2651 142.759C72.4294 142.641 71.7059 143.068 71.0413 144.069ZM151.275 145.449C151.275 146.843 150.82 147.408 148.583 148.795C145.177 150.907 144.476 150.911 144.476 148.818C144.476 147.394 144.909 146.906 147.45 145.467C149.086 144.541 150.616 143.78 150.85 143.777C151.084 143.774 151.275 144.527 151.275 145.449ZM46.7914 147.906C46.2334 150.841 45.3257 150.958 45.3257 148.094C45.3257 146.743 45.5002 145.465 45.7127 145.254C46.5218 144.456 47.1523 146.006 46.7914 147.906ZM72.8464 149.74C72.6719 150.189 72.2724 150.399 71.9586 150.208C71.1682 149.725 71.2441 147.303 72.0962 145.833C72.7631 144.682 72.8146 144.737 72.984 146.768C73.0826 147.954 73.0203 149.292 72.8464 149.74ZM39.1342 146.925C38.115 148.204 37.9405 149.063 38.0787 152.123C38.2096 155.038 38.4396 155.825 39.2005 155.968C40.7405 156.258 42.3801 154.129 42.813 151.276C43.5569 146.378 41.5036 143.95 39.1342 146.925ZM67.2209 146.709C66.7846 147.402 66.1489 148.471 65.809 149.087C65.2713 150.059 65.188 150.077 65.1727 149.226C65.1461 147.714 62.5331 147.97 61.4577 149.591C60.8254 150.544 60.6158 151.966 60.7365 154.486C60.8979 157.857 60.9784 158.037 62.3229 158.037C63.992 158.037 65.72 155.169 65.7212 152.397C65.7217 151.236 66.0005 150.671 66.5722 150.671C67.1795 150.671 67.422 151.283 67.422 152.816C67.422 154.349 67.6645 154.96 68.2719 154.96C68.9608 154.96 69.1217 154.059 69.1217 150.205C69.1217 145.323 68.6464 144.448 67.2209 146.709ZM137.568 146.863C137.393 147.036 137.076 146.725 136.863 146.174C136.556 145.376 136.621 145.312 137.181 145.86C137.568 146.24 137.742 146.692 137.568 146.863ZM323.899 148.912C323.719 149.358 323.584 149.225 323.557 148.574C323.533 147.984 323.666 147.654 323.855 147.84C324.043 148.025 324.063 148.508 323.899 148.912ZM41.3597 149.88C41.3597 151.846 40.856 153.282 40.166 153.282C39.583 153.282 39.4702 149.18 40.0379 148.621C40.8436 147.824 41.3597 148.316 41.3597 149.88ZM338.064 149.471C337.883 149.917 337.749 149.785 337.721 149.133C337.697 148.543 337.831 148.213 338.019 148.399C338.207 148.585 338.227 149.067 338.064 149.471ZM34.2209 149.235C32.945 150.076 32.2946 152.186 32.2946 155.483C32.2946 158.67 32.3756 158.876 33.6232 158.876C35.5257 158.876 36.9167 157.073 37.2475 154.177C37.7512 149.765 36.5048 147.729 34.2209 149.235ZM340.356 150.264C340.168 150.449 339.679 150.469 339.27 150.308C338.818 150.129 338.953 149.997 339.613 149.97C340.21 149.946 340.544 150.078 340.356 150.264ZM64.0226 152.336C64.0226 153.354 63.6481 154.676 63.1909 155.273C62.4198 156.28 62.3574 156.171 62.341 153.795C62.3308 152.385 62.4928 151.063 62.7008 150.858C63.5348 150.034 64.0226 150.58 64.0226 152.336ZM35.694 153.269C35.694 155.205 35.1864 156.639 34.5002 156.639C33.9297 156.639 33.813 153.281 34.3371 151.933C34.8493 150.614 35.694 151.446 35.694 153.269ZM56.5784 152.114C55.3931 153.061 55.2407 153.649 55.2407 157.276C55.2407 161.846 55.9376 162.601 58.3642 160.662C60.6311 158.849 60.6198 151.044 58.3501 151.044C58.1115 151.044 57.3138 151.526 56.5784 152.114ZM151.275 153.431C151.275 155.046 150.919 155.468 148.212 157.067C146.527 158.062 144.997 158.876 144.812 158.876C144.055 158.876 144.544 155.6 145.407 154.889C146.571 153.93 150.279 151.728 150.85 151.656C151.084 151.627 151.275 152.426 151.275 153.431ZM168.169 152.554C168.024 153.298 159.324 158.876 158.309 158.876C158.179 158.876 158.075 158.436 158.077 157.897C158.08 157.261 159.714 155.99 162.752 154.264C167.907 151.334 168.441 151.165 168.169 152.554ZM117.707 152.858C117.435 153.663 113.958 155.783 113.557 155.387C113.409 155.241 113.436 154.739 113.617 154.272C114.198 152.777 118.202 151.392 117.707 152.858ZM319.993 152.946C319.592 153.377 319.174 153.645 319.065 153.543C318.729 153.227 319.58 152.163 320.168 152.163C320.474 152.163 320.396 152.516 319.993 152.946ZM51.8725 155.815C51.1353 157.166 50.6124 157.607 50.2141 157.214C48.4339 155.456 46.0606 157.509 45.5405 161.255C45.0277 164.947 45.5926 166.708 47.2872 166.708C49.2243 166.708 50.4249 164.722 50.4249 161.516C50.4249 159.674 50.626 158.933 51.0549 159.195C51.4011 159.406 51.907 159.232 52.179 158.808C52.5014 158.306 52.677 158.963 52.6827 160.695C52.6889 162.68 52.9059 163.352 53.541 163.352C54.23 163.352 54.3909 162.451 54.3909 158.597C54.3909 153.251 53.6923 152.479 51.8725 155.815ZM58.3569 155.693C58.3569 156.711 57.9824 158.032 57.5251 158.63C56.754 159.636 56.6917 159.528 56.6753 157.152C56.6651 155.741 56.8271 154.419 57.0351 154.215C57.869 153.391 58.3569 153.936 58.3569 155.693ZM325.021 156.219C324.864 156.604 324.735 156.289 324.735 155.52C324.735 154.751 324.864 154.436 325.021 154.821C325.178 155.205 325.178 155.835 325.021 156.219ZM121.246 155.785C121.246 156.572 118.544 158.317 117.326 158.317C116.306 158.317 117.366 156.631 118.906 155.805C120.822 154.777 121.246 154.773 121.246 155.785ZM74.8435 158.069C73.4328 160.43 73.2826 161.934 74.5042 161.471C75.1829 161.214 75.354 161.662 75.354 163.696C75.354 165.483 75.5648 166.173 76.0622 166.011C76.9132 165.732 77.4016 156.079 76.5653 156.079C76.2724 156.079 75.4974 156.975 74.8435 158.069ZM172.825 156.894C172.449 157.342 172.305 157.971 172.506 158.292C172.707 158.613 172.601 158.876 172.271 158.876C171.462 158.876 171.51 157.581 172.351 156.751C173.306 155.808 173.65 155.912 172.825 156.894ZM325.032 158.422C324.852 158.868 324.717 158.735 324.69 158.084C324.666 157.494 324.8 157.164 324.988 157.35C325.176 157.535 325.196 158.018 325.032 158.422ZM335.219 160.135C335.062 160.52 334.933 160.205 334.933 159.436C334.933 158.667 335.062 158.352 335.219 158.737C335.376 159.121 335.376 159.751 335.219 160.135ZM43.847 159.304C43.1178 159.78 41.3597 163.018 41.3597 163.883C41.3597 164.207 41.7422 164.471 42.2096 164.471C42.8232 164.471 43.0594 165.092 43.0594 166.708C43.0594 168.325 43.2957 168.946 43.9093 168.946C44.6016 168.946 44.7592 168.014 44.7592 163.911C44.7592 161.142 44.6957 158.88 44.6175 158.885C44.5393 158.89 44.1926 159.078 43.847 159.304ZM48.4838 163.726C48.3093 164.175 47.9099 164.385 47.596 164.193C46.8056 163.711 46.8815 161.289 47.7337 159.818C48.4005 158.668 48.4521 158.723 48.6215 160.753C48.7201 161.94 48.6577 163.277 48.4838 163.726ZM168.168 160.392C168.004 161.234 159.672 166.636 158.457 166.688C158.2 166.699 158.075 166.278 158.177 165.752C158.341 164.91 166.673 159.508 167.888 159.456C168.145 159.445 168.271 159.866 168.168 160.392ZM121.246 160.78C121.246 161.651 117.859 163.985 117.189 163.576C116.475 163.14 117.224 161.968 118.852 160.971C120.751 159.808 121.246 159.769 121.246 160.78ZM151.275 161.662C151.275 163.086 150.841 163.574 148.3 165.013C146.664 165.94 145.118 166.7 144.865 166.703C144.611 166.706 144.484 165.905 144.582 164.923C144.724 163.488 145.26 162.837 147.309 161.61C150.639 159.615 151.275 159.624 151.275 161.662ZM71.5869 163.84C71.5404 164.812 71.3234 166.044 71.1053 166.577C70.7552 167.432 70.6492 167.397 70.2135 166.282C69.5976 164.704 70.1846 161.553 71.0384 161.851C71.3863 161.973 71.6333 162.868 71.5869 163.84ZM37.1427 163.477C35.966 165.135 35.9087 171.645 37.0662 172.083C39.5178 173.013 41.7915 168.649 41.0657 164.407C40.7563 162.601 40.4679 162.233 39.3592 162.233C38.622 162.233 37.6294 162.79 37.1427 163.477ZM331.653 164.351C331.804 164.593 331.455 164.79 330.878 164.79C330.3 164.79 329.951 164.593 330.103 164.351C330.255 164.109 330.603 163.911 330.878 163.911C331.153 163.911 331.501 164.109 331.653 164.351ZM32.8266 166.775C31.9461 168.479 31.8017 169.243 32.2725 169.707C32.7427 170.172 33.0476 170.118 33.4425 169.501C33.8164 168.917 33.9796 169.57 33.9858 171.672C33.9932 174.28 34.107 174.585 34.8441 173.981C36.0645 172.981 36.0747 164.471 34.8555 164.471C34.3949 164.471 33.4815 165.508 32.8266 166.775ZM39.66 166.635C39.66 167.48 39.2855 168.661 38.8283 169.259C38.0572 170.265 37.9949 170.157 37.9784 167.781C37.9682 166.37 38.1235 165.056 38.3223 164.859C38.9926 164.198 39.66 165.084 39.66 166.635ZM66.3807 167.211L66.592 169.4L65.0237 168.599C64.1614 168.159 63.456 167.664 63.456 167.5C63.456 167.336 63.711 167.357 64.0226 167.548C64.3399 167.741 64.5892 167.305 64.5892 166.555C64.5892 163.549 66.0792 164.095 66.3807 167.211ZM172.396 165.612C172.23 166.239 171.967 166.628 171.812 166.475C171.506 166.172 172.047 164.471 172.45 164.471C172.587 164.471 172.562 164.984 172.396 165.612ZM321.813 166.429C321.081 167.198 320.257 167.827 319.983 167.827C319.511 167.827 322.392 165.085 322.903 165.048C323.035 165.038 322.545 165.659 321.813 166.429ZM187.535 165.801C187.535 165.917 187.089 166.358 186.544 166.78C185.645 167.475 185.625 167.456 186.33 166.569C187.07 165.637 187.535 165.341 187.535 165.801ZM117.847 167.786C117.847 168.502 115.036 170.624 114.088 170.624C112.851 170.624 113.189 169.692 114.872 168.451C116.532 167.228 117.847 166.934 117.847 167.786ZM167.692 169.242C167.004 170.06 159.136 174.54 158.387 174.54C158.169 174.54 158.073 174.13 158.174 173.628C158.395 172.526 167.906 167.038 168.184 167.852C168.291 168.167 168.069 168.792 167.692 169.242ZM151.275 169.518C151.275 170.923 150.825 171.49 148.614 172.874C145.258 174.976 144.476 174.982 144.476 172.908C144.476 171.529 144.938 171.01 147.45 169.564C149.086 168.622 150.616 167.846 150.85 167.84C151.084 167.833 151.275 168.588 151.275 169.518ZM324.466 169.051C324.285 169.497 324.151 169.365 324.124 168.713C324.099 168.123 324.233 167.793 324.421 167.979C324.609 168.165 324.63 168.647 324.466 169.051ZM121.062 171.41C120.884 171.869 119.936 172.653 118.957 173.153C115.842 174.744 116.012 173.048 119.157 171.159C121.047 170.024 121.574 170.093 121.062 171.41ZM325.625 170.403C325.437 170.589 324.948 170.609 324.54 170.447C324.087 170.269 324.222 170.136 324.882 170.109C325.479 170.085 325.813 170.217 325.625 170.403ZM79.32 174.545C79.32 176.651 79.2509 176.745 78.1812 176.085C77.5551 175.699 77.3002 175.298 77.6146 175.195C77.9297 175.091 78.1869 174.566 78.1869 174.027C78.1869 173.141 78.6458 172.303 79.1314 172.303C79.235 172.303 79.32 173.312 79.32 174.545ZM379.566 173.745C379.204 174.176 378.67 174.383 378.378 174.205C378.065 174.013 378.117 173.561 378.507 173.098C378.869 172.667 379.403 172.46 379.695 172.638C380.008 172.83 379.955 173.282 379.566 173.745ZM121.267 175.355C120.89 175.803 120.769 176.495 120.998 176.893C121.324 177.463 121.255 177.473 120.674 176.941C120.072 176.392 120.07 176.105 120.66 175.403C121.059 174.929 121.513 174.54 121.668 174.54C121.824 174.54 121.643 174.907 121.267 175.355ZM151.275 177.576C151.275 179.308 150.981 179.659 148.231 181.213C146.557 182.158 145.011 182.932 144.796 182.932C144.581 182.932 144.484 182.114 144.582 181.115C144.731 179.583 145.243 179.014 147.85 177.479C149.55 176.478 151.016 175.659 151.108 175.659C151.2 175.659 151.275 176.522 151.275 177.576ZM168.272 176.449C168.272 177.099 166.043 178.538 158.498 182.76C158.264 182.891 158.073 182.514 158.073 181.922C158.073 181.173 159.409 180.066 162.464 178.284C167.153 175.547 168.272 175.194 168.272 176.449ZM377.604 176.141C377.124 176.615 375.605 176.723 375.892 176.263C376.036 176.033 376.547 175.845 377.028 175.845C377.509 175.845 377.768 175.979 377.604 176.141ZM117.847 178.131C117.847 178.832 114.609 181.253 113.672 181.253C112.623 181.253 113.558 179.531 115.156 178.521C117.338 177.14 117.847 177.067 117.847 178.131ZM374.729 179.482C374.889 179.738 374.661 179.948 374.22 179.948C373.78 179.948 373.552 179.738 373.712 179.482C373.873 179.225 374.102 179.016 374.22 179.016C374.339 179.016 374.568 179.225 374.729 179.482ZM137.677 182.372C137.677 182.68 137.565 182.932 137.427 182.932C137.289 182.932 137.02 182.68 136.827 182.372C136.634 182.065 136.747 181.813 137.077 181.813C137.407 181.813 137.677 182.065 137.677 182.372ZM151.169 185.836C151.026 187.271 150.49 187.922 148.442 189.149C145.008 191.205 144.363 191.176 144.582 188.978C144.724 187.544 145.26 186.892 147.309 185.666C150.742 183.609 151.387 183.638 151.169 185.836ZM136.834 188.949C135.863 189.827 135.828 189.829 136.482 188.97C136.881 188.445 137.021 187.69 136.792 187.292C136.458 186.709 136.527 186.705 137.144 187.271C137.785 187.859 137.734 188.135 136.834 188.949ZM121.003 191.882C121.003 192.498 120.803 193.001 120.558 193.001C120.016 193.001 119.968 191.654 120.491 191.137C121.007 190.627 121.003 190.621 121.003 191.882ZM274.763 194C275.635 197.1 275.574 197.213 272.663 197.899C269.604 198.619 259.972 198.098 259.686 197.197C259.261 195.861 260.761 195.132 265.49 194.376C268.473 193.9 271.117 193.137 271.954 192.512C273.701 191.208 274.026 191.38 274.763 194ZM391.76 191.844C391.939 192.13 391.869 192.497 391.605 192.658C391.34 192.82 391.123 192.586 391.123 192.138C391.123 191.194 391.302 191.112 391.76 191.844ZM21.5382 193.98C21.5433 195.134 21.7343 196.343 21.9631 196.667C22.3926 197.273 42.1501 208.665 42.7728 208.665C42.9648 208.665 43.0436 207.497 42.949 206.07L42.7762 203.474L32.6781 197.679C27.124 194.49 22.3433 191.882 22.0549 191.882C21.766 191.882 21.5337 192.827 21.5382 193.98ZM137.568 193.296C137.393 193.468 137.076 193.157 136.863 192.606C136.556 191.809 136.621 191.744 137.181 192.293C137.568 192.672 137.742 193.124 137.568 193.296ZM151.275 193.474C151.275 194.35 150.828 195.439 150.283 195.895C149.253 196.757 145.166 199.155 144.727 199.155C144.588 199.155 144.476 198.298 144.476 197.251C144.476 195.543 144.782 195.172 147.45 193.646C149.086 192.711 150.616 191.931 150.85 191.914C151.084 191.896 151.275 192.599 151.275 193.474ZM389.235 193.281C388.847 193.743 388.745 194.12 389.007 194.12C389.27 194.12 387.849 195.75 385.85 197.741C383.852 199.733 382.098 201.246 381.953 201.102C381.809 200.96 381.285 201.155 380.788 201.538C379.992 202.151 379.976 202.118 380.658 201.259C381.083 200.724 381.614 200.397 381.837 200.534C382.06 200.67 383.616 199.408 385.295 197.731C386.973 196.052 388.124 194.68 387.853 194.68C387.581 194.68 387.821 194.176 388.385 193.561C389.571 192.266 390.285 192.031 389.235 193.281ZM117.847 194.162C117.847 194.696 114.542 196.911 113.739 196.915C112.635 196.921 113.506 195.229 115.131 194.214C116.905 193.104 117.847 193.086 117.847 194.162ZM367.596 195.533C367.421 195.706 367.104 195.395 366.891 194.843C366.584 194.046 366.649 193.982 367.209 194.53C367.596 194.91 367.77 195.362 367.596 195.533ZM24.6861 195.758C24.6861 196.35 24.4861 196.713 24.2413 196.564C23.9966 196.414 23.796 195.929 23.796 195.486C23.796 195.042 23.9966 194.68 24.2413 194.68C24.4861 194.68 24.6861 195.165 24.6861 195.758ZM264.282 196.395C264.077 196.723 264.025 197.107 264.168 197.247C264.563 197.638 266.289 196.865 266.289 196.298C266.289 195.598 264.735 195.673 264.282 196.395ZM272.804 196.358C272.997 196.666 273.521 196.917 273.971 196.917C274.42 196.917 274.787 196.666 274.787 196.358C274.787 196.05 274.262 195.798 273.621 195.798C272.979 195.798 272.612 196.05 272.804 196.358ZM121.246 197.182C121.246 197.975 118.54 199.714 117.309 199.714C116.114 199.714 116.76 198.551 118.555 197.471C120.759 196.144 121.246 196.092 121.246 197.182ZM256.128 197.496C256.854 197.881 257.23 198.682 257.242 199.874L257.261 201.672L258.375 200.353C259.759 198.712 262.323 199.055 262.323 200.881C262.323 202.812 263.403 204.19 264.918 204.19C266.331 204.19 269.121 201.978 269.121 200.858C269.121 199.725 270.202 200.292 270.937 201.812C271.357 202.68 272.235 203.428 272.951 203.53C274.52 203.75 274.55 204.715 273.08 207.56C271.408 210.797 269.622 211.787 266.906 210.984C264.144 210.167 264.022 210.175 264.022 211.183C264.022 211.738 264.645 212.052 265.864 212.111L267.705 212.201L265.808 212.431C264.176 212.628 263.958 212.83 264.246 213.88C265.845 219.707 266.022 223.21 264.718 223.21C263.378 223.21 258.685 219.546 257.077 217.243C256.067 215.797 254.794 214.157 254.249 213.598C253.564 212.896 253.485 212.581 253.992 212.581C254.459 212.581 254.975 211.152 255.408 208.655C256.229 203.934 256.243 203.471 255.565 203.885C254.498 204.535 252.059 201.738 252.003 199.801C251.928 197.201 253.698 196.212 256.128 197.496ZM29.6572 198.34C29.4725 198.815 29.2 199.083 29.0515 198.937C28.9031 198.79 28.9495 198.401 29.1552 198.074C29.7138 197.181 30.0402 197.354 29.6572 198.34ZM31.5484 199.82C31.3677 200.265 31.2334 200.133 31.2062 199.481C31.1818 198.891 31.3155 198.561 31.5036 198.747C31.6917 198.933 31.7121 199.416 31.5484 199.82ZM267.587 199.295C269.098 200.41 267.636 202.741 265.284 202.966C263.54 203.134 263.456 203.052 263.456 201.195C263.456 198.706 265.508 197.762 267.587 199.295ZM274.787 200.571C274.787 202.757 273.617 203.642 272.23 202.505C270.594 201.164 271.604 198.596 273.767 198.596C274.557 198.596 274.787 199.041 274.787 200.571ZM264.958 199.976C264.558 201.004 265.62 201.717 266.402 200.945C267.006 200.348 266.572 199.155 265.749 199.155C265.489 199.155 265.133 199.525 264.958 199.976ZM272.316 199.543C271.639 200.212 271.951 201.393 272.804 201.393C273.272 201.393 273.654 201.03 273.654 200.587C273.654 199.652 272.846 199.021 272.316 199.543ZM33.6232 200.578C33.4385 201.053 33.166 201.321 33.0175 201.174C32.8691 201.028 32.9155 200.639 33.1212 200.311C33.6798 199.418 34.0062 199.592 33.6232 200.578ZM151.275 201.911C151.275 203.304 150.821 203.804 148.231 205.268C146.557 206.213 145.028 206.987 144.832 206.987C144.636 206.987 144.476 206.232 144.476 205.31C144.476 203.916 144.931 203.351 147.167 201.964C150.561 199.859 151.275 199.85 151.275 201.911ZM357.907 203.204C357.772 203.9 357.656 203.463 357.649 202.232C357.643 201.001 357.754 200.432 357.896 200.966C358.038 201.501 358.043 202.508 357.907 203.204ZM121.246 202.217C121.246 203.004 118.544 204.749 117.326 204.749C116.306 204.749 117.366 203.063 118.906 202.237C120.822 201.209 121.246 201.205 121.246 202.217ZM365.421 203.351C365.421 203.658 365.174 203.532 364.872 203.071C364.57 202.609 364.323 201.98 364.323 201.672C364.323 201.365 364.57 201.491 364.872 201.952C365.174 202.414 365.421 203.043 365.421 203.351ZM39.4804 204.295C39.2997 204.741 39.1654 204.608 39.1382 203.957C39.1138 203.367 39.2475 203.037 39.4356 203.223C39.6237 203.408 39.6441 203.891 39.4804 204.295ZM380.436 203.553C379.957 204.026 378.437 204.134 378.725 203.675C378.869 203.445 379.38 203.257 379.861 203.257C380.342 203.257 380.601 203.39 380.436 203.553ZM378.737 205.791C378.257 206.264 376.738 206.372 377.026 205.912C377.169 205.683 377.681 205.495 378.162 205.495C378.643 205.495 378.902 205.628 378.737 205.791ZM364.226 209.225C364.226 209.753 364.046 209.65 363.739 208.945C363.471 208.33 363.252 207.448 363.252 206.987C363.252 206.458 363.432 206.561 363.739 207.267C364.007 207.882 364.226 208.763 364.226 209.225ZM377.604 207.469C377.124 207.942 375.605 208.05 375.892 207.591C376.036 207.361 376.547 207.173 377.028 207.173C377.509 207.173 377.768 207.306 377.604 207.469ZM46.7461 208.099C46.2657 208.868 47.4521 210.343 48.5506 210.343C49.7025 210.343 49.2623 207.885 48.0696 207.661C47.5535 207.564 46.958 207.761 46.7461 208.099ZM151.275 209.783C151.275 211.177 150.82 211.742 148.583 213.129C145.177 215.241 144.476 215.245 144.476 213.152C144.476 211.728 144.909 211.24 147.45 209.801C149.086 208.874 150.616 208.114 150.85 208.111C151.084 208.108 151.275 208.86 151.275 209.783ZM21.5297 210.816C21.5297 212.163 21.9008 213.29 22.5212 213.831C23.6124 214.782 42.2022 225.448 42.7688 225.448C42.9626 225.448 43.0436 224.271 42.949 222.833L42.7762 220.219L32.5898 214.442C26.9875 211.265 22.2068 208.665 21.9665 208.665C21.7263 208.665 21.5297 209.633 21.5297 210.816ZM117.847 209.184C117.847 209.899 115.036 212.022 114.088 212.022C112.873 212.022 113.178 211.09 114.807 209.825C116.37 208.611 117.847 208.299 117.847 209.184ZM362.981 211.602C362.824 211.987 362.695 211.672 362.695 210.903C362.695 210.134 362.824 209.819 362.981 210.204C363.138 210.588 363.138 211.218 362.981 211.602ZM376.203 210.124C376.203 210.587 375.103 210.849 374.851 210.446C374.687 210.185 374.925 209.97 375.379 209.97C375.832 209.97 376.203 210.04 376.203 210.124ZM23.6759 212.098C23.5342 212.517 23.2776 212.263 23.077 211.507C22.8306 210.577 22.9042 210.358 23.3246 210.773C23.6544 211.099 23.8119 211.694 23.6759 212.098ZM51.6543 211.557C51.779 212.426 52.2815 212.922 53.1614 213.045C54.26 213.199 54.4504 213.011 54.2946 211.927C54.1699 211.058 53.6674 210.562 52.7875 210.439C51.6889 210.285 51.4985 210.473 51.6543 211.557ZM121.246 212.31C121.246 213.232 117.919 215.488 117.203 215.052C116.474 214.606 117.199 213.475 118.845 212.492C120.837 211.302 121.246 211.27 121.246 212.31ZM25.7008 212.861C25.5212 213.322 25.2742 213.7 25.1518 213.7C25.0294 213.7 24.9291 213.322 24.9291 212.861C24.9291 212.399 25.1762 212.022 25.4782 212.022C25.7796 212.022 25.8799 212.399 25.7008 212.861ZM28.6521 214.847C28.6521 216.131 27.4527 215.291 27.0351 213.715C26.8022 212.834 26.9184 212.75 27.7025 213.233C28.2249 213.556 28.6521 214.282 28.6521 214.847ZM363.547 214.399C363.39 214.784 363.262 214.469 363.262 213.7C363.262 212.931 363.39 212.616 363.547 213.001C363.705 213.386 363.705 214.015 363.547 214.399ZM362.43 217.476C362.287 218.014 362.171 217.574 362.171 216.497C362.171 215.42 362.287 214.98 362.43 215.518C362.572 216.056 362.572 216.938 362.43 217.476ZM32.6181 217.016C32.6181 217.608 32.4181 217.971 32.1733 217.822C31.9286 217.672 31.728 217.187 31.728 216.744C31.728 216.3 31.9286 215.938 32.1733 215.938C32.4181 215.938 32.6181 216.423 32.6181 217.016ZM151.169 217.754C151.019 219.288 150.506 219.858 147.875 221.411L144.759 223.25L144.573 221.756C144.362 220.07 145.126 219.147 148.254 217.315C151.162 215.611 151.375 215.643 151.169 217.754ZM121.062 217.843C120.884 218.301 119.936 219.086 118.957 219.586C115.842 221.176 116.012 219.48 119.157 217.591C121.047 216.456 121.574 216.526 121.062 217.843ZM252.524 220.553C252.389 221.245 252.278 220.679 252.278 219.294C252.278 217.91 252.389 217.343 252.524 218.036C252.659 218.728 252.659 219.86 252.524 220.553ZM36.4022 219.201C36.0923 220.017 36.1694 220.037 37.0175 219.355C37.864 218.674 37.941 218.692 37.6294 219.495C37.2051 220.586 36.728 220.651 35.8073 219.742C34.8623 218.809 34.9546 217.586 35.9416 217.959C36.4266 218.143 36.6124 218.645 36.4022 219.201ZM137.677 218.175C137.677 218.483 137.565 218.735 137.427 218.735C137.289 218.735 137.02 218.483 136.827 218.175C136.634 217.868 136.747 217.616 137.077 217.616C137.407 217.616 137.677 217.868 137.677 218.175ZM40.3858 221.392C40.0589 222.254 40.1303 222.278 40.9835 221.593C41.8328 220.91 41.907 220.931 41.5864 221.756C41.3847 222.274 40.9331 222.604 40.5818 222.488C39.7546 222.216 39.3943 220.413 40.1671 220.413C40.4934 220.413 40.5914 220.851 40.3858 221.392ZM121.246 222.613C121.246 223.244 118.205 225.448 117.335 225.448C116.262 225.448 116.656 224.455 118.207 223.251C119.771 222.035 121.246 221.726 121.246 222.613ZM136.834 224.753C135.863 225.63 135.828 225.633 136.482 224.773C136.881 224.248 137.021 223.493 136.792 223.095C136.458 222.512 136.527 222.508 137.144 223.074C137.785 223.662 137.734 223.938 136.834 224.753ZM369.792 223.875C369.611 224.321 369.477 224.188 369.449 223.536C369.425 222.947 369.559 222.617 369.747 222.802C369.935 222.988 369.955 223.471 369.792 223.875ZM46.7931 224.807C46.2135 225.733 47.094 227.126 48.2589 227.126C49.0866 227.126 49.324 226.806 49.1897 225.873C49.0022 224.576 47.3875 223.857 46.7931 224.807ZM151.266 225.588C151.261 226.28 151.07 227.12 150.841 227.455C150.399 228.099 145.486 231.042 144.851 231.042C144.645 231.042 144.476 230.292 144.476 229.375C144.476 227.951 144.909 227.463 147.45 226.024C151.022 224.001 151.277 223.972 151.266 225.588ZM21.5297 227.599C21.5297 228.945 21.9008 230.073 22.5212 230.614C23.6124 231.565 42.2022 242.231 42.7688 242.231C42.9626 242.231 43.0436 241.054 42.949 239.616L42.7762 237.002L32.5898 231.224C26.9875 228.048 22.2068 225.448 21.9665 225.448C21.7263 225.448 21.5297 226.416 21.5297 227.599ZM121.003 227.686C121.003 228.301 120.803 228.804 120.558 228.804C120.016 228.804 119.968 227.457 120.491 226.94C121.007 226.43 121.003 226.424 121.003 227.686ZM25.6561 229.758C25.1342 231.101 23.8425 230.299 23.0697 228.152C22.7586 227.286 22.8493 227.284 24.3359 228.126C25.217 228.625 25.8107 229.36 25.6561 229.758ZM51.66 228.385C51.8396 229.632 54.3909 230.626 54.3909 229.448C54.3909 228.121 53.6198 227.126 52.5909 227.126C51.762 227.126 51.5251 227.446 51.66 228.385ZM117.847 229.91C117.847 230.383 114.374 232.72 113.672 232.72C112.627 232.72 113.554 231.002 115.131 230.017C116.874 228.926 117.847 228.888 117.847 229.91ZM27.5824 231.147C27.4017 231.593 27.2674 231.461 27.2402 230.809C27.2158 230.219 27.3495 229.889 27.5376 230.075C27.7257 230.261 27.7461 230.743 27.5824 231.147ZM32.4362 233.746C32.1263 234.562 32.2034 234.582 33.0515 233.9C33.898 233.219 33.975 233.237 33.6634 234.04C33.2391 235.131 32.762 235.196 31.8413 234.287C30.8963 233.354 30.9886 232.131 31.9756 232.504C32.4606 232.689 32.6464 233.19 32.4362 233.746ZM151.275 233.838C151.275 235.232 150.82 235.797 148.583 237.184C145.179 239.295 144.348 239.327 144.58 237.34C144.712 236.208 145.501 235.327 147.586 233.983C149.14 232.981 150.606 232.161 150.843 232.161C151.08 232.161 151.275 232.916 151.275 233.838ZM271.954 234.051C271.954 234.167 271.508 234.607 270.963 235.03C270.064 235.725 270.044 235.705 270.749 234.818C271.489 233.886 271.954 233.59 271.954 234.051ZM117.707 235.093C117.435 235.898 113.958 238.018 113.557 237.623C113.409 237.476 113.436 236.974 113.617 236.508C114.198 235.012 118.202 233.627 117.707 235.093ZM36.4198 235.937C36.0929 236.799 36.1643 236.823 37.0175 236.138C37.8668 235.455 37.941 235.476 37.6204 236.301C37.4187 236.819 36.9671 237.149 36.6158 237.033C35.7886 236.761 35.4283 234.958 36.2011 234.958C36.5274 234.958 36.6254 235.396 36.4198 235.937ZM19.6464 237.004C19.2833 237.362 22.2759 239.141 46.5342 252.981L58.2249 259.651L68.5671 253.738C74.2549 250.485 79.0016 247.825 79.1143 247.825C79.2277 247.825 79.3144 250.279 79.307 253.279L79.2939 258.734L68.8124 264.608C63.0475 267.838 58.026 270.4 57.6532 270.301C57.2804 270.201 49.6549 265.955 40.7076 260.865C31.7597 255.775 24.3518 251.702 24.2453 251.815C24.1388 251.928 23.6753 251.691 23.2153 251.288C22.7558 250.885 21.5512 250.071 20.5382 249.478L18.6969 248.4V242.891C18.6969 237.884 18.9042 236.636 19.7354 236.636C19.8912 236.636 19.851 236.802 19.6464 237.004ZM238.914 239.364C239.595 239.71 240.933 239.993 241.889 239.993C243.88 239.993 243.91 240.065 242.813 242.16C242.038 243.64 242.075 243.754 243.614 244.652C244.848 245.372 245.297 245.428 245.516 244.891C245.687 244.472 245.821 244.587 245.847 245.179C245.906 246.484 252.302 250.581 260.896 254.818C267.632 258.138 267.725 258.211 269.531 261.531C270.534 263.377 271.363 265.579 271.372 266.426C271.385 267.768 271.17 267.964 269.676 267.964C268.465 267.964 267.242 267.308 265.504 265.726C264.152 264.496 262.715 263.489 262.312 263.489C261.908 263.489 260.279 262.504 258.692 261.301C257.106 260.098 252.365 257.681 248.158 255.929C236.278 250.983 236.092 250.894 234.084 249.219C231.945 247.434 231.945 247.127 234.089 240.393L235.297 236.599L236.487 237.666C237.141 238.254 238.234 239.017 238.914 239.364ZM278.031 243.197C281.344 245.99 283.432 247.31 285.255 247.763C286.665 248.114 287.818 248.624 287.818 248.898C287.818 249.173 286.423 250.173 284.719 251.124L281.619 252.851L277.495 250.198C275.227 248.739 272.516 246.605 271.473 245.457C269.626 243.426 269.585 243.277 269.976 239.956L270.377 236.543L271.874 237.906C272.697 238.656 275.468 241.037 278.031 243.197ZM40.5501 238.315C40.5501 238.93 40.3501 239.433 40.1053 239.433C39.8606 239.433 39.66 238.93 39.66 238.315C39.66 237.699 39.8606 237.196 40.1053 237.196C40.3501 237.196 40.5501 237.699 40.5501 238.315ZM121.246 237.98C121.246 238.851 117.859 241.185 117.189 240.776C116.475 240.34 117.224 239.168 118.852 238.171C120.751 237.009 121.246 236.969 121.246 237.98ZM46.7931 241.59C46.2135 242.515 47.094 243.909 48.2589 243.909C49.0866 243.909 49.324 243.589 49.1897 242.656C49.0022 241.359 47.3875 240.64 46.7931 241.59ZM21.5382 244.328C21.5433 245.483 21.7343 246.693 21.9631 247.019C22.4226 247.673 42.03 259.013 42.7019 259.013C42.9325 259.013 43.0436 257.85 42.949 256.429L42.7762 253.845L32.5779 248.042C26.9688 244.85 22.1886 242.237 21.9546 242.235C21.7207 242.232 21.5337 243.175 21.5382 244.328ZM121.246 243.078C121.246 244 117.919 246.257 117.203 245.82C116.474 245.375 117.199 244.243 118.845 243.26C120.837 242.07 121.246 242.039 121.246 243.078ZM23.6759 245.664C23.5342 246.083 23.2776 245.829 23.077 245.072C22.8306 244.142 22.9042 243.923 23.3246 244.339C23.6544 244.664 23.8119 245.26 23.6759 245.664ZM51.66 245.168C51.8396 246.415 54.3909 247.409 54.3909 246.231C54.3909 244.904 53.6198 243.909 52.5909 243.909C51.762 243.909 51.5251 244.229 51.66 245.168ZM25.6912 246.45C25.5065 246.925 25.234 247.194 25.0855 247.047C24.9371 246.901 24.9835 246.512 25.1892 246.184C25.7478 245.291 26.0742 245.465 25.6912 246.45ZM121.267 247.521C120.89 247.969 120.769 248.661 120.998 249.059C121.324 249.628 121.255 249.639 120.674 249.107C120.072 248.558 120.07 248.271 120.66 247.569C121.059 247.094 121.513 246.706 121.668 246.706C121.824 246.706 121.643 247.072 121.267 247.521ZM29.6572 248.688C29.4725 249.163 29.2 249.432 29.0515 249.285C28.9031 249.138 28.9495 248.75 29.1552 248.422C29.7138 247.529 30.0402 247.702 29.6572 248.688ZM32.6181 250.605C32.6181 251.416 32.4402 251.533 31.89 251.082C31.4895 250.753 31.1614 250.146 31.1614 249.732C31.1614 249.318 31.4895 249.103 31.89 249.255C32.2906 249.407 32.6181 250.014 32.6181 250.605ZM117.847 250.296C117.847 250.998 114.609 253.419 113.672 253.419C112.623 253.419 113.558 251.697 115.156 250.686C117.338 249.306 117.847 249.233 117.847 250.296ZM35.5144 252.405C35.3337 252.851 35.1994 252.719 35.1722 252.067C35.1478 251.477 35.2815 251.147 35.4696 251.333C35.6577 251.519 35.6781 252.002 35.5144 252.405ZM37.5892 253.163C37.4045 253.638 37.132 253.907 36.9835 253.76C36.8351 253.614 36.8815 253.225 37.0872 252.897C37.6458 252.004 37.9722 252.178 37.5892 253.163ZM19.6362 253.839C19.4929 254.07 28.1206 259.234 38.809 265.316L58.2419 276.373L68.5535 270.452C74.2243 267.195 78.9166 264.611 78.9806 264.709C79.0441 264.807 79.52 265.557 80.0379 266.376C81.1364 268.112 84.3937 269.34 86.6973 268.885L88.3075 268.567L87.3988 270.13C86.2435 272.117 60.4554 286.985 58.1625 286.985C56.5308 286.985 20.6685 266.922 19.4051 265.302C18.6589 264.345 18.3756 254.483 19.0748 253.792C19.5852 253.288 19.9592 253.318 19.6362 253.839ZM40.3858 254.958C40.0589 255.82 40.1303 255.844 40.9835 255.158C41.83 254.478 41.907 254.495 41.5954 255.298C41.0929 256.592 39.66 256.443 39.66 255.097C39.66 254.482 39.907 253.979 40.209 253.979C40.5104 253.979 40.5903 254.419 40.3858 254.958ZM296.136 256.502C296.237 257.471 296.213 257.482 295.949 256.584C295.748 255.897 295.286 255.646 294.564 255.832C293.954 255.99 293.63 255.877 293.819 255.573C294.386 254.669 296.013 255.321 296.136 256.502ZM46.7931 258.372C46.2135 259.298 47.094 260.692 48.2589 260.692C49.0866 260.692 49.324 260.372 49.1897 259.438C49.0022 258.142 47.3875 257.423 46.7931 258.372ZM295.75 258.077C295.75 258.177 295.049 258.869 294.192 259.615L292.634 260.971L294.008 259.433C295.291 257.995 295.75 257.638 295.75 258.077ZM21.5382 261.111C21.5433 262.265 21.7343 263.476 21.9631 263.802C22.4226 264.456 42.03 275.796 42.7019 275.796C42.9325 275.796 43.0436 274.633 42.949 273.212L42.7762 270.628L32.5779 264.825C26.9688 261.633 22.1886 259.019 21.9546 259.017C21.7207 259.015 21.5337 259.958 21.5382 261.111ZM292.082 261.143C291.908 261.315 291.451 261.144 291.066 260.761C290.511 260.208 290.576 260.144 291.384 260.448C291.942 260.658 292.257 260.971 292.082 261.143ZM51.66 261.95C51.8396 263.198 54.3909 264.191 54.3909 263.014C54.3909 261.687 53.6198 260.692 52.5909 260.692C51.762 260.692 51.5251 261.012 51.66 261.95ZM24.5042 262.836C24.1943 263.652 24.2714 263.672 25.1195 262.99C25.966 262.309 26.043 262.327 25.7314 263.13C25.3071 264.221 24.83 264.286 23.9093 263.377C22.9643 262.444 23.0566 261.221 24.0436 261.595C24.5286 261.779 24.7144 262.28 24.5042 262.836ZM29.6572 265.471C29.4725 265.946 29.2 266.214 29.0515 266.068C28.9031 265.921 28.9495 265.532 29.1552 265.204C29.7138 264.312 30.0402 264.485 29.6572 265.471ZM32.4362 267.311C32.1263 268.127 32.2034 268.147 33.0515 267.466C33.898 266.785 33.975 266.803 33.6634 267.606C33.209 268.774 31.9541 268.793 31.5053 267.639C30.9558 266.225 31.1014 265.739 31.9756 266.07C32.4606 266.254 32.6464 266.756 32.4362 267.311ZM36.4022 269.549C36.0923 270.365 36.1694 270.385 37.0175 269.703C37.8674 269.02 37.941 269.041 37.6187 269.871C37.107 271.186 35.4487 270.734 35.23 269.22C35.0968 268.298 35.2736 268.055 35.9025 268.293C36.4203 268.489 36.617 268.982 36.4022 269.549ZM40.396 271.692C40.1524 272.318 40.2509 272.49 40.6968 272.219C41.0617 271.996 41.3597 272.081 41.3597 272.406C41.3597 272.732 40.9773 272.999 40.5099 272.999C40.0379 272.999 39.66 272.502 39.66 271.88C39.66 271.265 39.907 270.761 40.209 270.761C40.5104 270.761 40.5949 271.18 40.396 271.692ZM46.7931 275.155C46.2135 276.081 47.094 277.474 48.2589 277.474C49.0866 277.474 49.324 277.154 49.1897 276.221C49.0022 274.924 47.3875 274.206 46.7931 275.155ZM51.66 278.733C51.8396 279.981 54.3909 280.974 54.3909 279.796C54.3909 278.47 53.6198 277.474 52.5909 277.474C51.762 277.474 51.5251 277.794 51.66 278.733ZM291.038 285.971C290.857 286.417 290.723 286.284 290.696 285.632C290.672 285.043 290.805 284.713 290.993 284.898C291.182 285.084 291.202 285.567 291.038 285.971ZM313.123 303.887C313.045 305.404 312.744 305.767 311.189 306.206C309.889 306.573 309.335 307.072 309.303 307.904C309.279 308.552 309.13 308.767 308.973 308.383C308.815 307.998 308.226 307.683 307.662 307.683C306.808 307.683 305.565 306.141 306.077 305.716C306.665 305.228 309.903 303.86 311.189 303.555C312.047 303.353 312.747 302.939 312.747 302.638C312.747 302.336 312.853 302.089 312.981 302.089C313.11 302.089 313.174 302.898 313.123 303.887ZM314.164 310.48C314.357 310.788 314.244 311.04 313.914 311.04C313.584 311.04 313.314 310.788 313.314 310.48C313.314 310.173 313.426 309.921 313.564 309.921C313.702 309.921 313.971 310.173 314.164 310.48ZM315.864 312.159C316.056 312.466 315.944 312.718 315.614 312.718C315.284 312.718 315.014 312.466 315.014 312.159C315.014 311.851 315.126 311.599 315.264 311.599C315.401 311.599 315.671 311.851 315.864 312.159ZM297.167 313.56C297.167 314.669 296.753 315.093 295.184 315.591C294.093 315.937 292.946 316.403 292.634 316.626C292.323 316.849 291.518 317.164 290.846 317.326C289.908 317.553 289.568 317.328 289.38 316.357C289.163 315.238 289.592 314.931 293.151 313.662C295.36 312.875 297.167 312.215 297.167 312.195C297.167 312.175 297.167 312.789 297.167 313.56ZM317.841 312.949C317.791 313.215 318.09 313.645 318.507 313.906C319.093 314.272 319.047 314.381 318.305 314.388C317.778 314.392 317.189 314.145 316.997 313.837C316.804 313.529 316.98 313.274 317.388 313.269C317.933 313.262 317.904 313.103 317.28 312.667C316.717 312.274 316.683 312.14 317.181 312.27C317.594 312.378 317.891 312.683 317.841 312.949ZM320.113 315.515C320.845 315.982 320.83 316.058 320.005 316.066C319.478 316.071 318.889 315.823 318.696 315.515C318.253 314.807 319.004 314.807 320.113 315.515ZM321.813 317.193C321.813 317.501 321.558 317.753 321.246 317.753C320.934 317.753 320.679 317.501 320.679 317.193C320.679 316.886 320.934 316.634 321.246 316.634C321.558 316.634 321.813 316.886 321.813 317.193ZM299.456 319.953C298.998 320.686 297.45 320.746 297.45 320.031C297.45 319.747 297.897 319.415 298.442 319.295C299.678 319.024 299.934 319.19 299.456 319.953ZM295.184 320.761C295.184 320.877 294.737 321.318 294.192 321.74C293.294 322.436 293.274 322.416 293.978 321.529C294.719 320.597 295.184 320.301 295.184 320.761ZM300.849 321.669C300.849 321.977 300.467 322.228 300 322.228C299.532 322.228 299.15 321.977 299.15 321.669C299.15 321.361 299.532 321.109 300 321.109C300.467 321.109 300.849 321.361 300.849 321.669ZM296.883 322.44C296.883 322.556 296.437 322.996 295.892 323.419C294.993 324.114 294.974 324.094 295.678 323.207C296.418 322.275 296.883 321.979 296.883 322.44ZM303.713 324.855L305.665 326.923L303.582 325.275C302.435 324.369 301.48 323.438 301.457 323.207C301.387 322.494 301.695 322.719 303.713 324.855ZM314.52 324.326C315.224 325.213 315.204 325.233 314.306 324.538C313.761 324.115 313.314 323.674 313.314 323.559C313.314 323.098 313.779 323.394 314.52 324.326ZM322.226 325.923C322.038 326.108 321.549 326.129 321.14 325.967C320.688 325.788 320.822 325.656 321.482 325.629C322.079 325.605 322.414 325.737 322.226 325.923ZM303.116 329.712C303.116 329.828 302.669 330.269 302.124 330.691C301.226 331.387 301.206 331.367 301.91 330.48C302.651 329.548 303.116 329.252 303.116 329.712ZM307.495 335.433C307.307 335.619 306.818 335.639 306.409 335.477C305.957 335.299 306.091 335.166 306.751 335.139C307.349 335.115 307.683 335.247 307.495 335.433Z" fill="#FF00FF"/>
</svg>
