<svg width="21" height="20" viewBox="0 0 21 20" fill="none" xmlns="http://www.w3.org/2000/svg">
<path d="M20.6318 0L20.7656 0.0671141L20.2974 1.67785L19.8292 3.42282L19.5616 4.2953L19.0934 6.04027L18.6252 7.58389L18.2238 9.12752L17.7556 10.6711L17.3543 12.2148L16.886 13.7584L16.4847 15.302L16.0165 16.8456L15.6151 18.3893L15.1469 19.9329L15.0131 20L14.0767 18.255L13.1402 16.5101L12.2038 14.7651L11.2673 13.0201L10.4646 11.5436L9.99639 10.7383L8.12348 9.73154L6.38435 8.79195L4.64522 7.85235L3.03987 6.97987L1.30074 6.04027L0.765625 5.7047L0.966294 5.57047L2.63853 5.10067L4.37766 4.63087L5.91613 4.16107L7.45459 3.75839L8.99305 3.28859L10.6653 2.81879L12.4044 2.34899L13.7422 1.94631L15.4145 1.47651L17.2874 0.939597L19.0265 0.469799L20.6318 0Z" fill="#050505"/>
<path d="M18.0902 1.74512L18.2909 1.81223L10.3979 9.7317L9.99659 9.59747L7.85612 8.45653L6.38455 7.65116L4.51164 6.64445L3.44141 6.04042L3.5083 5.90619L6.51833 5.03371L8.25746 4.56391L9.79592 4.09411L10.8662 3.82565L12.4046 3.35586L13.4749 3.0874L15.0133 2.6176L16.5518 2.21492L18.0902 1.74512Z" fill="#9886CF"/>
<path d="M18.8925 2.55078L18.9594 2.75212L18.4912 4.49709L18.2236 5.36957L17.7554 7.11454L17.2871 8.65816L16.8858 10.2018L16.4176 11.7454L16.0162 13.289L15.548 14.8327L15.1467 16.3763L14.8122 17.383L14.6116 17.1817L13.4075 14.8998L12.6049 13.4233L11.6015 11.5441L11.0664 10.5374L11.2002 10.2689L18.8925 2.55078Z" fill="#9886CF"/>
</svg>
