<svg width="21" height="20" viewBox="0 0 21 20" fill="none" xmlns="http://www.w3.org/2000/svg">
<path d="M20.749 0L20.8828 0.0671141L20.4146 1.67785L19.9464 3.42282L19.6788 4.2953L19.2106 6.04027L18.7423 7.58389L18.341 9.12752L17.8728 10.6711L17.4714 12.2148L17.0032 13.7584L16.6019 15.302L16.1336 16.8456L15.7323 18.3893L15.2641 19.9329L15.1303 20L14.1938 18.255L13.2574 16.5101L12.3209 14.7651L11.3845 13.0201L10.5818 11.5436L10.1136 10.7383L8.24067 9.73154L6.50154 8.79195L4.76241 7.85235L3.15706 6.97987L1.41793 6.04027L0.882812 5.7047L1.08348 5.57047L2.75572 5.10067L4.49485 4.63087L6.03331 4.16107L7.57178 3.75839L9.11024 3.28859L10.7825 2.81879L12.5216 2.34899L13.8594 1.94631L15.5316 1.47651L17.4046 0.939597L19.1437 0.469799L20.749 0Z" fill="#050505"/>
<path d="M18.2074 1.74512L18.4081 1.81223L10.5151 9.7317L10.1138 9.59747L7.97331 8.45653L6.50174 7.65116L4.62883 6.64445L3.55859 6.04042L3.62548 5.90619L6.63552 5.03371L8.37465 4.56391L9.91311 4.09411L10.9833 3.82565L12.5218 3.35586L13.592 3.0874L15.1305 2.6176L16.669 2.21492L18.2074 1.74512Z" fill="#9886CF"/>
<path d="M19.0097 2.55078L19.0766 2.75212L18.6083 4.49709L18.3408 5.36957L17.8726 7.11454L17.4043 8.65816L17.003 10.2018L16.5348 11.7454L16.1334 13.289L15.6652 14.8327L15.2639 16.3763L14.9294 17.383L14.7287 17.1817L13.5247 14.8998L12.7221 13.4233L11.7187 11.5441L11.1836 10.5374L11.3174 10.2689L19.0097 2.55078Z" fill="#9886CF"/>
</svg>
