<svg width="20" height="20" viewBox="0 0 20 20" fill="none" xmlns="http://www.w3.org/2000/svg">
<path d="M19.8662 0L20 0.0671141L19.5318 1.67785L19.0635 3.42282L18.796 4.2953L18.3278 6.04027L17.8595 7.58389L17.4582 9.12752L16.99 10.6711L16.5886 12.2148L16.1204 13.7584L15.7191 15.302L15.2508 16.8456L14.8495 18.3893L14.3813 19.9329L14.2475 20L13.311 18.255L12.3746 16.5101L11.4381 14.7651L10.5017 13.0201L9.699 11.5436L9.23077 10.7383L7.35786 9.73154L5.61873 8.79195L3.8796 7.85235L2.27425 6.97987L0.535117 6.04027L0 5.7047L0.200669 5.57047L1.87291 5.10067L3.61204 4.63087L5.1505 4.16107L6.68896 3.75839L8.22742 3.28859L9.89967 2.81879L11.6388 2.34899L12.9766 1.94631L14.6488 1.47651L16.5217 0.939597L18.2609 0.469799L19.8662 0Z" fill="#050505"/>
<path d="M17.3246 1.74512L17.5253 1.81223L9.6323 9.7317L9.23097 9.59747L7.0905 8.45653L5.61893 7.65116L3.74602 6.64445L2.67578 6.04042L2.74267 5.90619L5.7527 5.03371L7.49184 4.56391L9.0303 4.09411L10.1005 3.82565L11.639 3.35586L12.7092 3.0874L14.2477 2.6176L15.7861 2.21492L17.3246 1.74512Z" fill="#9886CF"/>
<path d="M18.1269 2.55078L18.1938 2.75212L17.7255 4.49709L17.458 5.36957L16.9897 7.11454L16.5215 8.65816L16.1202 10.2018L15.652 11.7454L15.2506 13.289L14.7824 14.8327L14.381 16.3763L14.0466 17.383L13.8459 17.1817L12.6419 14.8998L11.8392 13.4233L10.8359 11.5441L10.3008 10.5374L10.4346 10.2689L18.1269 2.55078Z" fill="#9886CF"/>
</svg>
