<svg width="21" height="20" viewBox="0 0 21 20" fill="none" xmlns="http://www.w3.org/2000/svg">
<path d="M5.39526 0H6.75328L7.67921 0.208333L8.66686 0.694444L9.34587 1.18056L9.96316 1.80556L10.5187 2.5L10.7656 2.91667L11.0125 2.63889L11.3829 2.08333L12.1237 1.25L13.1113 0.555556L13.9138 0.208333L14.7162 0H16.136L17.1237 0.277778L18.1113 0.763889L18.9138 1.38889L19.5928 2.15278L20.0249 2.84722L20.5187 3.95833L20.7656 5.06944V7.22222L20.5804 8.19444L20.2101 9.30556L19.5928 10.625L19.099 11.4583L18.2965 12.6389L17.7409 13.3333L17.3088 13.8889L15.5804 15.8333L15.0866 16.3194L14.2224 17.1528L13.3582 17.9167L12.2471 18.8889L11.0743 19.7917L10.7656 20L9.53106 19.0278L8.23476 17.9167L7.24711 17.0139L6.38291 16.1806L5.64217 15.4167L4.71624 14.4444L3.85205 13.4028L3.1113 12.4306L2.30884 11.1806L1.75328 10.1389L1.25945 9.02778L0.889082 7.77778L0.765625 6.94444V5.55556L0.889082 4.58333L1.19772 3.61111L1.62982 2.70833L2.12365 2.01389L2.74093 1.31944L3.66686 0.625L4.59279 0.208333L5.39526 0Z" fill="url(#paint0_linear_18_2978)"/>
<defs>
<linearGradient id="paint0_linear_18_2978" x1="10.7656" y1="4.66667" x2="10.7656" y2="19.3333" gradientUnits="userSpaceOnUse">
<stop stop-color="#E61818"/>
<stop offset="0.744792" stop-color="#FE3A3A" stop-opacity="0.34"/>
</linearGradient>
</defs>
</svg>
