<svg width="21" height="20" viewBox="0 0 21 20" fill="none" xmlns="http://www.w3.org/2000/svg">
<path d="M11.9851 0H9.68549L8.50082 0.209059L7.94333 0.348432L6.61928 0.836237L5.29524 1.5331L4.38932 2.22997L3.69245 2.85714L3.13496 3.41463L2.4381 4.32056L1.74123 5.50523L1.18374 6.82927L0.83531 8.29268L0.765625 8.7108V11.2195L1.04437 12.6829L1.60186 14.1463L2.22904 15.331L2.9259 16.3066L3.76214 17.2125L4.52869 17.9094L5.57399 18.6063L6.61928 19.1638L7.87364 19.6516L9.26737 19.9303L9.75517 20H11.9155L13.1001 19.7909L14.7726 19.2334L15.6785 18.7456L16.0966 18.8153L17.7691 19.2334L19.2325 19.6516L20.3475 19.9303L20.7656 20L20.6263 19.3728L20.2778 17.9791L19.8597 16.5157L19.5113 15.1916L19.581 14.7735L19.9991 13.9373L20.4172 12.8223L20.7656 11.0801V9.05923L20.5566 7.66551L19.9991 5.99303L19.3719 4.80836L18.7447 3.90244L17.9782 2.99652L17.0722 2.16028L15.9573 1.39373L14.6332 0.696864L13.6576 0.348432L12.4033 0.0696864L11.9851 0ZM11.9851 1.0453L13.0304 1.25436L14.0757 1.60279L15.1907 2.16028L16.1663 2.78746L17.1419 3.62369L17.7691 4.32056L18.466 5.29617L19.0235 6.41115L19.4416 7.52613L19.7203 8.85017V11.0801L19.4416 12.4739L18.8841 13.8676L18.3963 14.7735L18.5357 15.4704L19.0235 17.4216L19.3022 18.3275V18.5366L18.8144 18.4669L17.0722 17.9791L15.6785 17.6307L15.3301 17.77L14.2151 18.3275L13.2395 18.676L12.4033 18.885L11.9155 18.9547H9.68549L8.50082 18.7456L6.96771 18.1882L5.71336 17.4913L4.59838 16.5854L3.9712 15.9582L3.27433 15.0523L2.64716 13.9373L2.22904 12.892L1.88061 11.6376L1.81092 11.2892V8.7108L2.01998 7.66551L2.4381 6.48084L2.99559 5.36585L3.69245 4.39024L4.459 3.55401L5.22556 2.85714L6.27085 2.16028L7.45552 1.60279L8.77956 1.18467L9.47643 1.0453H11.9851Z" fill="#050505"/>
</svg>
