<svg width="20" height="20" viewBox="0 0 20 20" fill="none" xmlns="http://www.w3.org/2000/svg">
<path d="M4.62963 0H5.98766L6.91358 0.208333L7.90124 0.694444L8.58025 1.18056L9.19753 1.80556L9.75309 2.5L10 2.91667L10.2469 2.63889L10.6173 2.08333L11.358 1.25L12.3457 0.555556L13.1481 0.208333L13.9506 0H15.3704L16.358 0.277778L17.3457 0.763889L18.1482 1.38889L18.8272 2.15278L19.2593 2.84722L19.7531 3.95833L20 5.06944V7.22222L19.8148 8.19444L19.4444 9.30556L18.8272 10.625L18.3333 11.4583L17.5309 12.6389L16.9753 13.3333L16.5432 13.8889L14.8148 15.8333L14.321 16.3194L13.4568 17.1528L12.5926 17.9167L11.4815 18.8889L10.3086 19.7917L10 20L8.76543 19.0278L7.46914 17.9167L6.48148 17.0139L5.61728 16.1806L4.87654 15.4167L3.95062 14.4444L3.08642 13.4028L2.34568 12.4306L1.54321 11.1806L0.987654 10.1389L0.493827 9.02778L0.123457 7.77778L0 6.94444V5.55556L0.123457 4.58333L0.432099 3.61111L0.864198 2.70833L1.35802 2.01389L1.97531 1.31944L2.90124 0.625L3.82716 0.208333L4.62963 0Z" fill="url(#paint0_linear_18_2933)"/>
<defs>
<linearGradient id="paint0_linear_18_2933" x1="10" y1="4.66667" x2="10" y2="19.3333" gradientUnits="userSpaceOnUse">
<stop stop-color="#E61818"/>
<stop offset="0.744792" stop-color="#FE3A3A" stop-opacity="0.34"/>
</linearGradient>
</defs>
</svg>
