<svg width="25" height="25" viewBox="0 0 25 25" fill="none" xmlns="http://www.w3.org/2000/svg">
<path d="M12.5 0C5.5957 0 0 5.19531 0 11.6071C0 14.375 1.04492 16.9085 2.7832 18.9007C2.17285 21.7132 0.131836 24.2187 0.107422 24.2467C0 24.375 -0.0292969 24.5647 0.0341797 24.7321C0.0976562 24.8996 0.234375 25 0.390625 25C3.62793 25 6.05469 23.2254 7.25586 22.1317C8.85254 22.8181 10.625 23.2143 12.5 23.2143C19.4043 23.2143 25 18.019 25 11.6071C25 5.19531 19.4043 0 12.5 0ZM6.25 13.3929C5.38574 13.3929 4.6875 12.5949 4.6875 11.6071C4.6875 10.6194 5.38574 9.82143 6.25 9.82143C7.11426 9.82143 7.8125 10.6194 7.8125 11.6071C7.8125 12.5949 7.11426 13.3929 6.25 13.3929ZM12.5 13.3929C11.6357 13.3929 10.9375 12.5949 10.9375 11.6071C10.9375 10.6194 11.6357 9.82143 12.5 9.82143C13.3643 9.82143 14.0625 10.6194 14.0625 11.6071C14.0625 12.5949 13.3643 13.3929 12.5 13.3929ZM18.75 13.3929C17.8857 13.3929 17.1875 12.5949 17.1875 11.6071C17.1875 10.6194 17.8857 9.82143 18.75 9.82143C19.6143 9.82143 20.3125 10.6194 20.3125 11.6071C20.3125 12.5949 19.6143 13.3929 18.75 13.3929Z" fill="black"/>
</svg>
