<svg width="21" height="20" viewBox="0 0 21 20" fill="none" xmlns="http://www.w3.org/2000/svg">
<path d="M12.1023 0H9.80267L8.618 0.209059L8.06051 0.348432L6.73647 0.836237L5.41243 1.5331L4.5065 2.22997L3.80964 2.85714L3.25215 3.41463L2.55529 4.32056L1.85842 5.50523L1.30093 6.82927L0.952498 8.29268L0.882812 8.7108V11.2195L1.16156 12.6829L1.71905 14.1463L2.34623 15.331L3.04309 16.3066L3.87933 17.2125L4.64588 17.9094L5.69117 18.6063L6.73647 19.1638L7.99083 19.6516L9.38455 19.9303L9.87236 20H12.0326L13.2173 19.7909L14.8898 19.2334L15.7957 18.7456L16.2138 18.8153L17.8863 19.2334L19.3497 19.6516L20.4647 19.9303L20.8828 20L20.7434 19.3728L20.395 17.9791L19.9769 16.5157L19.6285 15.1916L19.6981 14.7735L20.1163 13.9373L20.5344 12.8223L20.8828 11.0801V9.05923L20.6738 7.66551L20.1163 5.99303L19.4891 4.80836L18.8619 3.90244L18.0954 2.99652L17.1894 2.16028L16.0745 1.39373L14.7504 0.696864L13.7748 0.348432L12.5204 0.0696864L12.1023 0ZM12.1023 1.0453L13.1476 1.25436L14.1929 1.60279L15.3079 2.16028L16.2835 2.78746L17.2591 3.62369L17.8863 4.32056L18.5832 5.29617L19.1407 6.41115L19.5588 7.52613L19.8375 8.85017V11.0801L19.5588 12.4739L19.0013 13.8676L18.5135 14.7735L18.6528 15.4704L19.1407 17.4216L19.4194 18.3275V18.5366L18.9316 18.4669L17.1894 17.9791L15.7957 17.6307L15.4473 17.77L14.3323 18.3275L13.3567 18.676L12.5204 18.885L12.0326 18.9547H9.80267L8.618 18.7456L7.0849 18.1882L5.83055 17.4913L4.71556 16.5854L4.08839 15.9582L3.39152 15.0523L2.76435 13.9373L2.34623 12.892L1.99779 11.6376L1.92811 11.2892V8.7108L2.13717 7.66551L2.55529 6.48084L3.11278 5.36585L3.80964 4.39024L4.57619 3.55401L5.34274 2.85714L6.38804 2.16028L7.57271 1.60279L8.89675 1.18467L9.59361 1.0453H12.1023Z" fill="#050505"/>
</svg>
