<svg width="20" height="20" viewBox="0 0 20 20" fill="none" xmlns="http://www.w3.org/2000/svg">
<path d="M11.2195 0H8.91986L7.73519 0.209059L7.1777 0.348432L5.85366 0.836237L4.52962 1.5331L3.62369 2.22997L2.92683 2.85714L2.36934 3.41463L1.67247 4.32056L0.975609 5.50523L0.418118 6.82927L0.069685 8.29268L0 8.7108V11.2195L0.278744 12.6829L0.836235 14.1463L1.46341 15.331L2.16028 16.3066L2.99652 17.2125L3.76307 17.9094L4.80836 18.6063L5.85366 19.1638L7.10801 19.6516L8.50174 19.9303L8.98955 20H11.1498L12.3345 19.7909L14.007 19.2334L14.9129 18.7456L15.331 18.8153L17.0035 19.2334L18.4669 19.6516L19.5819 19.9303L20 20L19.8606 19.3728L19.5122 17.9791L19.0941 16.5157L18.7456 15.1916L18.8153 14.7735L19.2334 13.9373L19.6516 12.8223L20 11.0801V9.05923L19.7909 7.66551L19.2334 5.99303L18.6063 4.80836L17.9791 3.90244L17.2125 2.99652L16.3066 2.16028L15.1916 1.39373L13.8676 0.696864L12.892 0.348432L11.6376 0.0696864L11.2195 0ZM11.2195 1.0453L12.2648 1.25436L13.3101 1.60279L14.4251 2.16028L15.4007 2.78746L16.3763 3.62369L17.0035 4.32056L17.7003 5.29617L18.2578 6.41115L18.676 7.52613L18.9547 8.85017V11.0801L18.676 12.4739L18.1185 13.8676L17.6307 14.7735L17.77 15.4704L18.2578 17.4216L18.5366 18.3275V18.5366L18.0488 18.4669L16.3066 17.9791L14.9129 17.6307L14.5645 17.77L13.4495 18.3275L12.4739 18.676L11.6376 18.885L11.1498 18.9547H8.91986L7.73519 18.7456L6.20209 18.1882L4.94773 17.4913L3.83275 16.5854L3.20557 15.9582L2.50871 15.0523L1.88153 13.9373L1.46341 12.892L1.11498 11.6376L1.0453 11.2892V8.7108L1.25435 7.66551L1.67247 6.48084L2.22997 5.36585L2.92683 4.39024L3.69338 3.55401L4.45993 2.85714L5.50523 2.16028L6.6899 1.60279L8.01394 1.18467L8.7108 1.0453H11.2195Z" fill="#050505"/>
</svg>
