<svg width="21" height="20" viewBox="0 0 21 20" fill="none" xmlns="http://www.w3.org/2000/svg">
<path d="M5.51244 0H6.87047L7.79639 0.208333L8.78405 0.694444L9.46306 1.18056L10.0803 1.80556L10.6359 2.5L10.8828 2.91667L11.1297 2.63889L11.5001 2.08333L12.2408 1.25L13.2285 0.555556L14.031 0.208333L14.8334 0H16.2532L17.2408 0.277778L18.2285 0.763889L19.031 1.38889L19.71 2.15278L20.1421 2.84722L20.6359 3.95833L20.8828 5.06944V7.22222L20.6976 8.19444L20.3273 9.30556L19.71 10.625L19.2161 11.4583L18.4137 12.6389L17.8581 13.3333L17.426 13.8889L15.6976 15.8333L15.2038 16.3194L14.3396 17.1528L13.4754 17.9167L12.3643 18.8889L11.1915 19.7917L10.8828 20L9.64825 19.0278L8.35195 17.9167L7.36429 17.0139L6.5001 16.1806L5.75936 15.4167L4.83343 14.4444L3.96923 13.4028L3.22849 12.4306L2.42602 11.1806L1.87047 10.1389L1.37664 9.02778L1.00627 7.77778L0.882812 6.94444V5.55556L1.00627 4.58333L1.31491 3.61111L1.74701 2.70833L2.24084 2.01389L2.85812 1.31944L3.78405 0.625L4.70997 0.208333L5.51244 0Z" fill="url(#paint0_linear_18_2956)"/>
<defs>
<linearGradient id="paint0_linear_18_2956" x1="10.8828" y1="4.66667" x2="10.8828" y2="19.3333" gradientUnits="userSpaceOnUse">
<stop stop-color="#E61818"/>
<stop offset="0.744792" stop-color="#FE3A3A" stop-opacity="0.34"/>
</linearGradient>
</defs>
</svg>
