<svg width="21" height="20" viewBox="0 0 21 20" fill="none" xmlns="http://www.w3.org/2000/svg">
<path d="M5.33353 0H7.00019L7.67921 0.209059L8.48167 0.557491L9.22242 1.0453L9.90143 1.67247L10.3953 2.29965L10.7656 2.92683L11.0125 2.5784L11.5064 1.88153L11.9385 1.39373L12.7409 0.766551L13.4817 0.348432L14.5311 0H16.3212L17.0002 0.209059L17.8027 0.557491L18.5434 1.0453L19.3459 1.81185L20.0249 2.78746L20.457 3.76307L20.7656 4.94774V7.24739L20.5804 8.15331L20.1483 9.47735L19.4693 10.8711L18.6669 12.1254L18.1113 12.892L17.494 13.6585L17.0619 14.216L15.9508 15.4704L15.457 15.9582L14.778 16.6551L14.099 17.2822L13.1113 18.1882L11.9385 19.1638L10.9508 19.9303L10.7039 20L9.65451 19.1638L8.66686 18.3275L7.80266 17.561L7.00019 16.7944L6.32118 16.1672L5.2718 15.0523L4.03723 13.6585L3.60513 13.101L2.80266 11.9861L1.93846 10.5226L1.32118 9.19861L0.889082 7.80488L0.765625 7.10801V5.36585L1.01254 4.1115L1.44464 2.99652L1.93846 2.22997L2.49402 1.5331L3.29649 0.836237L4.34587 0.278746L5.33353 0ZM5.2718 1.0453L4.34587 1.39373L3.66686 1.81185L2.98785 2.43902L2.55575 2.99652L2.06192 3.90244L1.75328 4.94774L1.69155 5.36585V6.89895L1.93846 8.08362L2.30883 9.12892L2.92612 10.3833L3.79032 11.7073L4.53106 12.6829L5.21007 13.5192L6.44464 14.9129L6.93846 15.4007L7.80266 16.2369L8.79032 17.1429L10.0249 18.1882L10.7039 18.7456L10.9508 18.676L12.1236 17.7003L12.9261 17.0035L13.6051 16.3763L14.4076 15.6098L15.1483 14.8432L15.7656 14.216L16.6916 13.1707L17.1236 12.6132L17.8027 11.7073L18.6051 10.453L19.1607 9.33798L19.5311 8.43206L19.8397 7.24739L19.9014 6.75958V5.36585L19.6545 4.32056L19.1607 3.20557L18.4817 2.29965L17.8027 1.74216L17.0619 1.32404L16.136 1.0453H14.5928L13.6669 1.39373L12.9878 1.81185L12.3706 2.36934L11.815 3.0662L10.8891 4.87805L10.7656 5.01742L9.96316 3.41463L9.34587 2.50871L8.79032 1.95122L7.92612 1.39373L7.18538 1.11498L6.81501 1.0453H5.2718Z" fill="#040404"/>
</svg>
