<svg width="21" height="20" viewBox="0 0 21 20" fill="none" xmlns="http://www.w3.org/2000/svg">
<path d="M5.45071 0H7.11738L7.79639 0.209059L8.59886 0.557491L9.3396 1.0453L10.0186 1.67247L10.5124 2.29965L10.8828 2.92683L11.1297 2.5784L11.6236 1.88153L12.0557 1.39373L12.8581 0.766551L13.5989 0.348432L14.6482 0H16.4384L17.1174 0.209059L17.9198 0.557491L18.6606 1.0453L19.4631 1.81185L20.1421 2.78746L20.5742 3.76307L20.8828 4.94774V7.24739L20.6976 8.15331L20.2655 9.47735L19.5865 10.8711L18.784 12.1254L18.2285 12.892L17.6112 13.6585L17.1791 14.216L16.068 15.4704L15.5742 15.9582L14.8952 16.6551L14.2161 17.2822L13.2285 18.1882L12.0557 19.1638L11.068 19.9303L10.8211 20L9.7717 19.1638L8.78405 18.3275L7.91985 17.561L7.11738 16.7944L6.43837 16.1672L5.38899 15.0523L4.15442 13.6585L3.72232 13.101L2.91985 11.9861L2.05565 10.5226L1.43837 9.19861L1.00627 7.80488L0.882812 7.10801V5.36585L1.12973 4.1115L1.56182 2.99652L2.05565 2.22997L2.61121 1.5331L3.41368 0.836237L4.46306 0.278746L5.45071 0ZM5.38899 1.0453L4.46306 1.39373L3.78405 1.81185L3.10503 2.43902L2.67294 2.99652L2.17911 3.90244L1.87047 4.94774L1.80874 5.36585V6.89895L2.05565 8.08362L2.42602 9.12892L3.04331 10.3833L3.9075 11.7073L4.64824 12.6829L5.32726 13.5192L6.56182 14.9129L7.05565 15.4007L7.91985 16.2369L8.9075 17.1429L10.1421 18.1882L10.8211 18.7456L11.068 18.676L12.2408 17.7003L13.0433 17.0035L13.7223 16.3763L14.5248 15.6098L15.2655 14.8432L15.8828 14.216L16.8087 13.1707L17.2408 12.6132L17.9198 11.7073L18.7223 10.453L19.2779 9.33798L19.6482 8.43206L19.9569 7.24739L20.0186 6.75958V5.36585L19.7717 4.32056L19.2779 3.20557L18.5989 2.29965L17.9198 1.74216L17.1791 1.32404L16.2532 1.0453H14.71L13.784 1.39373L13.105 1.81185L12.4878 2.36934L11.9322 3.0662L11.0063 4.87805L10.8828 5.01742L10.0803 3.41463L9.46306 2.50871L8.9075 1.95122L8.04331 1.39373L7.30257 1.11498L6.9322 1.0453H5.38899Z" fill="#040404"/>
</svg>
