<svg width="20" height="25" viewBox="0 0 20 25" fill="none" xmlns="http://www.w3.org/2000/svg">
<path d="M0 0H20V25L19.569 24.8258L18.1034 23.8676L16.2069 22.6481L14.0517 21.2544L11.8966 19.8606L10.1724 18.7282L9.74138 18.8153L8.18966 19.7735L6.89655 20.6446L5.25862 21.6899L3.10345 23.0836L0.948276 24.4774L0.172414 25H0V0ZM1.2931 1.21951V22.6481L1.63793 22.4739L3.18966 21.5157L5.17241 20.2091L7.06897 18.9895L9.22414 17.5958L9.91379 17.1603L10.3448 17.3345L11.8966 18.2927L13.1897 19.1638L14.8276 20.2091L16.9828 21.6028L18.4483 22.561L18.7069 22.6481V1.21951H1.2931Z" fill="url(#paint0_linear_18_2936)"/>
<defs>
<linearGradient id="paint0_linear_18_2936" x1="10" y1="-2.38419e-08" x2="11" y2="30.5" gradientUnits="userSpaceOnUse">
<stop stop-color="white"/>
<stop offset="1" stop-color="#C2ADFF"/>
</linearGradient>
</defs>
</svg>
