<svg width="21" height="25" viewBox="0 0 21 25" fill="none" xmlns="http://www.w3.org/2000/svg">
<path d="M0.882812 0H20.8828V25L20.4518 24.8258L18.9863 23.8676L17.0897 22.6481L14.9345 21.2544L12.7794 19.8606L11.0552 18.7282L10.6242 18.8153L9.07247 19.7735L7.77936 20.6446L6.14143 21.6899L3.98626 23.0836L1.83109 24.4774L1.05523 25H0.882812V0ZM2.17592 1.21951V22.6481L2.52074 22.4739L4.07247 21.5157L6.05523 20.2091L7.95178 18.9895L10.107 17.5958L10.7966 17.1603L11.2276 17.3345L12.7794 18.2927L14.0725 19.1638L15.7104 20.2091L17.8656 21.6028L19.3311 22.561L19.5897 22.6481V1.21951H2.17592Z" fill="url(#paint0_linear_18_2959)"/>
<defs>
<linearGradient id="paint0_linear_18_2959" x1="10.8828" y1="-2.38419e-08" x2="11.8828" y2="30.5" gradientUnits="userSpaceOnUse">
<stop stop-color="white"/>
<stop offset="1" stop-color="#C2ADFF"/>
</linearGradient>
</defs>
</svg>
