<svg width="25" height="25" viewBox="0 0 25 25" fill="none" xmlns="http://www.w3.org/2000/svg">
<path d="M12.1686 6.48583L4.16705 14.9606V24.1072C4.16705 24.344 4.24021 24.5712 4.37043 24.7386C4.50065 24.9061 4.67727 25.0002 4.86144 25.0002L9.72478 24.984C9.90834 24.9828 10.0841 24.8882 10.2135 24.7209C10.343 24.5535 10.4157 24.3271 10.4157 24.091V18.7495C10.4157 18.5127 10.4889 18.2855 10.6191 18.1181C10.7493 17.9506 10.9259 17.8565 11.1101 17.8565H13.8877C14.0718 17.8565 14.2484 17.9506 14.3787 18.1181C14.5089 18.2855 14.582 18.5127 14.582 18.7495V24.0871C14.5818 24.2046 14.5995 24.321 14.6343 24.4297C14.669 24.5384 14.7201 24.6371 14.7847 24.7204C14.8492 24.8036 14.9258 24.8696 15.0102 24.9146C15.0946 24.9597 15.1851 24.9829 15.2764 24.9829L20.138 25.0002C20.3222 25.0002 20.4988 24.9061 20.629 24.7386C20.7593 24.5712 20.8324 24.344 20.8324 24.1072V14.9544L12.8326 6.48583C12.7386 6.38835 12.6214 6.33519 12.5006 6.33519C12.3798 6.33519 12.2626 6.38835 12.1686 6.48583ZM24.8078 12.246L21.1796 8.40011V0.669895C21.1796 0.492275 21.1248 0.32193 21.0271 0.196333C20.9294 0.0707368 20.797 0.000177383 20.6588 0.000177383H18.2285C18.0903 0.000177383 17.9579 0.0707368 17.8602 0.196333C17.7625 0.32193 17.7077 0.492275 17.7077 0.669895V4.72224L13.8221 0.611295C13.4492 0.216708 12.9813 0.000966169 12.4984 0.000966169C12.0155 0.000966169 11.5476 0.216708 11.1748 0.611295L0.189054 12.246C0.136318 12.302 0.0926874 12.3709 0.0606553 12.4486C0.0286232 12.5264 0.00881681 12.6115 0.00236828 12.6991C-0.00408026 12.7866 0.00295533 12.875 0.0230729 12.9591C0.0431904 13.0432 0.0759961 13.1214 0.119615 13.1891L1.2263 14.9193C1.2698 14.9873 1.32331 15.0436 1.38375 15.085C1.4442 15.1264 1.5104 15.152 1.57857 15.1605C1.64674 15.1689 1.71553 15.16 1.78101 15.1342C1.8465 15.1084 1.90738 15.0663 1.96018 15.0102L12.1686 4.19763C12.2626 4.10015 12.3798 4.04699 12.5006 4.04699C12.6214 4.04699 12.7386 4.10015 12.8326 4.19763L23.0415 15.0102C23.0942 15.0663 23.155 15.1085 23.2204 15.1344C23.2857 15.1602 23.3545 15.1693 23.4226 15.161C23.4907 15.1527 23.5569 15.1272 23.6173 15.086C23.6778 15.0449 23.7313 14.9887 23.7749 14.9209L24.8816 13.1908C24.9252 13.1226 24.9578 13.0441 24.9777 12.9596C24.9976 12.8752 25.0043 12.7865 24.9974 12.6987C24.9906 12.6109 24.9703 12.5257 24.9378 12.448C24.9052 12.3703 24.8611 12.3016 24.8078 12.246Z" fill="black"/>
</svg>
