<svg width="200" height="150" viewBox="0 0 200 150" fill="none" xmlns="http://www.w3.org/2000/svg">
<path d="M17.2727 0H70.4545L90 18.3239L183.182 18.75L189.091 20.4545L194.091 23.8636L197.273 27.6989L199.545 32.8125L200 34.9432V133.807L198.182 139.347L195.455 143.182L193.182 145.313L189.545 147.869L185 149.574L182.727 150H17.2727L11.3636 148.295L7.27273 145.739L5 143.608L2.27273 140.199L0.454545 135.938L0 133.807V16.1932L1.81818 10.6534L4.54545 6.81818L6.81818 4.6875L10.4545 2.13068L15 0.426136L17.2727 0Z" fill="#FFC927"/>
<path d="M17.2727 0H70.4545L90 18.3239V18.75L17.2727 19.1761L11.8182 20.8807L6.81818 23.8636L4.09091 26.8466L1.36364 31.9602L0.454545 35.3693H0V16.1932L1.81818 10.6534L4.54545 6.81818L6.81818 4.6875L10.4545 2.13068L15 0.426136L17.2727 0Z" fill="#FFA000"/>
</svg>
