<svg width="30" height="30" viewBox="0 0 30 30" fill="none" xmlns="http://www.w3.org/2000/svg">
<path d="M11.7441 0H18.2641V0.325998H19.5681V0.651997H20.22L20.546 0.660147V0.977995H21.198V1.30399H21.85V1.62999H22.502V1.95599H23.154V2.28199H23.48V2.60799H24.132V2.93399H24.458V3.25998H24.784V3.58598H25.11V3.91198H25.436V4.23798H25.762V4.56398H26.088V4.88998H26.414V5.21597H26.74V5.54197H27.066V5.86797H27.392V6.51997H27.718V6.84597H28.044V7.49796H28.37V8.14996H28.696V8.80196H29.022V9.4621H29.348V10.4319H29.674V11.7359H30V18.2641H29.674V19.5681H29.348V20.546H29.022V21.198H28.696V21.85H28.37V22.502H28.044V23.154H27.718V23.48H27.392V24.132H27.066V24.458H26.74V24.784H26.414V25.11H26.088V25.436H25.762V25.762H25.436V26.088H25.11V26.414H24.784V26.74H24.458V27.066H24.132V27.392H23.48V27.718H23.154V28.044H22.502V28.37H21.85V28.696H21.198V29.022H20.546V29.348H19.5681V29.674H18.2641V30H11.7359V29.674H10.4401V29.348H9.4621V29.022H8.80196V28.696H8.14996V28.37H7.49796V28.044H6.84597V27.718H6.51997V27.392H5.87612V27.066H5.54197V26.74H5.21597V26.414H4.88998V26.088H4.56398V25.762H4.23798V25.436H3.91198V25.11H3.58598V24.784H3.25998V24.458H2.93399V24.132H2.61614L2.60799 23.806V23.48H2.28199V23.154H1.95599V22.502H1.62999V21.85H1.30399V21.198H0.977995V20.546H0.660147L0.651997 20.22V19.5681H0.325998V18.2641H0V11.7441L0.00814996 11.7359H0.325998V10.4401L0.334148 10.4319H0.651997V9.7881L0.660147 9.4621H0.977995V8.81011L0.986145 8.80196H1.30399V8.15811L1.31214 8.14996H1.62999V7.50611L1.63814 7.49796H1.95599V6.85412L1.96414 6.84597H2.28199V6.52812L2.29014 6.51997H2.60799V5.87612L2.61614 5.86797H2.93399V5.55012L2.94214 5.54197H3.25998V5.22412L3.26813 5.21597H3.58598V4.89813L3.59413 4.88998H3.91198V4.57213L3.92013 4.56398H4.23798V4.24613L4.24613 4.23798H4.56398V3.92013L4.57213 3.91198H4.88998V3.59413L4.89813 3.58598H5.21597V3.26813L5.22412 3.25998H5.54197V2.94214L5.55012 2.93399H5.87612V2.60799H6.51997V2.29014L6.52812 2.28199H6.84597V1.96414L6.85412 1.95599H7.49796V1.63814L7.50611 1.62999H8.14996V1.31214L8.15811 1.30399H8.80196V0.986145L8.81011 0.977995H9.4621V0.660147L9.7881 0.651997H10.4401V0.325998H11.7359V0.00814996L11.7441 0ZM14.6781 10.1141V10.4401H14.3521V14.3521H10.4401V14.6781H10.1141V15.3219H10.4401V15.6479H14.3521V19.5599H14.6781V19.8859H15.3219L15.3301 19.5681L15.6479 19.5599L15.6561 15.6561L19.5599 15.6479L19.5681 15.3301L19.8859 15.3219V14.6781H19.5599V14.3521H15.6479V10.4401H15.3219V10.1141H14.6781Z" fill="black"/>
</svg>
