<svg width="250" height="200" viewBox="0 0 250 200" fill="none" xmlns="http://www.w3.org/2000/svg">
<path d="M21.5909 0H88.0682L112.5 24.4318L228.977 25L236.364 27.2727L242.614 31.8182L246.591 36.9318L249.432 43.75L250 46.5909V178.409L247.727 185.795L244.318 190.909L241.477 193.75L236.932 197.159L231.25 199.432L228.409 200H21.5909L14.2045 197.727L9.09091 194.318L6.25 191.477L2.84091 186.932L0.568182 181.25L0 178.409V21.5909L2.27273 14.2045L5.68182 9.09091L8.52273 6.25L13.0682 2.84091L18.75 0.568182L21.5909 0Z" fill="#FFC927"/>
<path d="M21.5909 0H88.0682L112.5 24.4318V25L21.5909 25.5682L14.7727 27.8409L8.52273 31.8182L5.11364 35.7955L1.70455 42.6136L0.568182 47.1591H0V21.5909L2.27273 14.2045L5.68182 9.09091L8.52273 6.25L13.0682 2.84091L18.75 0.568182L21.5909 0Z" fill="#FFA000"/>
</svg>
