<svg width="18" height="30" viewBox="0 0 18 30" fill="none" xmlns="http://www.w3.org/2000/svg">
<path d="M6.21583 0H7.64029L8.93525 0.258065L9.97122 0.645161L10.9424 1.22581L11.7842 1.93548L12.4317 2.64516L13.0144 3.54839L13.4029 4.3871L13.5324 4.90323L14.5036 5.09677L15.6043 5.6129L16.2518 6.12903L16.8993 6.77419L17.482 7.67742L17.8705 8.70968L18 9.48387V21.6129L17.8058 23.0323L17.482 24.129L16.964 25.2903L16.3165 26.3226L15.6043 27.1613L14.8921 27.871L13.9209 28.5806L12.8849 29.1613L11.9137 29.5484L10.6835 29.871L9.77698 30H8.22302L6.99281 29.8065L5.89209 29.4839L4.85611 29.0323L3.94964 28.5161L3.04317 27.8065L2.07194 26.8387L1.35971 25.871L0.647482 24.5161L0.258993 23.3548L0.0647482 22.3871L0 21.8065V10.9677L0.0647482 6L0.258993 5.03226L0.517986 4.25806L1.03597 3.22581L1.6187 2.45161L2.26619 1.74194L3.10791 1.09677L4.20863 0.516129L5.17986 0.193548L6.21583 0ZM6.41007 2.12903L5.5036 2.32258L4.59712 2.70968L3.88489 3.22581L3.56115 3.48387L2.97842 4.19355L2.46043 5.22581L2.26619 5.80645L2.20144 6.12903L2.13669 9.29032V21.7419L2.39568 23.0323L2.78417 24L3.30216 24.9032L3.88489 25.6129L4.59712 26.3226L5.43885 26.9032L6.47482 27.4194L7.51079 27.7419L8.28777 27.871H9.71223L10.7482 27.6774L11.8489 27.2903L12.8849 26.7097L13.7266 26L14.2446 25.4839L14.8921 24.5806L15.4101 23.5484L15.7338 22.4516L15.8633 21.5484V9.67742L15.6691 8.90323L15.3453 8.32258L14.7626 7.67742L14.0504 7.22581L13.7914 7.16129L13.7266 13.2258L13.5324 13.6129L13.0144 13.871H12.4964L11.9784 13.6129L11.7842 13.2258L11.7194 7.22581L11.2014 7.48387L10.554 8.06452L10.1007 8.77419L9.90647 9.35484L9.84173 9.74194L9.77698 22.7742L9.58273 23.1613L9.19424 23.4194L8.61151 23.4839L8.15827 23.2903L7.89928 23.0323L7.76978 22.7097V9.6129L7.96403 8.58064L8.28777 7.74194L8.74101 6.96774L9.45324 6.19355L10.2302 5.6129L11.0719 5.22581L11.3309 5.09677L11.1367 4.64516L10.6835 3.93548L10.1655 3.35484L9.38849 2.77419L8.54676 2.3871L7.89928 2.19355L7.44604 2.12903H6.41007Z" fill="white"/>
</svg>
