<svg width="26" height="21" viewBox="0 0 26 21" fill="none" xmlns="http://www.w3.org/2000/svg">
<path d="M25.5093 0.837891L25.6749 0.903549L25.0951 2.47936L24.5153 4.18649L24.184 5.04005L23.6041 6.74718L23.0243 8.25733L22.5273 9.76748L21.9475 11.2776L21.4505 12.7878L20.8707 14.2979L20.3737 15.8081L19.7939 17.3182L19.2969 18.8284L18.7171 20.3385L18.5514 20.4042L17.3917 18.6971L16.2321 16.99L15.0725 15.2828L13.9128 13.5757L12.9188 12.1312L12.339 11.3433L10.0197 10.3584L7.86608 9.43919L5.71245 8.51997L3.72449 7.6664L1.57086 6.74718L0.908203 6.41889L1.1567 6.28757L3.2275 5.82796L5.38112 5.36835L7.28626 4.90873L9.19139 4.51478L11.0965 4.05517L13.1673 3.59556L15.321 3.13595L16.9776 2.742L19.0484 2.28238L21.3677 1.75711L23.5213 1.2975L25.5093 0.837891Z" fill="#050505"/>
<path d="M22.3619 2.54492L22.6104 2.61058L12.8362 10.3583L12.3392 10.227L9.68858 9.1108L7.86628 8.32289L5.54699 7.33801L4.22168 6.74708L4.30451 6.61577L8.03195 5.7622L10.1856 5.30259L12.0907 4.84298L13.416 4.58034L15.3212 4.12073L16.6465 3.8581L18.5516 3.39849L20.4567 3.00453L22.3619 2.54492Z" fill="#9886CF"/>
<path d="M23.3554 3.33301L23.4382 3.52998L22.8584 5.23711L22.5271 6.09068L21.9473 7.79781L21.3674 9.30796L20.8704 10.8181L20.2906 12.3283L19.7936 13.8384L19.2138 15.3486L18.7168 16.8587L18.3026 17.8436L18.0542 17.6466L16.5632 15.4142L15.5692 13.9697L14.3267 12.1313L13.6641 11.1464L13.8297 10.8838L23.3554 3.33301Z" fill="#9886CF"/>
</svg>
