<svg width="26" height="21" viewBox="0 0 26 21" fill="none" xmlns="http://www.w3.org/2000/svg">
<path d="M25.0513 0.837891L25.2169 0.903549L24.6371 2.47936L24.0573 4.18649L23.726 5.04005L23.1461 6.74718L22.5663 8.25733L22.0693 9.76748L21.4895 11.2776L20.9925 12.7878L20.4127 14.2979L19.9157 15.8081L19.3359 17.3182L18.8389 18.8284L18.259 20.3385L18.0934 20.4042L16.9337 18.6971L15.7741 16.99L14.6144 15.2828L13.4548 13.5757L12.4608 12.1312L11.881 11.3433L9.5617 10.3584L7.40807 9.43919L5.25444 8.51997L3.26648 7.6664L1.11285 6.74718L0.450195 6.41889L0.698691 6.28757L2.76949 5.82796L4.92312 5.36835L6.82825 4.90873L8.73338 4.51478L10.6385 4.05517L12.7093 3.59556L14.8629 3.13595L16.5196 2.742L18.5904 2.28238L20.9097 1.75711L23.0633 1.2975L25.0513 0.837891Z" fill="#050505"/>
<path d="M21.9039 2.54492L22.1523 2.61058L12.3782 10.3583L11.8812 10.227L9.23058 9.1108L7.40827 8.32289L5.08898 7.33801L3.76367 6.74708L3.8465 6.61577L7.57394 5.7622L9.72757 5.30259L11.6327 4.84298L12.958 4.58034L14.8631 4.12073L16.1885 3.8581L18.0936 3.39849L19.9987 3.00453L21.9039 2.54492Z" fill="#9886CF"/>
<path d="M22.8974 3.33301L22.9802 3.52998L22.4004 5.23711L22.0691 6.09068L21.4892 7.79781L20.9094 9.30796L20.4124 10.8181L19.8326 12.3283L19.3356 13.8384L18.7558 15.3486L18.2588 16.8587L17.8446 17.8436L17.5961 17.6466L16.1052 15.4142L15.1112 13.9697L13.8687 12.1313L13.2061 11.1464L13.3717 10.8838L22.8974 3.33301Z" fill="#9886CF"/>
</svg>
