<svg width="26" height="26" viewBox="0 0 26 26" fill="none" xmlns="http://www.w3.org/2000/svg">
<path d="M0.717773 0.621094H25.4845V25.079L24.9507 24.9086L23.1359 23.9711L20.7874 22.7781L18.1185 21.4146L15.4497 20.0511L13.3146 18.9432L12.7809 19.0284L10.8593 19.9658L9.25803 20.818L7.22972 21.8407L4.56089 23.2042L1.89206 24.5677L0.93128 25.079H0.717773V0.621094ZM2.31907 1.81416V22.7781L2.74608 22.6076L4.66764 21.6702L7.12296 20.3919L9.47153 19.1989L12.1404 17.8354L12.9944 17.4093L13.5282 17.5797L15.4497 18.5171L17.051 19.3693L19.0793 20.3919L21.7481 21.7554L23.563 22.6929L23.8832 22.7781V1.81416H2.31907Z" fill="url(#paint0_linear_18_1636)"/>
<defs>
<linearGradient id="paint0_linear_18_1636" x1="13.1011" y1="0.621094" x2="13.8743" y2="30.4718" gradientUnits="userSpaceOnUse">
<stop stop-color="white"/>
<stop offset="1" stop-color="#C2ADFF"/>
</linearGradient>
</defs>
</svg>
