<svg width="25" height="21" viewBox="0 0 25 21" fill="none" xmlns="http://www.w3.org/2000/svg">
<path d="M5.88121 0.816406H7.9451L8.78595 1.02093L9.77968 1.36181L10.697 1.83904L11.5378 2.45261L12.1493 3.06619L12.608 3.67977L12.9137 3.33889L13.5253 2.65714L14.0603 2.17991L15.0541 1.56633L15.9714 1.15728L17.2708 0.816406H19.4876L20.3285 1.02093L21.3222 1.36181L22.2395 1.83904L23.2332 2.58896L24.0741 3.54342L24.6091 4.49787L24.9913 5.65685V7.90664L24.762 8.79292L24.2269 10.0882L23.3861 11.4518L22.3924 12.6789L21.7044 13.4288L20.94 14.1788L20.4049 14.7242L19.029 15.9513L18.4175 16.4286L17.5766 17.1103L16.7358 17.7239L15.5127 18.6102L14.0603 19.5646L12.8373 20.3145L12.5315 20.3827L11.232 19.5646L10.009 18.7465L8.93883 17.9966L7.9451 17.2467L7.10426 16.6331L5.80477 15.5423L4.27596 14.1788L3.74087 13.6334L2.74715 12.5426L1.67698 11.1109L0.912574 9.81555L0.37749 8.45204L0.224609 7.77029V6.06591L0.530372 4.83875L1.06546 3.74794L1.67698 2.99802L2.36494 2.31626L3.35867 1.63451L4.65816 1.08911L5.88121 0.816406ZM5.80477 1.83904L4.65816 2.17991L3.81731 2.58896L2.97647 3.20254L2.44138 3.74794L1.82986 4.63422L1.44766 5.65685L1.37122 6.06591V7.56576L1.67698 8.72474L2.13562 9.74737L2.90003 10.9745L3.9702 12.2699L4.88748 13.2243L5.72833 14.0424L7.25714 15.4059L7.86866 15.8832L8.93883 16.7013L10.1619 17.5875L11.6907 18.6102L12.5315 19.1556L12.8373 19.0874L14.2897 18.1329L15.2834 17.4512L16.1242 16.8376L17.118 16.0877L18.0353 15.3377L18.7997 14.7242L19.9463 13.7015L20.4814 13.1561L21.3222 12.2699L22.3159 11.0427L23.0039 9.9519L23.4625 9.06562L23.8447 7.90664L23.9212 7.42941V6.06591L23.6154 5.04328L23.0039 3.95247L22.163 3.06619L21.3222 2.52079L20.4049 2.11174L19.2583 1.83904H17.3473L16.2007 2.17991L15.3598 2.58896L14.5954 3.13437L13.9075 3.81612L12.7609 5.58868L12.608 5.72503L11.6142 4.157L10.8498 3.27072L10.1619 2.72532L9.09171 2.17991L8.17443 1.90721L7.71578 1.83904H5.80477Z" fill="#040404"/>
</svg>
