<svg width="26" height="21" viewBox="0 0 26 21" fill="none" xmlns="http://www.w3.org/2000/svg">
<path d="M14.4598 0.816406H11.6121L10.145 1.02093L9.45468 1.15728L7.81507 1.63451L6.17546 2.31626L5.05362 2.99802L4.19067 3.61159L3.50031 4.157L2.63736 5.04328L1.77441 6.20226L1.08404 7.49759L0.652568 8.92927L0.566274 9.33832V11.7926L0.911453 13.2243L1.60181 14.656L2.37847 15.815L3.24143 16.7694L4.27697 17.6557L5.22622 18.3375L6.52065 19.0192L7.81507 19.5646L9.36839 20.0418L11.0943 20.3145L11.6984 20.3827H14.3735L15.8405 20.1782L17.9116 19.6328L19.0335 19.1556L19.5512 19.2237L21.6223 19.6328L23.4345 20.0418L24.8152 20.3145L25.333 20.3827L25.1604 19.7691L24.7289 18.4056L24.2112 16.974L23.7797 15.6786L23.866 15.2696L24.3838 14.4515L24.9015 13.3607L25.333 11.6563V9.6792L25.0741 8.31569L24.3838 6.67948L23.6071 5.5205L22.8304 4.63422L21.8812 3.74795L20.7594 2.92984L19.3786 2.17991L17.739 1.49816L16.5309 1.15728L14.9776 0.884582L14.4598 0.816406ZM14.4598 1.83904L15.7542 2.04356L17.0487 2.38444L18.4294 2.92984L19.6375 3.54342L20.8457 4.36152L21.6223 5.04328L22.4853 5.99773L23.1756 7.08854L23.6934 8.17934L24.0386 9.47467V11.6563L23.6934 13.0198L23.003 14.3833L22.399 15.2696L22.5716 15.9513L23.1756 17.8602L23.5208 18.7465V18.951L22.9167 18.8829L20.7594 18.4056L19.0335 18.0648L18.602 18.2011L17.2213 18.7465L16.0131 19.0874L14.9776 19.2919L14.3735 19.3601H11.6121L10.145 19.1556L8.24655 18.6102L6.69324 17.9284L5.31251 17.0421L4.53585 16.4286L3.6729 15.5423L2.89625 14.4515L2.37847 13.4288L1.947 12.2017L1.8607 11.8608V9.33832L2.11959 8.31569L2.63736 7.15671L3.32772 6.06591L4.19067 5.11145L5.13992 4.29335L6.08917 3.61159L7.3836 2.92984L8.85062 2.38444L10.4902 1.97539L11.3532 1.83904H14.4598Z" fill="#050505"/>
</svg>
