<svg width="25" height="26" viewBox="0 0 25 26" fill="none" xmlns="http://www.w3.org/2000/svg">
<path d="M0.175781 0.621094H24.9425V25.079L24.4087 24.9086L22.5939 23.9711L20.2454 22.7781L17.5765 21.4146L14.9077 20.0511L12.7727 18.9432L12.2389 19.0284L10.3173 19.9658L8.71603 20.818L6.68772 21.8407L4.0189 23.2042L1.35007 24.5677L0.389288 25.079H0.175781V0.621094ZM1.77708 1.81416V22.7781L2.20409 22.6076L4.12565 21.6702L6.58097 20.3919L8.92954 19.1989L11.5984 17.8354L12.4524 17.4093L12.9862 17.5797L14.9077 18.5171L16.509 19.3693L18.5373 20.3919L21.2062 21.7554L23.021 22.6929L23.3412 22.7781V1.81416H1.77708Z" fill="url(#paint0_linear_18_1658)"/>
<defs>
<linearGradient id="paint0_linear_18_1658" x1="12.5591" y1="0.621094" x2="13.3324" y2="30.4718" gradientUnits="userSpaceOnUse">
<stop stop-color="white"/>
<stop offset="1" stop-color="#C2ADFF"/>
</linearGradient>
</defs>
</svg>
