<svg width="25" height="21" viewBox="0 0 25 21" fill="none" xmlns="http://www.w3.org/2000/svg">
<path d="M5.95765 0.816406H7.63934L8.78595 1.02022L10.009 1.49579L10.8498 1.97136L11.6143 2.58281L12.3022 3.2622L12.608 3.66983L12.9137 3.39807L13.3724 2.85456L14.2897 2.0393L15.5127 1.35992L16.5064 1.02022L17.5002 0.816406H19.2583L20.4814 1.08816L21.7044 1.56373L22.6981 2.17518L23.539 2.9225L24.0741 3.60189L24.6856 4.68891L24.9913 5.77592V7.88202L24.762 8.83316L24.3034 9.92018L23.539 11.211L22.9275 12.0263L21.9337 13.1812L21.2458 13.8606L20.7107 14.4041L18.5703 16.3064L17.9588 16.782L16.8886 17.5972L15.8185 18.3446L14.4426 19.2957L12.9902 20.1789L12.608 20.3827L11.0792 19.4316L9.47392 18.3446L8.25087 17.4614L7.1807 16.6461L6.26341 15.8988L5.1168 14.9476L4.04664 13.9286L3.12935 12.9774L2.13562 11.7545L1.44766 10.7354L0.836134 9.64842L0.37749 8.42553L0.224609 7.61027V6.25149L0.37749 5.30035L0.759693 4.34921L1.29478 3.46601L1.9063 2.78663L2.67071 2.10724L3.81732 1.42785L4.96392 1.02022L5.95765 0.816406Z" fill="url(#paint0_linear_18_1655)"/>
<defs>
<linearGradient id="paint0_linear_18_1655" x1="12.608" y1="5.38188" x2="12.608" y2="19.7305" gradientUnits="userSpaceOnUse">
<stop stop-color="#E61818"/>
<stop offset="0.744792" stop-color="#FE3A3A" stop-opacity="0.34"/>
</linearGradient>
</defs>
</svg>
