<svg width="26" height="21" viewBox="0 0 26 21" fill="none" xmlns="http://www.w3.org/2000/svg">
<path d="M6.49964 0.816406H8.18133L9.32794 1.02022L10.551 1.49579L11.3918 1.97136L12.1562 2.58281L12.8442 3.2622L13.15 3.66983L13.4557 3.39807L13.9144 2.85456L14.8317 2.0393L16.0547 1.35992L17.0484 1.02022L18.0422 0.816406H19.8003L21.0233 1.08816L22.2464 1.56373L23.2401 2.17518L24.081 2.9225L24.6161 3.60189L25.2276 4.68891L25.5333 5.77592V7.88202L25.304 8.83316L24.8454 9.92018L24.081 11.211L23.4694 12.0263L22.4757 13.1812L21.7878 13.8606L21.2527 14.4041L19.1123 16.3064L18.5008 16.782L17.4306 17.5972L16.3605 18.3446L14.9845 19.2957L13.5322 20.1789L13.15 20.3827L11.6212 19.4316L10.0159 18.3446L8.79286 17.4614L7.72269 16.6461L6.8054 15.8988L5.6588 14.9476L4.58863 13.9286L3.67134 12.9774L2.67762 11.7545L1.98965 10.7354L1.37813 9.64842L0.919483 8.42553L0.766602 7.61027V6.25149L0.919483 5.30035L1.30169 4.34921L1.83677 3.46601L2.44829 2.78663L3.2127 2.10724L4.35931 1.42785L5.50592 1.02022L6.49964 0.816406Z" fill="url(#paint0_linear_18_1633)"/>
<defs>
<linearGradient id="paint0_linear_18_1633" x1="13.15" y1="5.38188" x2="13.15" y2="19.7305" gradientUnits="userSpaceOnUse">
<stop stop-color="#E61818"/>
<stop offset="0.744792" stop-color="#FE3A3A" stop-opacity="0.34"/>
</linearGradient>
</defs>
</svg>
