<svg width="26" height="21" viewBox="0 0 26 21" fill="none" xmlns="http://www.w3.org/2000/svg">
<path d="M6.4232 0.816406H8.4871L9.32794 1.02093L10.3217 1.36181L11.239 1.83904L12.0798 2.45261L12.6913 3.06619L13.15 3.67977L13.4557 3.33889L14.0673 2.65714L14.6023 2.17991L15.5961 1.56633L16.5134 1.15728L17.8128 0.816406H20.0296L20.8705 1.02093L21.8642 1.36181L22.7815 1.83904L23.7752 2.58896L24.616 3.54342L25.1511 4.49787L25.5333 5.65685V7.90664L25.304 8.79292L24.7689 10.0882L23.9281 11.4518L22.9344 12.6789L22.2464 13.4288L21.482 14.1788L20.9469 14.7242L19.571 15.9513L18.9594 16.4286L18.1186 17.1103L17.2778 17.7239L16.0547 18.6102L14.6023 19.5646L13.3793 20.3145L13.0735 20.3827L11.774 19.5646L10.551 18.7465L9.48082 17.9966L8.4871 17.2467L7.64625 16.6331L6.34676 15.5423L4.81795 14.1788L4.28287 13.6334L3.28914 12.5426L2.21897 11.1109L1.45457 9.81555L0.919483 8.45204L0.766602 7.77029V6.06591L1.07236 4.83875L1.60745 3.74794L2.21897 2.99802L2.90694 2.31626L3.90066 1.63451L5.20015 1.08911L6.4232 0.816406ZM6.34676 1.83904L5.20015 2.17991L4.35931 2.58896L3.51846 3.20254L2.98338 3.74794L2.37185 4.63422L1.98965 5.65685L1.91321 6.06591V7.56576L2.21897 8.72474L2.67761 9.74737L3.44202 10.9745L4.51219 12.2699L5.42947 13.2243L6.27032 14.0424L7.79913 15.4059L8.41066 15.8832L9.48082 16.7013L10.7039 17.5875L12.2327 18.6102L13.0735 19.1556L13.3793 19.0874L14.8317 18.1329L15.8254 17.4512L16.6662 16.8376L17.66 16.0877L18.5772 15.3377L19.3417 14.7242L20.4883 13.7015L21.0233 13.1561L21.8642 12.2699L22.8579 11.0427L23.5459 9.9519L24.0045 9.06562L24.3867 7.90664L24.4632 7.42941V6.06591L24.1574 5.04328L23.5459 3.95247L22.705 3.06619L21.8642 2.52079L20.9469 2.11174L19.8003 1.83904H17.8893L16.7427 2.17991L15.9018 2.58896L15.1374 3.13437L14.4495 3.81612L13.3028 5.58868L13.15 5.72503L12.1562 4.157L11.3918 3.27072L10.7039 2.72532L9.6337 2.17991L8.71642 1.90721L8.25777 1.83904H6.34676Z" fill="#040404"/>
</svg>
