<svg width="25" height="21" viewBox="0 0 25 21" fill="none" xmlns="http://www.w3.org/2000/svg">
<path d="M14.0018 0.816406H11.1541L9.68704 1.02093L8.99668 1.15728L7.35707 1.63451L5.71746 2.31626L4.59562 2.99802L3.73267 3.61159L3.0423 4.157L2.17935 5.04328L1.3164 6.20226L0.626037 7.49759L0.19456 8.92927L0.108266 9.33832V11.7926L0.453445 13.2243L1.14381 14.656L1.92046 15.815L2.78342 16.7694L3.81896 17.6557L4.76821 18.3375L6.06264 19.0192L7.35707 19.5646L8.91038 20.0418L10.6363 20.3145L11.2404 20.3827H13.9155L15.3825 20.1782L17.4536 19.6328L18.5754 19.1556L19.0932 19.2237L21.1643 19.6328L22.9765 20.0418L24.3572 20.3145L24.875 20.3827L24.7024 19.7691L24.2709 18.4056L23.7532 16.974L23.3217 15.6786L23.408 15.2696L23.9258 14.4515L24.4435 13.3607L24.875 11.6563V9.6792L24.6161 8.31569L23.9258 6.67948L23.1491 5.5205L22.3724 4.63422L21.4232 3.74795L20.3014 2.92984L18.9206 2.17991L17.281 1.49816L16.0729 1.15728L14.5196 0.884582L14.0018 0.816406ZM14.0018 1.83904L15.2962 2.04356L16.5907 2.38444L17.9714 2.92984L19.1795 3.54342L20.3876 4.36152L21.1643 5.04328L22.0273 5.99773L22.7176 7.08854L23.2354 8.17934L23.5806 9.47467V11.6563L23.2354 13.0198L22.545 14.3833L21.941 15.2696L22.1136 15.9513L22.7176 17.8602L23.0628 18.7465V18.951L22.4587 18.8829L20.3014 18.4056L18.5754 18.0648L18.144 18.2011L16.7632 18.7465L15.5551 19.0874L14.5196 19.2919L13.9155 19.3601H11.1541L9.68704 19.1556L7.78854 18.6102L6.23523 17.9284L4.8545 17.0421L4.07785 16.4286L3.21489 15.5423L2.43824 14.4515L1.92046 13.4288L1.48899 12.2017L1.40269 11.8608V9.33832L1.66158 8.31569L2.17935 7.15671L2.86971 6.06591L3.73267 5.11145L4.68191 4.29335L5.63116 3.61159L6.92559 2.92984L8.39261 2.38444L10.0322 1.97539L10.8952 1.83904H14.0018Z" fill="#050505"/>
</svg>
