<svg width="220" height="220" viewBox="0 0 220 220" fill="none" xmlns="http://www.w3.org/2000/svg">
<circle cx="110" cy="110" r="110" fill="#9886CF"/>
<path fill-rule="evenodd" clip-rule="evenodd" d="M105.693 36.1771C101.186 38.9281 101.35 37.7133 100.993 70.9588L100.671 100.939L70.7199 101.261C43.518 101.554 40.6087 101.688 39.0367 102.72C35.1847 105.247 33.9543 109.592 35.9331 113.684C38.5598 119.115 37.4961 118.95 71.2315 119.16L100.993 119.345V148.692C100.993 174.308 101.124 178.316 102.027 180.219C105.029 186.552 114.949 186.606 117.937 180.305C118.891 178.291 119.011 174.769 119.011 148.668V119.297L148.129 119.282C175.6 119.269 177.404 119.197 180.01 118.013C182.179 117.028 183.049 116.132 184.062 113.842C185.723 110.082 185.193 106.991 182.353 103.889L180.243 101.583L149.788 101.261L119.333 100.939L119.011 70.9588C118.716 43.4692 118.593 40.8302 117.529 39.2051C114.867 35.142 109.598 33.7939 105.693 36.1771Z" fill="url(#paint0_radial_18_281)"/>
<defs>
<radialGradient id="paint0_radial_18_281" cx="0" cy="0" r="1" gradientUnits="userSpaceOnUse" gradientTransform="translate(110 110) rotate(90) scale(75)">
<stop stop-color="#0E0627" stop-opacity="0.5"/>
<stop offset="0.608333" stop-color="#4F446D"/>
</radialGradient>
</defs>
</svg>
