<svg width="50" height="50" viewBox="0 0 50 50" fill="none" xmlns="http://www.w3.org/2000/svg">
<circle cx="25" cy="25" r="25" fill="url(#paint0_linear_18_2284)"/>
<path fill-rule="evenodd" clip-rule="evenodd" d="M23.7822 13.1962C23.0309 13.6547 23.0583 13.4522 22.9989 18.9931L22.9452 23.9899L17.9533 24.0435C13.4197 24.0923 12.9348 24.1146 12.6728 24.2866C12.0308 24.7078 11.8257 25.432 12.1555 26.1139C12.5933 27.0191 12.416 26.9917 18.0386 27.0267L22.9989 27.0576V31.9487C22.9989 36.218 23.0207 36.8859 23.1711 37.2032C23.6715 38.2587 25.3249 38.2677 25.8228 37.2176C25.9819 36.8818 26.0019 36.2949 26.0019 31.9446V27.0494L30.8549 27.0471C35.4333 27.0448 35.734 27.0329 36.1684 26.8356C36.5299 26.6713 36.6749 26.522 36.8436 26.1404C37.1205 25.5136 37.0322 24.9984 36.5589 24.4814L36.2072 24.0972L31.1314 24.0435L26.0555 23.9899L26.0019 18.9931C25.9527 14.4115 25.9321 13.9717 25.7548 13.7008C25.3112 13.0237 24.433 12.799 23.7822 13.1962Z" fill="url(#paint1_linear_18_2284)"/>
<defs>
<linearGradient id="paint0_linear_18_2284" x1="25" y1="0" x2="25" y2="50" gradientUnits="userSpaceOnUse">
<stop stop-color="white"/>
<stop offset="1" stop-color="#C2ADFF"/>
</linearGradient>
<linearGradient id="paint1_linear_18_2284" x1="24.5" y1="13" x2="24.5" y2="38" gradientUnits="userSpaceOnUse">
<stop stop-color="#8F69FD" stop-opacity="0"/>
<stop offset="1" stop-color="#9886CF"/>
</linearGradient>
</defs>
</svg>
