<svg width="25" height="25" viewBox="0 0 25 25" fill="none" xmlns="http://www.w3.org/2000/svg">
<path fill-rule="evenodd" clip-rule="evenodd" d="M11.7822 0.196184C11.0309 0.654688 11.0583 0.452221 10.9989 5.99313L10.9452 10.9899L5.95332 11.0435C1.41966 11.0923 0.934787 11.1146 0.672776 11.2866C0.0307803 11.7078 -0.174281 12.432 0.155512 13.1139C0.593304 14.0191 0.41602 13.9917 6.03858 14.0267L10.9989 14.0576V18.9487C10.9989 23.218 11.0207 23.8859 11.1711 24.2032C11.6715 25.2587 13.3249 25.2677 13.8228 24.2176C13.9819 23.8818 14.0019 23.2949 14.0019 18.9446V14.0494L18.8549 14.0471C23.4333 14.0448 23.734 14.0329 24.1684 13.8356C24.5299 13.6713 24.6749 13.522 24.8436 13.1404C25.1205 12.5136 25.0322 11.9984 24.5589 11.4814L24.2072 11.0972L19.1314 11.0435L14.0555 10.9899L14.0019 5.99313C13.9527 1.41153 13.9321 0.971701 13.7548 0.70085C13.3112 0.023668 12.433 -0.201021 11.7822 0.196184Z" fill="url(#paint0_linear_18_2266)"/>
<defs>
<linearGradient id="paint0_linear_18_2266" x1="12.5" y1="0" x2="12.5" y2="25" gradientUnits="userSpaceOnUse">
<stop stop-color="#8F69FD" stop-opacity="0"/>
<stop offset="1" stop-color="#9886CF"/>
</linearGradient>
</defs>
</svg>
