<svg width="15" height="15" viewBox="0 0 15 15" fill="none" xmlns="http://www.w3.org/2000/svg">
<path d="M7.40102 0H7.59898L7.99492 0.0152284L8.34518 0.0456853L8.6802 0.0913706L8.97716 0.14467L9.28934 0.213198L9.60152 0.296954L9.86802 0.380711L10.0888 0.456853L10.401 0.57868L10.6218 0.677665L10.8731 0.799492L11.0254 0.875634L11.2005 0.974619L11.3604 1.06599L11.5431 1.1802L11.7259 1.30203L11.8477 1.38579L11.9924 1.49239L12.1294 1.59898L12.236 1.68274L12.3426 1.77411L12.4416 1.85787L12.533 1.94162L12.5939 1.99492L12.7157 2.10914L12.9518 2.34518L13.0051 2.40609L13.1117 2.5203L13.165 2.58122L13.2563 2.68782L13.3401 2.79442L13.4391 2.91624L13.5533 3.06853L13.6523 3.20558L13.7741 3.38832L13.8807 3.55584L13.9949 3.74619L14.1015 3.93655L14.2157 4.15736L14.3376 4.40863L14.4365 4.63706L14.5508 4.93401L14.6574 5.24619L14.764 5.61929L14.8401 5.9467L14.901 6.27411L14.9467 6.59391L14.9772 6.89848L14.9924 7.14213L15 7.3934V7.6066L14.9924 7.85787L14.9695 8.19289L14.9315 8.52792L14.8706 8.90102L14.8096 9.19036L14.7335 9.49492L14.6421 9.79949L14.5431 10.0888L14.4289 10.3782L14.3299 10.6066L14.2005 10.8731L14.1244 11.0254L14.0254 11.2005L13.934 11.3604L13.8198 11.5431L13.698 11.7259L13.5914 11.8782L13.4848 12.0228L13.401 12.1294L13.302 12.2513L13.2335 12.335L13.1421 12.4416L13.066 12.5254L13.0127 12.5863L12.8909 12.7157L12.6472 12.9594L12.5863 13.0127L12.4721 13.1193L12.3883 13.1878L12.3122 13.2563L12.2056 13.3401L12.1142 13.4162L11.9924 13.5076L11.8477 13.6142L11.6726 13.736L11.5431 13.8198L11.3832 13.9188L11.2157 14.0178L11.033 14.1168L10.8883 14.1929L10.6751 14.2995L10.401 14.4213L10.1878 14.5051L9.95939 14.5888L9.65482 14.6878L9.38071 14.764L9.09137 14.8325L8.77919 14.8934L8.47462 14.9391L8.20051 14.9695L7.8731 14.9924L7.64467 15H7.34772L6.98985 14.9848L6.65482 14.9543L6.31218 14.9086L5.97716 14.8477L5.6802 14.7792L5.42132 14.7107L5.17005 14.6345L4.88832 14.5355L4.67513 14.4518L4.47716 14.368L4.26396 14.269L4.0736 14.1777L3.90609 14.0863L3.71574 13.9797L3.56345 13.8883L3.39594 13.7817L3.22843 13.6675L3.09898 13.5761L2.97716 13.4848L2.87817 13.4086L2.75635 13.3096L2.67259 13.2411L2.56599 13.1497L2.48223 13.0736L2.42132 13.0203L2.29949 12.9061L2.02538 12.632L1.97208 12.5711L1.8731 12.4645L1.80457 12.3807L1.73604 12.3046L1.65228 12.198L1.5533 12.0761L1.46193 11.9543L1.36294 11.8173L1.19543 11.566L1.08883 11.3985L0.982233 11.2157L0.86802 11.0102L0.746193 10.7741L0.63198 10.5228L0.540609 10.3096L0.426396 10.0051L0.335025 9.73096L0.258883 9.47208L0.175127 9.12944L0.114213 8.82487L0.0685279 8.53553L0.0304569 8.20051L0.00761421 7.88071L0 7.6599V7.3401L0.0152284 6.98985L0.0456853 6.64721L0.0913706 6.31218L0.152284 5.97716L0.220812 5.6802L0.28934 5.42132L0.395939 5.07868L0.48731 4.82741L0.601523 4.54569L0.715736 4.29442L0.822335 4.0736L0.913706 3.90609L1.0203 3.71574L1.11168 3.56345L1.21827 3.39594L1.33249 3.22843L1.42386 3.09898L1.54569 2.93909L1.62183 2.8401L1.72081 2.71827L1.80457 2.61929L1.89594 2.51269L2.00254 2.39848L2.08629 2.30711L2.36802 2.02538L2.42893 1.97208L2.52792 1.88071L2.58883 1.82741L2.68782 1.74365L2.81726 1.63706L2.9467 1.53807L3.1066 1.41624L3.22843 1.33249L3.45685 1.1802L3.60152 1.08883L3.78426 0.982233L4.00508 0.860406L4.3401 0.692893L4.59898 0.57868L4.91117 0.456853L5.26904 0.335025L5.58883 0.243655L5.90863 0.167513L6.17513 0.114213L6.53299 0.0609137L6.80711 0.0304569L7.14975 0.00761421L7.40102 0Z" fill="url(#paint0_linear_18_1010)"/>
<path d="M7.40102 0H7.59898L7.99492 0.0152284L8.34518 0.0456853L8.6802 0.0913706L8.97716 0.14467L9.28934 0.213198L9.60152 0.296954L9.86802 0.380711L10.0888 0.456853L10.401 0.57868L10.6218 0.677665L10.8731 0.799492L11.0254 0.875634L11.2005 0.974619L11.3604 1.06599L11.5431 1.1802L11.7259 1.30203L11.8477 1.38579L11.9924 1.49239L12.1294 1.59898L12.236 1.68274L12.3426 1.77411L12.4416 1.85787L12.533 1.94162L12.5939 1.99492L12.7157 2.10914L12.9518 2.34518L13.0051 2.40609L13.1117 2.5203L13.165 2.58122L13.2563 2.68782L13.3401 2.79442L13.4391 2.91624L13.5533 3.06853L13.6523 3.20558L13.7741 3.38832L13.8807 3.55584L13.9949 3.74619L14.1015 3.93655L14.2157 4.15736L14.3376 4.40863L14.4365 4.63706L14.5508 4.93401L14.6574 5.24619L14.764 5.61929L14.8401 5.9467L14.901 6.27411L14.9467 6.59391L14.9772 6.89848L14.9924 7.14213L15 7.3934V7.6066L14.9924 7.85787L14.9695 8.19289L14.9315 8.52792L14.8706 8.90102L14.8096 9.19036L14.7335 9.49492L14.6421 9.79949L14.5431 10.0888L14.4289 10.3782L14.3299 10.6066L14.2005 10.8731L14.1244 11.0254L14.0254 11.2005L13.934 11.3604L13.8198 11.5431L13.698 11.7259L13.5914 11.8782L13.4848 12.0228L13.401 12.1294L13.302 12.2513L13.2335 12.335L13.1421 12.4416L13.066 12.5254L13.0127 12.5863L12.8909 12.7157L12.6472 12.9594L12.5863 13.0127L12.4721 13.1193L12.3883 13.1878L12.3122 13.2563L12.2056 13.3401L12.1142 13.4162L11.9924 13.5076L11.8477 13.6142L11.6726 13.736L11.5431 13.8198L11.3832 13.9188L11.2157 14.0178L11.033 14.1168L10.8883 14.1929L10.6751 14.2995L10.401 14.4213L10.1878 14.5051L9.95939 14.5888L9.65482 14.6878L9.38071 14.764L9.09137 14.8325L8.77919 14.8934L8.47462 14.9391L8.20051 14.9695L7.8731 14.9924L7.64467 15H7.34772L6.98985 14.9848L6.65482 14.9543L6.31218 14.9086L5.97716 14.8477L5.6802 14.7792L5.42132 14.7107L5.17005 14.6345L4.88832 14.5355L4.67513 14.4518L4.47716 14.368L4.26396 14.269L4.0736 14.1777L3.90609 14.0863L3.71574 13.9797L3.56345 13.8883L3.39594 13.7817L3.22843 13.6675L3.09898 13.5761L2.97716 13.4848L2.87817 13.4086L2.75635 13.3096L2.67259 13.2411L2.56599 13.1497L2.48223 13.0736L2.42132 13.0203L2.29949 12.9061L2.02538 12.632L1.97208 12.5711L1.8731 12.4645L1.80457 12.3807L1.73604 12.3046L1.65228 12.198L1.5533 12.0761L1.46193 11.9543L1.36294 11.8173L1.19543 11.566L1.08883 11.3985L0.982233 11.2157L0.86802 11.0102L0.746193 10.7741L0.63198 10.5228L0.540609 10.3096L0.426396 10.0051L0.335025 9.73096L0.258883 9.47208L0.175127 9.12944L0.114213 8.82487L0.0685279 8.53553L0.0304569 8.20051L0.00761421 7.88071L0 7.6599V7.3401L0.0152284 6.98985L0.0456853 6.64721L0.0913706 6.31218L0.152284 5.97716L0.220812 5.6802L0.28934 5.42132L0.395939 5.07868L0.48731 4.82741L0.601523 4.54569L0.715736 4.29442L0.822335 4.0736L0.913706 3.90609L1.0203 3.71574L1.11168 3.56345L1.21827 3.39594L1.33249 3.22843L1.42386 3.09898L1.54569 2.93909L1.62183 2.8401L1.72081 2.71827L1.80457 2.61929L1.89594 2.51269L2.00254 2.39848L2.08629 2.30711L2.36802 2.02538L2.42893 1.97208L2.52792 1.88071L2.58883 1.82741L2.68782 1.74365L2.81726 1.63706L2.9467 1.53807L3.1066 1.41624L3.22843 1.33249L3.45685 1.1802L3.60152 1.08883L3.78426 0.982233L4.00508 0.860406L4.3401 0.692893L4.59898 0.57868L4.91117 0.456853L5.26904 0.335025L5.58883 0.243655L5.90863 0.167513L6.17513 0.114213L6.53299 0.0609137L6.80711 0.0304569L7.14975 0.00761421L7.40102 0ZM7.24112 0.860406L6.967 0.875634L6.67005 0.906091L6.53299 0.92132L6.44162 0.936548L6.25888 0.967005L6 1.0203L5.87817 1.05076L5.70305 1.09645L5.52792 1.14975L5.25381 1.24112L5.04822 1.31726L4.78173 1.43147L4.50761 1.56091L4.29442 1.67513L4.13452 1.7665L3.93655 1.88832L3.82233 1.96447L3.67766 2.06345L3.53299 2.17005L3.43401 2.24619L3.35787 2.30711L3.27411 2.37563L3.17513 2.45939L3.09898 2.52792L3.03807 2.58122L2.93909 2.67259L2.65736 2.95431L2.60406 3.01523L2.5203 3.1066L2.45178 3.19036L2.36041 3.29695L2.26142 3.4264L2.16244 3.55584L2.07107 3.68528L1.91878 3.91371L1.8198 4.0736L1.69797 4.2868L1.56853 4.53807L1.46954 4.74365L1.34772 5.03299L1.26396 5.26142L1.18782 5.48985L1.14213 5.65736L1.09645 5.81726L1.0203 6.15228L0.974619 6.41878L0.936548 6.70051L0.906091 7.06599L0.898477 7.21827V7.62944L0.913706 7.88832L0.936548 8.14721L0.967005 8.41371L0.997462 8.5736L1.03553 8.7868L1.08883 9.02284L1.14213 9.22843L1.17259 9.3198L1.20305 9.41878L1.29442 9.69289L1.40863 9.98223L1.5 10.1878L1.6066 10.4086L1.7132 10.6142L1.8198 10.797L1.9264 10.9721L2.00254 11.0863L2.10152 11.231L2.20812 11.3756L2.28426 11.4746L2.34518 11.5508L2.44416 11.6726L2.54315 11.7868L2.63452 11.8858L2.70305 11.9619L2.80964 12.0685L2.84772 12.1066L3.00761 12.2665L3.06853 12.3198L3.15228 12.3959L3.23604 12.4645L3.34264 12.5558L3.47208 12.6548L3.57107 12.731L3.70812 12.8299L3.93655 12.9822L4.09645 13.0812L4.24112 13.165L4.40863 13.2563L4.62944 13.3706L4.81218 13.4543L5.08629 13.5685L5.31472 13.6523L5.61929 13.7513L5.81726 13.8046L6.04569 13.8579L6.17513 13.8883L6.47208 13.9416L6.86802 13.9873L7.10406 14.0025L7.24112 14.0102H7.69797L7.90355 14.0025L8.23858 13.9721L8.45939 13.9416L8.68782 13.9036L8.87056 13.8655L9.04569 13.8274L9.28173 13.7665L9.47208 13.7056L9.78426 13.599L10.0508 13.4924L10.302 13.3782L10.4772 13.2944L10.6447 13.203L10.8198 13.1041L11.0178 12.9822L11.132 12.9061L11.2538 12.8223L11.3909 12.7233L11.4898 12.6472L11.5964 12.5635L11.6802 12.4949L11.7868 12.4036L11.8629 12.335L11.9239 12.2817L12.0381 12.1751L12.2817 11.9315L12.335 11.8706L12.4264 11.7716L12.4949 11.6878L12.5863 11.5812L12.6472 11.5051L12.7462 11.3756L12.8452 11.2386L12.9518 11.0863L13.0584 10.9188L13.1726 10.7284L13.2792 10.5381L13.4086 10.2868L13.5305 10.0127L13.6142 9.80711L13.698 9.57868L13.7741 9.34264L13.8198 9.18274L13.8731 8.98477L13.934 8.70305L13.9949 8.34518L14.0254 8.07107L14.0482 7.78934V7.08883L14.0254 6.79949L13.9949 6.53299L13.9569 6.28934L13.9188 6.09898L13.8731 5.88579L13.835 5.7335L13.7893 5.5736L13.7208 5.35279L13.6371 5.11675L13.5228 4.83503L13.4315 4.63706L13.3401 4.4467L13.2259 4.2335L13.1193 4.05076L13.0051 3.86802L12.9289 3.75381L12.8223 3.60152L12.7157 3.45685L12.632 3.35025L12.533 3.22843L12.4416 3.12183L12.3655 3.03807L12.3122 2.97716L12.198 2.85533L11.9772 2.63452L11.9162 2.58122L11.8173 2.48985L11.7335 2.42132L11.6193 2.32233L11.5203 2.24619L11.3909 2.14721L11.2538 2.04822L11.0025 1.88071L10.8274 1.77411L10.6827 1.69036L10.5 1.59137L10.2563 1.46954L10.0127 1.36294L9.73858 1.25635L9.47208 1.16497L9.22081 1.08883L9.04569 1.04315L8.72589 0.974619L8.467 0.928934L8.16244 0.890863L7.88071 0.86802L7.69797 0.860406H7.24112Z" fill="#201B1B"/>
<path d="M10.8571 4.4375L10.8876 4.45273L10.9714 4.5441L11.1998 4.77253L11.2531 4.83344L11.4967 5.07709L11.55 5.13801L11.7937 5.38166L11.847 5.44258L12.083 5.67862L12.1059 5.70146L12.0906 5.73192L11.9917 5.8309L11.9384 5.89181L11.8089 6.02126L11.7556 6.08217L11.6186 6.21923L11.5653 6.28014L11.4358 6.40958L11.3825 6.47049L11.2531 6.59994L11.1998 6.66085L11.0627 6.79791L11.0094 6.85882L10.88 6.98826L10.8267 7.04917L10.6972 7.17862L10.6439 7.23953L10.5069 7.37659L10.4536 7.4375L10.3241 7.56694L10.2708 7.62786L10.1414 7.7573L10.0881 7.81821L9.95867 7.94765L9.90537 8.00857L9.76831 8.14562L9.71501 8.20654L9.58557 8.33598L9.53227 8.39689L9.40283 8.52633L9.34953 8.58725L9.21247 8.7243L9.15917 8.78522L9.02973 8.91466L8.97643 8.97557L8.84699 9.10501L8.79369 9.16593L8.65664 9.30298L8.60334 9.3639L8.4739 9.49334L8.4206 9.55425L8.29115 9.68369L8.23785 9.74461L8.1008 9.88166L8.0475 9.94258L7.91806 10.072L7.86476 10.1329L7.73532 10.2624L7.68202 10.3233L7.55258 10.4527L7.49928 10.5136L7.36222 10.6507L7.30892 10.7116L7.17948 10.8411L7.12618 10.902L6.99674 11.0314L6.94344 11.0923L6.80638 11.2294L6.75308 11.2903L6.69978 11.3436L6.66933 11.3284L6.50181 11.1608L6.44851 11.0999L6.31146 10.9629L6.25816 10.902L6.1211 10.7649L6.0678 10.704L5.93075 10.5669L5.87745 10.506L5.74039 10.369L5.68709 10.3081L5.55004 10.171L5.49674 10.1101L5.35968 9.97303L5.30638 9.91212L5.16171 9.76745L5.10841 9.70654L4.97136 9.56948L4.91806 9.50857L4.781 9.37151L4.7277 9.3106L4.59065 9.17354L4.53735 9.11263L4.40029 8.97557L4.34699 8.91466L4.20994 8.7776L4.15664 8.71669L4.01958 8.57963L3.96628 8.51872L3.82923 8.38166L3.77593 8.32075L3.64648 8.19131L3.6541 8.16085L3.89014 7.92481L3.94344 7.8639L4.21755 7.58978L4.27085 7.52887L4.54496 7.25476L4.59826 7.19384L4.78862 7.00349L4.81907 7.01872L6.71501 8.91466L6.74547 8.89943L6.85968 8.7776L6.94344 8.68623L7.03481 8.58725L7.12618 8.48826L7.20994 8.39689L7.30131 8.29791L7.39268 8.19892L7.48405 8.09994L7.57542 8.00095L7.66679 7.90197L7.75055 7.8106L7.84192 7.71161L7.93329 7.61263L8.02466 7.51364L8.11603 7.41466L8.19978 7.32329L8.29115 7.2243L8.38252 7.12532L8.4739 7.02633L8.56527 6.92735L8.64902 6.83598L8.74039 6.73699L8.83176 6.63801L8.92313 6.53902L9.0145 6.44004L9.10588 6.34105L9.18963 6.24968L9.281 6.1507L9.37237 6.05171L9.46374 5.95273L9.55511 5.85374L9.63887 5.76237L9.73024 5.66339L9.82161 5.5644L9.91298 5.46542L10.0044 5.36643L10.0957 5.26745L10.1795 5.17608L10.2708 5.07709L10.3622 4.97811L10.4536 4.87912L10.545 4.78014L10.6287 4.68877L10.7201 4.58978L10.8115 4.4908L10.8571 4.4375Z" fill="#201B1B"/>
<defs>
<linearGradient id="paint0_linear_18_1010" x1="7.5" y1="0" x2="7.5" y2="15" gradientUnits="userSpaceOnUse">
<stop stop-color="white"/>
<stop offset="1" stop-color="white" stop-opacity="0"/>
</linearGradient>
</defs>
</svg>
