<svg width="25" height="25" viewBox="0 0 25 25" fill="none" xmlns="http://www.w3.org/2000/svg">
<path d="M12.5 12.5C16.5299 12.5 19.7917 9.70424 19.7917 6.25C19.7917 2.79576 16.5299 0 12.5 0C8.47005 0 5.20833 2.79576 5.20833 6.25C5.20833 9.70424 8.47005 12.5 12.5 12.5ZM17.5 14.2857H16.9596C15.6055 14.8437 14.1016 15.1786 12.5 15.1786C10.8984 15.1786 9.40104 14.8437 8.04036 14.2857H7.5C3.35937 14.2857 0 17.1652 0 20.7143V22.3214C0 23.8002 1.39974 25 3.125 25H21.875C23.6003 25 25 23.8002 25 22.3214V20.7143C25 17.1652 21.6406 14.2857 17.5 14.2857Z" fill="black"/>
</svg>
