<svg width="20" height="20" viewBox="0 0 20 20" fill="none" xmlns="http://www.w3.org/2000/svg">
<path d="M4.62963 0H5.98766L6.91358 0.208333L7.90124 0.694444L8.58025 1.18056L9.19753 1.80556L9.75309 2.5L10 2.91667L10.2469 2.63889L10.6173 2.08333L11.358 1.25L12.3457 0.555556L13.1481 0.208333L13.9506 0H15.3704L16.358 0.277778L17.3457 0.763889L18.1482 1.38889L18.8272 2.15278L19.2593 2.84722L19.7531 3.95833L20 5.06944V7.22222L19.8148 8.19444L19.4444 9.30556L18.8272 10.625L18.3333 11.4583L17.5309 12.6389L16.9753 13.3333L16.5432 13.8889L14.8148 15.8333L14.321 16.3194L13.4568 17.1528L12.5926 17.9167L11.4815 18.8889L10.3086 19.7917L10 20L8.76543 19.0278L7.46914 17.9167L6.48148 17.0139L5.61728 16.1806L4.87654 15.4167L3.95062 14.4444L3.08642 13.4028L2.34568 12.4306L1.54321 11.1806L0.987654 10.1389L0.493827 9.02778L0.123457 7.77778L0 6.94444V5.55556L0.123457 4.58333L0.432099 3.61111L0.864198 2.70833L1.35802 2.01389L1.97531 1.31944L2.90124 0.625L3.82716 0.208333L4.62963 0Z" fill="url(#paint0_linear_18_2027)"/>
<path d="M4.5679 0H6.23457L6.91358 0.209059L7.71605 0.557491L8.45679 1.0453L9.1358 1.67247L9.62963 2.29965L10 2.92683L10.2469 2.5784L10.7407 1.88153L11.1728 1.39373L11.9753 0.766551L12.716 0.348432L13.7654 0H15.5556L16.2346 0.209059L17.037 0.557491L17.7778 1.0453L18.5802 1.81185L19.2593 2.78746L19.6914 3.76307L20 4.94774V7.24739L19.8148 8.15331L19.3827 9.47735L18.7037 10.8711L17.9012 12.1254L17.3457 12.892L16.7284 13.6585L16.2963 14.216L15.1852 15.4704L14.6914 15.9582L14.0123 16.6551L13.3333 17.2822L12.3457 18.1882L11.1728 19.1638L10.1852 19.9303L9.93827 20L8.88889 19.1638L7.90123 18.3275L7.03704 17.561L6.23457 16.7944L5.55556 16.1672L4.50617 15.0523L3.2716 13.6585L2.83951 13.101L2.03704 11.9861L1.17284 10.5226L0.555556 9.19861L0.123457 7.80488L0 7.10801V5.36585L0.246914 4.1115L0.679012 2.99652L1.17284 2.22997L1.7284 1.5331L2.53086 0.836237L3.58025 0.278746L4.5679 0ZM4.50617 1.0453L3.58025 1.39373L2.90123 1.81185L2.22222 2.43902L1.79012 2.99652L1.2963 3.90244L0.987654 4.94774L0.925926 5.36585V6.89895L1.17284 8.08362L1.54321 9.12892L2.16049 10.3833L3.02469 11.7073L3.76543 12.6829L4.44444 13.5192L5.67901 14.9129L6.17284 15.4007L7.03704 16.2369L8.02469 17.1429L9.25926 18.1882L9.93827 18.7456L10.1852 18.676L11.358 17.7003L12.1605 17.0035L12.8395 16.3763L13.642 15.6098L14.3827 14.8432L15 14.216L15.9259 13.1707L16.358 12.6132L17.037 11.7073L17.8395 10.453L18.3951 9.33798L18.7654 8.43206L19.0741 7.24739L19.1358 6.75958V5.36585L18.8889 4.32056L18.3951 3.20557L17.716 2.29965L17.037 1.74216L16.2963 1.32404L15.3704 1.0453H13.8272L12.9012 1.39373L12.2222 1.81185L11.6049 2.36934L11.0494 3.0662L10.1235 4.87805L10 5.01742L9.19753 3.41463L8.58025 2.50871L8.02469 1.95122L7.16049 1.39373L6.41975 1.11498L6.04938 1.0453H4.50617Z" fill="#040404"/>
<defs>
<linearGradient id="paint0_linear_18_2027" x1="10" y1="4.66667" x2="10" y2="19.3333" gradientUnits="userSpaceOnUse">
<stop stop-color="#E61818"/>
<stop offset="0.744792" stop-color="#FE3A3A" stop-opacity="0.34"/>
</linearGradient>
</defs>
</svg>
