<svg width="20" height="20" viewBox="0 0 20 20" fill="none" xmlns="http://www.w3.org/2000/svg">
<path d="M19.6741 0L19.8003 0.0671141L19.3585 1.67785L18.9166 3.42282L18.6642 4.2953L18.2223 6.04027L17.7805 7.58389L17.4018 9.12752L16.9599 10.6711L16.5812 12.2148L16.1394 13.7584L15.7607 15.302L15.3188 16.8456L14.9401 18.3893L14.4983 19.9329L14.3721 20L13.4884 18.255L12.6047 16.5101L11.7211 14.7651L10.8374 13.0201L10.08 11.5436L9.63815 10.7383L7.87082 9.73154L6.22972 8.79195L4.58863 7.85235L3.07378 6.97987L1.43269 6.04027L0.927734 5.7047L1.11709 5.57047L2.69506 5.10067L4.33616 4.63087L5.78789 4.16107L7.23963 3.75839L8.69136 3.28859L10.2693 2.81879L11.9104 2.34899L13.1728 1.94631L14.7508 1.47651L16.5181 0.939597L18.1592 0.469799L19.6741 0Z" fill="#050505"/>
<path d="M17.2762 1.74512L17.4655 1.81223L10.0175 9.7317L9.63878 9.59747L7.61897 8.45653L6.23036 7.65116L4.46303 6.64445L3.45312 6.04042L3.51624 5.90619L6.3566 5.03371L7.99769 4.56391L9.44942 4.09411L10.4593 3.82565L11.9111 3.35586L12.921 3.0874L14.3727 2.6176L15.8244 2.21492L17.2762 1.74512Z" fill="#9886CF"/>
<path d="M18.0314 2.55078L18.0945 2.75212L17.6527 4.49709L17.4002 5.36957L16.9584 7.11454L16.5165 8.65817L16.1378 10.2018L15.696 11.7454L15.3173 13.289L14.8755 14.8327L14.4967 16.3763L14.1811 17.383L13.9918 17.1817L12.8556 14.8998L12.0982 13.4233L11.1514 11.5441L10.6465 10.5374L10.7727 10.2689L18.0314 2.55078Z" fill="#9886CF"/>
</svg>
