<svg width="50" height="50" viewBox="0 0 50 50" fill="none" xmlns="http://www.w3.org/2000/svg">
<circle cx="25" cy="25" r="25" fill="url(#paint0_linear_18_1958)"/>
<path fill-rule="evenodd" clip-rule="evenodd" d="M24.7822 12.1962C24.0309 12.6547 24.0583 12.4522 23.9989 17.9931L23.9452 22.9899L18.9533 23.0435C14.4197 23.0923 13.9348 23.1146 13.6728 23.2866C13.0308 23.7078 12.8257 24.432 13.1555 25.1139C13.5933 26.0191 13.416 25.9917 19.0386 26.0267L23.9989 26.0576V30.9487C23.9989 35.218 24.0207 35.8859 24.1711 36.2032C24.6715 37.2587 26.3249 37.2677 26.8228 36.2176C26.9819 35.8818 27.0019 35.2949 27.0019 30.9446V26.0494L31.8549 26.0471C36.4333 26.0448 36.734 26.0329 37.1684 25.8356C37.5299 25.6713 37.6749 25.522 37.8436 25.1404C38.1205 24.5136 38.0322 23.9984 37.5589 23.4814L37.2072 23.0972L32.1314 23.0435L27.0555 22.9899L27.0019 17.9931C26.9527 13.4115 26.9321 12.9717 26.7548 12.7008C26.3112 12.0237 25.433 11.799 24.7822 12.1962Z" fill="url(#paint1_linear_18_1958)"/>
<defs>
<linearGradient id="paint0_linear_18_1958" x1="25" y1="0" x2="25" y2="50" gradientUnits="userSpaceOnUse">
<stop stop-color="white"/>
<stop offset="1" stop-color="#C2ADFF"/>
</linearGradient>
<linearGradient id="paint1_linear_18_1958" x1="25.5" y1="12" x2="25.5" y2="37" gradientUnits="userSpaceOnUse">
<stop stop-color="#8F69FD" stop-opacity="0"/>
<stop offset="1" stop-color="#9886CF"/>
</linearGradient>
</defs>
</svg>
