<svg width="20" height="20" viewBox="0 0 20 20" fill="none" xmlns="http://www.w3.org/2000/svg">
<path d="M5.18345 0H6.75616L7.39689 0.209059L8.15413 0.557491L8.85311 1.0453L9.49384 1.67247L9.95983 2.29965L10.3093 2.92683L10.5423 2.5784L11.0083 1.88153L11.416 1.39373L12.1733 0.766551L12.8723 0.348432L13.8625 0H15.5517L16.1924 0.209059L16.9497 0.557491L17.6487 1.0453L18.4059 1.81185L19.0466 2.78746L19.4544 3.76307L19.7456 4.94774V7.24739L19.5709 8.15331L19.1631 9.47735L18.5224 10.8711L17.7652 12.1254L17.2409 12.892L16.6584 13.6585L16.2507 14.216L15.2022 15.4704L14.7362 15.9582L14.0955 16.6551L13.4548 17.2822L12.5228 18.1882L11.416 19.1638L10.4841 19.9303L10.2511 20L9.26085 19.1638L8.32887 18.3275L7.51339 17.561L6.75616 16.7944L6.11542 16.1672L5.1252 15.0523L3.96022 13.6585L3.55248 13.101L2.79525 11.9861L1.97977 10.5226L1.39728 9.19861L0.989544 7.80488L0.873047 7.10801V5.36585L1.10604 4.1115L1.51378 2.99652L1.97977 2.22997L2.50401 1.5331L3.26124 0.836237L4.25147 0.278746L5.18345 0ZM5.1252 1.0453L4.25147 1.39373L3.61073 1.81185L2.97 2.43902L2.56226 2.99652L2.09627 3.90244L1.80502 4.94774L1.74678 5.36585V6.89896L1.97977 8.08362L2.32926 9.12892L2.91175 10.3833L3.72723 11.7073L4.42621 12.6829L5.06695 13.5192L6.23192 14.9129L6.69791 15.4007L7.51339 16.2369L8.44537 17.1429L9.61034 18.1882L10.2511 18.7456L10.4841 18.676L11.5908 17.7004L12.348 17.0035L12.9888 16.3763L13.746 15.6098L14.445 14.8432L15.0275 14.216L15.9012 13.1707L16.3089 12.6132L16.9497 11.7073L17.7069 10.453L18.2311 9.33798L18.5806 8.43206L18.8719 7.24739L18.9301 6.75958V5.36585L18.6971 4.32056L18.2311 3.20558L17.5904 2.29965L16.9497 1.74216L16.2507 1.32404L15.377 1.0453H13.9207L13.047 1.39373L12.4063 1.81185L11.8238 2.36934L11.2996 3.0662L10.4258 4.87805L10.3093 5.01742L9.55209 3.41463L8.96961 2.50871L8.44537 1.95122L7.62989 1.39373L6.9309 1.11498L6.58141 1.0453H5.1252Z" fill="#040404"/>
</svg>
