<svg width="20" height="20" viewBox="0 0 20 20" fill="none" xmlns="http://www.w3.org/2000/svg">
<path d="M11.486 0H9.31596L8.19807 0.209059L7.672 0.348432L6.4226 0.836237L5.1732 1.5331L4.31834 2.22997L3.66076 2.85714L3.1347 3.41463L2.47712 4.32056L1.81954 5.50523L1.29347 6.82927L0.964684 8.29268L0.898927 8.7108V11.2195L1.16196 12.6829L1.68802 14.1463L2.27985 15.331L2.93743 16.3066L3.72652 17.2125L4.44986 17.9094L5.43623 18.6063L6.4226 19.1638L7.60625 19.6516L8.92141 19.9303L9.38171 20H11.4202L12.5381 19.7909L14.1163 19.2335L14.9711 18.7456L15.3657 18.8153L16.9439 19.2335L18.3248 19.6516L19.3769 19.9303L19.7715 20L19.64 19.3728L19.3112 17.9791L18.9166 16.5157L18.5878 15.1916L18.6536 14.7735L19.0481 13.9373L19.4427 12.8223L19.7715 11.0801V9.05923L19.5742 7.66551L19.0481 5.99303L18.4563 4.80836L17.8645 3.90244L17.1412 2.99652L16.2863 2.16028L15.2342 1.39373L13.9848 0.696864L13.0642 0.348432L11.8805 0.0696864L11.486 0ZM11.486 1.0453L12.4723 1.25436L13.4587 1.60279L14.5108 2.16028L15.4315 2.78746L16.3521 3.62369L16.9439 4.32056L17.6015 5.29617L18.1275 6.41115L18.5221 7.52613L18.7851 8.85018V11.0801L18.5221 12.4739L17.996 13.8676L17.5357 14.7735L17.6672 15.4704L18.1275 17.4216L18.3906 18.3275V18.5366L17.9303 18.4669L16.2863 17.9791L14.9711 17.6307L14.6424 17.77L13.5902 18.3275L12.6696 18.676L11.8805 18.885L11.4202 18.9547H9.31596L8.19807 18.7456L6.75139 18.1882L5.56775 17.4913L4.51562 16.5854L3.9238 15.9582L3.26622 15.0523L2.67439 13.9373L2.27985 12.892L1.95106 11.6376L1.8853 11.2892V8.7108L2.08257 7.66551L2.47712 6.48084L3.00318 5.36585L3.66076 4.39024L4.3841 3.55401L5.10744 2.85714L6.09381 2.16028L7.2117 1.60279L8.4611 1.18467L9.11868 1.0453H11.486Z" fill="#050505"/>
</svg>
