<svg width="20" height="25" viewBox="0 0 20 25" fill="none" xmlns="http://www.w3.org/2000/svg">
<path d="M0.886719 0H19.7593V25L19.3525 24.8258L17.9696 23.8676L16.18 22.6481L14.1463 21.2544L12.1126 19.8606L10.4857 18.7282L10.079 18.8153L8.61471 19.7735L7.3945 20.6446L5.8489 21.6899L3.81522 23.0836L1.78154 24.4774L1.04941 25H0.886719V0ZM2.10693 1.21951V22.6481L2.43232 22.4739L3.89657 21.5157L5.76755 20.2091L7.55719 18.9895L9.59087 17.5958L10.2416 17.1603L10.6484 17.3345L12.1126 18.2927L13.3328 19.1638L14.8784 20.2091L16.9121 21.6028L18.295 22.561L18.5391 22.6481V1.21951H2.10693Z" fill="url(#paint0_linear_18_2009)"/>
<defs>
<linearGradient id="paint0_linear_18_2009" x1="10.323" y1="-2.38419e-08" x2="11.3826" y2="30.496" gradientUnits="userSpaceOnUse">
<stop stop-color="white"/>
<stop offset="1" stop-color="#C2ADFF"/>
</linearGradient>
</defs>
</svg>
