<svg width="20" height="20" viewBox="0 0 20 20" fill="none" xmlns="http://www.w3.org/2000/svg">
<path d="M5.24169 0H6.52317L7.39689 0.208333L8.32887 0.694445L8.96961 1.18056L9.55209 1.80556L10.0763 2.5L10.3093 2.91667L10.5423 2.63889L10.8918 2.08333L11.5908 1.25L12.5228 0.555556L13.28 0.208333L14.0372 0H15.377L16.3089 0.277778L17.2409 0.763889L17.9981 1.38889L18.6389 2.15278L19.0466 2.84722L19.5126 3.95833L19.7456 5.06944V7.22222L19.5709 8.19444L19.2214 9.30556L18.6389 10.625L18.1729 11.4583L17.4157 12.6389L16.8914 13.3333L16.4837 13.8889L14.8527 15.8333L14.3867 16.3194L13.5713 17.1528L12.7558 17.9167L11.7073 18.8889L10.6006 19.7917L10.3093 20L9.14435 19.0278L7.92113 17.9167L6.98915 17.0139L6.17367 16.1806L5.47469 15.4167L4.60096 14.4444L3.78548 13.4028L3.0865 12.4306L2.32926 11.1806L1.80503 10.1389L1.33904 9.02778L0.989544 7.77778L0.873047 6.94444V5.55556L0.989544 4.58333L1.28079 3.61111L1.68853 2.70833L2.15452 2.01389L2.737 1.31944L3.61073 0.625L4.48446 0.208333L5.24169 0Z" fill="url(#paint0_linear_18_2006)"/>
<defs>
<linearGradient id="paint0_linear_18_2006" x1="10.3093" y1="4.66667" x2="10.3093" y2="19.3333" gradientUnits="userSpaceOnUse">
<stop stop-color="#E61818"/>
<stop offset="0.744792" stop-color="#FE3A3A" stop-opacity="0.34"/>
</linearGradient>
</defs>
</svg>
